<svg width="26" height="26" viewBox="0 0 26 26" fill="none" xmlns="http://www.w3.org/2000/svg">
<path d="M6.5001 20.5833H19.5001L17.9563 9.75H8.04385L6.5001 20.5833ZM13.0001 7.58333C13.307 7.58333 13.5645 7.47933 13.7725 7.27133C13.9805 7.06333 14.0842 6.80622 14.0834 6.5C14.0834 6.19306 13.9794 5.93558 13.7714 5.72758C13.5634 5.51958 13.3063 5.41594 13.0001 5.41667C12.6932 5.41667 12.4357 5.52067 12.2277 5.72867C12.0197 5.93667 11.916 6.19378 11.9168 6.5C11.9168 6.80694 12.0208 7.06442 12.2288 7.27242C12.4368 7.48042 12.6939 7.58406 13.0001 7.58333ZM16.0605 7.58333H17.9563C18.498 7.58333 18.9675 7.76389 19.3647 8.125C19.7619 8.48611 20.0057 8.92847 20.0959 9.45208L21.6397 20.2854C21.73 20.9354 21.5628 21.5089 21.1381 22.0058C20.7134 22.5026 20.1674 22.7507 19.5001 22.75H6.5001C5.83204 22.75 5.28568 22.5016 4.86101 22.0047C4.43635 21.5078 4.26951 20.9347 4.36051 20.2854L5.90426 9.45208C5.99454 8.92847 6.23829 8.48611 6.63551 8.125C7.03274 7.76389 7.50218 7.58333 8.04385 7.58333H9.93968C9.88551 7.40278 9.84038 7.22692 9.80426 7.05575C9.76815 6.88458 9.7501 6.69933 9.7501 6.5C9.7501 5.59722 10.0661 4.82986 10.698 4.19792C11.33 3.56597 12.0973 3.25 13.0001 3.25C13.9029 3.25 14.6702 3.56597 15.3022 4.19792C15.9341 4.82986 16.2501 5.59722 16.2501 6.5C16.2501 6.69861 16.232 6.88386 16.1959 7.05575C16.1598 7.22764 16.1147 7.4035 16.0605 7.58333Z" fill="#9098AC"/>
</svg>
