<svg width="70" height="70" viewBox="0 0 70 70" fill="none" xmlns="http://www.w3.org/2000/svg">
<circle cx="35" cy="35" r="35" fill="#2E2E2E"/>
<path d="M32.9771 15.2916C33.5959 14.9479 34.2921 14.7676 35 14.7676C35.7079 14.7676 36.4041 14.9479 37.0229 15.2916L52.6792 23.9874C53.0038 24.1679 53.2742 24.4319 53.4625 24.7521C53.6507 25.0722 53.75 25.4369 53.75 25.8083V42.9645C53.7498 43.7075 53.551 44.437 53.174 45.0773C52.7971 45.7176 52.2558 46.2454 51.6063 46.6062L37.0229 54.7103C36.4041 55.054 35.7079 55.2344 35 55.2344C34.2921 55.2344 33.5959 55.054 32.9771 54.7103L18.3937 46.6062C17.7445 46.2456 17.2034 45.7181 16.8265 45.0782C16.4496 44.4383 16.2505 43.7092 16.25 42.9666V25.8083C16.25 25.4369 16.3493 25.0722 16.5375 24.7521C16.7258 24.4319 16.9962 24.1679 17.3208 23.9874L32.9771 15.2916Z" stroke="#F8F8F8" stroke-width="4" stroke-linecap="round" stroke-linejoin="round"/>
<path d="M25.625 19.375L44.375 29.7917V37.0833M22.5 35.6833L28.75 39.1667" stroke="#F8F8F8" stroke-width="4" stroke-linecap="round" stroke-linejoin="round"/>
<path d="M16.25 24.5833L35 34.9999M35 34.9999L53.75 24.5833M35 34.9999V55.8333" stroke="#F8F8F8" stroke-width="4" stroke-linejoin="round"/>
</svg>
