<svg width="567" height="280" viewBox="0 0 567 280" fill="none" xmlns="http://www.w3.org/2000/svg">
<g style="mix-blend-mode:multiply">
<path d="M360.637 255.739C288.963 255.739 230.859 254.026 230.859 251.913C230.859 249.8 288.963 248.087 360.637 248.087C432.311 248.087 490.414 249.8 490.414 251.913C490.414 254.026 432.311 255.739 360.637 255.739Z" fill="#342447"/>
</g>
<g style="mix-blend-mode:multiply">
<path d="M0.593991 265.042C0.593991 267.114 62.6182 268.774 139.124 268.774C215.63 268.774 277.673 267.114 277.673 265.042C277.673 262.971 215.649 261.31 139.134 261.31C62.6182 261.31 0.593991 262.961 0.593991 265.042Z" fill="#342447"/>
</g>
<path d="M520.853 211.062L556.47 210.959V193.015L524.044 195.451L520.853 211.062Z" fill="url(#paint0_linear_151_344)"/>
<path d="M520.162 209.69L555.789 209.587V191.643L523.363 194.078L520.162 209.69Z" fill="url(#paint1_linear_151_344)"/>
<path d="M359.274 212.648C359.274 232.626 365.872 251.26 390.702 251.213C412.966 251.167 422.12 234.417 422.12 214.439C422.12 194.461 411.855 177.199 390.702 178.272C373.364 179.121 359.274 192.67 359.274 212.648Z" fill="url(#paint2_linear_151_344)"/>
<path style="mix-blend-mode:multiply" d="M397.476 247.36C384.268 247.36 373.56 232.546 373.56 214.271C373.56 195.997 384.268 181.183 397.476 181.183C410.684 181.183 421.392 195.997 421.392 214.271C421.392 232.546 410.684 247.36 397.476 247.36Z" fill="url(#paint3_linear_151_344)"/>
<path d="M322.463 231.124H339.1V234.175H364.668L366.954 238.131H392.073L397.551 231.45L400.975 236.116L424.173 234.641L430.919 236.153L454.247 234.203L482.026 234.641L511.708 217.668V232.029H525.882C525.882 232.029 528.626 213.32 523.139 198.595H319.346L322.463 231.124Z" fill="url(#paint4_linear_151_344)"/>
<path d="M270.359 230.998H291.079V234.022H322.857L325.697 237.944H356.912L363.721 231.322L367.982 235.946L396.755 234.448L405.16 235.946L434.097 234.022L468.716 234.457L505.612 217.632V231.895H523.221C523.221 231.895 526.625 213.349 519.817 198.753H266.532L270.359 230.998Z" fill="url(#paint5_linear_151_344)"/>
<path d="M279.269 198.595C278.84 208.402 278.942 218.283 280.893 227.913C281.318 230.035 281.85 232.134 282.488 234.202H258.61V231.123H242.14L239.098 198.595H279.269Z" fill="url(#paint6_linear_151_344)"/>
<path d="M275.173 197.914C274.79 206.713 274.874 215.587 276.628 224.237C277.011 226.159 277.496 228.035 278.056 229.835H256.594V227.036H241.804L239.07 197.83L275.173 197.914Z" fill="url(#paint7_linear_151_344)"/>
<path d="M444.16 213.179C444.16 233.157 450.757 251.782 475.578 251.736C497.842 251.689 506.996 234.94 506.996 214.971C506.996 195.002 496.732 177.721 475.578 178.794C458.25 179.68 444.16 193.201 444.16 213.179Z" fill="url(#paint8_linear_151_344)"/>
<path d="M453.491 213.179C453.491 233.157 460.088 251.782 484.909 251.736C507.173 251.689 516.327 234.94 516.327 214.971C516.327 195.002 506.063 177.721 484.909 178.794C467.581 179.68 453.491 193.201 453.491 213.179Z" fill="url(#paint9_linear_151_344)"/>
<path d="M460.309 239.69C455.637 232.663 453.991 223.129 453.991 213.179C453.991 193.468 467.873 180.166 484.934 179.293L460.309 239.69ZM460.309 239.69C464.956 246.681 472.644 251.259 484.908 251.236M460.309 239.69L484.908 251.236M484.908 251.236C495.899 251.213 503.6 247.075 508.569 240.522M484.908 251.236L508.569 240.522M508.569 240.522C513.553 233.948 515.827 224.889 515.827 214.971M508.569 240.522L515.827 214.971M515.827 214.971C515.827 205.063 513.28 195.87 508.156 189.299M515.827 214.971L508.156 189.299M508.156 189.299C503.048 182.748 495.352 178.765 484.935 179.293L508.156 189.299Z" stroke="black" stroke-opacity="0.2"/>
<path d="M491.086 247.882C477.878 247.882 467.171 233.068 467.171 214.794C467.171 196.52 477.878 181.706 491.086 181.706C504.295 181.706 515.002 196.52 515.002 214.794C515.002 233.068 504.295 247.882 491.086 247.882Z" fill="url(#paint10_linear_151_344)"/>
<path d="M490.153 238.448C480.712 238.448 473.059 227.858 473.059 214.794C473.059 201.73 480.712 191.139 490.153 191.139C499.594 191.139 507.248 201.73 507.248 214.794C507.248 227.858 499.594 238.448 490.153 238.448Z" fill="url(#paint11_linear_151_344)"/>
<path d="M488.184 236.955C479.32 236.955 472.135 227.012 472.135 214.747C472.135 202.482 479.32 192.539 488.184 192.539C497.048 192.539 504.234 202.482 504.234 214.747C504.234 227.012 497.048 236.955 488.184 236.955Z" fill="url(#paint12_linear_151_344)"/>
<path d="M489.211 236.703C480.914 236.703 474.188 226.873 474.188 214.747C474.188 202.621 480.914 192.791 489.211 192.791C497.508 192.791 504.234 202.621 504.234 214.747C504.234 226.873 497.508 236.703 489.211 236.703Z" fill="url(#paint13_linear_151_344)"/>
<path style="mix-blend-mode:multiply" d="M487.82 236.703C479.786 236.703 473.273 226.873 473.273 214.747C473.273 202.621 479.786 192.791 487.82 192.791C495.855 192.791 502.368 202.621 502.368 214.747C502.368 226.873 495.855 236.703 487.82 236.703Z" stroke="url(#paint14_linear_151_344)" stroke-width="0.63" stroke-miterlimit="10"/>
<path d="M487.494 229.462C482.995 229.462 479.348 222.561 479.348 214.047C479.348 205.534 482.995 198.632 487.494 198.632C491.993 198.632 495.64 205.534 495.64 214.047C495.64 222.561 491.993 229.462 487.494 229.462Z" fill="url(#paint15_linear_151_344)"/>
<path d="M487.494 228.473C483.443 228.473 480.16 222.257 480.16 214.588C480.16 206.92 483.443 200.704 487.494 200.704C491.544 200.704 494.828 206.92 494.828 214.588C494.828 222.257 491.544 228.473 487.494 228.473Z" fill="url(#paint16_linear_151_344)"/>
<path d="M484.937 225.245C484.937 228.483 486.318 231.105 488.035 231.105C489.752 231.105 491.124 228.483 491.124 225.245C491.124 222.007 489.743 219.394 488.035 219.394C486.327 219.394 484.937 222.557 484.937 225.245Z" fill="url(#paint17_linear_151_344)"/>
<path d="M488.035 219.525C486.494 219.525 485.245 217.164 485.245 214.253C485.245 211.341 486.494 208.98 488.035 208.98C489.576 208.98 490.825 211.341 490.825 214.253C490.825 217.164 489.576 219.525 488.035 219.525Z" fill="url(#paint18_linear_151_344)"/>
<path d="M245.677 234.212V260.19L234.302 259.322L238.063 228.585L245.677 234.212Z" fill="url(#paint19_linear_151_344)"/>
<path d="M244.305 234.212V260.19L232.93 259.322L236.7 228.585L244.305 234.212Z" fill="url(#paint20_linear_151_344)"/>
<path d="M282.395 207.152L96.705 203.424V18.9845C96.7163 17.6032 97.3418 16.2743 98.4607 15.2538C99.5797 14.2334 101.113 13.5936 102.765 13.4578L282.395 0V207.152Z" fill="#47315D"/>
<path d="M277.729 201.553L102.304 197.992V23.7859C102.303 22.4777 102.891 21.2166 103.952 20.2511C105.013 19.2856 106.47 18.6857 108.036 18.5695L268.757 6.556C269.895 6.47617 271.04 6.59385 272.121 6.90161C273.201 7.20937 274.193 7.70048 275.033 8.34384C275.873 8.9872 276.544 9.76878 277.002 10.6391C277.461 11.5094 277.697 12.4494 277.696 13.3996L277.729 201.553Z" fill="#583D71"/>
<path d="M245.948 234.175L186.629 231.095L190.744 192.987C190.744 192.987 217.021 174.885 234.256 180.53L240.349 198.912L245.948 234.175Z" fill="#2958AA"/>
<path d="M245.948 198.063L247.655 234.175H244.305C244.305 234.175 242.635 203.382 232.931 182.62L245.948 198.063Z" fill="#A3BCFF"/>
<path d="M59.3245 220.355C59.3245 243.319 66.9107 264.753 95.4547 264.688C121.059 264.641 131.585 245.381 131.585 222.408C131.585 199.435 119.818 179.587 95.4547 180.819C75.4954 181.827 59.3245 197.382 59.3245 220.355Z" fill="url(#paint21_linear_151_344)"/>
<path style="mix-blend-mode:multiply" d="M103.218 260.265C88.0309 260.265 75.7192 243.228 75.7192 222.212C75.7192 201.196 88.0309 184.16 103.218 184.16C118.405 184.16 130.717 201.196 130.717 222.212C130.717 243.228 118.405 260.265 103.218 260.265Z" fill="url(#paint22_linear_151_344)"/>
<path d="M95.2493 224.778C95.2107 224.223 95.393 223.675 95.7566 223.254C96.1201 222.833 96.6354 222.573 97.1902 222.53H183.037C188.731 222.527 194.387 221.604 199.786 219.796L208.091 217.043C208.091 217.043 212.514 215.326 212.514 220.131C212.496 220.546 212.602 220.956 212.818 221.31C213.034 221.664 213.35 221.945 213.727 222.119C214.64 222.645 215.393 223.409 215.908 224.329C216.422 225.249 216.677 226.291 216.648 227.344V245.745C216.696 246.449 216.465 247.143 216.003 247.677C215.542 248.21 214.888 248.539 214.184 248.591L138.014 248.153L112.269 248.004C107.053 248.004 95.2027 251.26 95.2027 241.612L95.2493 224.778Z" fill="url(#paint23_linear_151_344)"/>
<path d="M166.838 223.238C166.838 246.212 174.424 267.636 202.968 267.58C228.573 267.524 239.098 248.265 239.098 225.301C239.098 202.337 227.341 182.471 202.968 183.702C183.046 184.719 166.838 200.265 166.838 223.238Z" fill="url(#paint24_linear_151_344)"/>
<path d="M210.078 263.148C194.891 263.148 182.58 246.111 182.58 225.095C182.58 204.08 194.891 187.043 210.078 187.043C225.266 187.043 237.577 204.08 237.577 225.095C237.577 246.111 225.266 263.148 210.078 263.148Z" fill="url(#paint25_linear_151_344)"/>
<path d="M210.079 252.296C199.225 252.296 190.427 240.118 190.427 225.095C190.427 210.073 199.225 197.895 210.079 197.895C220.932 197.895 229.73 210.073 229.73 225.095C229.73 240.118 220.932 252.296 210.079 252.296Z" fill="url(#paint26_linear_151_344)"/>
<path d="M208.884 250.588C198.691 250.588 190.427 239.154 190.427 225.049C190.427 210.944 198.691 199.509 208.884 199.509C219.078 199.509 227.341 210.944 227.341 225.049C227.341 239.154 219.078 250.588 208.884 250.588Z" fill="url(#paint27_linear_151_344)"/>
<path d="M207.914 250.299C198.37 250.299 190.632 238.994 190.632 225.049C190.632 211.104 198.37 199.799 207.914 199.799C217.458 199.799 225.195 211.104 225.195 225.049C225.195 238.994 217.458 250.299 207.914 250.299Z" fill="url(#paint28_linear_151_344)"/>
<path style="mix-blend-mode:multiply" d="M208.464 250.299C199.224 250.299 191.734 238.994 191.734 225.049C191.734 211.104 199.224 199.799 208.464 199.799C217.704 199.799 225.195 211.104 225.195 225.049C225.195 238.994 217.704 250.299 208.464 250.299Z" stroke="url(#paint29_linear_151_344)" stroke-width="0.72" stroke-miterlimit="10"/>
<path d="M213.037 241.966C207.862 241.966 203.668 234.033 203.668 224.246C203.668 214.46 207.862 206.526 213.037 206.526C218.211 206.526 222.405 214.46 222.405 224.246C222.405 234.033 218.211 241.966 213.037 241.966Z" fill="url(#paint30_linear_151_344)"/>
<path d="M213.037 240.828C208.378 240.828 204.601 233.68 204.601 224.862C204.601 216.045 208.378 208.896 213.037 208.896C217.695 208.896 221.472 216.045 221.472 224.862C221.472 233.68 217.695 240.828 213.037 240.828Z" fill="url(#paint31_linear_151_344)"/>
<path d="M213.652 230.974C211.689 230.974 210.097 227.962 210.097 224.246C210.097 220.531 211.689 217.519 213.652 217.519C215.616 217.519 217.208 220.531 217.208 224.246C217.208 227.962 215.616 230.974 213.652 230.974Z" fill="url(#paint32_linear_151_344)"/>
<path d="M213.652 241.742C211.885 241.742 210.452 239.027 210.452 235.677C210.452 232.327 211.885 229.612 213.652 229.612C215.42 229.612 216.853 232.327 216.853 235.677C216.853 239.027 215.42 241.742 213.652 241.742Z" fill="url(#paint33_linear_151_344)"/>
<path d="M16.2892 66.3073L33.0852 65.794C33.4326 65.7841 33.7784 65.8437 34.1023 65.9695C34.4262 66.0953 34.7217 66.2846 34.9712 66.5264C35.2208 66.7682 35.4195 67.0574 35.5555 67.3772C35.6916 67.6969 35.7622 68.0406 35.7633 68.3881L35.9966 121.016C35.9978 121.362 35.9302 121.704 35.7976 122.024C35.665 122.343 35.4701 122.633 35.2242 122.876C34.9784 123.119 34.6866 123.311 34.3658 123.44C34.045 123.57 33.7016 123.634 33.3558 123.629L14.5162 123.302C14.1728 123.297 13.8337 123.224 13.5189 123.087C13.204 122.949 12.9197 122.751 12.6825 122.502C12.4453 122.254 12.2601 121.96 12.1375 121.64C12.015 121.319 11.9576 120.977 11.9688 120.633L13.7697 68.836C13.7862 68.1721 14.0566 67.5398 14.5253 67.0694C14.994 66.5989 15.6253 66.3262 16.2892 66.3073Z" fill="url(#paint34_linear_151_344)"/>
<path d="M14.2362 66.3725L31.0323 65.8593C31.38 65.848 31.7264 65.9068 32.0509 66.0321C32.3754 66.1574 32.6713 66.3467 32.9212 66.5887C33.171 66.8307 33.3696 67.1205 33.5052 67.4408C33.6408 67.7612 33.7105 68.1055 33.7104 68.4533L33.953 121.072C33.9543 121.418 33.8863 121.762 33.7531 122.082C33.62 122.402 33.4242 122.692 33.1774 122.935C32.9306 123.179 32.6376 123.37 32.3157 123.499C31.9938 123.628 31.6495 123.691 31.3029 123.684L12.4726 123.367C12.1283 123.361 11.7886 123.287 11.4732 123.149C11.1578 123.01 10.873 122.811 10.6352 122.562C10.3974 122.313 10.2114 122.019 10.0879 121.698C9.96445 121.376 9.90599 121.033 9.91592 120.689L11.7355 68.9012C11.7517 68.2405 12.0196 67.6108 12.4843 67.1409C12.9491 66.6709 13.5757 66.3961 14.2362 66.3725Z" fill="url(#paint35_linear_151_344)"/>
<path style="mix-blend-mode:multiply" d="M23.1102 67.3991L35.7913 66.8858C36.1386 66.8759 36.4844 66.9355 36.8083 67.0613C37.1322 67.1871 37.4277 67.3764 37.6772 67.6182C37.9268 67.8599 38.1255 68.1492 38.2615 68.469C38.3976 68.7887 38.4682 69.1324 38.4693 69.4799L38.7026 122.108C38.7039 122.453 38.6362 122.796 38.5036 123.115C38.371 123.435 38.1761 123.725 37.9303 123.968C37.6844 124.211 37.3926 124.403 37.0718 124.532C36.751 124.661 36.4077 124.725 36.0619 124.72L17.2316 124.403C15.7853 124.403 12.566 123.171 12.622 121.725L20.5908 69.9465C20.607 69.2807 20.8768 68.6464 21.3451 68.1729C21.8134 67.6994 22.4447 67.4226 23.1102 67.3991Z" fill="url(#paint36_linear_151_344)"/>
<path d="M156.9 28.8891C156.9 28.8891 132.901 28.2266 92.702 33.3121C78.1064 35.1332 63.8076 38.8341 50.1613 44.3229C46.6621 45.7319 43.2656 47.2435 40.3356 48.7832C35.3764 51.3899 31.6132 55.8082 29.8287 61.119C25.4991 73.8933 17.073 102.083 13.1633 124.086C13.1633 124.086 6.8834 135.022 7.44327 154.729C7.44327 154.729 1.22872 197.82 7.44327 209.624C7.44327 209.624 9.52412 214.234 18.2301 217.313L126.229 214.747L129.812 157.295L132.882 112.16L136.689 73.1748L143.967 44.4442L156.9 28.8891Z" fill="#A3BCFF"/>
<path d="M97.6381 138.54C98.9445 133.715 101.679 129.134 103.89 124.664C106.005 120.39 108.182 116.145 110.422 111.927H110.543C114.807 110.854 118.167 108.064 121.88 105.853C125.594 103.641 129.663 102.997 133.843 102.549L132.91 112.17L129.84 157.305L128.664 176.172C127.246 176.172 125.865 176.172 124.475 176.172C118.316 176.303 112.344 178.113 106.129 177.992C103.33 177.936 100.111 177.46 98.0954 175.276C95.6226 172.598 96.3131 168.661 96.6677 165.348C97.0612 161.151 97.1142 156.929 96.8263 152.723C96.5464 147.992 96.3784 143.168 97.6381 138.54Z" fill="#A3BCFF"/>
<path d="M14.7215 185.746C11.5769 185.009 7.98443 184.552 4.81183 183.376C5.38103 169.006 7.44323 154.729 7.44323 154.729C7.09657 146.372 8.20157 138.019 10.7091 130.039C12.5754 137.924 13.0512 146.173 14.0777 154.169C15.4214 164.555 16.9517 175.388 14.7215 185.746Z" fill="#A3BCFF"/>
<path d="M126.957 203.037V217.313H174.863C174.863 217.313 181.563 181.603 207.121 175.762H238.847L231.68 45.9838L226.082 39.3214L155.165 30.9233L141.439 47.6448L131.296 115.24L122.599 152.172L126.957 203.037Z" fill="#335DA8"/>
<path d="M138.061 149.102L214.791 113.803C218.536 112.077 221.709 109.314 223.933 105.841C226.157 102.368 227.34 98.3312 227.341 94.2072L223.907 50.3975C223.912 47.9083 223.001 45.5043 221.347 43.6439C219.693 41.7836 217.413 40.597 214.94 40.3105L155.221 30.9233C155.221 30.9233 139.162 46.0865 138.779 67.6414C138.397 89.1964 138.061 149.102 138.061 149.102Z" fill="#A3BCFF"/>
<path style="mix-blend-mode:color-dodge" opacity="0.18" d="M159.961 139.044L214.791 113.85C218.536 112.124 221.709 109.361 223.933 105.888C226.157 102.415 227.34 98.3781 227.341 94.2541L223.907 50.4443" stroke="url(#paint37_linear_151_344)" stroke-width="0.18" stroke-miterlimit="10"/>
<path d="M164.766 39.76H164.636C162.29 39.7463 159.982 40.3495 157.943 41.509C155.904 42.6685 154.206 44.3436 153.019 46.3665L152.813 46.7117C150.9 49.9843 149.499 53.5309 148.661 57.2279V57.4146C147.69 61.6805 147.065 66.0181 146.795 70.3849C145.861 85.5853 143.809 120.614 143.463 126.437C143.401 127.536 143.432 128.638 143.557 129.731C143.867 130.665 144.504 131.455 145.352 131.956C146.199 132.457 147.199 132.634 148.166 132.456L150.359 132.045C150.681 131.987 150.994 131.89 151.292 131.756L160.101 127.799L180.377 118.646L202.838 108.475L219.316 101.01C221.994 99.806 223.049 95.8589 223.049 93.1622V91.2027L221.985 53.4768C221.92 51.1202 220.993 48.8693 219.38 47.1498C217.767 45.4303 215.58 44.3615 213.232 44.1456L164.766 39.76Z" fill="url(#paint38_linear_151_344)"/>
<path d="M165.7 42.0182H165.578C163.343 41.9964 161.141 42.5657 159.196 43.6685C157.251 44.7713 155.632 46.3683 154.502 48.298L154.306 48.6246C152.484 51.7395 151.153 55.1166 150.359 58.637V58.8049C149.443 62.8625 148.859 66.9881 148.614 71.1407C147.756 85.604 145.815 118.926 145.442 124.459C145.379 125.505 145.41 126.554 145.535 127.594C145.83 128.483 146.437 129.235 147.243 129.712C148.049 130.188 149 130.358 149.921 130.188L152.002 129.796C152.324 129.745 152.638 129.651 152.935 129.516L161.333 125.728L180.62 117.022L201.961 107.383L217.637 100.31C220.184 99.1622 221.145 95.411 221.145 92.845V90.9787L220.138 55.1004C220.081 53.2423 219.467 51.4443 218.374 49.9403C217.612 48.891 216.635 48.0155 215.509 47.3721C214.383 46.7286 213.133 46.3318 211.842 46.2079L165.7 42.0182Z" fill="url(#paint39_linear_151_344)"/>
<path d="M166.166 42.5594H166.045C163.874 42.543 161.737 43.0994 159.85 44.1725C157.962 45.2456 156.391 46.7973 155.295 48.6713L155.109 48.9793C153.334 52.0185 152.04 55.3141 151.274 58.749V58.9169C150.375 62.8515 149.795 66.8519 149.538 70.8795C148.707 84.9416 146.739 117.33 146.459 122.714C146.398 123.732 146.426 124.753 146.543 125.765C146.833 126.627 147.423 127.356 148.206 127.818C148.989 128.281 149.912 128.447 150.807 128.285L152.832 127.902C153.131 127.849 153.423 127.758 153.7 127.632L161.118 124.282L178.465 116.453L198.359 107.439L213.55 100.581C215.481 99.7034 217.375 99.2276 218.495 97.3333C219.45 95.7061 219.955 93.8545 219.96 91.9679V90.1577L218.98 55.2778C218.919 53.0967 218.061 51.0135 216.569 49.4216C215.077 47.8297 213.054 46.8392 210.881 46.6372L166.166 42.5594Z" fill="url(#paint40_linear_151_344)"/>
<path d="M169.721 127.566V127.902C169.723 128.571 169.592 129.233 169.337 129.851C169.082 130.469 168.707 131.031 168.235 131.504C167.763 131.978 167.202 132.353 166.584 132.609C165.967 132.865 165.304 132.997 164.636 132.997H155.93C154.581 132.997 153.288 133.533 152.334 134.487C151.38 135.44 150.844 136.734 150.844 138.083V142.478" stroke="url(#paint41_linear_151_344)" stroke-width="2.2" stroke-miterlimit="10"/>
<path style="mix-blend-mode:color-dodge" d="M169.721 127.566V127.902C169.723 128.571 169.592 129.233 169.337 129.851C169.082 130.469 168.707 131.031 168.235 131.504C167.763 131.978 167.202 132.353 166.584 132.609C165.967 132.865 165.304 132.997 164.636 132.997H155.93C154.581 132.997 153.288 133.533 152.334 134.487C151.38 135.44 150.844 136.734 150.844 138.083V142.478" stroke="url(#paint42_linear_151_344)" stroke-width="0.55" stroke-miterlimit="10"/>
<path d="M167.23 54.1675H184.026C184.374 54.1673 184.718 54.2371 185.039 54.3727C185.359 54.5083 185.649 54.7069 185.891 54.9567C186.133 55.2066 186.322 55.5025 186.447 55.827C186.573 56.1515 186.631 56.4979 186.62 56.8455L184.829 123.862C184.819 124.208 184.741 124.549 184.598 124.865C184.455 125.181 184.251 125.465 183.998 125.701C183.744 125.938 183.446 126.121 183.121 126.241C182.796 126.361 182.45 126.415 182.104 126.4L163.292 125.467C162.949 125.45 162.612 125.366 162.301 125.218C161.99 125.07 161.712 124.862 161.482 124.606C161.252 124.35 161.075 124.051 160.961 123.727C160.847 123.402 160.799 123.058 160.819 122.714L164.636 56.5842C164.683 55.9282 164.977 55.3144 165.458 54.8661C165.939 54.4177 166.572 54.1681 167.23 54.1675Z" fill="url(#paint43_linear_151_344)"/>
<path d="M165.168 54.1675H181.964C182.311 54.1686 182.655 54.2392 182.975 54.3753C183.295 54.5113 183.584 54.71 183.826 54.9595C184.067 55.2091 184.257 55.5046 184.382 55.8285C184.508 56.1524 184.568 56.4982 184.558 56.8455L182.757 123.862C182.75 124.208 182.673 124.55 182.532 124.866C182.391 125.182 182.188 125.467 181.935 125.704C181.682 125.94 181.384 126.124 181.059 126.243C180.733 126.363 180.388 126.416 180.042 126.4L161.221 125.467C160.528 125.428 159.879 125.117 159.416 124.601C158.952 124.085 158.712 123.407 158.748 122.714L162.564 56.5842C162.614 55.9274 162.909 55.3135 163.392 54.8654C163.875 54.4173 164.509 54.168 165.168 54.1675Z" fill="url(#paint44_linear_151_344)"/>
<path style="mix-blend-mode:color-dodge" d="M162.574 56.6216C162.614 55.9597 162.904 55.3379 163.386 54.8822C163.868 54.4265 164.505 54.171 165.168 54.1675H181.964C182.311 54.1686 182.655 54.2392 182.975 54.3753C183.295 54.5113 183.584 54.71 183.826 54.9595C184.067 55.2091 184.257 55.5046 184.382 55.8285C184.508 56.1524 184.568 56.4982 184.558 56.8455L182.757 123.862" stroke="url(#paint45_linear_151_344)" stroke-width="0.37" stroke-miterlimit="10"/>
<path d="M168.499 109.314H172.95C173.042 109.314 173.133 109.333 173.218 109.369C173.304 109.405 173.38 109.457 173.445 109.523C173.509 109.589 173.56 109.668 173.593 109.754C173.627 109.84 173.643 109.931 173.64 110.024L173.164 127.753C173.161 127.845 173.139 127.935 173.101 128.019C173.062 128.102 173.007 128.177 172.94 128.24C172.872 128.302 172.793 128.351 172.707 128.382C172.62 128.414 172.529 128.428 172.437 128.425L167.454 128.182C167.363 128.179 167.273 128.157 167.191 128.118C167.108 128.079 167.034 128.024 166.973 127.956C166.912 127.888 166.866 127.809 166.836 127.723C166.806 127.637 166.794 127.545 166.801 127.454L167.808 109.921C167.829 109.753 167.911 109.598 168.038 109.486C168.165 109.374 168.329 109.313 168.499 109.314Z" fill="url(#paint46_linear_151_344)"/>
<path d="M167.995 109.314H172.446C172.538 109.314 172.63 109.333 172.715 109.369C172.8 109.405 172.877 109.457 172.941 109.523C173.005 109.589 173.056 109.668 173.089 109.754C173.123 109.84 173.139 109.931 173.136 110.024L172.661 127.753C172.658 127.844 172.638 127.934 172.6 128.018C172.563 128.101 172.509 128.177 172.442 128.239C172.375 128.302 172.296 128.35 172.211 128.382C172.125 128.414 172.034 128.428 171.942 128.425L166.95 128.182C166.859 128.177 166.77 128.155 166.688 128.115C166.606 128.076 166.533 128.021 166.472 127.954C166.412 127.886 166.365 127.807 166.335 127.721C166.305 127.636 166.292 127.545 166.297 127.454L167.314 109.921C167.332 109.754 167.412 109.599 167.538 109.487C167.664 109.375 167.827 109.313 167.995 109.314Z" fill="url(#paint47_linear_151_344)"/>
<path d="M144.369 141.096H153.112C153.607 141.096 154.082 141.293 154.432 141.643C154.782 141.993 154.978 142.467 154.978 142.962V155.093C154.978 156.004 154.616 156.877 153.972 157.521C153.328 158.165 152.455 158.527 151.544 158.527H142.54V142.953C142.542 142.466 142.735 141.999 143.076 141.652C143.418 141.306 143.882 141.106 144.369 141.096Z" fill="url(#paint48_linear_151_344)"/>
<path d="M145.974 141.096H154.707C155.202 141.096 155.677 141.293 156.027 141.643C156.377 141.993 156.574 142.467 156.574 142.962V155.093C156.575 155.543 156.487 155.99 156.316 156.406C156.144 156.823 155.892 157.201 155.574 157.52C155.256 157.839 154.878 158.093 154.462 158.265C154.046 158.438 153.6 158.527 153.149 158.527H144.145V142.953C144.147 142.466 144.34 141.999 144.681 141.652C145.023 141.306 145.487 141.106 145.974 141.096Z" fill="url(#paint49_linear_151_344)"/>
<path style="mix-blend-mode:multiply" d="M228.573 150.726V154.113C228.573 154.505 227.799 154.823 226.847 154.823H215.584C213.811 154.823 212.383 154.235 212.383 153.498V150.017H226.847C227.799 150.017 228.573 150.334 228.573 150.726Z" fill="url(#paint50_linear_151_344)"/>
<path d="M229.73 147.18V151.062C229.73 151.51 228.909 151.883 227.864 151.883H215.808C213.942 151.883 212.383 151.202 212.383 150.353V146.359H227.892C228.909 146.359 229.73 146.723 229.73 147.18Z" fill="url(#paint51_linear_151_344)"/>
<path d="M229.73 147.787V151.127C229.73 151.519 229.002 151.846 228.097 151.846H217.366C215.687 151.846 214.324 151.248 214.324 150.511V147.031H228.097C229.002 147.068 229.73 147.395 229.73 147.787Z" fill="url(#paint52_linear_151_344)"/>
<path style="mix-blend-mode:color-dodge" d="M229.73 147.787V151.127C229.73 151.519 229.002 151.846 228.097 151.846H217.366C215.687 151.846 214.324 151.248 214.324 150.511V147.031H228.097C229.002 147.068 229.73 147.395 229.73 147.787Z" stroke="url(#paint53_linear_151_344)" stroke-width="0.37" stroke-miterlimit="10"/>
<path d="M138.061 210.754C138.061 210.754 137.034 121.884 140.804 85.1656C140.804 85.1656 141.831 35.4119 157.6 33.3497L219.251 40.5534C219.251 40.5534 229.18 41.5892 230.215 82.7675L232.884 177.815C232.884 177.815 241.795 177.815 242.131 197.028L244.184 196.692C244.184 196.692 245.556 54.97 235.973 37.4648C209.847 32.7673 183.425 29.9018 156.9 28.8894C156.9 28.8894 140.804 21.1446 131.212 97.7627C131.212 97.7627 131.557 112.394 121.965 119.71C121.965 119.71 116.487 128.695 116.823 142.618V215.214H138.061V210.754Z" fill="#487CEF"/>
<path style="mix-blend-mode:multiply" d="M137.38 206.639H171.298L178.157 189.245C179.686 185.376 181.881 181.804 184.642 178.692L184.782 178.533C189.197 173.565 194.885 169.896 201.233 167.924L202.66 167.485C206.162 166.395 209.808 165.841 213.475 165.843H232.632L232.137 166.263C233.071 168.474 233.612 169.491 233.612 171.908L243.204 174.763V182.312C243.204 182.312 239.78 176.48 230.187 173.728L210.844 174.297C208.01 174.38 205.213 174.968 202.586 176.032L202.446 176.088C194.999 179.157 188.944 184.861 185.435 192.11L180.182 202.897V206.676L174.359 221.083L169.908 232.066H137.38V206.639Z" fill="url(#paint54_linear_151_344)"/>
<path d="M136.008 210.754H174.023L180.881 193.37C182.409 189.513 184.601 185.954 187.357 182.853L187.506 182.685C191.913 177.692 197.602 174.001 203.957 172.011L205.376 171.572C208.88 170.479 212.529 169.922 216.2 169.92H244.287L244.473 170.34C245.445 172.555 245.947 174.948 245.948 177.367V198.063H242.215C242.215 198.063 242.56 180.558 232.968 177.815L213.624 178.374C210.786 178.457 207.986 179.048 205.357 180.119L205.226 180.175C197.78 183.244 191.724 188.948 188.216 196.197L182.962 206.984V210.716L177.14 225.133L174.592 231.431C174.033 232.813 173.073 233.996 171.836 234.828C170.598 235.659 169.141 236.101 167.65 236.097H136.045L136.008 210.754Z" fill="url(#paint55_linear_151_344)"/>
<path d="M138.061 205.967C137.93 185.824 138.033 165.678 138.369 145.529C138.53 135.457 138.798 125.392 139.171 115.333C139.572 105.274 140.048 95.2058 141.037 85.1934C141.177 80.4346 141.532 75.685 142.036 70.9541C142.54 66.2232 143.211 61.511 144.163 56.8454C145.048 52.1806 146.408 47.6187 148.222 43.2312C149.132 41.0596 150.348 39.0296 151.833 37.2033C153.25 35.3552 155.307 34.1037 157.6 33.6948H157.516L205.777 39.2935L217.842 40.6838C219.951 40.5345 221.379 42.1115 222.508 43.7071C223.616 45.3748 224.512 47.174 225.176 49.0632C226.508 52.8736 227.48 56.8006 228.078 60.7925C228.731 64.7769 229.133 68.7986 229.431 72.8297C229.73 76.8607 229.861 80.9104 229.991 84.9602L230.383 97.0907L231.176 121.352L232.875 169.874L231.522 121.352L230.784 97.0907L230.42 84.9602C230.299 80.9198 230.196 76.8607 229.898 72.8297C229.599 68.7986 229.207 64.7489 228.564 60.6992C227.974 56.6759 227.006 52.7175 225.671 48.8766C224.996 46.9408 224.081 45.0974 222.946 43.3899C222.365 42.524 221.657 41.7502 220.847 41.0944C220.422 40.759 219.942 40.5001 219.428 40.3292C218.84 40.2173 218.402 40.1986 217.879 40.124L205.823 38.6963L157.572 33.0229H157.488C155.037 33.4495 152.835 34.7817 151.32 36.7554C149.802 38.6342 148.561 40.7207 147.634 42.9513C145.809 47.3839 144.445 51.993 143.566 56.7054C142.633 61.371 141.952 66.1206 141.457 70.8701C140.963 75.6197 140.627 80.3692 140.524 85.1468C139.526 95.1871 139.087 105.255 138.658 115.324C138.229 125.392 138.061 135.46 137.93 145.538C137.799 155.616 137.743 165.684 137.762 175.752C137.781 185.821 137.921 195.917 138.061 205.967Z" fill="#7A8DBF"/>
<path d="M173.165 224.069C175.72 224.067 178.211 223.264 180.286 221.772C182.362 220.281 183.918 218.177 184.735 215.755L185.818 212.554C186.371 210.903 187.083 209.309 187.945 207.796L191.678 201.264C194.249 196.735 198.063 193.037 202.67 190.608C206.583 188.54 210.943 187.461 215.369 187.463H232.287C233.754 187.46 235.175 187.973 236.301 188.913C237.427 189.854 238.187 191.16 238.445 192.605C238.773 194.703 238.913 196.826 238.865 198.95H242.215V186.213C242.213 183.911 241.301 181.704 239.677 180.073C238.872 179.268 237.916 178.629 236.864 178.194C235.812 177.758 234.685 177.534 233.546 177.535H219.223C211.681 177.54 204.275 179.546 197.761 183.348C195.085 184.909 192.726 186.96 190.81 189.395L188.514 192.315C187.301 193.851 186.276 195.527 185.463 197.307L173.165 224.069Z" fill="url(#paint56_linear_151_344)"/>
<path style="mix-blend-mode:color-dodge" d="M242.215 198.912V186.213C242.213 183.911 241.301 181.704 239.677 180.073C238.872 179.268 237.916 178.629 236.864 178.194C235.812 177.758 234.685 177.534 233.546 177.535H219.223C211.681 177.54 204.275 179.546 197.761 183.348C195.085 184.909 192.726 186.96 190.81 189.395L188.514 192.315C187.301 193.851 186.276 195.527 185.463 197.307L173.165 224.069" stroke="url(#paint57_linear_151_344)" stroke-width="0.37" stroke-miterlimit="10"/>
<path d="M14.4883 113.626L29.558 62.3043C30.1065 60.4258 30.9439 58.644 32.0402 57.0229C34.0633 54.0249 36.8987 51.6654 40.2143 50.2205L43.8721 48.6342C44.8608 48.2045 45.8848 47.8611 46.9327 47.6077L75.3834 40.6747L98.0207 36.6063C104.158 35.503 110.355 34.7708 116.58 34.4135L133.246 33.4804C134.456 33.4157 135.661 33.6767 136.736 34.2362C137.825 34.8055 138.737 35.6622 139.374 36.7133C140.01 37.7645 140.347 38.9699 140.347 40.1988V43.1288C140.348 43.4916 140.317 43.8539 140.254 44.2112C139.32 49.9405 131.156 99.7875 131.09 100.441C131.028 100.722 130.94 100.996 130.829 101.262C128.978 106.335 125.597 110.708 121.153 113.775C119.488 114.911 117.696 115.85 115.815 116.574L111.616 118.226C103.408 121.445 94.8006 123.535 86.0302 124.44L22.7743 130.972C20.8433 131.17 18.9049 130.674 17.3062 129.573C16.3902 128.943 15.6119 128.133 15.0184 127.193C14.4249 126.253 14.0286 125.202 13.8538 124.105L13.3872 121.212C13.2266 120.198 13.2583 119.163 13.4805 118.161L14.3483 114.204C14.3832 114.009 14.4299 113.815 14.4883 113.626Z" fill="url(#paint58_linear_151_344)"/>
<path d="M15.356 112.067L17.8194 101.943C20.7119 90.1398 24.1937 78.4893 28.2516 67.0348L29.7912 62.8637C30.322 61.0694 31.1245 59.367 32.1707 57.8156C34.1115 54.9357 36.834 52.6697 40.0182 51.2838L43.5174 49.7628C44.4687 49.3539 45.4518 49.0231 46.4567 48.7737L73.7317 42.1299L95.436 38.2202C101.317 37.1663 107.256 36.4653 113.221 36.1206L129.196 35.1875C130.358 35.1234 131.515 35.3749 132.546 35.9154C133.591 36.4613 134.466 37.2831 135.076 38.2916C135.687 39.3001 136.009 40.4566 136.008 41.6354V44.4347C136.008 44.7817 135.98 45.128 135.924 45.4705C134.991 50.9665 127.199 98.7607 127.134 99.3765C127.073 99.6466 126.992 99.9117 126.891 100.17C125.097 105.036 121.837 109.226 117.56 112.16C115.965 113.261 114.25 114.175 112.447 114.885L108.416 116.462C100.546 119.551 92.2934 121.557 83.884 122.425L23.2315 128.658C21.3806 128.848 19.5223 128.375 17.9874 127.323C17.1101 126.718 16.3644 125.941 15.7951 125.04C15.2259 124.139 14.8448 123.132 14.6748 122.079L14.2362 119.28C14.0773 118.31 14.1058 117.318 14.3202 116.359L15.1507 112.561C15.2101 112.393 15.2787 112.228 15.356 112.067Z" fill="url(#paint59_linear_151_344)"/>
<g style="mix-blend-mode:multiply" opacity="0.26">
<path d="M132.546 35.9342C133.591 36.4801 134.466 37.3019 135.076 38.3104C135.687 39.3189 136.009 40.4754 136.008 41.6542V44.4535C136.008 44.8004 135.98 45.1468 135.924 45.4893C135.859 45.8438 135.775 46.4224 135.663 47.0662L70.3445 123.834L52.3633 125.7L129.308 35.2157C130.432 35.162 131.55 35.4101 132.546 35.9342Z" fill="url(#paint60_linear_151_344)"/>
<path d="M132.966 63.5449L82.7829 122.555L78.0054 123.05L133.992 57.1904C133.684 59.178 133.33 61.3148 132.966 63.5449Z" fill="url(#paint61_linear_151_344)"/>
<path d="M127.199 98.9568L114.378 114.083C113.772 114.381 113.156 114.661 112.512 114.904L108.481 116.481C105.999 117.414 103.479 118.347 100.932 119.065L129.383 85.6133C128.282 92.2477 127.442 97.4639 127.199 98.9568Z" fill="url(#paint62_linear_151_344)"/>
<path d="M127.255 35.3276L50.2266 125.914L46.4008 126.306L123.579 35.5329L127.255 35.3276Z" fill="url(#paint63_linear_151_344)"/>
<path d="M130.708 77.3457L93.6631 120.913C90.4477 121.592 87.1992 122.102 83.9307 122.443L82.783 122.555L132.966 63.5449C132.238 67.9772 131.464 72.7454 130.708 77.3457Z" fill="url(#paint64_linear_151_344)"/>
<path d="M28.2517 67.0347L29.7913 62.8637C30.5483 60.2989 31.8603 57.932 33.6341 55.9308C35.4079 53.9296 37.6002 52.3431 40.0556 51.2837L43.5548 49.7628C44.5061 49.3539 45.4891 49.0231 46.4941 48.7737L51.1597 47.6353L24.1646 79.3612C25.4523 75.1715 26.8334 71.0285 28.2517 67.0347Z" fill="url(#paint65_linear_151_344)"/>
<path d="M54.9108 46.7116L65.0911 44.2295L18.5753 98.9381C19.7417 94.3191 21.048 89.6069 22.4383 84.9413L54.9108 46.7116Z" fill="url(#paint66_linear_151_344)"/>
<path d="M106.036 36.7368L28.2889 128.182L23.2968 128.695H23.1195L100.755 37.3807C102.518 37.1381 104.273 36.9234 106.036 36.7368Z" fill="url(#paint67_linear_151_344)"/>
<path d="M73.7317 42.1299L93.5138 38.5747L18.0434 127.333C17.1685 126.728 16.425 125.952 15.8573 125.053C15.2897 124.153 14.9096 123.148 14.7401 122.098L14.3016 119.299C14.1426 118.329 14.1712 117.337 14.3856 116.378L15.216 112.58C15.2528 112.4 15.2995 112.223 15.356 112.048L16.737 106.375L70.7738 42.8857L73.7317 42.1299Z" fill="url(#paint68_linear_151_344)"/>
</g>
<path d="M15.6733 213.851L16.3638 181.818L14.2083 155.513L95.3613 149.793L91.2556 176.331L93.5324 213.851H15.6733Z" fill="url(#paint69_linear_151_344)"/>
<path d="M15.6453 213.851L16.3172 181.818L14.2083 155.513L93.7471 149.793L89.716 176.331L91.9555 213.851H15.6453Z" fill="url(#paint70_linear_151_344)"/>
<path d="M93.5325 213.842L91.2557 176.331L95.3614 149.793L112.279 145.641C112.818 145.51 113.38 145.502 113.922 145.619C114.464 145.737 114.973 145.975 115.409 146.318C115.846 146.66 116.199 147.097 116.442 147.595C116.686 148.094 116.813 148.641 116.814 149.196V215.214L93.5325 213.842Z" fill="url(#paint71_linear_151_344)"/>
<path d="M110.021 209.783L99.3458 209.12C98.2879 209.054 97.291 208.602 96.5432 207.851C95.7954 207.1 95.3484 206.101 95.2867 205.043L94.5309 192.063C94.415 190.065 94.9937 188.088 96.1688 186.467C97.3439 184.846 99.0432 183.682 100.979 183.171L108.285 181.248C108.905 181.087 109.554 181.071 110.182 181.199C110.81 181.328 111.4 181.598 111.907 181.99C112.414 182.382 112.824 182.884 113.107 183.459C113.39 184.034 113.538 184.667 113.538 185.307V206.461C113.539 206.914 113.447 207.363 113.268 207.779C113.089 208.196 112.827 208.571 112.497 208.882C112.168 209.193 111.778 209.434 111.352 209.589C110.926 209.744 110.473 209.81 110.021 209.783Z" fill="url(#paint72_linear_151_344)"/>
<path d="M110.338 209.783L100.652 209.186C99.6872 209.123 98.7788 208.708 98.0994 208.02C97.42 207.332 97.0168 206.419 96.9663 205.453L96.2851 193.668C96.1796 191.854 96.7045 190.06 97.7708 188.589C98.8371 187.118 100.379 186.061 102.136 185.597L108.78 183.88C109.343 183.733 109.932 183.717 110.502 183.833C111.073 183.95 111.608 184.195 112.069 184.551C112.529 184.907 112.902 185.364 113.159 185.887C113.415 186.409 113.548 186.983 113.548 187.565V206.769C113.549 207.182 113.465 207.59 113.301 207.97C113.138 208.349 112.898 208.69 112.597 208.973C112.296 209.255 111.94 209.473 111.551 209.612C111.163 209.752 110.75 209.81 110.338 209.783Z" fill="url(#paint73_linear_151_344)"/>
<path d="M113.538 176.209L97.4702 180.427C97.0429 180.54 96.5958 180.556 96.1614 180.475C95.727 180.393 95.3162 180.216 94.9588 179.956C94.6014 179.696 94.3064 179.36 94.0952 178.972C93.884 178.583 93.7619 178.153 93.7377 177.712L93.8217 177.105L109.405 173.018C109.892 172.891 110.402 172.878 110.896 172.978C111.389 173.079 111.853 173.292 112.251 173.6C112.649 173.909 112.972 174.304 113.193 174.756C113.415 175.209 113.53 175.706 113.529 176.209H113.538Z" fill="#EFC093"/>
<path d="M14.1989 155.513L7.41517 152.425C7.41517 152.425 3.21615 151.491 4.32656 181.64C4.46653 185.504 4.50385 189.367 4.32656 193.23C4.11194 199.006 4.46655 210.268 9.13213 213.329L15.6639 213.842L16.3451 181.818L14.1989 155.513Z" fill="url(#paint74_linear_151_344)"/>
<path d="M7.90981 205.957L11.5863 205.425C12.3421 205.313 12.9393 203.895 12.986 202.113L13.2472 191.569C13.3312 188.219 12.3981 185.195 11.0264 184.346L8.49767 182.788C7.56456 182.219 6.68743 183.852 6.68743 186.082V203.26C6.68743 204.819 7.24729 206.05 7.90981 205.957Z" fill="url(#paint75_linear_151_344)"/>
<path d="M8.46029 205.957L11.7636 205.482C12.4354 205.379 12.9766 204.11 13.0139 202.514L13.2472 193.118C13.3218 190.122 12.4913 187.416 11.2596 186.651L9.00151 185.261C8.18037 184.748 7.3779 186.194 7.3779 188.21V203.597C7.3779 204.94 7.87243 206.041 8.46029 205.957Z" fill="url(#paint76_linear_151_344)"/>
<path d="M6.68747 178.692L12.2302 182.116C12.8554 182.508 13.4805 181.444 13.5178 179.914V179.429L8.14312 176.098C7.42463 175.659 6.71543 176.937 6.71543 178.692H6.68747Z" fill="#EFC093"/>
<path d="M83.0256 169.36L19.1817 171.88C20.0285 174.217 21.5888 176.229 23.6418 177.63C25.6949 179.032 28.1367 179.752 30.6218 179.69L70.979 178.066C74.2916 177.936 83.6228 173.195 85.7689 170.536L83.0256 169.36Z" fill="url(#paint77_linear_151_344)"/>
<path d="M78.6773 182.648L22.1585 184.878C22.9065 186.944 24.2844 188.723 26.0976 189.963C27.9108 191.204 30.0677 191.844 32.2641 191.792L68.0118 190.318C70.9511 190.206 79.5171 185.419 81.4207 183.068L78.6773 182.648Z" fill="url(#paint78_linear_151_344)"/>
<path d="M85.7689 170.536L21.9251 172.925C22.8275 175.198 24.4118 177.137 26.4602 178.473C28.5087 179.81 30.9208 180.479 33.3651 180.39L73.7224 178.85C75.3611 178.786 76.9685 178.381 78.443 177.663C79.9175 176.945 81.2269 175.929 82.2884 174.679L85.7689 170.536Z" fill="url(#paint79_linear_151_344)"/>
<path d="M87.4298 155.839L17.0729 159.88C18.0503 162.444 19.8104 164.635 22.1034 166.142C24.3963 167.65 27.1057 168.397 29.8472 168.278L74.3102 165.693C77.968 165.478 88.1577 160.094 90.4718 157.09L87.4298 155.839Z" fill="url(#paint80_linear_151_344)"/>
<path d="M90.4718 157.081L20.1335 160.99C21.1809 163.469 22.9684 165.564 25.2516 166.989C27.5347 168.414 30.2021 169.099 32.8892 168.95L77.3615 166.449C79.1625 166.34 80.9214 165.86 82.5273 165.037C84.1333 164.215 85.5516 163.069 86.6927 161.671L90.4718 157.081Z" fill="url(#paint81_linear_151_344)"/>
<path d="M81.4207 183.105L24.9018 185.214C25.707 187.227 27.1167 188.941 28.9367 190.119C30.7566 191.297 32.8973 191.882 35.0635 191.793L70.7925 190.43C72.2467 190.369 73.6723 190.005 74.9784 189.362C76.2844 188.72 77.4424 187.812 78.3787 186.698L81.4207 183.105Z" fill="url(#paint82_linear_151_344)"/>
<path d="M78.8545 214.579L22.2891 214.85C22.9464 212.748 24.2479 210.906 26.0096 209.585C27.7712 208.264 29.9038 207.53 32.1055 207.488L67.8531 207.357C70.7924 207.357 79.5731 211.733 81.5699 214.01L78.8545 214.579Z" fill="url(#paint83_linear_151_344)"/>
<path d="M81.5792 213.917L25.0231 214.392C25.7351 212.352 27.0605 210.582 28.8179 209.324C30.5752 208.066 32.6784 207.382 34.8395 207.366L70.5872 207.086C72.0399 207.076 73.4789 207.369 74.8124 207.946C76.1458 208.522 77.3445 209.37 78.332 210.436L81.5792 213.917Z" fill="url(#paint84_linear_151_344)"/>
<path d="M95.3613 149.793L96.0518 142.617L14.2082 149.102V155.513" fill="#A3BCFF"/>
<g style="mix-blend-mode:multiply">
<path d="M95.3613 149.793L96.2944 142.636V142.384H96.0332L90.9011 142.655L85.7875 143.065L75.5233 143.877L55.0974 145.529L34.6341 147.152L24.3699 147.964C22.6623 148.114 20.9547 148.207 19.2564 148.375L14.1523 148.935H13.975V149.093L14.1523 155.504L14.3389 149.093L14.1709 149.28L19.2937 149.019C21.0106 148.925 22.709 148.748 24.4166 148.627L34.6808 147.815L55.1441 146.191L75.6166 144.596L85.8809 143.784L90.9943 143.383L96.0985 142.851L95.8652 142.618L95.3613 149.793Z" fill="#7A8DBF"/>
</g>
<path d="M96.3598 142.757L103.89 124.664L95.7346 142.477L96.3598 142.757Z" fill="#7A8DBF"/>
<path d="M14.5442 149.065L12.3887 135.022L13.863 149.149L14.5442 149.065Z" fill="#7A8DBF"/>
<path d="M4.8305 215.41C4.8305 214.813 5.06743 214.241 5.48916 213.819C5.9109 213.398 6.48292 213.161 7.07934 213.161H106.913C113.497 213.159 120.049 212.239 126.378 210.427L136.036 207.627C136.036 207.627 141.168 205.92 141.168 210.716C141.156 211.156 141.287 211.588 141.541 211.948C141.795 212.308 142.158 212.576 142.577 212.713C143.585 213.166 144.44 213.899 145.041 214.826C145.642 215.753 145.962 216.834 145.964 217.938V236.33C145.972 236.707 145.903 237.082 145.762 237.432C145.622 237.782 145.412 238.099 145.145 238.366C144.878 238.633 144.56 238.843 144.211 238.984C143.861 239.124 143.486 239.193 143.109 239.185L54.6029 238.747L24.6872 238.598C18.622 238.598 4.85852 241.854 4.85852 232.196L4.8305 215.41Z" fill="url(#paint85_linear_151_344)"/>
<path d="M145.348 232.047C137.156 231.683 125.753 233.12 119.968 225.888C117.02 222.102 115.628 217.332 116.077 212.554C119.546 212.102 122.977 211.391 126.341 210.427L135.999 207.627C135.999 207.627 141.131 205.92 141.131 210.716C141.119 211.156 141.25 211.588 141.504 211.948C141.758 212.308 142.121 212.576 142.54 212.713C143.547 213.166 144.403 213.899 145.004 214.826C145.605 215.753 145.925 216.834 145.927 217.938V232.038L145.348 232.047Z" fill="url(#paint86_linear_151_344)"/>
<path d="M26.5534 193.379L26.6934 205.024" stroke="url(#paint87_linear_151_344)" stroke-width="0.55" stroke-miterlimit="10"/>
<path d="M28.8021 193.313L28.9421 205.033" stroke="url(#paint88_linear_151_344)" stroke-width="0.55" stroke-miterlimit="10"/>
<path d="M31.247 193.239L31.387 205.052" stroke="url(#paint89_linear_151_344)" stroke-width="0.55" stroke-miterlimit="10"/>
<path d="M33.7198 193.164L33.8597 205.061" stroke="url(#paint90_linear_151_344)" stroke-width="0.55" stroke-miterlimit="10"/>
<path d="M36.2298 193.089L36.3792 205.071" stroke="url(#paint91_linear_151_344)" stroke-width="0.55" stroke-miterlimit="10"/>
<path d="M38.7772 193.015L38.9265 205.09" stroke="url(#paint92_linear_151_344)" stroke-width="0.55" stroke-miterlimit="10"/>
<path d="M41.3712 192.94L41.5112 205.099" stroke="url(#paint93_linear_151_344)" stroke-width="0.55" stroke-miterlimit="10"/>
<path d="M43.9933 192.856L44.1426 205.118" stroke="url(#paint94_linear_151_344)" stroke-width="0.55" stroke-miterlimit="10"/>
<path d="M46.662 192.782L46.8113 205.127" stroke="url(#paint95_linear_151_344)" stroke-width="0.55" stroke-miterlimit="10"/>
<path d="M49.368 192.698L49.5173 205.146" stroke="url(#paint96_linear_151_344)" stroke-width="0.55" stroke-miterlimit="10"/>
<path d="M52.1207 192.623L52.27 205.155" stroke="url(#paint97_linear_151_344)" stroke-width="0.55" stroke-miterlimit="10"/>
<path d="M54.9108 192.539L55.0601 205.173" stroke="url(#paint98_linear_151_344)" stroke-width="0.55" stroke-miterlimit="10"/>
<path d="M57.7474 192.455L57.8967 205.192" stroke="url(#paint99_linear_151_344)" stroke-width="0.55" stroke-miterlimit="10"/>
<path d="M60.6214 192.371L60.78 205.201" stroke="url(#paint100_linear_151_344)" stroke-width="0.55" stroke-miterlimit="10"/>
<path d="M63.5515 192.278L63.7101 205.22" stroke="url(#paint101_linear_151_344)" stroke-width="0.55" stroke-miterlimit="10"/>
<path d="M66.528 192.194L66.6866 205.239" stroke="url(#paint102_linear_151_344)" stroke-width="0.55" stroke-miterlimit="10"/>
<path d="M69.5513 192.101L69.71 205.248" stroke="url(#paint103_linear_151_344)" stroke-width="0.55" stroke-miterlimit="10"/>
<path d="M72.6213 192.007L72.7799 205.267" stroke="url(#paint104_linear_151_344)" stroke-width="0.55" stroke-miterlimit="10"/>
<path d="M75.7379 191.914L75.9059 205.286" stroke="url(#paint105_linear_151_344)" stroke-width="0.55" stroke-miterlimit="10"/>
<path d="M16.5131 114.306L124.251 101.961C124.535 101.928 124.822 101.973 125.082 102.093C125.342 102.212 125.564 102.4 125.724 102.637C125.884 102.874 125.976 103.151 125.989 103.436C126.002 103.722 125.937 104.006 125.8 104.257C123.927 107.581 121.323 110.437 118.185 112.608C116.586 113.722 114.86 114.643 113.044 115.352L108.994 116.938C101.08 120.045 92.7801 122.06 84.3226 122.928L23.3435 129.199C21.4821 129.394 19.6123 128.918 18.0713 127.855C16.2891 126.624 14.4042 124.72 14.059 122.583L13.6204 119.784C13.4616 118.808 13.4901 117.81 13.7044 116.845C13.8497 116.182 14.1985 115.581 14.7021 115.125C15.2056 114.67 15.8388 114.384 16.5131 114.306Z" fill="url(#paint106_linear_151_344)"/>
<g style="mix-blend-mode:color-dodge">
<path d="M125.8 104.257C123.927 107.581 121.323 110.437 118.185 112.608C116.586 113.722 114.86 114.643 113.044 115.352L108.994 116.938C101.08 120.045 92.7801 122.06 84.3226 122.928L23.3435 129.199C21.4821 129.394 19.6123 128.918 18.0714 127.855C16.2891 126.624 14.4042 124.72 14.059 122.583L13.6204 119.784C13.4616 118.808 13.4901 117.81 13.7044 116.845" stroke="url(#paint107_linear_151_344)" stroke-width="0.37" stroke-miterlimit="10"/>
</g>
<path d="M109.974 220.803L109.414 228.091C109.302 229.584 107.818 230.769 105.971 230.89L95.0161 231.413C91.5356 231.571 88.391 229.733 87.5512 227.008L85.9276 222.025C85.3397 220.206 87.0286 218.442 89.3521 218.442H107.175C108.78 218.405 110.067 219.497 109.974 220.803Z" fill="url(#paint108_linear_151_344)"/>
<path d="M109.974 220.281L109.535 226.001C109.42 226.624 109.084 227.186 108.589 227.583C108.094 227.981 107.473 228.187 106.839 228.165L98.2447 228.576C95.5107 228.697 93.0566 227.26 92.3568 225.123L91.0877 221.214C90.6305 219.786 91.9555 218.414 93.7751 218.414H107.772C108.04 218.385 108.312 218.41 108.57 218.489C108.829 218.568 109.068 218.699 109.274 218.874C109.481 219.048 109.649 219.263 109.769 219.505C109.889 219.747 109.959 220.011 109.974 220.281Z" fill="url(#paint109_linear_151_344)"/>
<path d="M9.1414 221.521L9.62664 227.839C9.752 228.531 10.1231 229.155 10.6717 229.595C11.2203 230.036 11.9095 230.264 12.6126 230.237L22.1211 230.685C25.135 230.825 27.8597 229.229 28.6529 226.868L30.0619 222.538C30.5751 220.971 29.1288 219.431 27.0946 219.431H11.5955C11.2951 219.396 10.9907 219.424 10.7013 219.512C10.412 219.599 10.1438 219.746 9.91356 219.942C9.68332 220.138 9.4959 220.38 9.36306 220.651C9.23022 220.923 9.15476 221.219 9.1414 221.521Z" fill="url(#paint110_linear_151_344)"/>
<path d="M13.3031 221.111L13.6857 226.075C13.7863 226.616 14.0784 227.103 14.5086 227.445C14.9388 227.788 15.4782 227.964 16.0278 227.942L23.4927 228.296C25.8535 228.408 27.9904 227.158 28.5969 225.301L29.698 221.904C30.0992 220.673 28.9421 219.469 27.3652 219.469H15.2347C14.9983 219.44 14.7585 219.461 14.5305 219.53C14.3025 219.598 14.0911 219.713 13.9097 219.868C13.7283 220.022 13.5808 220.212 13.4764 220.426C13.372 220.64 13.313 220.873 13.3031 221.111Z" fill="url(#paint111_linear_151_344)"/>
<path style="mix-blend-mode:color-dodge" d="M109.974 220.803L109.414 228.091C109.302 229.584 107.818 230.769 105.971 230.89L95.0161 231.413C91.5356 231.571 88.391 229.733 87.5512 227.008L85.9276 222.025C85.3397 220.206 87.0286 218.442 89.3521 218.442H107.175C108.78 218.405 110.067 219.497 109.974 220.803Z" stroke="url(#paint112_linear_151_344)" stroke-width="0.37" stroke-miterlimit="10"/>
<path d="M116.916 149.532L138.257 142.617L116.711 148.869L116.916 149.532Z" fill="#7A8DBF"/>
<path d="M138.257 138.493C134.617 139.426 131.016 140.359 127.432 141.479C125.641 142.002 123.859 142.562 122.076 143.131C120.294 143.7 118.521 144.278 116.748 144.885C115.246 145.109 113.744 145.38 112.241 145.65C113.762 145.548 115.283 145.436 116.795 145.286C118.596 144.801 120.397 144.297 122.188 143.747C123.98 143.196 125.772 142.692 127.554 142.114C131.174 140.975 134.739 139.8 138.257 138.493Z" fill="#7A8DBF"/>
<path d="M116.916 181.902L127.535 178.291L116.711 181.249L116.916 181.902Z" fill="#7A8DBF"/>
<path d="M127.246 113.551C125.893 114.913 124.605 116.35 123.308 117.74C122.664 118.459 122.02 119.112 121.442 119.924C120.888 120.726 120.395 121.568 119.968 122.443C119.135 124.187 118.509 126.022 118.101 127.911C117.684 129.793 117.474 131.714 117.476 133.641C117.732 131.752 118.113 129.881 118.615 128.042C119.127 126.22 119.799 124.447 120.621 122.742C121.027 121.893 121.492 121.073 122.011 120.288C122.515 119.551 123.205 118.823 123.784 118.076C124.922 116.602 126.107 115.09 127.246 113.551Z" fill="#7A8DBF"/>
<path d="M13.1632 124.067C11.6628 126.038 10.5021 128.245 9.72929 130.599C8.92618 132.929 8.32063 135.323 7.91905 137.756C7.53361 140.184 7.29683 142.633 7.20993 145.09V148.766C7.28457 149.998 7.33122 151.221 7.43386 152.443C7.48985 151.211 7.50851 149.989 7.54583 148.776L7.75109 145.118C7.91838 142.688 8.20801 140.268 8.61888 137.868C8.98487 135.463 9.53072 133.089 10.2518 130.767L10.8211 129.04C11.0544 128.471 11.2503 127.902 11.5022 127.342C11.9469 126.198 12.5032 125.101 13.1632 124.067Z" fill="#7A8DBF"/>
<path d="M154.288 28.8892C152.827 29.2108 151.454 29.8478 150.266 30.7554C149.061 31.6444 147.995 32.7073 147.103 33.9093C146.221 35.1138 145.488 36.4203 144.919 37.8004C144.639 38.4909 144.425 39.2001 144.173 39.8999C143.921 40.5998 143.818 41.3369 143.678 42.0554C143.967 41.3742 144.21 40.6837 144.49 40.0119C144.77 39.3401 145.059 38.6682 145.423 38.0244C146.066 36.719 146.818 35.4704 147.672 34.2919C148.533 33.1357 149.518 32.078 150.611 31.138C151.713 30.2031 152.953 29.4445 154.288 28.8892Z" fill="#7A8DBF"/>
<path d="M339.231 216.259V203.037H348.357V215.568L339.231 216.259Z" fill="url(#paint113_linear_151_344)"/>
<path d="M343.794 216.259V203.037H352.92V215.568L343.794 216.259Z" fill="url(#paint114_linear_151_344)"/>
<path d="M410.96 216.259V203.037H420.086V215.568L410.96 216.259Z" fill="url(#paint115_linear_151_344)"/>
<path d="M415.523 216.259V203.037H424.648V215.568L415.523 216.259Z" fill="url(#paint116_linear_151_344)"/>
<path d="M329.051 227.68V216.793L443.824 212.75V222.372L329.051 227.68Z" fill="url(#paint117_linear_151_344)"/>
<path d="M330.917 225.814V218.763L441.958 214.617V220.382L330.917 225.814Z" fill="url(#paint118_linear_151_344)"/>
<path d="M316.92 216.483H329.051V227.68H316.92V216.483Z" fill="url(#paint119_linear_151_344)"/>
<path d="M282.395 207.152L561.163 199.165C562.73 199.116 564.214 198.563 565.301 197.621C566.389 196.679 566.996 195.421 566.995 194.113V37.2793C566.999 36.2773 566.568 35.3081 565.781 34.5509C564.994 33.7936 563.906 33.2995 562.716 33.1599L282.395 0V207.152Z" fill="#47315D"/>
<path d="M290.793 202.486L556.743 194.853C558.241 194.814 559.662 194.29 560.705 193.391C561.748 192.492 562.33 191.289 562.33 190.038V40.2656C562.33 39.3079 561.917 38.3822 561.166 37.6587C560.414 36.9352 559.375 36.4625 558.24 36.3276L290.804 4.66553L290.793 202.486Z" fill="#342447"/>
<path d="M488.614 28.3084V196.59L478.349 196.888V27.0605L488.614 28.3084Z" fill="#241933"/>
<path d="M468.085 25.5228V197.512L456.888 197.821V24.2612L468.085 25.5228Z" fill="#241933"/>
<path d="M446.623 23.6444V198.446L436.359 198.753V22.3945L446.623 23.6444Z" fill="#241933"/>
<path d="M552.999 35.7827V194.714L541.801 195.021V34.5254L552.999 35.7827Z" fill="#241933"/>
<path d="M510.075 31.1194V196.58L499.811 196.888V29.8599L510.075 31.1194Z" fill="#241933"/>
<path d="M531.537 32.9881V195.646L521.273 195.954V31.7261L531.537 32.9881Z" fill="#241933"/>
<path d="M340.248 10.5919V201.245L329.984 201.553V9.33105L340.248 10.5919Z" fill="#241933"/>
<path d="M318.786 7.79644V202.186L308.522 202.486V6.53174L318.786 7.79644Z" fill="#241933"/>
<path d="M297.325 202.281L290.793 202.486V4.66553L297.325 5.52403V202.281Z" fill="#241933"/>
<path d="M383.172 15.2619V200.32L371.974 200.62V13.9966L383.172 15.2619Z" fill="#241933"/>
<path d="M361.71 13.3871V200.313L350.512 200.62V12.1304L361.71 13.3871Z" fill="#241933"/>
<path d="M403.7 18.057V199.378L393.436 199.687V16.7959L403.7 18.057Z" fill="#241933"/>
<path d="M425.162 20.8522V198.455L414.897 198.753V19.5952L425.162 20.8522Z" fill="#241933"/>
<path d="M421.429 215.55V221.364L406.499 222.082V216.088L421.429 215.55Z" fill="url(#paint120_linear_151_344)"/>
<path d="M441.958 214.617V220.868L436.359 221.149V214.837L441.958 214.617Z" fill="url(#paint121_linear_151_344)"/>
<path d="M360.777 217.416V224.147L345.847 224.881V217.982L360.777 217.416Z" fill="url(#paint122_linear_151_344)"/>
<path d="M391.57 216.483V223.168L376.64 223.948V217.077L391.57 216.483Z" fill="url(#paint123_linear_151_344)"/>
<defs>
<linearGradient id="paint0_linear_151_344" x1="538.657" y1="213.068" x2="538.657" y2="193.015" gradientUnits="userSpaceOnUse">
<stop stop-color="#433DBF"/>
<stop offset="1" stop-color="#352C8F"/>
</linearGradient>
<linearGradient id="paint1_linear_151_344" x1="537.975" y1="211.696" x2="537.975" y2="191.643" gradientUnits="userSpaceOnUse">
<stop stop-color="#352C8F"/>
<stop offset="1" stop-color="#433DBF"/>
</linearGradient>
<linearGradient id="paint2_linear_151_344" x1="422.12" y1="214.719" x2="359.274" y2="214.719" gradientUnits="userSpaceOnUse">
<stop stop-color="#181387"/>
<stop offset="1" stop-color="#120B57"/>
</linearGradient>
<linearGradient id="paint3_linear_151_344" x1="421.383" y1="214.271" x2="373.56" y2="214.271" gradientUnits="userSpaceOnUse">
<stop stop-color="#120B57"/>
<stop offset="0.27" stop-color="#120B59" stop-opacity="0.97"/>
<stop offset="0.47" stop-color="#130C5E" stop-opacity="0.86"/>
<stop offset="0.65" stop-color="#140E67" stop-opacity="0.67"/>
<stop offset="0.81" stop-color="#161073" stop-opacity="0.41"/>
<stop offset="0.97" stop-color="#181283" stop-opacity="0.07"/>
<stop offset="1" stop-color="#181387" stop-opacity="0"/>
</linearGradient>
<linearGradient id="paint4_linear_151_344" x1="422.95" y1="238.159" x2="422.95" y2="198.595" gradientUnits="userSpaceOnUse">
<stop stop-color="#181387"/>
<stop offset="0.33" stop-color="#181385"/>
<stop offset="0.51" stop-color="#16117C"/>
<stop offset="0.66" stop-color="#140F6F"/>
<stop offset="0.79" stop-color="#110D5B"/>
<stop offset="0.91" stop-color="#0D0942"/>
<stop offset="1" stop-color="#090527"/>
</linearGradient>
<linearGradient id="paint5_linear_151_344" x1="395.299" y1="237.972" x2="395.299" y2="198.753" gradientUnits="userSpaceOnUse">
<stop stop-color="#181387"/>
<stop offset="0.09" stop-color="#151176"/>
<stop offset="0.29" stop-color="#100C54"/>
<stop offset="0.49" stop-color="#0C083B"/>
<stop offset="0.67" stop-color="#0A062C"/>
<stop offset="0.81" stop-color="#090527"/>
<stop offset="1" stop-color="#090527"/>
</linearGradient>
<linearGradient id="paint6_linear_151_344" x1="260.793" y1="238.159" x2="260.793" y2="198.595" gradientUnits="userSpaceOnUse">
<stop stop-color="#181387"/>
<stop offset="0.14" stop-color="#16117A"/>
<stop offset="0.42" stop-color="#140E66"/>
<stop offset="0.71" stop-color="#120C5B"/>
<stop offset="1" stop-color="#120B57"/>
</linearGradient>
<linearGradient id="paint7_linear_151_344" x1="258.582" y1="233.437" x2="258.582" y2="197.914" gradientUnits="userSpaceOnUse">
<stop stop-color="#120B57"/>
<stop offset="0.29" stop-color="#120C5B"/>
<stop offset="0.58" stop-color="#140E66"/>
<stop offset="0.86" stop-color="#16117A"/>
<stop offset="1" stop-color="#181387"/>
</linearGradient>
<linearGradient id="paint8_linear_151_344" x1="506.996" y1="215.242" x2="444.16" y2="215.242" gradientUnits="userSpaceOnUse">
<stop/>
<stop offset="1" stop-color="#140B6D"/>
</linearGradient>
<linearGradient id="paint9_linear_151_344" x1="516.327" y1="215.242" x2="453.491" y2="215.242" gradientUnits="userSpaceOnUse">
<stop stop-color="#181387"/>
<stop offset="1" stop-color="#120B57"/>
</linearGradient>
<linearGradient id="paint10_linear_151_344" x1="515.002" y1="214.794" x2="467.18" y2="214.794" gradientUnits="userSpaceOnUse">
<stop stop-color="#2B25A8" stop-opacity="0"/>
<stop offset="1" stop-color="#221978"/>
</linearGradient>
<linearGradient id="paint11_linear_151_344" x1="507.248" y1="214.794" x2="473.068" y2="214.794" gradientUnits="userSpaceOnUse">
<stop stop-color="white"/>
<stop offset="0.32" stop-color="#D9E1FE"/>
<stop offset="0.77" stop-color="#A6BBFD"/>
<stop offset="1" stop-color="#93ACFD"/>
</linearGradient>
<linearGradient id="paint12_linear_151_344" x1="504.234" y1="214.747" x2="472.135" y2="214.747" gradientUnits="userSpaceOnUse">
<stop stop-color="#7797FD"/>
<stop offset="0.18" stop-color="#8AA6FD"/>
<stop offset="0.56" stop-color="#BDCCFE"/>
<stop offset="1" stop-color="white"/>
</linearGradient>
<linearGradient id="paint13_linear_151_344" x1="504.234" y1="214.747" x2="474.178" y2="214.747" gradientUnits="userSpaceOnUse">
<stop stop-color="#9BB3FE"/>
<stop offset="0.45" stop-color="#9DB4FE"/>
<stop offset="0.61" stop-color="#A4BAFE"/>
<stop offset="0.73" stop-color="#AFC3FE"/>
<stop offset="0.82" stop-color="#C0CFFE"/>
<stop offset="0.9" stop-color="#D6E0FF"/>
<stop offset="0.97" stop-color="#F1F4FF"/>
<stop offset="1" stop-color="white"/>
</linearGradient>
<linearGradient id="paint14_linear_151_344" x1="502.666" y1="214.747" x2="472.975" y2="214.747" gradientUnits="userSpaceOnUse">
<stop stop-color="white"/>
<stop offset="0.52" stop-color="#C9D6FE"/>
<stop offset="1" stop-color="#9BB3FE"/>
</linearGradient>
<linearGradient id="paint15_linear_151_344" x1="495.64" y1="214.047" x2="479.348" y2="214.047" gradientUnits="userSpaceOnUse">
<stop stop-color="#C0CEFE"/>
<stop offset="0.17" stop-color="#AFC1FE"/>
<stop offset="0.39" stop-color="#9FB5FD"/>
<stop offset="0.64" stop-color="#96AEFD"/>
<stop offset="1" stop-color="#93ACFD"/>
</linearGradient>
<linearGradient id="paint16_linear_151_344" x1="494.828" y1="214.588" x2="480.16" y2="214.588" gradientUnits="userSpaceOnUse">
<stop stop-color="white"/>
<stop offset="0.16" stop-color="#FEFEFF" stop-opacity="0.99"/>
<stop offset="0.28" stop-color="#F9FBFF" stop-opacity="0.95"/>
<stop offset="0.41" stop-color="#F2F5FF" stop-opacity="0.88"/>
<stop offset="0.52" stop-color="#E8EDFF" stop-opacity="0.78"/>
<stop offset="0.63" stop-color="#DAE3FE" stop-opacity="0.66"/>
<stop offset="0.74" stop-color="#CAD6FE" stop-opacity="0.51"/>
<stop offset="0.84" stop-color="#B6C7FE" stop-opacity="0.33"/>
<stop offset="0.95" stop-color="#A0B6FD" stop-opacity="0.12"/>
<stop offset="1" stop-color="#93ACFD" stop-opacity="0"/>
</linearGradient>
<linearGradient id="paint17_linear_151_344" x1="491.124" y1="225.245" x2="484.937" y2="225.245" gradientUnits="userSpaceOnUse">
<stop stop-color="#C0CEFE"/>
<stop offset="0.17" stop-color="#AFC1FE"/>
<stop offset="0.39" stop-color="#9FB5FD"/>
<stop offset="0.64" stop-color="#96AEFD"/>
<stop offset="1" stop-color="#93ACFD"/>
</linearGradient>
<linearGradient id="paint18_linear_151_344" x1="490.816" y1="214.253" x2="485.245" y2="214.253" gradientUnits="userSpaceOnUse">
<stop stop-color="white"/>
<stop offset="0.16" stop-color="#FEFEFF" stop-opacity="0.99"/>
<stop offset="0.28" stop-color="#F9FBFF" stop-opacity="0.95"/>
<stop offset="0.41" stop-color="#F2F5FF" stop-opacity="0.88"/>
<stop offset="0.52" stop-color="#E8EDFF" stop-opacity="0.78"/>
<stop offset="0.63" stop-color="#DAE3FE" stop-opacity="0.66"/>
<stop offset="0.74" stop-color="#CAD6FE" stop-opacity="0.51"/>
<stop offset="0.84" stop-color="#B6C7FE" stop-opacity="0.33"/>
<stop offset="0.95" stop-color="#A0B6FD" stop-opacity="0.12"/>
<stop offset="1" stop-color="#93ACFD" stop-opacity="0"/>
</linearGradient>
<linearGradient id="paint19_linear_151_344" x1="239.985" y1="260.19" x2="239.985" y2="228.585" gradientUnits="userSpaceOnUse">
<stop stop-color="#120B57"/>
<stop offset="0.5" stop-color="#120B59"/>
<stop offset="0.69" stop-color="#130C60"/>
<stop offset="0.84" stop-color="#150F6C"/>
<stop offset="0.95" stop-color="#17117D"/>
<stop offset="1" stop-color="#181387"/>
</linearGradient>
<linearGradient id="paint20_linear_151_344" x1="238.623" y1="260.19" x2="238.623" y2="228.585" gradientUnits="userSpaceOnUse">
<stop stop-color="#181387"/>
<stop offset="0.05" stop-color="#17117D"/>
<stop offset="0.16" stop-color="#150F6C"/>
<stop offset="0.31" stop-color="#130C60"/>
<stop offset="0.5" stop-color="#120B59"/>
<stop offset="1" stop-color="#120B57"/>
</linearGradient>
<linearGradient id="paint21_linear_151_344" x1="131.557" y1="222.725" x2="59.2965" y2="222.725" gradientUnits="userSpaceOnUse">
<stop stop-color="#181387"/>
<stop offset="1" stop-color="#120B57"/>
</linearGradient>
<linearGradient id="paint22_linear_151_344" x1="130.717" y1="222.212" x2="75.7285" y2="222.212" gradientUnits="userSpaceOnUse">
<stop stop-color="#120B57"/>
<stop offset="0.27" stop-color="#120B59" stop-opacity="0.97"/>
<stop offset="0.47" stop-color="#130C5E" stop-opacity="0.86"/>
<stop offset="0.65" stop-color="#140E67" stop-opacity="0.67"/>
<stop offset="0.81" stop-color="#161073" stop-opacity="0.41"/>
<stop offset="0.97" stop-color="#181283" stop-opacity="0.07"/>
<stop offset="1" stop-color="#181387" stop-opacity="0"/>
</linearGradient>
<linearGradient id="paint23_linear_151_344" x1="155.967" y1="248.591" x2="155.967" y2="216.744" gradientUnits="userSpaceOnUse">
<stop stop-color="#181387"/>
<stop offset="0.01" stop-color="#16127D"/>
<stop offset="0.05" stop-color="#120E62"/>
<stop offset="0.09" stop-color="#0F0A4C"/>
<stop offset="0.14" stop-color="#0C083B"/>
<stop offset="0.2" stop-color="#0A0630"/>
<stop offset="0.29" stop-color="#090529"/>
<stop offset="0.53" stop-color="#090527"/>
<stop offset="0.72" stop-color="#090527"/>
</linearGradient>
<linearGradient id="paint24_linear_151_344" x1="239.098" y1="225.618" x2="166.838" y2="225.618" gradientUnits="userSpaceOnUse">
<stop stop-color="#181387"/>
<stop offset="1" stop-color="#120B57"/>
</linearGradient>
<linearGradient id="paint25_linear_151_344" x1="237.577" y1="225.095" x2="182.58" y2="225.095" gradientUnits="userSpaceOnUse">
<stop stop-color="#2B25A8" stop-opacity="0"/>
<stop offset="1" stop-color="#221978"/>
</linearGradient>
<linearGradient id="paint26_linear_151_344" x1="229.739" y1="225.095" x2="190.427" y2="225.095" gradientUnits="userSpaceOnUse">
<stop stop-color="white"/>
<stop offset="0.32" stop-color="#D9E1FE"/>
<stop offset="0.77" stop-color="#A6BBFD"/>
<stop offset="1" stop-color="#93ACFD"/>
</linearGradient>
<linearGradient id="paint27_linear_151_344" x1="227.341" y1="225.049" x2="190.427" y2="225.049" gradientUnits="userSpaceOnUse">
<stop stop-color="#7797FD"/>
<stop offset="0.18" stop-color="#8AA6FD"/>
<stop offset="0.56" stop-color="#BDCCFE"/>
<stop offset="1" stop-color="white"/>
</linearGradient>
<linearGradient id="paint28_linear_151_344" x1="225.195" y1="225.049" x2="190.632" y2="225.049" gradientUnits="userSpaceOnUse">
<stop stop-color="white"/>
<stop offset="0.52" stop-color="#C9D6FE"/>
<stop offset="1" stop-color="#9BB3FE"/>
</linearGradient>
<linearGradient id="paint29_linear_151_344" x1="225.531" y1="225.049" x2="191.398" y2="225.049" gradientUnits="userSpaceOnUse">
<stop stop-color="white"/>
<stop offset="0.52" stop-color="#C9D6FE"/>
<stop offset="1" stop-color="#9BB3FE"/>
</linearGradient>
<linearGradient id="paint30_linear_151_344" x1="222.405" y1="224.246" x2="203.677" y2="224.246" gradientUnits="userSpaceOnUse">
<stop stop-color="#C0CEFE"/>
<stop offset="0.17" stop-color="#AFC1FE"/>
<stop offset="0.39" stop-color="#9FB5FD"/>
<stop offset="0.64" stop-color="#96AEFD"/>
<stop offset="1" stop-color="#93ACFD"/>
</linearGradient>
<linearGradient id="paint31_linear_151_344" x1="221.481" y1="224.862" x2="204.601" y2="224.862" gradientUnits="userSpaceOnUse">
<stop stop-color="white"/>
<stop offset="0.16" stop-color="#FEFEFF" stop-opacity="0.99"/>
<stop offset="0.28" stop-color="#F9FBFF" stop-opacity="0.95"/>
<stop offset="0.41" stop-color="#F2F5FF" stop-opacity="0.88"/>
<stop offset="0.52" stop-color="#E8EDFF" stop-opacity="0.78"/>
<stop offset="0.63" stop-color="#DAE3FE" stop-opacity="0.66"/>
<stop offset="0.74" stop-color="#CAD6FE" stop-opacity="0.51"/>
<stop offset="0.84" stop-color="#B6C7FE" stop-opacity="0.33"/>
<stop offset="0.95" stop-color="#A0B6FD" stop-opacity="0.12"/>
<stop offset="1" stop-color="#93ACFD" stop-opacity="0"/>
</linearGradient>
<linearGradient id="paint32_linear_151_344" x1="217.217" y1="224.246" x2="210.097" y2="224.246" gradientUnits="userSpaceOnUse">
<stop stop-color="#C0CEFE"/>
<stop offset="0.17" stop-color="#AFC1FE"/>
<stop offset="0.39" stop-color="#9FB5FD"/>
<stop offset="0.64" stop-color="#96AEFD"/>
<stop offset="1" stop-color="#93ACFD"/>
</linearGradient>
<linearGradient id="paint33_linear_151_344" x1="216.862" y1="235.677" x2="210.452" y2="235.677" gradientUnits="userSpaceOnUse">
<stop stop-color="white"/>
<stop offset="0.16" stop-color="#FEFEFF" stop-opacity="0.99"/>
<stop offset="0.28" stop-color="#F9FBFF" stop-opacity="0.95"/>
<stop offset="0.41" stop-color="#F2F5FF" stop-opacity="0.88"/>
<stop offset="0.52" stop-color="#E8EDFF" stop-opacity="0.78"/>
<stop offset="0.63" stop-color="#DAE3FE" stop-opacity="0.66"/>
<stop offset="0.74" stop-color="#CAD6FE" stop-opacity="0.51"/>
<stop offset="0.84" stop-color="#B6C7FE" stop-opacity="0.33"/>
<stop offset="0.95" stop-color="#A0B6FD" stop-opacity="0.12"/>
<stop offset="1" stop-color="#93ACFD" stop-opacity="0"/>
</linearGradient>
<linearGradient id="paint34_linear_151_344" x1="24.7276" y1="123.876" x2="22.9721" y2="66.0867" gradientUnits="userSpaceOnUse">
<stop stop-color="#120B57"/>
<stop offset="0.15" stop-color="#140D65"/>
<stop offset="0.42" stop-color="#161078"/>
<stop offset="0.7" stop-color="#181283"/>
<stop offset="1" stop-color="#181387"/>
</linearGradient>
<linearGradient id="paint35_linear_151_344" x1="22.6757" y1="123.938" x2="20.9201" y2="66.1489" gradientUnits="userSpaceOnUse">
<stop stop-color="#120B57"/>
<stop offset="0.34" stop-color="#120B5A"/>
<stop offset="0.59" stop-color="#140D64"/>
<stop offset="0.82" stop-color="#161074"/>
<stop offset="1" stop-color="#181387"/>
</linearGradient>
<linearGradient id="paint36_linear_151_344" x1="26.4142" y1="125.001" x2="24.6587" y2="67.2118" gradientUnits="userSpaceOnUse">
<stop stop-color="#120B57"/>
<stop offset="0.27" stop-color="#120B59" stop-opacity="0.97"/>
<stop offset="0.47" stop-color="#130C5E" stop-opacity="0.86"/>
<stop offset="0.65" stop-color="#140E67" stop-opacity="0.67"/>
<stop offset="0.81" stop-color="#161073" stop-opacity="0.41"/>
<stop offset="0.97" stop-color="#181283" stop-opacity="0.07"/>
<stop offset="1" stop-color="#181387" stop-opacity="0"/>
</linearGradient>
<linearGradient id="paint37_linear_151_344" x1="193.674" y1="139.118" x2="193.674" y2="50.4163" gradientUnits="userSpaceOnUse">
<stop stop-color="#EB9B9A"/>
<stop offset="0.16" stop-color="#EA9493"/>
<stop offset="0.39" stop-color="#E88280"/>
<stop offset="0.66" stop-color="#E46462"/>
<stop offset="0.96" stop-color="#DF3A37"/>
<stop offset="1" stop-color="#DE3431"/>
</linearGradient>
<linearGradient id="paint38_linear_151_344" x1="183.214" y1="132.512" x2="183.214" y2="39.7507" gradientUnits="userSpaceOnUse">
<stop stop-color="#181387"/>
<stop offset="1" stop-color="#120B57"/>
</linearGradient>
<linearGradient id="paint39_linear_151_344" x1="221.061" y1="86.1359" x2="145.376" y2="86.1359" gradientUnits="userSpaceOnUse">
<stop stop-color="#120B57"/>
<stop offset="0.04" stop-color="#130C5E"/>
<stop offset="0.35" stop-color="#1A138C"/>
<stop offset="0.62" stop-color="#2018AD"/>
<stop offset="0.85" stop-color="#231BC2"/>
<stop offset="1" stop-color="#241CC9"/>
</linearGradient>
<linearGradient id="paint40_linear_151_344" x1="183.214" y1="128.331" x2="183.214" y2="42.5594" gradientUnits="userSpaceOnUse">
<stop/>
<stop offset="0.15" stop-color="#56514C"/>
<stop offset="0.28125" stop-color="#5F5955"/>
<stop offset="0.32" stop-color="#625B57"/>
<stop offset="0.473958" stop-color="#947F82"/>
<stop offset="0.588542" stop-color="#886F73"/>
<stop offset="0.7" stop-color="#857B97"/>
<stop offset="0.89" stop-color="#7B7DDA"/>
<stop offset="1" stop-color="#626EEA"/>
</linearGradient>
<linearGradient id="paint41_linear_151_344" x1="170.748" y1="134.677" x2="149.818" y2="134.677" gradientUnits="userSpaceOnUse">
<stop stop-color="#181387"/>
<stop offset="0.18" stop-color="#161074"/>
<stop offset="0.41" stop-color="#140D64"/>
<stop offset="0.66" stop-color="#120B5A"/>
<stop offset="1" stop-color="#120B57"/>
</linearGradient>
<linearGradient id="paint42_linear_151_344" x1="169.973" y1="135.022" x2="150.592" y2="135.022" gradientUnits="userSpaceOnUse">
<stop stop-color="#241DCC"/>
<stop offset="0.18" stop-color="#2219B9"/>
<stop offset="0.41" stop-color="#2116A9"/>
<stop offset="0.66" stop-color="#20159F"/>
<stop offset="1" stop-color="#20149C"/>
</linearGradient>
<linearGradient id="paint43_linear_151_344" x1="173.715" y1="126.4" x2="173.715" y2="54.1675" gradientUnits="userSpaceOnUse">
<stop stop-color="#120B57"/>
<stop offset="0.15" stop-color="#140D65"/>
<stop offset="0.42" stop-color="#161078"/>
<stop offset="0.7" stop-color="#181283"/>
<stop offset="1" stop-color="#181387"/>
</linearGradient>
<linearGradient id="paint44_linear_151_344" x1="171.662" y1="126.4" x2="171.662" y2="54.1675" gradientUnits="userSpaceOnUse">
<stop stop-color="#181387"/>
<stop offset="0.18" stop-color="#161074"/>
<stop offset="0.41" stop-color="#140D64"/>
<stop offset="0.66" stop-color="#120B5A"/>
<stop offset="1" stop-color="#120B57"/>
</linearGradient>
<linearGradient id="paint45_linear_151_344" x1="173.575" y1="123.871" x2="173.575" y2="53.9995" gradientUnits="userSpaceOnUse">
<stop stop-color="#181387"/>
<stop offset="0.18" stop-color="#161074"/>
<stop offset="0.41" stop-color="#140D64"/>
<stop offset="0.66" stop-color="#120B5A"/>
<stop offset="1" stop-color="#120B57"/>
</linearGradient>
<linearGradient id="paint46_linear_151_344" x1="170.262" y1="128.462" x2="170.262" y2="109.314" gradientUnits="userSpaceOnUse">
<stop stop-color="#120B57"/>
<stop offset="0.15" stop-color="#140D65"/>
<stop offset="0.42" stop-color="#161078"/>
<stop offset="0.7" stop-color="#181283"/>
<stop offset="1" stop-color="#181387"/>
</linearGradient>
<linearGradient id="paint47_linear_151_344" x1="169.721" y1="128.462" x2="169.721" y2="109.314" gradientUnits="userSpaceOnUse">
<stop stop-color="#181387"/>
<stop offset="0.18" stop-color="#161074"/>
<stop offset="0.41" stop-color="#140D64"/>
<stop offset="0.66" stop-color="#120B5A"/>
<stop offset="1" stop-color="#120B57"/>
</linearGradient>
<linearGradient id="paint48_linear_151_344" x1="148.745" y1="158.489" x2="148.745" y2="141.096" gradientUnits="userSpaceOnUse">
<stop stop-color="#120B57"/>
<stop offset="0.01" stop-color="#120B59"/>
<stop offset="0.19" stop-color="#150F6D"/>
<stop offset="0.38" stop-color="#17117C"/>
<stop offset="0.62" stop-color="#181384"/>
<stop offset="1" stop-color="#181387"/>
</linearGradient>
<linearGradient id="paint49_linear_151_344" x1="150.341" y1="158.489" x2="150.341" y2="141.096" gradientUnits="userSpaceOnUse">
<stop stop-color="#181387"/>
<stop offset="0.18" stop-color="#161074"/>
<stop offset="0.41" stop-color="#140D64"/>
<stop offset="0.66" stop-color="#120B5A"/>
<stop offset="1" stop-color="#120B57"/>
</linearGradient>
<linearGradient id="paint50_linear_151_344" x1="212.383" y1="152.415" x2="228.573" y2="152.415" gradientUnits="userSpaceOnUse">
<stop stop-color="#E8423F"/>
<stop offset="0.1" stop-color="#E84744" stop-opacity="0.93"/>
<stop offset="0.31" stop-color="#E85552" stop-opacity="0.75"/>
<stop offset="0.59" stop-color="#E86B69" stop-opacity="0.46"/>
<stop offset="0.94" stop-color="#E88987" stop-opacity="0.07"/>
<stop offset="1" stop-color="#E88F8D" stop-opacity="0"/>
</linearGradient>
<linearGradient id="paint51_linear_151_344" x1="212.383" y1="149.121" x2="229.73" y2="149.121" gradientUnits="userSpaceOnUse">
<stop stop-color="#120B57"/>
<stop offset="0.01" stop-color="#120B59"/>
<stop offset="0.19" stop-color="#150F6D"/>
<stop offset="0.38" stop-color="#17117C"/>
<stop offset="0.62" stop-color="#181384"/>
<stop offset="1" stop-color="#181387"/>
</linearGradient>
<linearGradient id="paint52_linear_151_344" x1="214.324" y1="149.476" x2="229.73" y2="149.476" gradientUnits="userSpaceOnUse">
<stop stop-color="#181387"/>
<stop offset="0.18" stop-color="#161074"/>
<stop offset="0.41" stop-color="#140D64"/>
<stop offset="0.66" stop-color="#120B5A"/>
<stop offset="1" stop-color="#120B57"/>
</linearGradient>
<linearGradient id="paint53_linear_151_344" x1="229.907" y1="149.476" x2="214.156" y2="149.476" gradientUnits="userSpaceOnUse">
<stop stop-color="#181387"/>
<stop offset="0.18" stop-color="#161074"/>
<stop offset="0.41" stop-color="#140D64"/>
<stop offset="0.66" stop-color="#120B5A"/>
<stop offset="1" stop-color="#120B57"/>
</linearGradient>
<linearGradient id="paint54_linear_151_344" x1="197.603" y1="216.044" x2="177.214" y2="180.726" gradientUnits="userSpaceOnUse">
<stop stop-color="#E88F8D" stop-opacity="0"/>
<stop offset="1" stop-color="#CC3A37"/>
</linearGradient>
<linearGradient id="paint55_linear_151_344" x1="201.942" y1="223.463" x2="179.724" y2="184.981" gradientUnits="userSpaceOnUse">
<stop stop-color="#181387"/>
<stop offset="1" stop-color="#120B57"/>
</linearGradient>
<linearGradient id="paint56_linear_151_344" x1="242.178" y1="200.797" x2="173.137" y2="200.797" gradientUnits="userSpaceOnUse">
<stop stop-color="#231CC4"/>
<stop offset="0.42" stop-color="#231CC2"/>
<stop offset="0.57" stop-color="#211BBB"/>
<stop offset="0.67" stop-color="#1F19B0"/>
<stop offset="0.76" stop-color="#1D169F"/>
<stop offset="0.83" stop-color="#191389"/>
<stop offset="0.9" stop-color="#140F6D"/>
<stop offset="0.95" stop-color="#0F0A4E"/>
<stop offset="1" stop-color="#09052E"/>
</linearGradient>
<linearGradient id="paint57_linear_151_344" x1="242.355" y1="200.751" x2="172.987" y2="200.751" gradientUnits="userSpaceOnUse">
<stop stop-color="#181387"/>
<stop offset="0.18" stop-color="#161074"/>
<stop offset="0.41" stop-color="#140D64"/>
<stop offset="0.66" stop-color="#120B5A"/>
<stop offset="1" stop-color="#120B57"/>
</linearGradient>
<linearGradient id="paint58_linear_151_344" x1="76.8204" y1="131" x2="76.8204" y2="33.443" gradientUnits="userSpaceOnUse">
<stop stop-color="#181387"/>
<stop offset="1" stop-color="#120B57"/>
</linearGradient>
<linearGradient id="paint59_linear_151_344" x1="75.1034" y1="128.714" x2="75.1034" y2="35.1969" gradientUnits="userSpaceOnUse">
<stop/>
<stop offset="0.15" stop-color="#2E3638"/>
<stop offset="0.32" stop-color="#496065"/>
<stop offset="0.51" stop-color="#73959C"/>
<stop offset="0.7" stop-color="#A7D9E4"/>
<stop offset="0.89" stop-color="#7B7DDA"/>
<stop offset="1" stop-color="#626EEA"/>
</linearGradient>
<linearGradient id="paint60_linear_151_344" x1="94.2042" y1="128.714" x2="94.2042" y2="35.197" gradientUnits="userSpaceOnUse">
<stop stop-color="#EFC093"/>
<stop offset="0.15" stop-color="#EABD96"/>
<stop offset="0.32" stop-color="#DCB59F"/>
<stop offset="0.51" stop-color="#C5A8AD"/>
<stop offset="0.7" stop-color="#A595C1"/>
<stop offset="0.89" stop-color="#7B7DDA"/>
<stop offset="1" stop-color="#626EEA"/>
</linearGradient>
<linearGradient id="paint61_linear_151_344" x1="106.008" y1="128.714" x2="106.008" y2="35.1969" gradientUnits="userSpaceOnUse">
<stop stop-color="#EFC093"/>
<stop offset="0.15" stop-color="#EABD96"/>
<stop offset="0.32" stop-color="#DCB59F"/>
<stop offset="0.51" stop-color="#C5A8AD"/>
<stop offset="0.7" stop-color="#A595C1"/>
<stop offset="0.89" stop-color="#7B7DDA"/>
<stop offset="1" stop-color="#626EEA"/>
</linearGradient>
<linearGradient id="paint62_linear_151_344" x1="115.134" y1="128.714" x2="115.134" y2="35.197" gradientUnits="userSpaceOnUse">
<stop stop-color="#EFC093"/>
<stop offset="0.15" stop-color="#EABD96"/>
<stop offset="0.32" stop-color="#DCB59F"/>
<stop offset="0.51" stop-color="#C5A8AD"/>
<stop offset="0.7" stop-color="#A595C1"/>
<stop offset="0.89" stop-color="#7B7DDA"/>
<stop offset="1" stop-color="#626EEA"/>
</linearGradient>
<linearGradient id="paint63_linear_151_344" x1="86.8234" y1="128.723" x2="86.8234" y2="35.2063" gradientUnits="userSpaceOnUse">
<stop stop-color="#EFC093"/>
<stop offset="0.15" stop-color="#EABD96"/>
<stop offset="0.32" stop-color="#DCB59F"/>
<stop offset="0.51" stop-color="#C5A8AD"/>
<stop offset="0.7" stop-color="#A595C1"/>
<stop offset="0.89" stop-color="#7B7DDA"/>
<stop offset="1" stop-color="#626EEA"/>
</linearGradient>
<linearGradient id="paint64_linear_151_344" x1="107.874" y1="128.714" x2="107.874" y2="35.1969" gradientUnits="userSpaceOnUse">
<stop stop-color="#EFC093"/>
<stop offset="0.15" stop-color="#EABD96"/>
<stop offset="0.32" stop-color="#DCB59F"/>
<stop offset="0.51" stop-color="#C5A8AD"/>
<stop offset="0.7" stop-color="#A595C1"/>
<stop offset="0.89" stop-color="#7B7DDA"/>
<stop offset="1" stop-color="#626EEA"/>
</linearGradient>
<linearGradient id="paint65_linear_151_344" x1="37.6295" y1="128.714" x2="37.6295" y2="35.1968" gradientUnits="userSpaceOnUse">
<stop stop-color="#EFC093"/>
<stop offset="0.15" stop-color="#EABD96"/>
<stop offset="0.32" stop-color="#DCB59F"/>
<stop offset="0.51" stop-color="#C5A8AD"/>
<stop offset="0.7" stop-color="#A595C1"/>
<stop offset="0.89" stop-color="#7B7DDA"/>
<stop offset="1" stop-color="#626EEA"/>
</linearGradient>
<linearGradient id="paint66_linear_151_344" x1="41.8285" y1="128.714" x2="41.8285" y2="35.1969" gradientUnits="userSpaceOnUse">
<stop stop-color="#EFC093"/>
<stop offset="0.15" stop-color="#EABD96"/>
<stop offset="0.32" stop-color="#DCB59F"/>
<stop offset="0.51" stop-color="#C5A8AD"/>
<stop offset="0.7" stop-color="#A595C1"/>
<stop offset="0.89" stop-color="#7B7DDA"/>
<stop offset="1" stop-color="#626EEA"/>
</linearGradient>
<linearGradient id="paint67_linear_151_344" x1="64.5778" y1="128.686" x2="64.5778" y2="35.1692" gradientUnits="userSpaceOnUse">
<stop stop-color="#EFC093"/>
<stop offset="0.15" stop-color="#EABD96"/>
<stop offset="0.32" stop-color="#DCB59F"/>
<stop offset="0.51" stop-color="#C5A8AD"/>
<stop offset="0.7" stop-color="#A595C1"/>
<stop offset="0.89" stop-color="#7B7DDA"/>
<stop offset="1" stop-color="#626EEA"/>
</linearGradient>
<linearGradient id="paint68_linear_151_344" x1="53.8564" y1="128.714" x2="53.8564" y2="35.1968" gradientUnits="userSpaceOnUse">
<stop stop-color="#EFC093"/>
<stop offset="0.15" stop-color="#EABD96"/>
<stop offset="0.32" stop-color="#DCB59F"/>
<stop offset="0.51" stop-color="#C5A8AD"/>
<stop offset="0.7" stop-color="#A595C1"/>
<stop offset="0.89" stop-color="#7B7DDA"/>
<stop offset="1" stop-color="#626EEA"/>
</linearGradient>
<linearGradient id="paint69_linear_151_344" x1="95.3613" y1="181.817" x2="14.2083" y2="181.817" gradientUnits="userSpaceOnUse">
<stop stop-color="#93ACFD"/>
<stop offset="0.23" stop-color="#A6BBFD"/>
<stop offset="0.68" stop-color="#D9E1FE"/>
<stop offset="1" stop-color="white"/>
</linearGradient>
<linearGradient id="paint70_linear_151_344" x1="93.7471" y1="181.817" x2="14.2083" y2="181.817" gradientUnits="userSpaceOnUse">
<stop stop-color="white"/>
<stop offset="0.32" stop-color="#D9E1FE"/>
<stop offset="0.77" stop-color="#A6BBFD"/>
<stop offset="1" stop-color="#93ACFD"/>
</linearGradient>
<linearGradient id="paint71_linear_151_344" x1="116.814" y1="180.371" x2="91.2557" y2="180.371" gradientUnits="userSpaceOnUse">
<stop stop-color="#09052E"/>
<stop offset="1" stop-color="#181387"/>
</linearGradient>
<linearGradient id="paint72_linear_151_344" x1="104.03" y1="209.783" x2="104.03" y2="155.121" gradientUnits="userSpaceOnUse">
<stop stop-color="#EFC093"/>
<stop offset="0.11" stop-color="#D5B1A3"/>
<stop offset="0.3" stop-color="#AC99BC"/>
<stop offset="0.49" stop-color="#8C86D0"/>
<stop offset="0.68" stop-color="#7579DE"/>
<stop offset="0.85" stop-color="#6771E7"/>
<stop offset="1" stop-color="#626EEA"/>
</linearGradient>
<linearGradient id="paint73_linear_151_344" x1="104.907" y1="209.783" x2="104.907" y2="160.16" gradientUnits="userSpaceOnUse">
<stop stop-color="#626EEA"/>
<stop offset="0.04" stop-color="#797BDC"/>
<stop offset="0.09" stop-color="#988EC8"/>
<stop offset="0.16" stop-color="#B49DB8"/>
<stop offset="0.23" stop-color="#CAAAAA"/>
<stop offset="0.32" stop-color="#DBB4A0"/>
<stop offset="0.43" stop-color="#E6BB98"/>
<stop offset="0.58" stop-color="#EDBF94"/>
<stop offset="1" stop-color="#EFC093"/>
</linearGradient>
<linearGradient id="paint74_linear_151_344" x1="10.2518" y1="213.842" x2="10.2518" y2="152.415" gradientUnits="userSpaceOnUse">
<stop stop-color="#09052E"/>
<stop offset="1" stop-color="#181387"/>
</linearGradient>
<linearGradient id="paint75_linear_151_344" x1="9.97198" y1="205.967" x2="9.97198" y2="161.569" gradientUnits="userSpaceOnUse">
<stop stop-color="#EFC093"/>
<stop offset="0.11" stop-color="#D5B1A3"/>
<stop offset="0.3" stop-color="#AC99BC"/>
<stop offset="0.49" stop-color="#8C86D0"/>
<stop offset="0.68" stop-color="#7579DE"/>
<stop offset="0.85" stop-color="#6771E7"/>
<stop offset="1" stop-color="#626EEA"/>
</linearGradient>
<linearGradient id="paint76_linear_151_344" x1="10.3172" y1="205.967" x2="10.3172" y2="166.207" gradientUnits="userSpaceOnUse">
<stop stop-color="#626EEA"/>
<stop offset="0.04" stop-color="#797BDC"/>
<stop offset="0.09" stop-color="#988EC8"/>
<stop offset="0.16" stop-color="#B49DB8"/>
<stop offset="0.23" stop-color="#CAAAAA"/>
<stop offset="0.32" stop-color="#DBB4A0"/>
<stop offset="0.43" stop-color="#E6BB98"/>
<stop offset="0.58" stop-color="#EDBF94"/>
<stop offset="1" stop-color="#EFC093"/>
</linearGradient>
<linearGradient id="paint77_linear_151_344" x1="85.7689" y1="174.53" x2="19.1817" y2="174.53" gradientUnits="userSpaceOnUse">
<stop stop-color="#93ACFD"/>
<stop offset="0.23" stop-color="#A6BBFD"/>
<stop offset="0.68" stop-color="#D9E1FE"/>
<stop offset="1" stop-color="white"/>
</linearGradient>
<linearGradient id="paint78_linear_151_344" x1="81.4207" y1="187.23" x2="22.1585" y2="187.23" gradientUnits="userSpaceOnUse">
<stop stop-color="#93ACFD"/>
<stop offset="0.23" stop-color="#A6BBFD"/>
<stop offset="0.68" stop-color="#D9E1FE"/>
<stop offset="1" stop-color="white"/>
</linearGradient>
<linearGradient id="paint79_linear_151_344" x1="85.7689" y1="175.444" x2="21.9251" y2="175.444" gradientUnits="userSpaceOnUse">
<stop stop-color="#09052E"/>
<stop offset="1" stop-color="#181387"/>
</linearGradient>
<linearGradient id="paint80_linear_151_344" x1="90.5245" y1="161.483" x2="17.1002" y2="162.803" gradientUnits="userSpaceOnUse">
<stop stop-color="#93ACFD"/>
<stop offset="0.23" stop-color="#A6BBFD"/>
<stop offset="0.68" stop-color="#D9E1FE"/>
<stop offset="1" stop-color="white"/>
</linearGradient>
<linearGradient id="paint81_linear_151_344" x1="90.5428" y1="162.5" x2="20.1413" y2="163.765" gradientUnits="userSpaceOnUse">
<stop stop-color="#09052E"/>
<stop offset="1" stop-color="#181387"/>
</linearGradient>
<linearGradient id="paint82_linear_151_344" x1="81.4207" y1="187.454" x2="24.9018" y2="187.454" gradientUnits="userSpaceOnUse">
<stop stop-color="#09052E"/>
<stop offset="1" stop-color="#181387"/>
</linearGradient>
<linearGradient id="paint83_linear_151_344" x1="82.7259" y1="207.379" x2="23.4637" y2="209.75" gradientUnits="userSpaceOnUse">
<stop stop-color="#93ACFD"/>
<stop offset="0.23" stop-color="#A6BBFD"/>
<stop offset="0.68" stop-color="#D9E1FE"/>
<stop offset="1" stop-color="white"/>
</linearGradient>
<linearGradient id="paint84_linear_151_344" x1="78.8988" y1="211.281" x2="22.38" y2="214.107" gradientUnits="userSpaceOnUse">
<stop stop-color="#09052E"/>
<stop offset="1" stop-color="#181387"/>
</linearGradient>
<linearGradient id="paint85_linear_151_344" x1="75.3834" y1="239.223" x2="75.3834" y2="207.366" gradientUnits="userSpaceOnUse">
<stop stop-color="#09052E"/>
<stop offset="1" stop-color="#181387"/>
</linearGradient>
<linearGradient id="paint86_linear_151_344" x1="154.605" y1="219.721" x2="115.974" y2="219.721" gradientUnits="userSpaceOnUse">
<stop stop-color="#181387"/>
<stop offset="1" stop-color="#09052E"/>
</linearGradient>
<linearGradient id="paint87_linear_151_344" x1="26.8456" y1="199.175" x2="26.3325" y2="199.181" gradientUnits="userSpaceOnUse">
<stop stop-color="white"/>
<stop offset="0.32" stop-color="#D9E1FE"/>
<stop offset="0.77" stop-color="#A6BBFD"/>
<stop offset="1" stop-color="#93ACFD"/>
</linearGradient>
<linearGradient id="paint88_linear_151_344" x1="29.1036" y1="199.148" x2="28.5903" y2="199.154" gradientUnits="userSpaceOnUse">
<stop stop-color="white"/>
<stop offset="0.32" stop-color="#D9E1FE"/>
<stop offset="0.77" stop-color="#A6BBFD"/>
<stop offset="1" stop-color="#93ACFD"/>
</linearGradient>
<linearGradient id="paint89_linear_151_344" x1="31.5389" y1="199.118" x2="31.0257" y2="199.125" gradientUnits="userSpaceOnUse">
<stop stop-color="white"/>
<stop offset="0.32" stop-color="#D9E1FE"/>
<stop offset="0.77" stop-color="#A6BBFD"/>
<stop offset="1" stop-color="#93ACFD"/>
</linearGradient>
<linearGradient id="paint90_linear_151_344" x1="34.0208" y1="199.088" x2="33.5076" y2="199.095" gradientUnits="userSpaceOnUse">
<stop stop-color="white"/>
<stop offset="0.32" stop-color="#D9E1FE"/>
<stop offset="0.77" stop-color="#A6BBFD"/>
<stop offset="1" stop-color="#93ACFD"/>
</linearGradient>
<linearGradient id="paint91_linear_151_344" x1="36.5307" y1="199.058" x2="36.0175" y2="199.064" gradientUnits="userSpaceOnUse">
<stop stop-color="white"/>
<stop offset="0.32" stop-color="#D9E1FE"/>
<stop offset="0.77" stop-color="#A6BBFD"/>
<stop offset="1" stop-color="#93ACFD"/>
</linearGradient>
<linearGradient id="paint92_linear_151_344" x1="39.0779" y1="199.028" x2="38.5647" y2="199.034" gradientUnits="userSpaceOnUse">
<stop stop-color="white"/>
<stop offset="0.32" stop-color="#D9E1FE"/>
<stop offset="0.77" stop-color="#A6BBFD"/>
<stop offset="1" stop-color="#93ACFD"/>
</linearGradient>
<linearGradient id="paint93_linear_151_344" x1="41.6718" y1="198.997" x2="41.1492" y2="199.003" gradientUnits="userSpaceOnUse">
<stop stop-color="white"/>
<stop offset="0.32" stop-color="#D9E1FE"/>
<stop offset="0.77" stop-color="#A6BBFD"/>
<stop offset="1" stop-color="#93ACFD"/>
</linearGradient>
<linearGradient id="paint94_linear_151_344" x1="44.2936" y1="198.965" x2="43.7804" y2="198.971" gradientUnits="userSpaceOnUse">
<stop stop-color="white"/>
<stop offset="0.32" stop-color="#D9E1FE"/>
<stop offset="0.77" stop-color="#A6BBFD"/>
<stop offset="1" stop-color="#93ACFD"/>
</linearGradient>
<linearGradient id="paint95_linear_151_344" x1="46.9621" y1="198.933" x2="46.4489" y2="198.939" gradientUnits="userSpaceOnUse">
<stop stop-color="white"/>
<stop offset="0.32" stop-color="#D9E1FE"/>
<stop offset="0.77" stop-color="#A6BBFD"/>
<stop offset="1" stop-color="#93ACFD"/>
</linearGradient>
<linearGradient id="paint96_linear_151_344" x1="49.6679" y1="198.9" x2="49.1547" y2="198.906" gradientUnits="userSpaceOnUse">
<stop stop-color="white"/>
<stop offset="0.32" stop-color="#D9E1FE"/>
<stop offset="0.77" stop-color="#A6BBFD"/>
<stop offset="1" stop-color="#93ACFD"/>
</linearGradient>
<linearGradient id="paint97_linear_151_344" x1="52.4204" y1="198.867" x2="51.9072" y2="198.873" gradientUnits="userSpaceOnUse">
<stop stop-color="white"/>
<stop offset="0.32" stop-color="#D9E1FE"/>
<stop offset="0.77" stop-color="#A6BBFD"/>
<stop offset="1" stop-color="#93ACFD"/>
</linearGradient>
<linearGradient id="paint98_linear_151_344" x1="55.2103" y1="198.833" x2="54.6971" y2="198.84" gradientUnits="userSpaceOnUse">
<stop stop-color="white"/>
<stop offset="0.32" stop-color="#D9E1FE"/>
<stop offset="0.77" stop-color="#A6BBFD"/>
<stop offset="1" stop-color="#93ACFD"/>
</linearGradient>
<linearGradient id="paint99_linear_151_344" x1="58.0467" y1="198.799" x2="57.5335" y2="198.806" gradientUnits="userSpaceOnUse">
<stop stop-color="white"/>
<stop offset="0.32" stop-color="#D9E1FE"/>
<stop offset="0.77" stop-color="#A6BBFD"/>
<stop offset="1" stop-color="#93ACFD"/>
</linearGradient>
<linearGradient id="paint100_linear_151_344" x1="60.9298" y1="198.765" x2="60.4166" y2="198.771" gradientUnits="userSpaceOnUse">
<stop stop-color="white"/>
<stop offset="0.32" stop-color="#D9E1FE"/>
<stop offset="0.77" stop-color="#A6BBFD"/>
<stop offset="1" stop-color="#93ACFD"/>
</linearGradient>
<linearGradient id="paint101_linear_151_344" x1="63.8596" y1="198.729" x2="63.3465" y2="198.736" gradientUnits="userSpaceOnUse">
<stop stop-color="white"/>
<stop offset="0.32" stop-color="#D9E1FE"/>
<stop offset="0.77" stop-color="#A6BBFD"/>
<stop offset="1" stop-color="#93ACFD"/>
</linearGradient>
<linearGradient id="paint102_linear_151_344" x1="66.836" y1="198.694" x2="66.3135" y2="198.7" gradientUnits="userSpaceOnUse">
<stop stop-color="white"/>
<stop offset="0.32" stop-color="#D9E1FE"/>
<stop offset="0.77" stop-color="#A6BBFD"/>
<stop offset="1" stop-color="#93ACFD"/>
</linearGradient>
<linearGradient id="paint103_linear_151_344" x1="69.8498" y1="198.657" x2="69.3366" y2="198.663" gradientUnits="userSpaceOnUse">
<stop stop-color="white"/>
<stop offset="0.32" stop-color="#D9E1FE"/>
<stop offset="0.77" stop-color="#A6BBFD"/>
<stop offset="1" stop-color="#93ACFD"/>
</linearGradient>
<linearGradient id="paint104_linear_151_344" x1="72.9288" y1="198.62" x2="72.4157" y2="198.626" gradientUnits="userSpaceOnUse">
<stop stop-color="white"/>
<stop offset="0.32" stop-color="#D9E1FE"/>
<stop offset="0.77" stop-color="#A6BBFD"/>
<stop offset="1" stop-color="#93ACFD"/>
</linearGradient>
<linearGradient id="paint105_linear_151_344" x1="76.0452" y1="198.583" x2="75.5321" y2="198.589" gradientUnits="userSpaceOnUse">
<stop stop-color="white"/>
<stop offset="0.32" stop-color="#D9E1FE"/>
<stop offset="0.77" stop-color="#A6BBFD"/>
<stop offset="1" stop-color="#93ACFD"/>
</linearGradient>
<linearGradient id="paint106_linear_151_344" x1="69.7566" y1="129.246" x2="69.7566" y2="36.27" gradientUnits="userSpaceOnUse">
<stop stop-color="#181387"/>
<stop offset="0.18" stop-color="#161074"/>
<stop offset="0.41" stop-color="#140D64"/>
<stop offset="0.66" stop-color="#120B5A"/>
<stop offset="1" stop-color="#120B57"/>
</linearGradient>
<linearGradient id="paint107_linear_151_344" x1="125.949" y1="116.789" x2="13.3498" y2="116.789" gradientUnits="userSpaceOnUse">
<stop stop-color="#181387"/>
<stop offset="0.18" stop-color="#161074"/>
<stop offset="0.41" stop-color="#140D64"/>
<stop offset="0.66" stop-color="#120B5A"/>
<stop offset="1" stop-color="#120B57"/>
</linearGradient>
<linearGradient id="paint108_linear_151_344" x1="109.974" y1="224.89" x2="63.8314" y2="224.89" gradientUnits="userSpaceOnUse">
<stop stop-color="#181387"/>
<stop offset="0.46" stop-color="#181385"/>
<stop offset="0.63" stop-color="#17127E"/>
<stop offset="0.74" stop-color="#151073"/>
<stop offset="0.84" stop-color="#120D62"/>
<stop offset="0.92" stop-color="#0E0A4C"/>
<stop offset="0.99" stop-color="#0A0631"/>
<stop offset="1" stop-color="#09052E"/>
</linearGradient>
<linearGradient id="paint109_linear_151_344" x1="109.974" y1="223.49" x2="73.7877" y2="223.49" gradientUnits="userSpaceOnUse">
<stop stop-color="#EFC093"/>
<stop offset="0.11" stop-color="#D5B1A3"/>
<stop offset="0.3" stop-color="#AC99BC"/>
<stop offset="0.49" stop-color="#8C86D0"/>
<stop offset="0.68" stop-color="#7579DE"/>
<stop offset="0.85" stop-color="#6771E7"/>
<stop offset="1" stop-color="#626EEA"/>
</linearGradient>
<linearGradient id="paint110_linear_151_344" x1="9.1414" y1="225.058" x2="49.1721" y2="225.058" gradientUnits="userSpaceOnUse">
<stop stop-color="#181387"/>
<stop offset="0.46" stop-color="#181385"/>
<stop offset="0.63" stop-color="#17127E"/>
<stop offset="0.74" stop-color="#151073"/>
<stop offset="0.84" stop-color="#120D62"/>
<stop offset="0.92" stop-color="#0E0A4C"/>
<stop offset="0.99" stop-color="#0A0631"/>
<stop offset="1" stop-color="#09052E"/>
</linearGradient>
<linearGradient id="paint111_linear_151_344" x1="13.3031" y1="223.845" x2="44.7025" y2="223.845" gradientUnits="userSpaceOnUse">
<stop stop-color="#EFC093"/>
<stop offset="0.11" stop-color="#D5B1A3"/>
<stop offset="0.3" stop-color="#AC99BC"/>
<stop offset="0.49" stop-color="#8C86D0"/>
<stop offset="0.68" stop-color="#7579DE"/>
<stop offset="0.85" stop-color="#6771E7"/>
<stop offset="1" stop-color="#626EEA"/>
</linearGradient>
<linearGradient id="paint112_linear_151_344" x1="110.151" y1="224.89" x2="85.601" y2="224.89" gradientUnits="userSpaceOnUse">
<stop stop-color="#181387"/>
<stop offset="0.18" stop-color="#161074"/>
<stop offset="0.41" stop-color="#140D64"/>
<stop offset="0.66" stop-color="#120B5A"/>
<stop offset="1" stop-color="#120B57"/>
</linearGradient>
<linearGradient id="paint113_linear_151_344" x1="348.357" y1="209.643" x2="339.231" y2="209.643" gradientUnits="userSpaceOnUse">
<stop stop-color="#120B57"/>
<stop offset="0.14" stop-color="#140D64"/>
<stop offset="0.42" stop-color="#161077"/>
<stop offset="0.71" stop-color="#181283"/>
<stop offset="1" stop-color="#181387"/>
</linearGradient>
<linearGradient id="paint114_linear_151_344" x1="352.92" y1="209.643" x2="343.794" y2="209.643" gradientUnits="userSpaceOnUse">
<stop stop-color="#433DBF"/>
<stop offset="1" stop-color="#352C8F"/>
</linearGradient>
<linearGradient id="paint115_linear_151_344" x1="420.086" y1="209.643" x2="410.96" y2="209.643" gradientUnits="userSpaceOnUse">
<stop stop-color="#120B57"/>
<stop offset="0.14" stop-color="#140D64"/>
<stop offset="0.42" stop-color="#161077"/>
<stop offset="0.71" stop-color="#181283"/>
<stop offset="1" stop-color="#181387"/>
</linearGradient>
<linearGradient id="paint116_linear_151_344" x1="424.648" y1="209.643" x2="415.523" y2="209.643" gradientUnits="userSpaceOnUse">
<stop stop-color="#433DBF"/>
<stop offset="1" stop-color="#352C8F"/>
</linearGradient>
<linearGradient id="paint117_linear_151_344" x1="443.824" y1="220.211" x2="329.051" y2="220.211" gradientUnits="userSpaceOnUse">
<stop stop-color="#433DBF"/>
<stop offset="1" stop-color="#352C8F"/>
</linearGradient>
<linearGradient id="paint118_linear_151_344" x1="441.958" y1="220.215" x2="330.917" y2="220.215" gradientUnits="userSpaceOnUse">
<stop stop-color="white"/>
<stop offset="0.32" stop-color="#D9E1FE"/>
<stop offset="0.77" stop-color="#A6BBFD"/>
<stop offset="1" stop-color="#93ACFD"/>
</linearGradient>
<linearGradient id="paint119_linear_151_344" x1="329.051" y1="222.082" x2="316.92" y2="222.082" gradientUnits="userSpaceOnUse">
<stop stop-color="#181387"/>
<stop offset="1" stop-color="#120B57"/>
</linearGradient>
<linearGradient id="paint120_linear_151_344" x1="441.585" y1="218.816" x2="331.652" y2="218.816" gradientUnits="userSpaceOnUse">
<stop stop-color="#E88F8D"/>
<stop offset="0.08" stop-color="#E67A78"/>
<stop offset="0.2" stop-color="#E3605E"/>
<stop offset="0.34" stop-color="#E14D4A"/>
<stop offset="0.49" stop-color="#DF3F3C"/>
<stop offset="0.68" stop-color="#DE3633"/>
<stop offset="1" stop-color="#DE3431"/>
</linearGradient>
<linearGradient id="paint121_linear_151_344" x1="441.958" y1="217.888" x2="324.189" y2="217.888" gradientUnits="userSpaceOnUse">
<stop stop-color="#E88F8D"/>
<stop offset="0.08" stop-color="#E67A78"/>
<stop offset="0.2" stop-color="#E3605E"/>
<stop offset="0.34" stop-color="#E14D4A"/>
<stop offset="0.49" stop-color="#DF3F3C"/>
<stop offset="0.68" stop-color="#DE3633"/>
<stop offset="1" stop-color="#DE3431"/>
</linearGradient>
<linearGradient id="paint122_linear_151_344" x1="440.637" y1="221.148" x2="330.703" y2="221.148" gradientUnits="userSpaceOnUse">
<stop stop-color="#E88F8D"/>
<stop offset="0.08" stop-color="#E67A78"/>
<stop offset="0.2" stop-color="#E3605E"/>
<stop offset="0.34" stop-color="#E14D4A"/>
<stop offset="0.49" stop-color="#DF3F3C"/>
<stop offset="0.68" stop-color="#DE3633"/>
<stop offset="1" stop-color="#DE3431"/>
</linearGradient>
<linearGradient id="paint123_linear_151_344" x1="441.637" y1="220.215" x2="331.59" y2="220.215" gradientUnits="userSpaceOnUse">
<stop stop-color="#E88F8D"/>
<stop offset="0.08" stop-color="#E67A78"/>
<stop offset="0.2" stop-color="#E3605E"/>
<stop offset="0.34" stop-color="#E14D4A"/>
<stop offset="0.49" stop-color="#DF3F3C"/>
<stop offset="0.68" stop-color="#DE3633"/>
<stop offset="1" stop-color="#DE3431"/>
</linearGradient>
</defs>
</svg>
