<svg width="525" height="301" viewBox="0 0 525 301" fill="none" xmlns="http://www.w3.org/2000/svg">
<g style="mix-blend-mode:multiply">
<path d="M385.85 286.07C309.038 286.07 246.77 284.234 246.77 281.97C246.77 279.706 309.038 277.87 385.85 277.87C462.662 277.87 524.93 279.706 524.93 281.97C524.93 284.234 462.662 286.07 385.85 286.07Z" fill="#342447"/>
</g>
<g style="mix-blend-mode:multiply">
<path d="M-6.10352e-05 296.04C-6.10352e-05 298.26 66.4699 300.04 148.46 300.04C230.45 300.04 296.94 298.26 296.94 296.04C296.94 293.82 230.47 292.04 148.47 292.04C66.4699 292.04 -6.10352e-05 293.81 -6.10352e-05 296.04Z" fill="#342447"/>
</g>
<path d="M471.55 226.19L509.72 226.08V206.85L474.97 209.46L471.55 226.19Z" fill="url(#paint0_linear_151_345)"/>
<path d="M470.81 224.72L508.99 224.61V205.38L474.24 207.99L470.81 224.72Z" fill="url(#paint1_linear_151_345)"/>
<path d="M298.39 239.89C298.39 261.3 305.46 281.27 332.07 281.22C355.93 281.17 365.74 263.22 365.74 241.81C365.74 220.4 354.74 201.9 332.07 203.05C313.49 203.96 298.39 218.48 298.39 239.89Z" fill="url(#paint2_linear_151_345)"/>
<path style="mix-blend-mode:multiply" d="M339.33 277.09C325.175 277.09 313.7 261.214 313.7 241.63C313.7 222.046 325.175 206.17 339.33 206.17C353.485 206.17 364.96 222.046 364.96 241.63C364.96 261.214 353.485 277.09 339.33 277.09Z" fill="url(#paint3_linear_151_345)"/>
<path d="M258.94 247.69H276.77V250.96H304.17L306.62 255.2H333.54L339.41 248.04L343.08 253.04L367.94 251.46L375.17 253.08L400.17 250.99L429.94 251.46L461.75 233.27V248.66H476.94C476.94 248.66 479.88 228.61 474 212.83H255.6L258.94 247.69Z" fill="url(#paint4_linear_151_345)"/>
<path d="M258.86 247.69H276.51V250.96H303.58L306 255.2H332.59L338.39 248.04L342.02 253.04L366.53 251.42L373.69 253.04L398.34 250.96L427.83 251.43L459.26 233.24V248.66H474.26C474.26 248.66 477.16 228.61 471.36 212.83H255.6L258.86 247.69Z" fill="url(#paint5_linear_151_345)"/>
<path d="M298.65 212.83C298.19 223.34 298.3 233.93 300.39 244.25C300.846 246.524 301.416 248.774 302.1 250.99H276.51V247.69H258.86L255.6 212.83H298.65Z" fill="url(#paint6_linear_151_345)"/>
<path d="M294.26 212.1C293.85 221.53 293.94 231.04 295.82 240.31C296.23 242.37 296.75 244.38 297.35 246.31H274.35V243.31H258.5L255.57 212.01L294.26 212.1Z" fill="url(#paint7_linear_151_345)"/>
<path d="M399.36 240.46C399.36 261.87 406.43 281.83 433.03 281.78C456.89 281.73 466.7 263.78 466.7 242.38C466.7 220.98 455.7 202.46 433.03 203.61C414.46 204.56 399.36 219.05 399.36 240.46Z" fill="url(#paint8_linear_151_345)"/>
<path d="M439.65 277.65C425.495 277.65 414.02 261.774 414.02 242.19C414.02 222.606 425.495 206.73 439.65 206.73C453.805 206.73 465.28 222.606 465.28 242.19C465.28 261.774 453.805 277.65 439.65 277.65Z" fill="url(#paint9_linear_151_345)"/>
<path d="M439.65 267.54C429.532 267.54 421.33 256.19 421.33 242.19C421.33 228.189 429.532 216.84 439.65 216.84C449.768 216.84 457.97 228.189 457.97 242.19C457.97 256.19 449.768 267.54 439.65 267.54Z" fill="url(#paint10_linear_151_345)"/>
<path d="M438.54 265.94C429.041 265.94 421.34 255.284 421.34 242.14C421.34 228.995 429.041 218.34 438.54 218.34C448.039 218.34 455.74 228.995 455.74 242.14C455.74 255.284 448.039 265.94 438.54 265.94Z" fill="url(#paint11_linear_151_345)"/>
<path d="M437.64 265.67C428.748 265.67 421.54 255.135 421.54 242.14C421.54 229.145 428.748 218.61 437.64 218.61C446.532 218.61 453.74 229.145 453.74 242.14C453.74 255.135 446.532 265.67 437.64 265.67Z" fill="url(#paint12_linear_151_345)"/>
<path style="mix-blend-mode:multiply" d="M438.15 265.67C429.54 265.67 422.56 255.135 422.56 242.14C422.56 229.145 429.54 218.61 438.15 218.61C446.76 218.61 453.74 229.145 453.74 242.14C453.74 255.135 446.76 265.67 438.15 265.67Z" stroke="url(#paint13_linear_151_345)" stroke-width="0.63" stroke-miterlimit="10"/>
<path d="M435.8 257.91C430.979 257.91 427.07 250.514 427.07 241.39C427.07 232.266 430.979 224.87 435.8 224.87C440.621 224.87 444.53 232.266 444.53 241.39C444.53 250.514 440.621 257.91 435.8 257.91Z" fill="url(#paint14_linear_151_345)"/>
<path d="M435.8 256.85C431.459 256.85 427.94 250.188 427.94 241.97C427.94 233.752 431.459 227.09 435.8 227.09C440.141 227.09 443.66 233.752 443.66 241.97C443.66 250.188 440.141 256.85 435.8 256.85Z" fill="url(#paint15_linear_151_345)"/>
<path d="M433.06 241.39C433.06 244.86 434.54 247.67 436.38 247.67C438.22 247.67 439.69 244.86 439.69 241.39C439.69 237.92 438.21 235.12 436.38 235.12C434.55 235.12 433.06 238.51 433.06 241.39Z" fill="url(#paint16_linear_151_345)"/>
<path d="M436.38 247.26C434.729 247.26 433.39 244.73 433.39 241.61C433.39 238.49 434.729 235.96 436.38 235.96C438.031 235.96 439.37 238.49 439.37 241.61C439.37 244.73 438.031 247.26 436.38 247.26Z" fill="url(#paint17_linear_151_345)"/>
<path d="M262.65 251V278.84L250.46 277.91L254.49 244.97L262.65 251Z" fill="url(#paint18_linear_151_345)"/>
<path d="M261.18 251V278.84L248.99 277.91L253.03 244.97L261.18 251Z" fill="url(#paint19_linear_151_345)"/>
<path d="M269.18 222.23L103.41 218.23V20.33C103.42 18.8479 103.978 17.422 104.977 16.327C105.976 15.2321 107.345 14.5457 108.82 14.4L269.18 -0.0400391V222.23Z" fill="#47315D"/>
<path d="M264.77 216.33L107.77 212.5V25.1498C107.769 23.7428 108.296 22.3866 109.245 21.3483C110.195 20.31 111.499 19.6648 112.9 19.5398L256.74 6.61984C257.758 6.53399 258.783 6.66055 259.75 6.99153C260.717 7.32251 261.605 7.85068 262.357 8.54258C263.109 9.23448 263.709 10.075 264.119 11.011C264.529 11.947 264.741 12.9579 264.74 13.9798L264.77 216.33Z" fill="#583D71"/>
<path d="M262.94 250.96L199.37 247.66L203.78 206.82C203.78 206.82 231.94 187.42 250.41 193.47L256.94 213.17L262.94 250.96Z" fill="#2958AA"/>
<path d="M262.94 212.26L264.77 250.96H261.18C261.18 250.96 259.39 217.96 248.99 195.71L262.94 212.26Z" fill="#A3BCFF"/>
<path d="M62.94 248.15C62.94 272.76 71.07 295.73 101.66 295.66C129.1 295.61 140.38 274.97 140.38 250.35C140.38 225.73 127.77 204.46 101.66 205.78C80.27 206.86 62.94 223.53 62.94 248.15Z" fill="url(#paint20_linear_151_345)"/>
<path style="mix-blend-mode:multiply" d="M109.98 290.92C93.7041 290.92 80.5099 272.662 80.5099 250.14C80.5099 227.618 93.7041 209.36 109.98 209.36C126.256 209.36 139.45 227.618 139.45 250.14C139.45 272.662 126.256 290.92 109.98 290.92Z" fill="url(#paint21_linear_151_345)"/>
<path d="M101.44 240.89C101.399 240.295 101.594 239.708 101.984 239.256C102.373 238.805 102.926 238.526 103.52 238.48H195.52C201.622 238.478 207.684 237.488 213.47 235.55L222.37 232.6C222.37 232.6 227.11 230.76 227.11 235.91C227.091 236.354 227.204 236.793 227.436 237.173C227.667 237.552 228.006 237.854 228.41 238.04C229.388 238.604 230.196 239.423 230.747 240.408C231.298 241.394 231.572 242.511 231.54 243.64V263.36C231.592 264.114 231.344 264.858 230.849 265.43C230.355 266.001 229.654 266.354 228.9 266.41L147.27 265.94L119.68 265.78C114.09 265.78 101.39 269.27 101.39 258.93L101.44 240.89Z" fill="url(#paint22_linear_151_345)"/>
<path d="M178.16 251.24C178.16 275.86 186.29 298.82 216.88 298.76C244.32 298.7 255.6 278.06 255.6 253.45C255.6 228.84 243 207.55 216.88 208.87C195.53 209.96 178.16 226.62 178.16 251.24Z" fill="url(#paint23_linear_151_345)"/>
<path d="M224.5 294.01C208.224 294.01 195.03 275.752 195.03 253.23C195.03 230.708 208.224 212.45 224.5 212.45C240.776 212.45 253.97 230.708 253.97 253.23C253.97 275.752 240.776 294.01 224.5 294.01Z" fill="url(#paint24_linear_151_345)"/>
<path d="M224.5 282.38C212.869 282.38 203.44 269.329 203.44 253.23C203.44 237.131 212.869 224.08 224.5 224.08C236.131 224.08 245.56 237.131 245.56 253.23C245.56 269.329 236.131 282.38 224.5 282.38Z" fill="url(#paint25_linear_151_345)"/>
<path d="M223.22 280.55C212.296 280.55 203.44 268.296 203.44 253.18C203.44 238.064 212.296 225.81 223.22 225.81C234.144 225.81 243 238.064 243 253.18C243 268.296 234.144 280.55 223.22 280.55Z" fill="url(#paint26_linear_151_345)"/>
<path d="M222.18 280.24C211.952 280.24 203.66 268.125 203.66 253.18C203.66 238.235 211.952 226.12 222.18 226.12C232.408 226.12 240.7 238.235 240.7 253.18C240.7 268.125 232.408 280.24 222.18 280.24Z" fill="url(#paint27_linear_151_345)"/>
<path style="mix-blend-mode:multiply" d="M222.77 280.24C212.867 280.24 204.84 268.125 204.84 253.18C204.84 238.235 212.867 226.12 222.77 226.12C232.672 226.12 240.7 238.235 240.7 253.18C240.7 268.125 232.672 280.24 222.77 280.24Z" stroke="url(#paint28_linear_151_345)" stroke-width="0.72" stroke-miterlimit="10"/>
<path d="M227.67 271.31C222.125 271.31 217.63 262.808 217.63 252.32C217.63 241.832 222.125 233.33 227.67 233.33C233.215 233.33 237.71 241.832 237.71 252.32C237.71 262.808 233.215 271.31 227.67 271.31Z" fill="url(#paint29_linear_151_345)"/>
<path d="M227.67 270.09C222.677 270.09 218.63 262.43 218.63 252.98C218.63 243.531 222.677 235.87 227.67 235.87C232.663 235.87 236.71 243.531 236.71 252.98C236.71 262.43 232.663 270.09 227.67 270.09Z" fill="url(#paint30_linear_151_345)"/>
<path d="M228.33 259.53C226.226 259.53 224.52 256.302 224.52 252.32C224.52 248.338 226.226 245.11 228.33 245.11C230.434 245.11 232.14 248.338 232.14 252.32C232.14 256.302 230.434 259.53 228.33 259.53Z" fill="url(#paint31_linear_151_345)"/>
<path d="M228.33 259.07C226.436 259.07 224.9 256.16 224.9 252.57C224.9 248.98 226.436 246.07 228.33 246.07C230.224 246.07 231.76 248.98 231.76 252.57C231.76 256.16 230.224 259.07 228.33 259.07Z" fill="url(#paint32_linear_151_345)"/>
<path d="M16.8199 71.0599L34.8199 70.5099C35.1922 70.4993 35.5628 70.5632 35.9099 70.698C36.257 70.8328 36.5736 71.0357 36.8411 71.2948C37.1086 71.5539 37.3215 71.8639 37.4673 72.2065C37.613 72.5492 37.6887 72.9176 37.6899 73.2899L37.9399 129.69C37.9413 130.061 37.8688 130.428 37.7267 130.77C37.5846 131.112 37.3757 131.423 37.1122 131.684C36.8488 131.944 36.536 132.15 36.1922 132.288C35.8485 132.427 35.4805 132.495 35.1099 132.49L14.9199 132.14C14.5518 132.135 14.1885 132.056 13.8511 131.909C13.5136 131.762 13.2089 131.549 12.9548 131.283C12.7006 131.017 12.502 130.702 12.3707 130.358C12.2394 130.014 12.1779 129.648 12.1899 129.28L14.1199 73.7699C14.1375 73.0585 14.4274 72.3808 14.9297 71.8767C15.432 71.3725 16.1085 71.0802 16.8199 71.0599Z" fill="url(#paint33_linear_151_345)"/>
<path d="M14.62 71.1301L32.62 70.5801C32.9926 70.568 33.3638 70.631 33.7115 70.7653C34.0593 70.8996 34.3765 71.1025 34.6442 71.3618C34.912 71.6212 35.1248 71.9317 35.2701 72.275C35.4154 72.6183 35.4902 72.9873 35.49 73.3601L35.75 129.75C35.7514 130.122 35.6785 130.49 35.5358 130.833C35.3931 131.175 35.1833 131.486 34.9188 131.747C34.6543 132.008 34.3403 132.213 33.9953 132.351C33.6504 132.489 33.2814 132.557 32.91 132.55L12.73 132.21C12.361 132.204 11.9969 132.124 11.6589 131.976C11.3209 131.828 11.0157 131.614 10.7608 131.347C10.506 131.08 10.3066 130.765 10.1743 130.421C10.042 130.076 9.97933 129.709 9.98997 129.34L11.94 73.8401C11.9574 73.132 12.2444 72.4572 12.7425 71.9535C13.2405 71.4499 13.9121 71.1553 14.62 71.1301Z" fill="url(#paint34_linear_151_345)"/>
<path style="mix-blend-mode:multiply" d="M24.13 72.2299L37.7201 71.6799C38.0923 71.6692 38.4629 71.7331 38.81 71.8679C39.1571 72.0027 39.4737 72.2056 39.7412 72.4647C40.0087 72.7238 40.2216 73.0338 40.3674 73.3765C40.5131 73.7191 40.5889 74.0875 40.5901 74.4599L40.8401 130.86C40.8414 131.23 40.7689 131.598 40.6268 131.94C40.4847 132.282 40.2758 132.593 40.0124 132.853C39.7489 133.114 39.4361 133.32 39.0923 133.458C38.7485 133.597 38.3806 133.665 38.0101 133.66L17.8301 133.32C16.2801 133.32 12.8301 132 12.8901 130.45L21.43 74.9599C21.4474 74.2464 21.7366 73.5666 22.2384 73.0592C22.7402 72.5518 23.4169 72.2551 24.13 72.2299Z" fill="url(#paint35_linear_151_345)"/>
<path d="M167.51 30.96C167.51 30.96 141.79 30.25 98.71 35.7C83.0682 37.6516 67.7444 41.6178 53.12 47.5C49.37 49.01 45.73 50.63 42.59 52.28C37.2754 55.0736 33.2424 59.8086 31.33 65.5C26.69 79.19 17.66 109.4 13.47 132.98C13.47 132.98 6.74003 144.7 7.34003 165.82C7.34003 165.82 0.680027 212 7.34003 224.65C7.34003 224.65 9.57002 229.59 18.9 232.89L134.64 230.14L138.48 168.57L141.77 120.2L145.85 78.42L153.65 47.63L167.51 30.96Z" fill="#A3BCFF"/>
<path d="M104 148.47C105.4 143.3 108.33 138.39 110.7 133.6C112.967 129.02 115.3 124.47 117.7 119.95H117.83C122.4 118.8 126 115.81 129.98 113.44C133.96 111.07 138.32 110.38 142.8 109.9L141.8 120.21L138.51 168.58L137.25 188.8C135.73 188.8 134.25 188.8 132.76 188.8C126.16 188.94 119.76 190.88 113.1 190.75C110.1 190.69 106.65 190.18 104.49 187.84C101.84 184.97 102.58 180.75 102.96 177.2C103.382 172.702 103.439 168.177 103.13 163.67C102.83 158.6 102.65 153.43 104 148.47Z" fill="#A3BCFF"/>
<path d="M15.14 199.06C11.77 198.27 7.91996 197.78 4.51996 196.52C5.12996 181.12 7.33997 165.82 7.33997 165.82C6.96847 156.864 8.15267 147.911 10.84 139.36C12.84 147.81 13.35 156.65 14.45 165.22C15.89 176.35 17.53 187.96 15.14 199.06Z" fill="#A3BCFF"/>
<path d="M135.42 217.59V232.89H186.76C186.76 232.89 193.94 194.62 221.33 188.36H255.33L247.65 49.2802L241.65 42.1401L165.65 33.1401L150.94 51.0602L140.07 123.5L130.75 163.08L135.42 217.59Z" fill="#335DA8"/>
<path d="M147.32 159.79L229.55 121.96C233.564 120.111 236.964 117.15 239.348 113.428C241.731 109.706 242.999 105.38 243 100.96L239.32 54.0101C239.325 51.3425 238.349 48.7662 236.576 46.7725C234.804 44.7788 232.36 43.5072 229.71 43.2001L165.71 33.1401C165.71 33.1401 148.5 49.3901 148.09 72.4901C147.68 95.5901 147.32 159.79 147.32 159.79Z" fill="#A3BCFF"/>
<path style="mix-blend-mode:color-dodge" opacity="0.18" d="M170.79 149.01L229.55 122.01C233.564 120.16 236.964 117.2 239.348 113.478C241.731 109.756 242.999 105.43 243 101.01L239.32 54.0601" stroke="url(#paint36_linear_151_345)" stroke-width="0.18" stroke-miterlimit="10"/>
<path d="M175.94 42.6101H175.8C173.286 42.5955 170.813 43.2419 168.628 44.4845C166.443 45.7271 164.623 47.5223 163.35 49.6901L163.13 50.0601C161.079 53.5672 159.579 57.3681 158.68 61.3301V61.5301C157.639 66.1018 156.97 70.7504 156.68 75.4301C155.68 91.7201 153.48 129.26 153.11 135.5C153.043 136.677 153.076 137.858 153.21 139.03C153.542 140.031 154.226 140.878 155.134 141.415C156.042 141.951 157.113 142.141 158.15 141.95L160.5 141.51C160.845 141.448 161.181 141.344 161.5 141.2L170.94 136.96L192.67 127.15L216.74 116.25L234.4 108.25C237.27 106.96 238.4 102.73 238.4 99.8401V97.7401L237.26 57.3101C237.19 54.7846 236.197 52.3723 234.468 50.5296C232.74 48.6869 230.396 47.5415 227.88 47.3101L175.94 42.6101Z" fill="url(#paint37_linear_151_345)"/>
<path d="M176.94 45.0299H176.81C174.414 45.0066 172.054 45.6167 169.97 46.7986C167.885 47.9804 166.15 49.6919 164.94 51.7599L164.73 52.1099C162.777 55.4481 161.351 59.0672 160.5 62.8399V63.0199C159.518 67.3683 158.892 71.7897 158.63 76.2399C157.71 91.7399 155.63 127.45 155.23 133.38C155.163 134.501 155.196 135.625 155.33 136.74C155.646 137.692 156.296 138.498 157.16 139.009C158.024 139.52 159.043 139.701 160.03 139.52L162.26 139.1C162.605 139.045 162.942 138.944 163.26 138.8L172.26 134.74L192.93 125.41L215.8 115.08L232.6 107.5C235.33 106.27 236.36 102.25 236.36 99.4999V97.4999L235.28 59.0499C235.22 57.0586 234.561 55.1317 233.39 53.5199C232.573 52.3954 231.527 51.4572 230.32 50.7676C229.113 50.078 227.774 49.6527 226.39 49.5199L176.94 45.0299Z" fill="url(#paint38_linear_151_345)"/>
<path d="M177.44 45.6098H177.31C174.983 45.5922 172.693 46.1884 170.671 47.3384C168.648 48.4884 166.965 50.1514 165.79 52.1598L165.59 52.4898C163.688 55.7468 162.302 59.2786 161.48 62.9598V63.1398C160.517 67.3563 159.895 71.6435 159.62 75.9598C158.73 91.0298 156.62 125.74 156.32 131.51C156.255 132.6 156.285 133.694 156.41 134.78C156.721 135.703 157.354 136.484 158.193 136.98C159.032 137.476 160.021 137.653 160.98 137.48L163.15 137.07C163.471 137.013 163.783 136.915 164.08 136.78L172.03 133.19L190.62 124.8L211.94 115.14L228.22 107.79C230.29 106.85 232.32 106.34 233.52 104.31C234.543 102.566 235.085 100.582 235.09 98.5598V96.6198L234.04 59.2398C233.974 56.9023 233.055 54.6698 231.456 52.9638C229.857 51.2578 227.688 50.1963 225.36 49.9798L177.44 45.6098Z" fill="url(#paint39_linear_151_345)"/>
<g style="mix-blend-mode:multiply" opacity="0.31">
<path d="M172.03 133.18L164.08 136.77C163.783 136.905 163.471 137.003 163.15 137.06L160.98 137.47C160.021 137.643 159.032 137.466 158.193 136.97C157.354 136.474 156.721 135.693 156.41 134.77C156.285 133.685 156.255 132.59 156.32 131.5V130.9L183.7 127.9L172.03 133.18Z" fill="url(#paint40_linear_151_345)"/>
<path d="M228.27 107.79L211.94 115.14L193.62 123.41L156.51 127.48C156.7 124.2 156.98 119.48 157.3 114.15L232.04 105.96C230.844 106.689 229.582 107.301 228.27 107.79Z" fill="url(#paint41_linear_151_345)"/>
<path d="M234.75 82.7598L158.75 91.1098C158.82 89.9298 158.89 88.7698 158.96 87.6398L234.68 79.3398L234.75 82.7598Z" fill="url(#paint42_linear_151_345)"/>
<path d="M235.13 96.3699L157.94 104.85C157.99 104.11 158.03 103.38 158.07 102.64L235.07 94.1899L235.13 96.3699Z" fill="url(#paint43_linear_151_345)"/>
<path d="M165.59 52.49L165.79 52.16C165.92 51.94 166.05 51.73 166.19 51.53L200.75 47.73L225.41 49.96C226.784 50.0885 228.114 50.5114 229.31 51.2L162.77 58.5C163.533 56.4182 164.477 54.4072 165.59 52.49Z" fill="url(#paint44_linear_151_345)"/>
<path d="M234.47 72.7298L159.32 80.9598C159.43 79.1498 159.53 77.4898 159.62 76.0198L234.33 67.8198L234.47 72.7298Z" fill="url(#paint45_linear_151_345)"/>
<path d="M232.25 53.8599C233.398 55.4233 234.04 57.3008 234.09 59.2399L234.28 66.1299L159.75 74.2999C160.048 70.5313 160.612 66.7886 161.44 63.0999V62.9199C161.6 62.2099 161.79 61.5099 161.99 60.8099L231.65 53.1699C231.88 53.3899 232.08 53.6199 232.25 53.8599Z" fill="url(#paint46_linear_151_345)"/>
</g>
<path d="M181.25 136.71V137.07C181.251 137.787 181.111 138.496 180.838 139.159C180.565 139.821 180.163 140.423 179.657 140.93C179.151 141.437 178.55 141.84 177.888 142.114C177.226 142.389 176.517 142.53 175.8 142.53H166.47C165.025 142.53 163.638 143.104 162.616 144.126C161.594 145.148 161.02 146.535 161.02 147.98V152.69" stroke="url(#paint47_linear_151_345)" stroke-width="2.2" stroke-miterlimit="10"/>
<path style="mix-blend-mode:color-dodge" d="M181.25 136.71V137.07C181.251 137.787 181.111 138.496 180.838 139.159C180.565 139.821 180.163 140.423 179.657 140.93C179.151 141.437 178.55 141.84 177.888 142.114C177.226 142.389 176.517 142.53 175.8 142.53H166.47C165.025 142.53 163.638 143.104 162.616 144.126C161.594 145.148 161.02 146.535 161.02 147.98V152.69" stroke="url(#paint48_linear_151_345)" stroke-width="0.55" stroke-miterlimit="10"/>
<path d="M178.58 58.0498H196.58C196.953 58.0496 197.322 58.1244 197.665 58.2697C198.008 58.415 198.319 58.6279 198.578 58.8956C198.838 59.1634 199.04 59.4806 199.175 59.8283C199.309 60.176 199.372 60.5472 199.36 60.9198L197.44 132.74C197.43 133.111 197.346 133.477 197.193 133.815C197.04 134.153 196.821 134.458 196.55 134.711C196.278 134.964 195.958 135.161 195.61 135.289C195.262 135.418 194.891 135.476 194.52 135.46L174.36 134.46C173.992 134.442 173.631 134.351 173.297 134.193C172.964 134.035 172.666 133.812 172.42 133.538C172.173 133.263 171.984 132.943 171.862 132.595C171.74 132.247 171.688 131.878 171.71 131.51L175.8 60.6398C175.85 59.9368 176.165 59.2789 176.681 58.7984C177.197 58.318 177.875 58.0505 178.58 58.0498Z" fill="url(#paint49_linear_151_345)"/>
<path d="M176.37 58.0498H194.37C194.742 58.051 195.111 58.1267 195.453 58.2725C195.796 58.4183 196.106 58.6312 196.365 58.8986C196.624 59.1661 196.827 59.4827 196.962 59.8299C197.097 60.177 197.161 60.5476 197.15 60.9198L195.22 132.74C195.212 133.111 195.13 133.477 194.979 133.816C194.828 134.155 194.61 134.46 194.339 134.714C194.068 134.967 193.748 135.164 193.4 135.292C193.051 135.42 192.681 135.477 192.31 135.46L172.14 134.46C171.398 134.418 170.703 134.085 170.206 133.532C169.709 132.979 169.452 132.252 169.49 131.51L173.58 60.6398C173.633 59.9359 173.95 59.278 174.467 58.7977C174.984 58.3175 175.664 58.0503 176.37 58.0498Z" fill="url(#paint50_linear_151_345)"/>
<path style="mix-blend-mode:color-dodge" d="M173.59 60.6798C173.633 59.9705 173.944 59.3041 174.461 58.8158C174.977 58.3274 175.659 58.0536 176.37 58.0498H194.37C194.742 58.051 195.111 58.1267 195.453 58.2725C195.796 58.4183 196.106 58.6312 196.365 58.8986C196.624 59.1661 196.827 59.4827 196.962 59.8299C197.097 60.177 197.161 60.5476 197.15 60.9198L195.22 132.74" stroke="url(#paint51_linear_151_345)" stroke-width="0.37" stroke-miterlimit="10"/>
<path d="M179.94 117.15H184.71C184.809 117.15 184.907 117.17 184.998 117.208C185.089 117.247 185.171 117.303 185.24 117.374C185.309 117.445 185.364 117.528 185.4 117.621C185.436 117.713 185.453 117.811 185.45 117.91L184.94 136.91C184.936 137.008 184.913 137.105 184.872 137.195C184.83 137.284 184.772 137.365 184.699 137.432C184.627 137.499 184.542 137.55 184.449 137.584C184.357 137.619 184.259 137.634 184.16 137.63L178.82 137.37C178.722 137.366 178.626 137.343 178.538 137.301C178.449 137.26 178.37 137.201 178.305 137.128C178.24 137.055 178.19 136.97 178.158 136.878C178.126 136.785 178.113 136.687 178.12 136.59L179.2 117.8C179.222 117.62 179.31 117.454 179.446 117.334C179.583 117.214 179.758 117.149 179.94 117.15Z" fill="url(#paint52_linear_151_345)"/>
<path d="M179.4 117.15H184.17C184.269 117.15 184.367 117.17 184.458 117.208C184.549 117.247 184.631 117.303 184.7 117.374C184.769 117.445 184.824 117.528 184.86 117.621C184.896 117.713 184.913 117.811 184.91 117.91L184.4 136.91C184.397 137.008 184.375 137.105 184.335 137.194C184.295 137.283 184.237 137.364 184.166 137.431C184.094 137.498 184.01 137.55 183.918 137.584C183.826 137.618 183.728 137.634 183.63 137.63L178.28 137.37C178.183 137.365 178.088 137.341 178 137.299C177.912 137.257 177.833 137.198 177.768 137.125C177.703 137.053 177.653 136.968 177.621 136.876C177.588 136.784 177.575 136.687 177.58 136.59L178.67 117.8C178.69 117.62 178.775 117.455 178.91 117.335C179.045 117.215 179.219 117.149 179.4 117.15Z" fill="url(#paint53_linear_151_345)"/>
<path d="M154.08 151.21H163.45C163.98 151.21 164.489 151.421 164.864 151.796C165.239 152.171 165.45 152.68 165.45 153.21V166.21C165.45 167.186 165.062 168.122 164.372 168.812C163.682 169.502 162.746 169.89 161.77 169.89H152.12V153.2C152.122 152.678 152.329 152.178 152.695 151.806C153.061 151.434 153.558 151.22 154.08 151.21Z" fill="url(#paint54_linear_151_345)"/>
<path d="M155.8 151.21H165.16C165.69 151.21 166.199 151.421 166.574 151.796C166.949 152.171 167.16 152.68 167.16 153.21V166.21C167.161 166.693 167.067 167.171 166.884 167.617C166.7 168.064 166.43 168.47 166.089 168.812C165.748 169.153 165.343 169.425 164.897 169.61C164.451 169.795 163.973 169.89 163.49 169.89H153.84V153.2C153.843 152.678 154.049 152.178 154.415 151.806C154.781 151.434 155.278 151.22 155.8 151.21Z" fill="url(#paint55_linear_151_345)"/>
<path style="mix-blend-mode:multiply" d="M244.32 161.53V165.16C244.32 165.58 243.49 165.92 242.47 165.92H230.4C228.5 165.92 226.97 165.29 226.97 164.5V160.77H242.47C243.49 160.77 244.32 161.11 244.32 161.53Z" fill="url(#paint56_linear_151_345)"/>
<path d="M245.56 157.73V161.89C245.56 162.37 244.68 162.77 243.56 162.77H230.64C228.64 162.77 226.97 162.04 226.97 161.13V156.85H243.59C244.68 156.85 245.56 157.24 245.56 157.73Z" fill="url(#paint57_linear_151_345)"/>
<path d="M245.56 158.38V161.96C245.56 162.38 244.78 162.73 243.81 162.73H232.31C230.51 162.73 229.05 162.09 229.05 161.3V157.57H243.81C244.78 157.61 245.56 157.96 245.56 158.38Z" fill="url(#paint58_linear_151_345)"/>
<path style="mix-blend-mode:color-dodge" d="M245.56 158.38V161.96C245.56 162.38 244.78 162.73 243.81 162.73H232.31C230.51 162.73 229.05 162.09 229.05 161.3V157.57H243.81C244.78 157.61 245.56 157.96 245.56 158.38Z" stroke="url(#paint59_linear_151_345)" stroke-width="0.37" stroke-miterlimit="10"/>
<path d="M147.32 225.86C147.32 225.86 146.22 130.62 150.26 91.2698C150.26 91.2698 151.36 37.9498 168.26 35.7398L234.33 43.4598C234.33 43.4598 244.97 44.5698 246.08 88.6998L248.94 190.56C248.94 190.56 258.49 190.56 258.85 211.15L261.05 210.79C261.05 210.79 262.52 58.9098 252.25 40.1498C224.252 35.1156 195.936 32.0448 167.51 30.9598C167.51 30.9598 150.26 22.6598 139.98 104.77C139.98 104.77 140.35 120.45 130.07 128.29C130.07 128.29 124.2 137.92 124.56 152.84V230.64H147.32V225.86Z" fill="#487CEF"/>
<path style="mix-blend-mode:multiply" d="M146.59 221.45H182.94L190.29 202.81C191.929 198.663 194.281 194.836 197.24 191.5L197.39 191.33C202.122 186.006 208.218 182.074 215.02 179.96L216.55 179.49C220.302 178.322 224.21 177.728 228.14 177.73H248.67L248.14 178.18C249.14 180.55 249.72 181.64 249.72 184.23L260 187.29V195.38C260 195.38 256.33 189.13 246.05 186.18L225.32 186.79C222.283 186.879 219.286 187.509 216.47 188.65L216.32 188.71C208.34 191.999 201.85 198.111 198.09 205.88L192.46 217.44V221.49L186.22 236.93L181.45 248.7H146.59V221.45Z" fill="url(#paint60_linear_151_345)"/>
<path d="M145.12 225.86H185.86L193.21 207.23C194.847 203.097 197.196 199.283 200.15 195.96L200.31 195.78C205.032 190.429 211.129 186.473 217.94 184.34L219.46 183.87C223.215 182.698 227.126 182.102 231.06 182.1H261.16L261.36 182.55C262.401 184.924 262.939 187.488 262.94 190.08V212.26H258.94C258.94 212.26 259.31 193.5 249.03 190.56L228.3 191.16C225.259 191.249 222.258 191.882 219.44 193.03L219.3 193.09C211.32 196.379 204.83 202.491 201.07 210.26L195.44 221.82V225.82L189.2 241.27L186.47 248.02C185.871 249.501 184.842 250.769 183.516 251.66C182.19 252.551 180.628 253.025 179.03 253.02H145.16L145.12 225.86Z" fill="url(#paint61_linear_151_345)"/>
<path d="M147.32 220.73C147.18 199.143 147.29 177.553 147.65 155.96C147.823 145.167 148.11 134.38 148.51 123.6C148.94 112.82 149.45 102.03 150.51 91.3001C150.66 86.2001 151.04 81.1101 151.58 76.0401C152.12 70.9701 152.84 65.9202 153.86 60.9202C154.808 55.921 156.265 51.0321 158.21 46.3301C159.184 44.0028 160.488 41.8273 162.08 39.8701C163.599 37.8895 165.803 36.5484 168.26 36.1101H168.17L219.89 42.1101L232.82 43.6001C235.08 43.4401 236.61 45.1301 237.82 46.8401C239.008 48.6274 239.968 50.5556 240.68 52.5801C242.107 56.6636 243.149 60.8721 243.79 65.1501C244.49 69.4201 244.92 73.7301 245.24 78.0501C245.56 82.3701 245.7 86.7101 245.84 91.0501L246.26 104.05L247.11 130.05L248.93 182.05L247.48 130.05L246.69 104.05L246.3 91.0501C246.17 86.7201 246.06 82.3701 245.74 78.0501C245.42 73.7301 245 69.3901 244.31 65.0501C243.678 60.7385 242.64 56.4963 241.21 52.3801C240.487 50.3055 239.506 48.3301 238.29 46.5001C237.667 45.5722 236.909 44.743 236.04 44.0401C235.585 43.6807 235.07 43.4032 234.52 43.2201C233.89 43.1001 233.42 43.0801 232.86 43.0001L219.94 41.4701L168.23 35.3901H168.14C165.513 35.8472 163.154 37.2749 161.53 39.3901C159.903 41.4036 158.573 43.6397 157.58 46.0302C155.623 50.7804 154.162 55.7199 153.22 60.7701C152.22 65.7701 151.49 70.8601 150.96 75.9501C150.43 81.0401 150.07 86.1301 149.96 91.2501C148.89 102.01 148.42 112.8 147.96 123.59C147.5 134.38 147.32 145.17 147.18 155.97C147.04 166.77 146.98 177.56 147 188.35C147.02 199.14 147.17 209.96 147.32 220.73Z" fill="#7A8DBF"/>
<path d="M184.94 240.13C187.679 240.127 190.348 239.266 192.572 237.668C194.797 236.07 196.464 233.815 197.34 231.22L198.5 227.79C199.093 226.02 199.856 224.312 200.78 222.69L204.78 215.69C207.536 210.837 211.624 206.874 216.56 204.27C220.754 202.054 225.426 200.897 230.17 200.9H248.3C249.872 200.896 251.395 201.447 252.602 202.454C253.809 203.462 254.623 204.862 254.9 206.41C255.251 208.659 255.402 210.934 255.35 213.21H258.94V199.56C258.938 197.093 257.96 194.728 256.22 192.98C255.357 192.117 254.333 191.433 253.205 190.966C252.078 190.5 250.87 190.26 249.65 190.26H234.3C226.217 190.265 218.281 192.415 211.3 196.49C208.431 198.162 205.904 200.361 203.85 202.97L201.39 206.1C200.089 207.746 198.992 209.542 198.12 211.45L184.94 240.13Z" fill="url(#paint62_linear_151_345)"/>
<path style="mix-blend-mode:color-dodge" d="M258.94 213.17V199.56C258.938 197.093 257.96 194.728 256.22 192.98C255.357 192.117 254.333 191.433 253.205 190.966C252.078 190.5 250.87 190.26 249.65 190.26H234.3C226.217 190.265 218.281 192.415 211.3 196.49C208.431 198.162 205.904 200.361 203.85 202.97L201.39 206.1C200.089 207.746 198.992 209.542 198.12 211.45L184.94 240.13" stroke="url(#paint63_linear_151_345)" stroke-width="0.37" stroke-miterlimit="10"/>
<path d="M14.89 121.77L31.04 66.77C31.6277 64.7568 32.5252 62.8473 33.7 61.11C35.8682 57.8971 38.9068 55.3684 42.46 53.82L46.38 52.12C47.4396 51.6596 48.537 51.2915 49.66 51.02L80.15 43.59L104.41 39.23C110.987 38.0476 117.629 37.2629 124.3 36.88L142.16 35.88C143.457 35.8107 144.748 36.0904 145.9 36.69C147.067 37.3001 148.045 38.2182 148.727 39.3447C149.409 40.4712 149.77 41.763 149.77 43.08V46.22C149.771 46.6089 149.738 46.9971 149.67 47.38C148.67 53.52 139.92 106.94 139.85 107.64C139.783 107.941 139.689 108.235 139.57 108.52C137.587 113.957 133.963 118.643 129.2 121.93C127.415 123.147 125.496 124.154 123.48 124.93L118.98 126.7C110.183 130.149 100.959 132.39 91.56 133.36L23.77 140.36C21.7005 140.572 19.6232 140.04 17.91 138.86C16.9283 138.185 16.0942 137.317 15.4581 136.31C14.8221 135.303 14.3974 134.177 14.21 133L13.71 129.9C13.5379 128.813 13.5718 127.704 13.81 126.63L14.74 122.39C14.7774 122.18 14.8275 121.973 14.89 121.77Z" fill="url(#paint64_linear_151_345)"/>
<path d="M15.82 120.1L18.46 109.25C21.5598 96.6009 25.2912 84.1153 29.64 71.8397L31.29 67.3697C31.8588 65.4468 32.7188 63.6223 33.84 61.9597C35.9199 58.8734 38.8375 56.445 42.25 54.9597L46 53.3297C47.0195 52.8915 48.073 52.537 49.15 52.2697L78.38 45.1497L101.64 40.9597C107.943 39.8304 114.307 39.079 120.7 38.7097L137.82 37.7097C139.065 37.641 140.306 37.9105 141.41 38.4897C142.53 39.0747 143.468 39.9555 144.122 41.0363C144.776 42.117 145.121 43.3564 145.12 44.6197V47.6197C145.12 47.9915 145.09 48.3627 145.03 48.7297C144.03 54.6197 135.68 105.84 135.61 106.5C135.544 106.789 135.458 107.073 135.35 107.35C133.427 112.565 129.933 117.055 125.35 120.2C123.641 121.379 121.802 122.359 119.87 123.12L115.55 124.81C107.116 128.12 98.2722 130.27 89.26 131.2L24.26 137.88C22.2764 138.084 20.2849 137.577 18.64 136.45C17.6999 135.801 16.9007 134.968 16.2906 134.003C15.6806 133.037 15.2722 131.957 15.09 130.83L14.62 127.83C14.4497 126.79 14.4802 125.728 14.71 124.7L15.6 120.63C15.6637 120.449 15.7371 120.272 15.82 120.1Z" fill="url(#paint65_linear_151_345)"/>
<g style="mix-blend-mode:multiply" opacity="0.26">
<path d="M141.41 38.5101C142.53 39.0951 143.468 39.9759 144.122 41.0567C144.776 42.1374 145.121 43.3768 145.12 44.6401V47.6401C145.12 48.0119 145.09 48.3831 145.03 48.7501C144.96 49.1301 144.87 49.7501 144.75 50.4401L74.75 132.71L55.48 134.71L137.94 37.7401C139.145 37.6826 140.343 37.9485 141.41 38.5101Z" fill="url(#paint66_linear_151_345)"/>
<path d="M141.86 68.1L88.08 131.34L82.96 131.87L142.96 61.29C142.63 63.42 142.25 65.71 141.86 68.1Z" fill="url(#paint67_linear_151_345)"/>
<path d="M135.68 106.05L121.94 122.26C121.29 122.58 120.63 122.88 119.94 123.14L115.62 124.83C112.96 125.83 110.26 126.83 107.53 127.6L138.02 91.75C136.84 98.86 135.94 104.45 135.68 106.05Z" fill="url(#paint68_linear_151_345)"/>
<path d="M135.74 37.8599L53.19 134.94L49.09 135.36L131.8 38.0799L135.74 37.8599Z" fill="url(#paint69_linear_151_345)"/>
<path d="M139.44 82.8901L99.74 129.58C96.2941 130.307 92.8127 130.855 89.31 131.22L88.08 131.34L141.86 68.1001C141.08 72.8501 140.25 77.9601 139.44 82.8901Z" fill="url(#paint70_linear_151_345)"/>
<path d="M29.64 71.8403L31.2899 67.3703C32.1012 64.6217 33.5072 62.0851 35.4081 59.9405C37.3091 57.7958 39.6585 56.0956 42.2899 54.9603L46.0399 53.3303C47.0594 52.8921 48.1129 52.5376 49.1899 52.2703L54.1899 51.0503L25.2599 85.0503C26.6399 80.5603 28.12 76.1203 29.64 71.8403Z" fill="url(#paint71_linear_151_345)"/>
<path d="M58.21 50.0599L69.12 47.3999L19.27 106.03C20.52 101.08 21.92 96.0299 23.41 91.0299L58.21 50.0599Z" fill="url(#paint72_linear_151_345)"/>
<path d="M113 39.3701L29.68 137.37L24.33 137.92H24.14L107.34 40.0601C109.23 39.8001 111.11 39.5701 113 39.3701Z" fill="url(#paint73_linear_151_345)"/>
<path d="M78.3801 45.1503L99.5801 41.3403L18.7001 136.46C17.7625 135.812 16.9656 134.981 16.3573 134.017C15.749 133.053 15.3417 131.976 15.16 130.85L14.6901 127.85C14.5197 126.811 14.5503 125.748 14.7801 124.72L15.67 120.65C15.7094 120.458 15.7595 120.267 15.8201 120.08L17.3 114L75.2101 45.9603L78.3801 45.1503Z" fill="url(#paint74_linear_151_345)"/>
</g>
<path d="M16.1601 229.18L16.9001 194.85L14.5901 166.66L101.56 160.53L97.1601 188.97L99.6001 229.18H16.1601Z" fill="url(#paint75_linear_151_345)"/>
<path d="M16.13 229.18L16.85 194.85L14.59 166.66L99.83 160.53L95.5099 188.97L97.91 229.18H16.13Z" fill="url(#paint76_linear_151_345)"/>
<path d="M99.6 229.17L97.16 188.97L101.56 160.53L119.69 156.08C120.268 155.939 120.87 155.931 121.451 156.057C122.032 156.183 122.577 156.439 123.045 156.805C123.513 157.172 123.891 157.64 124.152 158.175C124.413 158.709 124.549 159.295 124.55 159.89V230.64L99.6 229.17Z" fill="url(#paint77_linear_151_345)"/>
<path d="M117.27 224.82L105.83 224.11C104.696 224.039 103.628 223.555 102.827 222.75C102.025 221.944 101.546 220.874 101.48 219.74L100.67 205.83C100.546 203.688 101.166 201.569 102.425 199.832C103.685 198.096 105.506 196.848 107.58 196.3L115.41 194.24C116.075 194.067 116.77 194.049 117.443 194.187C118.116 194.325 118.748 194.615 119.291 195.035C119.835 195.455 120.275 195.993 120.578 196.61C120.881 197.226 121.039 197.903 121.04 198.59V221.26C121.041 221.746 120.942 222.226 120.75 222.673C120.559 223.119 120.277 223.521 119.924 223.854C119.571 224.188 119.153 224.446 118.697 224.612C118.241 224.778 117.755 224.849 117.27 224.82Z" fill="url(#paint78_linear_151_345)"/>
<path d="M117.61 224.82L107.23 224.18C106.196 224.113 105.223 223.668 104.494 222.931C103.766 222.194 103.334 221.215 103.28 220.18L102.55 207.55C102.437 205.606 103 203.683 104.142 202.107C105.285 200.53 106.938 199.397 108.82 198.9L115.94 197.06C116.544 196.902 117.175 196.885 117.786 197.01C118.397 197.135 118.972 197.398 119.465 197.78C119.959 198.161 120.358 198.651 120.633 199.211C120.908 199.771 121.05 200.386 121.05 201.01V221.59C121.051 222.032 120.961 222.47 120.786 222.876C120.61 223.283 120.354 223.649 120.031 223.951C119.708 224.254 119.327 224.488 118.911 224.637C118.494 224.786 118.052 224.849 117.61 224.82Z" fill="url(#paint79_linear_151_345)"/>
<path d="M109.22 164.33L117.22 162.27C117.67 162.145 118.143 162.127 118.602 162.218C119.06 162.309 119.491 162.505 119.86 162.791C120.229 163.078 120.526 163.447 120.728 163.868C120.929 164.29 121.029 164.753 121.02 165.22V177.53C121.021 178.301 120.767 179.052 120.296 179.663C119.826 180.275 119.166 180.713 118.42 180.91L104.42 184.59C103.968 184.708 103.495 184.712 103.041 184.601C102.588 184.491 102.169 184.27 101.822 183.957C101.475 183.645 101.211 183.252 101.054 182.812C100.896 182.373 100.85 181.901 100.92 181.44L102.33 171.96C102.606 170.154 103.406 168.468 104.631 167.112C105.855 165.755 107.451 164.788 109.22 164.33Z" fill="url(#paint80_linear_151_345)"/>
<path d="M110.51 166.55L117.65 164.71C118.051 164.608 118.47 164.599 118.875 164.683C119.28 164.768 119.66 164.943 119.987 165.197C120.314 165.45 120.579 165.775 120.761 166.147C120.944 166.518 121.039 166.926 121.04 167.34V178.34C121.04 179.026 120.812 179.693 120.392 180.236C119.972 180.779 119.384 181.167 118.72 181.34L106.25 184.62C105.848 184.725 105.426 184.73 105.022 184.632C104.618 184.534 104.245 184.338 103.936 184.06C103.627 183.783 103.391 183.433 103.25 183.042C103.11 182.651 103.068 182.231 103.13 181.82L104.37 173.4C104.604 171.78 105.312 170.265 106.404 169.046C107.497 167.828 108.925 166.959 110.51 166.55Z" fill="url(#paint81_linear_151_345)"/>
<path d="M121.04 188.84L103.82 193.36C103.362 193.481 102.883 193.498 102.417 193.411C101.952 193.324 101.512 193.134 101.129 192.855C100.746 192.576 100.429 192.216 100.203 191.8C99.9767 191.384 99.8459 190.923 99.82 190.45L99.91 189.8L116.61 185.42C117.132 185.284 117.679 185.269 118.208 185.377C118.736 185.486 119.233 185.714 119.66 186.044C120.087 186.374 120.433 186.798 120.67 187.283C120.907 187.767 121.031 188.3 121.03 188.84H121.04Z" fill="#EFC093"/>
<path d="M14.58 166.66L7.31 163.35C7.31 163.35 2.81 162.35 4 194.66C4.15 198.8 4.19 202.94 4 207.08C3.77 213.27 4.15002 225.34 9.15002 228.62L16.15 229.17L16.88 194.85L14.58 166.66Z" fill="url(#paint82_linear_151_345)"/>
<path d="M7.84009 220.72L11.7801 220.15C12.5901 220.03 13.2301 218.51 13.2801 216.6L13.5601 205.3C13.6501 201.71 12.6501 198.47 11.1801 197.56L8.47009 195.89C7.47009 195.28 6.53009 197.03 6.53009 199.42V217.83C6.53009 219.5 7.13009 220.82 7.84009 220.72Z" fill="url(#paint83_linear_151_345)"/>
<path d="M8.42995 220.72L11.97 220.21C12.69 220.1 13.27 218.74 13.31 217.03L13.56 206.96C13.64 203.75 12.7499 200.85 11.4299 200.03L9.00997 198.54C8.12997 197.99 7.26998 199.54 7.26998 201.7V218.19C7.26998 219.63 7.79995 220.81 8.42995 220.72Z" fill="url(#paint84_linear_151_345)"/>
<path d="M10.6101 171.6L7.8401 169.96C7.1801 169.55 6.5301 170.74 6.5301 172.35V182.35C6.47488 182.844 6.52667 183.345 6.68196 183.818C6.83724 184.291 7.09236 184.724 7.43006 185.09L12.2601 188.09C12.9301 188.51 13.5701 187.16 13.4701 185.54L12.9901 177.87C12.8001 174.81 11.8601 172.36 10.6101 171.6Z" fill="url(#paint85_linear_151_345)"/>
<path d="M10.8501 173.6L8.42006 172.13C7.84006 171.78 7.2701 172.82 7.2701 174.24V183.02C7.2178 183.455 7.26142 183.896 7.39791 184.312C7.53439 184.729 7.76039 185.11 8.06008 185.43L12.3001 188.06C12.8901 188.42 13.4501 187.24 13.3601 185.81L12.9401 179.08C12.7701 176.43 11.9401 174.27 10.8501 173.6Z" fill="url(#paint86_linear_151_345)"/>
<path d="M6.53003 191.5L12.47 195.17C13.14 195.59 13.81 194.45 13.85 192.81V192.29L8.09003 188.72C7.32003 188.25 6.56 189.62 6.56 191.5H6.53003Z" fill="#EFC093"/>
<path d="M88.34 181.5L19.92 184.2C20.8274 186.705 22.4996 188.861 24.6998 190.363C26.9 191.865 29.5168 192.637 32.18 192.57L75.43 190.83C78.98 190.69 88.98 185.61 91.28 182.76L88.34 181.5Z" fill="url(#paint87_linear_151_345)"/>
<path d="M83.68 195.74L23.11 198.13C23.9116 200.344 25.3883 202.25 27.3314 203.579C29.2746 204.909 31.5862 205.595 33.94 205.54L72.25 203.96C75.4 203.84 84.58 198.71 86.62 196.19L83.68 195.74Z" fill="url(#paint88_linear_151_345)"/>
<path d="M91.28 182.76L22.86 185.32C23.827 187.756 25.5249 189.833 27.7202 191.266C29.9154 192.698 32.5004 193.416 35.12 193.32L78.37 191.67C80.1262 191.6 81.8489 191.167 83.429 190.398C85.0092 189.629 86.4124 188.539 87.55 187.2L91.28 182.76Z" fill="url(#paint89_linear_151_345)"/>
<path d="M93.0601 167.01L17.66 171.34C18.7075 174.088 20.5938 176.436 23.0511 178.051C25.5084 179.667 28.412 180.468 31.35 180.34L79.0001 177.57C82.9201 177.34 93.8401 171.57 96.3201 168.35L93.0601 167.01Z" fill="url(#paint90_linear_151_345)"/>
<path d="M96.3201 168.34L20.9401 172.53C22.0625 175.187 23.9781 177.432 26.4249 178.959C28.8717 180.485 31.7304 181.219 34.61 181.06L82.2701 178.38C84.2001 178.263 86.0851 177.748 87.8062 176.867C89.5272 175.986 91.0472 174.758 92.2701 173.26L96.3201 168.34Z" fill="url(#paint91_linear_151_345)"/>
<path d="M86.62 196.23L26.05 198.49C26.9128 200.647 28.4236 202.484 30.374 203.747C32.3244 205.009 34.6185 205.636 36.94 205.54L75.23 204.08C76.7885 204.014 78.3163 203.624 79.7159 202.935C81.1156 202.247 82.3566 201.274 83.36 200.08L86.62 196.23Z" fill="url(#paint92_linear_151_345)"/>
<path d="M83.87 229.96L23.25 230.25C23.9544 227.997 25.3492 226.024 27.2372 224.608C29.1251 223.192 31.4105 222.405 33.77 222.36L72.08 222.22C75.23 222.22 84.64 226.91 86.78 229.35L83.87 229.96Z" fill="url(#paint93_linear_151_345)"/>
<path d="M86.79 229.25L26.1801 229.76C26.9431 227.573 28.3635 225.676 30.2468 224.328C32.1301 222.98 34.3841 222.247 36.7001 222.23L75.0101 221.93C76.567 221.919 78.1091 222.233 79.5381 222.851C80.9672 223.469 82.2517 224.378 83.3101 225.52L86.79 229.25Z" fill="url(#paint94_linear_151_345)"/>
<path d="M101.56 160.53L102.3 152.84L14.5901 159.79V166.66" fill="#A3BCFF"/>
<g style="mix-blend-mode:multiply">
<path d="M101.56 160.53L102.56 152.86V152.59H102.28L96.7801 152.88L91.3 153.32L80.3 154.19L58.41 155.96L36.48 157.7L25.48 158.57C23.65 158.73 21.8201 158.83 20.0001 159.01L14.5301 159.61H14.3401V159.78L14.5301 166.65L14.73 159.78L14.55 159.98L20.04 159.7C21.88 159.6 23.7001 159.41 25.5301 159.28L36.5301 158.41L58.4601 156.67L80.4001 154.96L91.4001 154.09L96.8801 153.66L102.35 153.09L102.1 152.84L101.56 160.53Z" fill="#7A8DBF"/>
</g>
<path d="M102.63 152.99L110.7 133.6L101.96 152.69L102.63 152.99Z" fill="#7A8DBF"/>
<path d="M14.95 159.75L12.64 144.7L14.22 159.84L14.95 159.75Z" fill="#7A8DBF"/>
<path d="M4.54001 230.85C4.54001 230.211 4.79392 229.598 5.24588 229.146C5.69784 228.694 6.31087 228.44 6.95004 228.44H113.94C120.996 228.439 128.017 227.452 134.8 225.51L145.15 222.51C145.15 222.51 150.65 220.68 150.65 225.82C150.638 226.292 150.778 226.755 151.05 227.141C151.322 227.526 151.711 227.814 152.16 227.96C153.24 228.445 154.157 229.231 154.801 230.225C155.445 231.218 155.788 232.376 155.79 233.56V253.27C155.798 253.674 155.725 254.076 155.574 254.451C155.423 254.825 155.198 255.166 154.912 255.452C154.626 255.738 154.286 255.963 153.911 256.114C153.536 256.265 153.134 256.338 152.73 256.33L57.88 255.86L25.82 255.7C19.32 255.7 4.57004 259.19 4.57004 248.84L4.54001 230.85Z" fill="url(#paint95_linear_151_345)"/>
<path d="M155.13 248.68C146.35 248.29 134.13 249.83 127.93 242.08C124.771 238.022 123.279 232.911 123.76 227.79C127.478 227.305 131.155 226.543 134.76 225.51L145.11 222.51C145.11 222.51 150.61 220.68 150.61 225.82C150.598 226.292 150.738 226.755 151.01 227.141C151.282 227.526 151.671 227.814 152.12 227.96C153.2 228.445 154.117 229.231 154.761 230.225C155.405 231.218 155.748 232.376 155.75 233.56V248.67L155.13 248.68Z" fill="url(#paint96_linear_151_345)"/>
<path d="M27.82 207.24L27.97 219.72" stroke="url(#paint97_linear_151_345)" stroke-width="0.55" stroke-miterlimit="10"/>
<path d="M30.23 207.17L30.38 219.73" stroke="url(#paint98_linear_151_345)" stroke-width="0.55" stroke-miterlimit="10"/>
<path d="M32.85 207.09L33 219.75" stroke="url(#paint99_linear_151_345)" stroke-width="0.55" stroke-miterlimit="10"/>
<path d="M35.5 207.01L35.65 219.76" stroke="url(#paint100_linear_151_345)" stroke-width="0.55" stroke-miterlimit="10"/>
<path d="M38.19 206.93L38.35 219.77" stroke="url(#paint101_linear_151_345)" stroke-width="0.55" stroke-miterlimit="10"/>
<path d="M40.92 206.85L41.08 219.79" stroke="url(#paint102_linear_151_345)" stroke-width="0.55" stroke-miterlimit="10"/>
<path d="M43.7 206.77L43.85 219.8" stroke="url(#paint103_linear_151_345)" stroke-width="0.55" stroke-miterlimit="10"/>
<path d="M46.5099 206.68L46.6699 219.82" stroke="url(#paint104_linear_151_345)" stroke-width="0.55" stroke-miterlimit="10"/>
<path d="M49.37 206.6L49.53 219.83" stroke="url(#paint105_linear_151_345)" stroke-width="0.55" stroke-miterlimit="10"/>
<path d="M52.2699 206.51L52.4299 219.85" stroke="url(#paint106_linear_151_345)" stroke-width="0.55" stroke-miterlimit="10"/>
<path d="M55.22 206.43L55.38 219.86" stroke="url(#paint107_linear_151_345)" stroke-width="0.55" stroke-miterlimit="10"/>
<path d="M58.21 206.34L58.37 219.88" stroke="url(#paint108_linear_151_345)" stroke-width="0.55" stroke-miterlimit="10"/>
<path d="M61.25 206.25L61.41 219.9" stroke="url(#paint109_linear_151_345)" stroke-width="0.55" stroke-miterlimit="10"/>
<path d="M64.33 206.16L64.5 219.91" stroke="url(#paint110_linear_151_345)" stroke-width="0.55" stroke-miterlimit="10"/>
<path d="M67.47 206.06L67.64 219.93" stroke="url(#paint111_linear_151_345)" stroke-width="0.55" stroke-miterlimit="10"/>
<path d="M70.66 205.97L70.83 219.95" stroke="url(#paint112_linear_151_345)" stroke-width="0.55" stroke-miterlimit="10"/>
<path d="M73.9001 205.87L74.0701 219.96" stroke="url(#paint113_linear_151_345)" stroke-width="0.55" stroke-miterlimit="10"/>
<path d="M77.19 205.77L77.36 219.98" stroke="url(#paint114_linear_151_345)" stroke-width="0.55" stroke-miterlimit="10"/>
<path d="M80.53 205.67L80.71 220" stroke="url(#paint115_linear_151_345)" stroke-width="0.55" stroke-miterlimit="10"/>
<path d="M17.06 122.5L132.52 109.27C132.824 109.234 133.133 109.283 133.411 109.411C133.69 109.539 133.928 109.741 134.099 109.995C134.271 110.249 134.369 110.545 134.383 110.851C134.397 111.157 134.327 111.461 134.18 111.73C132.173 115.293 129.383 118.353 126.02 120.68C124.306 121.874 122.456 122.861 120.51 123.62L116.17 125.32C107.689 128.65 98.7938 130.81 89.73 131.74L24.38 138.46C22.3852 138.669 20.3814 138.159 18.73 137.02C16.82 135.7 14.8 133.66 14.43 131.37L13.96 128.37C13.7898 127.324 13.8204 126.255 14.05 125.22C14.2057 124.51 14.5796 123.866 15.1192 123.378C15.6589 122.89 16.3374 122.583 17.06 122.5Z" fill="url(#paint116_linear_151_345)"/>
<g style="mix-blend-mode:color-dodge">
<path d="M134.18 111.73C132.173 115.293 129.383 118.353 126.02 120.68C124.306 121.874 122.456 122.861 120.51 123.62L116.17 125.32C107.689 128.65 98.7937 130.81 89.7299 131.74L24.3799 138.46C22.3852 138.669 20.3813 138.158 18.7299 137.02C16.8199 135.7 14.7999 133.66 14.4299 131.37L13.96 128.37C13.7898 127.324 13.8203 126.255 14.0499 125.22" stroke="url(#paint117_linear_151_345)" stroke-width="0.37" stroke-miterlimit="10"/>
</g>
<path d="M117.22 236.63L116.62 244.44C116.5 246.04 114.91 247.31 112.93 247.44L101.19 248C97.46 248.17 94.09 246.2 93.19 243.28L91.45 237.94C90.82 235.99 92.6299 234.1 95.1199 234.1H114.22C115.94 234.06 117.32 235.23 117.22 236.63Z" fill="url(#paint118_linear_151_345)"/>
<path d="M117.22 236.07L116.75 242.2C116.626 242.869 116.266 243.471 115.736 243.896C115.205 244.322 114.54 244.543 113.86 244.52L104.65 244.96C101.72 245.09 99.09 243.55 98.34 241.26L96.9799 237.07C96.4899 235.54 97.9099 234.07 99.8599 234.07H114.86C115.148 234.038 115.439 234.066 115.716 234.15C115.993 234.235 116.249 234.375 116.47 234.562C116.691 234.749 116.872 234.98 117 235.239C117.129 235.498 117.204 235.781 117.22 236.07Z" fill="url(#paint119_linear_151_345)"/>
<path d="M9.16002 237.4L9.68004 244.17C9.81439 244.912 10.2121 245.58 10.8 246.053C11.388 246.525 12.1266 246.769 12.8801 246.74L23.0701 247.22C26.3001 247.37 29.2201 245.66 30.0701 243.13L31.5801 238.49C32.1301 236.81 30.5801 235.16 28.4001 235.16H11.79C11.4681 235.122 11.1419 235.152 10.8318 235.246C10.5217 235.34 10.2343 235.497 9.98753 235.707C9.74079 235.918 9.53993 236.176 9.39757 236.467C9.25521 236.759 9.17433 237.076 9.16002 237.4Z" fill="url(#paint120_linear_151_345)"/>
<path d="M13.62 236.96L14.0301 242.28C14.1378 242.859 14.4509 243.381 14.912 243.748C15.373 244.115 15.951 244.304 16.54 244.28L24.54 244.66C27.07 244.78 29.36 243.44 30.01 241.45L31.19 237.81C31.62 236.49 30.38 235.2 28.69 235.2H15.69C15.4367 235.169 15.1798 235.191 14.9354 235.265C14.691 235.339 14.4645 235.462 14.2701 235.627C14.0757 235.792 13.9176 235.996 13.8057 236.226C13.6938 236.455 13.6306 236.705 13.62 236.96Z" fill="url(#paint121_linear_151_345)"/>
<path style="mix-blend-mode:color-dodge" d="M117.22 236.63L116.62 244.44C116.5 246.04 114.91 247.31 112.93 247.44L101.19 248C97.46 248.17 94.09 246.2 93.19 243.28L91.45 237.94C90.82 235.99 92.6299 234.1 95.1199 234.1H114.22C115.94 234.06 117.32 235.23 117.22 236.63Z" stroke="url(#paint122_linear_151_345)" stroke-width="0.37" stroke-miterlimit="10"/>
<path d="M124.66 160.25L147.53 152.84L124.44 159.54L124.66 160.25Z" fill="#7A8DBF"/>
<path d="M147.53 148.42C143.63 149.42 139.77 150.42 135.93 151.62C134.01 152.18 132.1 152.78 130.19 153.39C128.28 154 126.38 154.62 124.48 155.27C122.87 155.51 121.26 155.8 119.65 156.09C121.28 155.98 122.91 155.86 124.53 155.7C126.46 155.18 128.39 154.64 130.31 154.05C132.23 153.46 134.15 152.92 136.06 152.3C139.94 151.08 143.76 149.82 147.53 148.42Z" fill="#7A8DBF"/>
<path d="M124.66 194.94L136.04 191.07L124.44 194.24L124.66 194.94Z" fill="#7A8DBF"/>
<path d="M135.73 121.69C134.28 123.15 132.9 124.69 131.51 126.18C130.82 126.95 130.13 127.65 129.51 128.52C128.917 129.379 128.389 130.282 127.93 131.22C127.038 133.089 126.366 135.055 125.93 137.08C125.483 139.096 125.258 141.155 125.26 143.22C125.535 141.195 125.942 139.191 126.48 137.22C127.029 135.267 127.749 133.367 128.63 131.54C129.066 130.63 129.564 129.751 130.12 128.91C130.66 128.12 131.4 127.34 132.02 126.54C133.24 124.96 134.51 123.34 135.73 121.69Z" fill="#7A8DBF"/>
<path d="M13.47 132.96C11.862 135.072 10.6181 137.438 9.78992 139.96C8.92924 142.458 8.28028 145.023 7.84991 147.63C7.43686 150.232 7.1831 152.857 7.08997 155.49V159.43C7.16997 160.75 7.21996 162.06 7.32996 163.37C7.38996 162.05 7.40995 160.74 7.44995 159.44L7.66992 155.52C7.8492 152.916 8.15959 150.323 8.59991 147.75C8.99214 145.173 9.57711 142.629 10.3499 140.14L10.96 138.29C11.21 137.68 11.4199 137.07 11.6899 136.47C12.1664 135.244 12.7627 134.069 13.47 132.96Z" fill="#7A8DBF"/>
<path d="M164.71 30.96C163.145 31.3047 161.674 31.9873 160.4 32.96C159.109 33.9126 157.966 35.0517 157.01 36.34C156.065 37.6308 155.279 39.0309 154.67 40.51C154.37 41.25 154.14 42.01 153.87 42.76C153.6 43.51 153.49 44.3 153.34 45.07C153.65 44.34 153.91 43.6 154.21 42.88C154.51 42.16 154.82 41.44 155.21 40.75C155.899 39.351 156.705 38.0129 157.62 36.75C158.542 35.5109 159.599 34.3773 160.77 33.37C161.951 32.368 163.28 31.5551 164.71 30.96Z" fill="#7A8DBF"/>
<path d="M362.91 231.76V217.59H372.69V231.02L362.91 231.76Z" fill="url(#paint123_linear_151_345)"/>
<path d="M367.8 231.76V217.59H377.58V231.02L367.8 231.76Z" fill="url(#paint124_linear_151_345)"/>
<path d="M392.78 231.76V217.59H402.56V231.02L392.78 231.76Z" fill="url(#paint125_linear_151_345)"/>
<path d="M397.67 231.76V217.59H407.45V231.02L397.67 231.76Z" fill="url(#paint126_linear_151_345)"/>
<path d="M346.75 244.32V232.28L421.63 227.81V238.45L346.75 244.32Z" fill="url(#paint127_linear_151_345)"/>
<path d="M348.22 242.11V234.49L420.16 230.01V236.24L348.22 242.11Z" fill="url(#paint128_linear_151_345)"/>
<path d="M339.41 232.28H346.75V244.32H339.41V232.28Z" fill="url(#paint129_linear_151_345)"/>
<path d="M269.18 222.23L518.69 213.66C520.093 213.608 521.42 213.014 522.394 212.003C523.367 210.993 523.911 209.643 523.91 208.24V39.96C523.913 38.8849 523.527 37.8449 522.823 37.0324C522.119 36.2199 521.145 35.6897 520.08 35.54L269.18 -0.0400391V222.23Z" fill="#47315D"/>
<path d="M276.52 217.11L514.52 208.93C515.861 208.889 517.132 208.327 518.066 207.363C518.999 206.4 519.521 205.111 519.52 203.77V43.2701C519.521 42.2438 519.151 41.2518 518.478 40.4765C517.806 39.7012 516.876 39.1947 515.86 39.0501L276.53 5.12012L276.52 217.11Z" fill="#342447"/>
<path d="M454.15 30.3V211.01L444.64 211.33V28.96L454.15 30.3Z" fill="#241933"/>
<path d="M435.13 27.6098V211.66L425.62 211.99V26.2598L435.13 27.6098Z" fill="#241933"/>
<path d="M416.12 24.9098V212.31L406.61 212.64V23.5698L416.12 24.9098Z" fill="#241933"/>
<path d="M511.19 38.39V209.04L501.68 209.37V37.04L511.19 38.39Z" fill="#241933"/>
<path d="M473.16 32.9999V210.35L463.65 210.68V31.6499L473.16 32.9999Z" fill="#241933"/>
<path d="M492.17 35.7001V209.7L482.67 210.03V34.3501L492.17 35.7001Z" fill="#241933"/>
<path d="M321.04 11.4398V215.58L311.53 215.91V10.0898L321.04 11.4398Z" fill="#241933"/>
<path d="M302.03 8.74014V216.24L292.52 216.56V7.39014L302.03 8.74014Z" fill="#241933"/>
<path d="M283.01 216.89L276.52 217.11V5.12012L283.01 6.04012V216.89Z" fill="#241933"/>
<path d="M359.07 16.83V214.28L349.56 214.6V15.48L359.07 16.83Z" fill="#241933"/>
<path d="M340.06 14.1298V214.93L330.55 215.26V12.7798L340.06 14.1298Z" fill="#241933"/>
<path d="M378.09 19.5199V213.62L368.58 213.95V18.1699L378.09 19.5199Z" fill="#241933"/>
<path d="M397.1 22.2201V212.97L387.59 213.29V20.8701L397.1 22.2201Z" fill="#241933"/>
<path d="M406.97 230.84V237.32L397.2 238.12V231.44L406.97 230.84Z" fill="url(#paint130_linear_151_345)"/>
<path d="M420.16 230.01V236.24L416.74 236.52V230.23L420.16 230.01Z" fill="url(#paint131_linear_151_345)"/>
<path d="M367.9 233.26V240.51L358.13 241.3V233.87L367.9 233.26Z" fill="url(#paint132_linear_151_345)"/>
<path d="M387.43 232.05V238.91L377.67 239.71V232.66L387.43 232.05Z" fill="url(#paint133_linear_151_345)"/>
<defs>
<linearGradient id="paint0_linear_151_345" x1="490.63" y1="228.34" x2="490.63" y2="206.85" gradientUnits="userSpaceOnUse">
<stop stop-color="#433DBF"/>
<stop offset="1" stop-color="#352C8F"/>
</linearGradient>
<linearGradient id="paint1_linear_151_345" x1="489.9" y1="226.87" x2="489.9" y2="205.38" gradientUnits="userSpaceOnUse">
<stop stop-color="#352C8F"/>
<stop offset="1" stop-color="#433DBF"/>
</linearGradient>
<linearGradient id="paint2_linear_151_345" x1="365.74" y1="242.11" x2="298.39" y2="242.11" gradientUnits="userSpaceOnUse">
<stop stop-color="#181387"/>
<stop offset="1" stop-color="#120B57"/>
</linearGradient>
<linearGradient id="paint3_linear_151_345" x1="364.95" y1="241.63" x2="313.7" y2="241.63" gradientUnits="userSpaceOnUse">
<stop stop-color="#120B57"/>
<stop offset="0.27" stop-color="#120B59" stop-opacity="0.97"/>
<stop offset="0.47" stop-color="#130C5E" stop-opacity="0.86"/>
<stop offset="0.65" stop-color="#140E67" stop-opacity="0.67"/>
<stop offset="0.81" stop-color="#161073" stop-opacity="0.41"/>
<stop offset="0.97" stop-color="#181283" stop-opacity="0.07"/>
<stop offset="1" stop-color="#181387" stop-opacity="0"/>
</linearGradient>
<linearGradient id="paint4_linear_151_345" x1="366.63" y1="255.23" x2="366.63" y2="212.83" gradientUnits="userSpaceOnUse">
<stop stop-color="#181387"/>
<stop offset="0.33" stop-color="#181385"/>
<stop offset="0.51" stop-color="#16117C"/>
<stop offset="0.66" stop-color="#140F6F"/>
<stop offset="0.79" stop-color="#110D5B"/>
<stop offset="0.91" stop-color="#0D0942"/>
<stop offset="1" stop-color="#090527"/>
</linearGradient>
<linearGradient id="paint5_linear_151_345" x1="365.29" y1="255.23" x2="365.29" y2="212.83" gradientUnits="userSpaceOnUse">
<stop stop-color="#181387"/>
<stop offset="0.09" stop-color="#151176"/>
<stop offset="0.29" stop-color="#100C54"/>
<stop offset="0.49" stop-color="#0C083B"/>
<stop offset="0.67" stop-color="#0A062C"/>
<stop offset="0.81" stop-color="#090527"/>
<stop offset="1" stop-color="#090527"/>
</linearGradient>
<linearGradient id="paint6_linear_151_345" x1="278.85" y1="255.23" x2="278.85" y2="212.83" gradientUnits="userSpaceOnUse">
<stop stop-color="#181387"/>
<stop offset="0.14" stop-color="#16117A"/>
<stop offset="0.42" stop-color="#140E66"/>
<stop offset="0.71" stop-color="#120C5B"/>
<stop offset="1" stop-color="#120B57"/>
</linearGradient>
<linearGradient id="paint7_linear_151_345" x1="276.48" y1="250.17" x2="276.48" y2="212.1" gradientUnits="userSpaceOnUse">
<stop stop-color="#120B57"/>
<stop offset="0.29" stop-color="#120C5B"/>
<stop offset="0.58" stop-color="#140E66"/>
<stop offset="0.86" stop-color="#16117A"/>
<stop offset="1" stop-color="#181387"/>
</linearGradient>
<linearGradient id="paint8_linear_151_345" x1="466.7" y1="242.67" x2="399.36" y2="242.67" gradientUnits="userSpaceOnUse">
<stop stop-color="#181387"/>
<stop offset="1" stop-color="#120B57"/>
</linearGradient>
<linearGradient id="paint9_linear_151_345" x1="465.28" y1="242.19" x2="414.03" y2="242.19" gradientUnits="userSpaceOnUse">
<stop stop-color="#2B25A8" stop-opacity="0"/>
<stop offset="1" stop-color="#221978"/>
</linearGradient>
<linearGradient id="paint10_linear_151_345" x1="457.97" y1="242.19" x2="421.34" y2="242.19" gradientUnits="userSpaceOnUse">
<stop stop-color="white"/>
<stop offset="0.32" stop-color="#D9E1FE"/>
<stop offset="0.77" stop-color="#A6BBFD"/>
<stop offset="1" stop-color="#93ACFD"/>
</linearGradient>
<linearGradient id="paint11_linear_151_345" x1="455.74" y1="242.14" x2="421.34" y2="242.14" gradientUnits="userSpaceOnUse">
<stop stop-color="#7797FD"/>
<stop offset="0.18" stop-color="#8AA6FD"/>
<stop offset="0.56" stop-color="#BDCCFE"/>
<stop offset="1" stop-color="white"/>
</linearGradient>
<linearGradient id="paint12_linear_151_345" x1="453.74" y1="242.14" x2="421.53" y2="242.14" gradientUnits="userSpaceOnUse">
<stop stop-color="#9BB3FE"/>
<stop offset="0.45" stop-color="#9DB4FE"/>
<stop offset="0.61" stop-color="#A4BAFE"/>
<stop offset="0.73" stop-color="#AFC3FE"/>
<stop offset="0.82" stop-color="#C0CFFE"/>
<stop offset="0.9" stop-color="#D6E0FF"/>
<stop offset="0.97" stop-color="#F1F4FF"/>
<stop offset="1" stop-color="white"/>
</linearGradient>
<linearGradient id="paint13_linear_151_345" x1="454.06" y1="242.14" x2="422.24" y2="242.14" gradientUnits="userSpaceOnUse">
<stop stop-color="white"/>
<stop offset="0.52" stop-color="#C9D6FE"/>
<stop offset="1" stop-color="#9BB3FE"/>
</linearGradient>
<linearGradient id="paint14_linear_151_345" x1="444.53" y1="241.39" x2="427.07" y2="241.39" gradientUnits="userSpaceOnUse">
<stop stop-color="#C0CEFE"/>
<stop offset="0.17" stop-color="#AFC1FE"/>
<stop offset="0.39" stop-color="#9FB5FD"/>
<stop offset="0.64" stop-color="#96AEFD"/>
<stop offset="1" stop-color="#93ACFD"/>
</linearGradient>
<linearGradient id="paint15_linear_151_345" x1="443.66" y1="241.97" x2="427.94" y2="241.97" gradientUnits="userSpaceOnUse">
<stop stop-color="white"/>
<stop offset="0.16" stop-color="#FEFEFF" stop-opacity="0.99"/>
<stop offset="0.28" stop-color="#F9FBFF" stop-opacity="0.95"/>
<stop offset="0.41" stop-color="#F2F5FF" stop-opacity="0.88"/>
<stop offset="0.52" stop-color="#E8EDFF" stop-opacity="0.78"/>
<stop offset="0.63" stop-color="#DAE3FE" stop-opacity="0.66"/>
<stop offset="0.74" stop-color="#CAD6FE" stop-opacity="0.51"/>
<stop offset="0.84" stop-color="#B6C7FE" stop-opacity="0.33"/>
<stop offset="0.95" stop-color="#A0B6FD" stop-opacity="0.12"/>
<stop offset="1" stop-color="#93ACFD" stop-opacity="0"/>
</linearGradient>
<linearGradient id="paint16_linear_151_345" x1="439.69" y1="241.39" x2="433.06" y2="241.39" gradientUnits="userSpaceOnUse">
<stop stop-color="#C0CEFE"/>
<stop offset="0.17" stop-color="#AFC1FE"/>
<stop offset="0.39" stop-color="#9FB5FD"/>
<stop offset="0.64" stop-color="#96AEFD"/>
<stop offset="1" stop-color="#93ACFD"/>
</linearGradient>
<linearGradient id="paint17_linear_151_345" x1="439.36" y1="241.61" x2="433.39" y2="241.61" gradientUnits="userSpaceOnUse">
<stop stop-color="white"/>
<stop offset="0.16" stop-color="#FEFEFF" stop-opacity="0.99"/>
<stop offset="0.28" stop-color="#F9FBFF" stop-opacity="0.95"/>
<stop offset="0.41" stop-color="#F2F5FF" stop-opacity="0.88"/>
<stop offset="0.52" stop-color="#E8EDFF" stop-opacity="0.78"/>
<stop offset="0.63" stop-color="#DAE3FE" stop-opacity="0.66"/>
<stop offset="0.74" stop-color="#CAD6FE" stop-opacity="0.51"/>
<stop offset="0.84" stop-color="#B6C7FE" stop-opacity="0.33"/>
<stop offset="0.95" stop-color="#A0B6FD" stop-opacity="0.12"/>
<stop offset="1" stop-color="#93ACFD" stop-opacity="0"/>
</linearGradient>
<linearGradient id="paint18_linear_151_345" x1="256.55" y1="278.84" x2="256.55" y2="244.97" gradientUnits="userSpaceOnUse">
<stop stop-color="#120B57"/>
<stop offset="0.5" stop-color="#120B59"/>
<stop offset="0.69" stop-color="#130C60"/>
<stop offset="0.84" stop-color="#150F6C"/>
<stop offset="0.95" stop-color="#17117D"/>
<stop offset="1" stop-color="#181387"/>
</linearGradient>
<linearGradient id="paint19_linear_151_345" x1="255.09" y1="278.84" x2="255.09" y2="244.97" gradientUnits="userSpaceOnUse">
<stop stop-color="#181387"/>
<stop offset="0.05" stop-color="#17117D"/>
<stop offset="0.16" stop-color="#150F6C"/>
<stop offset="0.31" stop-color="#130C60"/>
<stop offset="0.5" stop-color="#120B59"/>
<stop offset="1" stop-color="#120B57"/>
</linearGradient>
<linearGradient id="paint20_linear_151_345" x1="140.35" y1="250.69" x2="62.91" y2="250.69" gradientUnits="userSpaceOnUse">
<stop stop-color="#181387"/>
<stop offset="1" stop-color="#120B57"/>
</linearGradient>
<linearGradient id="paint21_linear_151_345" x1="139.45" y1="250.14" x2="80.5199" y2="250.14" gradientUnits="userSpaceOnUse">
<stop stop-color="#120B57"/>
<stop offset="0.27" stop-color="#120B59" stop-opacity="0.97"/>
<stop offset="0.47" stop-color="#130C5E" stop-opacity="0.86"/>
<stop offset="0.65" stop-color="#140E67" stop-opacity="0.67"/>
<stop offset="0.81" stop-color="#161073" stop-opacity="0.41"/>
<stop offset="0.97" stop-color="#181283" stop-opacity="0.07"/>
<stop offset="1" stop-color="#181387" stop-opacity="0"/>
</linearGradient>
<linearGradient id="paint22_linear_151_345" x1="166.51" y1="266.41" x2="166.51" y2="232.28" gradientUnits="userSpaceOnUse">
<stop stop-color="#181387"/>
<stop offset="0.01" stop-color="#16127D"/>
<stop offset="0.05" stop-color="#120E62"/>
<stop offset="0.09" stop-color="#0F0A4C"/>
<stop offset="0.14" stop-color="#0C083B"/>
<stop offset="0.2" stop-color="#0A0630"/>
<stop offset="0.29" stop-color="#090529"/>
<stop offset="0.53" stop-color="#090527"/>
<stop offset="0.72" stop-color="#090527"/>
</linearGradient>
<linearGradient id="paint23_linear_151_345" x1="255.6" y1="253.79" x2="178.16" y2="253.79" gradientUnits="userSpaceOnUse">
<stop stop-color="#181387"/>
<stop offset="1" stop-color="#120B57"/>
</linearGradient>
<linearGradient id="paint24_linear_151_345" x1="253.97" y1="253.23" x2="195.03" y2="253.23" gradientUnits="userSpaceOnUse">
<stop stop-color="#2B25A8" stop-opacity="0"/>
<stop offset="1" stop-color="#221978"/>
</linearGradient>
<linearGradient id="paint25_linear_151_345" x1="245.57" y1="253.23" x2="203.44" y2="253.23" gradientUnits="userSpaceOnUse">
<stop stop-color="white"/>
<stop offset="0.32" stop-color="#D9E1FE"/>
<stop offset="0.77" stop-color="#A6BBFD"/>
<stop offset="1" stop-color="#93ACFD"/>
</linearGradient>
<linearGradient id="paint26_linear_151_345" x1="243" y1="253.18" x2="203.44" y2="253.18" gradientUnits="userSpaceOnUse">
<stop stop-color="#7797FD"/>
<stop offset="0.18" stop-color="#8AA6FD"/>
<stop offset="0.56" stop-color="#BDCCFE"/>
<stop offset="1" stop-color="white"/>
</linearGradient>
<linearGradient id="paint27_linear_151_345" x1="240.7" y1="253.18" x2="203.66" y2="253.18" gradientUnits="userSpaceOnUse">
<stop stop-color="white"/>
<stop offset="0.52" stop-color="#C9D6FE"/>
<stop offset="1" stop-color="#9BB3FE"/>
</linearGradient>
<linearGradient id="paint28_linear_151_345" x1="241.06" y1="253.18" x2="204.48" y2="253.18" gradientUnits="userSpaceOnUse">
<stop stop-color="white"/>
<stop offset="0.52" stop-color="#C9D6FE"/>
<stop offset="1" stop-color="#9BB3FE"/>
</linearGradient>
<linearGradient id="paint29_linear_151_345" x1="237.71" y1="252.32" x2="217.64" y2="252.32" gradientUnits="userSpaceOnUse">
<stop stop-color="#C0CEFE"/>
<stop offset="0.17" stop-color="#AFC1FE"/>
<stop offset="0.39" stop-color="#9FB5FD"/>
<stop offset="0.64" stop-color="#96AEFD"/>
<stop offset="1" stop-color="#93ACFD"/>
</linearGradient>
<linearGradient id="paint30_linear_151_345" x1="236.72" y1="252.98" x2="218.63" y2="252.98" gradientUnits="userSpaceOnUse">
<stop stop-color="white"/>
<stop offset="0.16" stop-color="#FEFEFF" stop-opacity="0.99"/>
<stop offset="0.28" stop-color="#F9FBFF" stop-opacity="0.95"/>
<stop offset="0.41" stop-color="#F2F5FF" stop-opacity="0.88"/>
<stop offset="0.52" stop-color="#E8EDFF" stop-opacity="0.78"/>
<stop offset="0.63" stop-color="#DAE3FE" stop-opacity="0.66"/>
<stop offset="0.74" stop-color="#CAD6FE" stop-opacity="0.51"/>
<stop offset="0.84" stop-color="#B6C7FE" stop-opacity="0.33"/>
<stop offset="0.95" stop-color="#A0B6FD" stop-opacity="0.12"/>
<stop offset="1" stop-color="#93ACFD" stop-opacity="0"/>
</linearGradient>
<linearGradient id="paint31_linear_151_345" x1="232.15" y1="252.32" x2="224.52" y2="252.32" gradientUnits="userSpaceOnUse">
<stop stop-color="#C0CEFE"/>
<stop offset="0.17" stop-color="#AFC1FE"/>
<stop offset="0.39" stop-color="#9FB5FD"/>
<stop offset="0.64" stop-color="#96AEFD"/>
<stop offset="1" stop-color="#93ACFD"/>
</linearGradient>
<linearGradient id="paint32_linear_151_345" x1="231.77" y1="252.57" x2="224.9" y2="252.57" gradientUnits="userSpaceOnUse">
<stop stop-color="white"/>
<stop offset="0.16" stop-color="#FEFEFF" stop-opacity="0.99"/>
<stop offset="0.28" stop-color="#F9FBFF" stop-opacity="0.95"/>
<stop offset="0.41" stop-color="#F2F5FF" stop-opacity="0.88"/>
<stop offset="0.52" stop-color="#E8EDFF" stop-opacity="0.78"/>
<stop offset="0.63" stop-color="#DAE3FE" stop-opacity="0.66"/>
<stop offset="0.74" stop-color="#CAD6FE" stop-opacity="0.51"/>
<stop offset="0.84" stop-color="#B6C7FE" stop-opacity="0.33"/>
<stop offset="0.95" stop-color="#A0B6FD" stop-opacity="0.12"/>
<stop offset="1" stop-color="#93ACFD" stop-opacity="0"/>
</linearGradient>
<linearGradient id="paint33_linear_151_345" x1="25.8633" y1="132.755" x2="23.9819" y2="70.8236" gradientUnits="userSpaceOnUse">
<stop stop-color="#120B57"/>
<stop offset="0.15" stop-color="#140D65"/>
<stop offset="0.42" stop-color="#161078"/>
<stop offset="0.7" stop-color="#181283"/>
<stop offset="1" stop-color="#181387"/>
</linearGradient>
<linearGradient id="paint34_linear_151_345" x1="23.6643" y1="132.822" x2="21.783" y2="70.8905" gradientUnits="userSpaceOnUse">
<stop stop-color="#120B57"/>
<stop offset="0.34" stop-color="#120B5A"/>
<stop offset="0.59" stop-color="#140D64"/>
<stop offset="0.82" stop-color="#161074"/>
<stop offset="1" stop-color="#181387"/>
</linearGradient>
<linearGradient id="paint35_linear_151_345" x1="27.6708" y1="133.961" x2="25.7895" y2="72.0292" gradientUnits="userSpaceOnUse">
<stop stop-color="#120B57"/>
<stop offset="0.27" stop-color="#120B59" stop-opacity="0.97"/>
<stop offset="0.47" stop-color="#130C5E" stop-opacity="0.86"/>
<stop offset="0.65" stop-color="#140E67" stop-opacity="0.67"/>
<stop offset="0.81" stop-color="#161073" stop-opacity="0.41"/>
<stop offset="0.97" stop-color="#181283" stop-opacity="0.07"/>
<stop offset="1" stop-color="#181387" stop-opacity="0"/>
</linearGradient>
<linearGradient id="paint36_linear_151_345" x1="206.92" y1="149.09" x2="206.92" y2="54.0301" gradientUnits="userSpaceOnUse">
<stop stop-color="#EB9B9A"/>
<stop offset="0.16" stop-color="#EA9493"/>
<stop offset="0.39" stop-color="#E88280"/>
<stop offset="0.66" stop-color="#E46462"/>
<stop offset="0.96" stop-color="#DF3A37"/>
<stop offset="1" stop-color="#DE3431"/>
</linearGradient>
<linearGradient id="paint37_linear_151_345" x1="195.71" y1="142.01" x2="195.71" y2="42.6001" gradientUnits="userSpaceOnUse">
<stop stop-color="#181387"/>
<stop offset="1" stop-color="#120B57"/>
</linearGradient>
<linearGradient id="paint38_linear_151_345" x1="236.27" y1="92.3099" x2="155.16" y2="92.3099" gradientUnits="userSpaceOnUse">
<stop stop-color="#120B57"/>
<stop offset="0.04" stop-color="#130C5E"/>
<stop offset="0.35" stop-color="#1A138C"/>
<stop offset="0.62" stop-color="#2018AD"/>
<stop offset="0.85" stop-color="#231BC2"/>
<stop offset="1" stop-color="#241CC9"/>
</linearGradient>
<linearGradient id="paint39_linear_151_345" x1="195.71" y1="137.53" x2="195.71" y2="45.6098" gradientUnits="userSpaceOnUse">
<stop stop-color="#EFC093"/>
<stop offset="0.15" stop-color="#EABD96"/>
<stop offset="0.32" stop-color="#DCB59F"/>
<stop offset="0.51" stop-color="#C5A8AD"/>
<stop offset="0.7" stop-color="#A595C1"/>
<stop offset="0.89" stop-color="#7B7DDA"/>
<stop offset="1" stop-color="#626EEA"/>
</linearGradient>
<linearGradient id="paint40_linear_151_345" x1="170.01" y1="137.53" x2="170.01" y2="45.61" gradientUnits="userSpaceOnUse">
<stop stop-color="#EFC093"/>
<stop offset="0.15" stop-color="#EABD96"/>
<stop offset="0.32" stop-color="#DCB59F"/>
<stop offset="0.51" stop-color="#C5A8AD"/>
<stop offset="0.7" stop-color="#A595C1"/>
<stop offset="0.89" stop-color="#7B7DDA"/>
<stop offset="1" stop-color="#626EEA"/>
</linearGradient>
<linearGradient id="paint41_linear_151_345" x1="194.3" y1="137.53" x2="194.3" y2="45.6099" gradientUnits="userSpaceOnUse">
<stop stop-color="#EFC093"/>
<stop offset="0.15" stop-color="#EABD96"/>
<stop offset="0.32" stop-color="#DCB59F"/>
<stop offset="0.51" stop-color="#C5A8AD"/>
<stop offset="0.7" stop-color="#A595C1"/>
<stop offset="0.89" stop-color="#7B7DDA"/>
<stop offset="1" stop-color="#626EEA"/>
</linearGradient>
<linearGradient id="paint42_linear_151_345" x1="196.74" y1="137.53" x2="196.74" y2="45.6099" gradientUnits="userSpaceOnUse">
<stop stop-color="#EFC093"/>
<stop offset="0.15" stop-color="#EABD96"/>
<stop offset="0.32" stop-color="#DCB59F"/>
<stop offset="0.51" stop-color="#C5A8AD"/>
<stop offset="0.7" stop-color="#A595C1"/>
<stop offset="0.89" stop-color="#7B7DDA"/>
<stop offset="1" stop-color="#626EEA"/>
</linearGradient>
<linearGradient id="paint43_linear_151_345" x1="196.52" y1="137.53" x2="196.52" y2="45.6099" gradientUnits="userSpaceOnUse">
<stop stop-color="#EFC093"/>
<stop offset="0.15" stop-color="#EABD96"/>
<stop offset="0.32" stop-color="#DCB59F"/>
<stop offset="0.51" stop-color="#C5A8AD"/>
<stop offset="0.7" stop-color="#A595C1"/>
<stop offset="0.89" stop-color="#7B7DDA"/>
<stop offset="1" stop-color="#626EEA"/>
</linearGradient>
<linearGradient id="paint44_linear_151_345" x1="196.04" y1="137.53" x2="196.04" y2="45.61" gradientUnits="userSpaceOnUse">
<stop stop-color="#EFC093"/>
<stop offset="0.15" stop-color="#EABD96"/>
<stop offset="0.32" stop-color="#DCB59F"/>
<stop offset="0.51" stop-color="#C5A8AD"/>
<stop offset="0.7" stop-color="#A595C1"/>
<stop offset="0.89" stop-color="#7B7DDA"/>
<stop offset="1" stop-color="#626EEA"/>
</linearGradient>
<linearGradient id="paint45_linear_151_345" x1="196.9" y1="137.53" x2="196.9" y2="45.6098" gradientUnits="userSpaceOnUse">
<stop stop-color="#EFC093"/>
<stop offset="0.15" stop-color="#EABD96"/>
<stop offset="0.32" stop-color="#DCB59F"/>
<stop offset="0.51" stop-color="#C5A8AD"/>
<stop offset="0.7" stop-color="#A595C1"/>
<stop offset="0.89" stop-color="#7B7DDA"/>
<stop offset="1" stop-color="#626EEA"/>
</linearGradient>
<linearGradient id="paint46_linear_151_345" x1="197.02" y1="137.53" x2="197.02" y2="45.6099" gradientUnits="userSpaceOnUse">
<stop stop-color="#EFC093"/>
<stop offset="0.15" stop-color="#EABD96"/>
<stop offset="0.32" stop-color="#DCB59F"/>
<stop offset="0.51" stop-color="#C5A8AD"/>
<stop offset="0.7" stop-color="#A595C1"/>
<stop offset="0.89" stop-color="#7B7DDA"/>
<stop offset="1" stop-color="#626EEA"/>
</linearGradient>
<linearGradient id="paint47_linear_151_345" x1="182.35" y1="144.33" x2="159.92" y2="144.33" gradientUnits="userSpaceOnUse">
<stop stop-color="#181387"/>
<stop offset="0.18" stop-color="#161074"/>
<stop offset="0.41" stop-color="#140D64"/>
<stop offset="0.66" stop-color="#120B5A"/>
<stop offset="1" stop-color="#120B57"/>
</linearGradient>
<linearGradient id="paint48_linear_151_345" x1="181.52" y1="144.7" x2="160.75" y2="144.7" gradientUnits="userSpaceOnUse">
<stop stop-color="#241DCC"/>
<stop offset="0.18" stop-color="#2219B9"/>
<stop offset="0.41" stop-color="#2116A9"/>
<stop offset="0.66" stop-color="#20159F"/>
<stop offset="1" stop-color="#20149C"/>
</linearGradient>
<linearGradient id="paint49_linear_151_345" x1="185.53" y1="135.46" x2="185.53" y2="58.0498" gradientUnits="userSpaceOnUse">
<stop stop-color="#120B57"/>
<stop offset="0.15" stop-color="#140D65"/>
<stop offset="0.42" stop-color="#161078"/>
<stop offset="0.7" stop-color="#181283"/>
<stop offset="1" stop-color="#181387"/>
</linearGradient>
<linearGradient id="paint50_linear_151_345" x1="183.33" y1="135.46" x2="183.33" y2="58.0498" gradientUnits="userSpaceOnUse">
<stop stop-color="#181387"/>
<stop offset="0.18" stop-color="#161074"/>
<stop offset="0.41" stop-color="#140D64"/>
<stop offset="0.66" stop-color="#120B5A"/>
<stop offset="1" stop-color="#120B57"/>
</linearGradient>
<linearGradient id="paint51_linear_151_345" x1="185.38" y1="132.75" x2="185.38" y2="57.8698" gradientUnits="userSpaceOnUse">
<stop stop-color="#181387"/>
<stop offset="0.18" stop-color="#161074"/>
<stop offset="0.41" stop-color="#140D64"/>
<stop offset="0.66" stop-color="#120B5A"/>
<stop offset="1" stop-color="#120B57"/>
</linearGradient>
<linearGradient id="paint52_linear_151_345" x1="181.83" y1="137.67" x2="181.83" y2="117.15" gradientUnits="userSpaceOnUse">
<stop stop-color="#120B57"/>
<stop offset="0.15" stop-color="#140D65"/>
<stop offset="0.42" stop-color="#161078"/>
<stop offset="0.7" stop-color="#181283"/>
<stop offset="1" stop-color="#181387"/>
</linearGradient>
<linearGradient id="paint53_linear_151_345" x1="181.25" y1="137.67" x2="181.25" y2="117.15" gradientUnits="userSpaceOnUse">
<stop stop-color="#181387"/>
<stop offset="0.18" stop-color="#161074"/>
<stop offset="0.41" stop-color="#140D64"/>
<stop offset="0.66" stop-color="#120B5A"/>
<stop offset="1" stop-color="#120B57"/>
</linearGradient>
<linearGradient id="paint54_linear_151_345" x1="158.77" y1="169.85" x2="158.77" y2="151.21" gradientUnits="userSpaceOnUse">
<stop stop-color="#120B57"/>
<stop offset="0.01" stop-color="#120B59"/>
<stop offset="0.19" stop-color="#150F6D"/>
<stop offset="0.38" stop-color="#17117C"/>
<stop offset="0.62" stop-color="#181384"/>
<stop offset="1" stop-color="#181387"/>
</linearGradient>
<linearGradient id="paint55_linear_151_345" x1="160.48" y1="169.85" x2="160.48" y2="151.21" gradientUnits="userSpaceOnUse">
<stop stop-color="#181387"/>
<stop offset="0.18" stop-color="#161074"/>
<stop offset="0.41" stop-color="#140D64"/>
<stop offset="0.66" stop-color="#120B5A"/>
<stop offset="1" stop-color="#120B57"/>
</linearGradient>
<linearGradient id="paint56_linear_151_345" x1="226.97" y1="163.34" x2="244.32" y2="163.34" gradientUnits="userSpaceOnUse">
<stop stop-color="#E8423F"/>
<stop offset="0.1" stop-color="#E84744" stop-opacity="0.93"/>
<stop offset="0.31" stop-color="#E85552" stop-opacity="0.75"/>
<stop offset="0.59" stop-color="#E86B69" stop-opacity="0.46"/>
<stop offset="0.94" stop-color="#E88987" stop-opacity="0.07"/>
<stop offset="1" stop-color="#E88F8D" stop-opacity="0"/>
</linearGradient>
<linearGradient id="paint57_linear_151_345" x1="226.97" y1="159.81" x2="245.56" y2="159.81" gradientUnits="userSpaceOnUse">
<stop stop-color="#120B57"/>
<stop offset="0.01" stop-color="#120B59"/>
<stop offset="0.19" stop-color="#150F6D"/>
<stop offset="0.38" stop-color="#17117C"/>
<stop offset="0.62" stop-color="#181384"/>
<stop offset="1" stop-color="#181387"/>
</linearGradient>
<linearGradient id="paint58_linear_151_345" x1="229.05" y1="160.19" x2="245.56" y2="160.19" gradientUnits="userSpaceOnUse">
<stop stop-color="#181387"/>
<stop offset="0.18" stop-color="#161074"/>
<stop offset="0.41" stop-color="#140D64"/>
<stop offset="0.66" stop-color="#120B5A"/>
<stop offset="1" stop-color="#120B57"/>
</linearGradient>
<linearGradient id="paint59_linear_151_345" x1="245.75" y1="160.19" x2="228.87" y2="160.19" gradientUnits="userSpaceOnUse">
<stop stop-color="#181387"/>
<stop offset="0.18" stop-color="#161074"/>
<stop offset="0.41" stop-color="#140D64"/>
<stop offset="0.66" stop-color="#120B5A"/>
<stop offset="1" stop-color="#120B57"/>
</linearGradient>
<linearGradient id="paint60_linear_151_345" x1="211.13" y1="231.53" x2="189.28" y2="193.68" gradientUnits="userSpaceOnUse">
<stop stop-color="#E88F8D" stop-opacity="0"/>
<stop offset="1" stop-color="#CC3A37"/>
</linearGradient>
<linearGradient id="paint61_linear_151_345" x1="215.78" y1="239.48" x2="191.97" y2="198.24" gradientUnits="userSpaceOnUse">
<stop stop-color="#181387"/>
<stop offset="1" stop-color="#120B57"/>
</linearGradient>
<linearGradient id="paint62_linear_151_345" x1="258.9" y1="215.19" x2="184.91" y2="215.19" gradientUnits="userSpaceOnUse">
<stop stop-color="#231CC4"/>
<stop offset="0.42" stop-color="#231CC2"/>
<stop offset="0.57" stop-color="#211BBB"/>
<stop offset="0.67" stop-color="#1F19B0"/>
<stop offset="0.76" stop-color="#1D169F"/>
<stop offset="0.83" stop-color="#191389"/>
<stop offset="0.9" stop-color="#140F6D"/>
<stop offset="0.95" stop-color="#0F0A4E"/>
<stop offset="1" stop-color="#09052E"/>
</linearGradient>
<linearGradient id="paint63_linear_151_345" x1="259.09" y1="215.14" x2="184.75" y2="215.14" gradientUnits="userSpaceOnUse">
<stop stop-color="#181387"/>
<stop offset="0.18" stop-color="#161074"/>
<stop offset="0.41" stop-color="#140D64"/>
<stop offset="0.66" stop-color="#120B5A"/>
<stop offset="1" stop-color="#120B57"/>
</linearGradient>
<linearGradient id="paint64_linear_151_345" x1="81.69" y1="140.39" x2="81.69" y2="35.84" gradientUnits="userSpaceOnUse">
<stop stop-color="#181387"/>
<stop offset="1" stop-color="#120B57"/>
</linearGradient>
<linearGradient id="paint65_linear_151_345" x1="79.85" y1="137.94" x2="79.85" y2="37.7197" gradientUnits="userSpaceOnUse">
<stop stop-color="#EFC093"/>
<stop offset="0.15" stop-color="#EABD96"/>
<stop offset="0.32" stop-color="#DCB59F"/>
<stop offset="0.51" stop-color="#C5A8AD"/>
<stop offset="0.7" stop-color="#A595C1"/>
<stop offset="0.89" stop-color="#7B7DDA"/>
<stop offset="1" stop-color="#626EEA"/>
</linearGradient>
<linearGradient id="paint66_linear_151_345" x1="100.32" y1="137.94" x2="100.32" y2="37.7201" gradientUnits="userSpaceOnUse">
<stop stop-color="#EFC093"/>
<stop offset="0.15" stop-color="#EABD96"/>
<stop offset="0.32" stop-color="#DCB59F"/>
<stop offset="0.51" stop-color="#C5A8AD"/>
<stop offset="0.7" stop-color="#A595C1"/>
<stop offset="0.89" stop-color="#7B7DDA"/>
<stop offset="1" stop-color="#626EEA"/>
</linearGradient>
<linearGradient id="paint67_linear_151_345" x1="112.97" y1="137.94" x2="112.97" y2="37.72" gradientUnits="userSpaceOnUse">
<stop stop-color="#EFC093"/>
<stop offset="0.15" stop-color="#EABD96"/>
<stop offset="0.32" stop-color="#DCB59F"/>
<stop offset="0.51" stop-color="#C5A8AD"/>
<stop offset="0.7" stop-color="#A595C1"/>
<stop offset="0.89" stop-color="#7B7DDA"/>
<stop offset="1" stop-color="#626EEA"/>
</linearGradient>
<linearGradient id="paint68_linear_151_345" x1="122.75" y1="137.94" x2="122.75" y2="37.72" gradientUnits="userSpaceOnUse">
<stop stop-color="#EFC093"/>
<stop offset="0.15" stop-color="#EABD96"/>
<stop offset="0.32" stop-color="#DCB59F"/>
<stop offset="0.51" stop-color="#C5A8AD"/>
<stop offset="0.7" stop-color="#A595C1"/>
<stop offset="0.89" stop-color="#7B7DDA"/>
<stop offset="1" stop-color="#626EEA"/>
</linearGradient>
<linearGradient id="paint69_linear_151_345" x1="92.41" y1="137.95" x2="92.41" y2="37.7299" gradientUnits="userSpaceOnUse">
<stop stop-color="#EFC093"/>
<stop offset="0.15" stop-color="#EABD96"/>
<stop offset="0.32" stop-color="#DCB59F"/>
<stop offset="0.51" stop-color="#C5A8AD"/>
<stop offset="0.7" stop-color="#A595C1"/>
<stop offset="0.89" stop-color="#7B7DDA"/>
<stop offset="1" stop-color="#626EEA"/>
</linearGradient>
<linearGradient id="paint70_linear_151_345" x1="114.97" y1="137.94" x2="114.97" y2="37.7201" gradientUnits="userSpaceOnUse">
<stop stop-color="#EFC093"/>
<stop offset="0.15" stop-color="#EABD96"/>
<stop offset="0.32" stop-color="#DCB59F"/>
<stop offset="0.51" stop-color="#C5A8AD"/>
<stop offset="0.7" stop-color="#A595C1"/>
<stop offset="0.89" stop-color="#7B7DDA"/>
<stop offset="1" stop-color="#626EEA"/>
</linearGradient>
<linearGradient id="paint71_linear_151_345" x1="39.6899" y1="137.94" x2="39.6899" y2="37.7203" gradientUnits="userSpaceOnUse">
<stop stop-color="#EFC093"/>
<stop offset="0.15" stop-color="#EABD96"/>
<stop offset="0.32" stop-color="#DCB59F"/>
<stop offset="0.51" stop-color="#C5A8AD"/>
<stop offset="0.7" stop-color="#A595C1"/>
<stop offset="0.89" stop-color="#7B7DDA"/>
<stop offset="1" stop-color="#626EEA"/>
</linearGradient>
<linearGradient id="paint72_linear_151_345" x1="44.19" y1="137.94" x2="44.19" y2="37.7199" gradientUnits="userSpaceOnUse">
<stop stop-color="#EFC093"/>
<stop offset="0.15" stop-color="#EABD96"/>
<stop offset="0.32" stop-color="#DCB59F"/>
<stop offset="0.51" stop-color="#C5A8AD"/>
<stop offset="0.7" stop-color="#A595C1"/>
<stop offset="0.89" stop-color="#7B7DDA"/>
<stop offset="1" stop-color="#626EEA"/>
</linearGradient>
<linearGradient id="paint73_linear_151_345" x1="68.57" y1="137.91" x2="68.57" y2="37.6901" gradientUnits="userSpaceOnUse">
<stop stop-color="#EFC093"/>
<stop offset="0.15" stop-color="#EABD96"/>
<stop offset="0.32" stop-color="#DCB59F"/>
<stop offset="0.51" stop-color="#C5A8AD"/>
<stop offset="0.7" stop-color="#A595C1"/>
<stop offset="0.89" stop-color="#7B7DDA"/>
<stop offset="1" stop-color="#626EEA"/>
</linearGradient>
<linearGradient id="paint74_linear_151_345" x1="57.0801" y1="137.94" x2="57.0801" y2="37.7203" gradientUnits="userSpaceOnUse">
<stop stop-color="#EFC093"/>
<stop offset="0.15" stop-color="#EABD96"/>
<stop offset="0.32" stop-color="#DCB59F"/>
<stop offset="0.51" stop-color="#C5A8AD"/>
<stop offset="0.7" stop-color="#A595C1"/>
<stop offset="0.89" stop-color="#7B7DDA"/>
<stop offset="1" stop-color="#626EEA"/>
</linearGradient>
<linearGradient id="paint75_linear_151_345" x1="101.56" y1="194.85" x2="14.5901" y2="194.85" gradientUnits="userSpaceOnUse">
<stop stop-color="#93ACFD"/>
<stop offset="0.23" stop-color="#A6BBFD"/>
<stop offset="0.68" stop-color="#D9E1FE"/>
<stop offset="1" stop-color="white"/>
</linearGradient>
<linearGradient id="paint76_linear_151_345" x1="99.83" y1="194.85" x2="14.59" y2="194.85" gradientUnits="userSpaceOnUse">
<stop stop-color="white"/>
<stop offset="0.32" stop-color="#D9E1FE"/>
<stop offset="0.77" stop-color="#A6BBFD"/>
<stop offset="1" stop-color="#93ACFD"/>
</linearGradient>
<linearGradient id="paint77_linear_151_345" x1="124.55" y1="193.3" x2="97.16" y2="193.3" gradientUnits="userSpaceOnUse">
<stop stop-color="#09052E"/>
<stop offset="1" stop-color="#181387"/>
</linearGradient>
<linearGradient id="paint78_linear_151_345" x1="110.85" y1="224.82" x2="110.85" y2="166.24" gradientUnits="userSpaceOnUse">
<stop stop-color="#EFC093"/>
<stop offset="0.11" stop-color="#D5B1A3"/>
<stop offset="0.3" stop-color="#AC99BC"/>
<stop offset="0.49" stop-color="#8C86D0"/>
<stop offset="0.68" stop-color="#7579DE"/>
<stop offset="0.85" stop-color="#6771E7"/>
<stop offset="1" stop-color="#626EEA"/>
</linearGradient>
<linearGradient id="paint79_linear_151_345" x1="111.79" y1="224.82" x2="111.79" y2="171.64" gradientUnits="userSpaceOnUse">
<stop stop-color="#626EEA"/>
<stop offset="0.04" stop-color="#797BDC"/>
<stop offset="0.09" stop-color="#988EC8"/>
<stop offset="0.16" stop-color="#B49DB8"/>
<stop offset="0.23" stop-color="#CAAAAA"/>
<stop offset="0.32" stop-color="#DBB4A0"/>
<stop offset="0.43" stop-color="#E6BB98"/>
<stop offset="0.58" stop-color="#EDBF94"/>
<stop offset="1" stop-color="#EFC093"/>
</linearGradient>
<linearGradient id="paint80_linear_151_345" x1="110.97" y1="219" x2="110.97" y2="162.17" gradientUnits="userSpaceOnUse">
<stop stop-color="#EFC093"/>
<stop offset="0.15" stop-color="#EABD96"/>
<stop offset="0.32" stop-color="#DCB59F"/>
<stop offset="0.51" stop-color="#C5A8AD"/>
<stop offset="0.7" stop-color="#A595C1"/>
<stop offset="0.89" stop-color="#7B7DDA"/>
<stop offset="1" stop-color="#626EEA"/>
</linearGradient>
<linearGradient id="paint81_linear_151_345" x1="112.07" y1="215.27" x2="112.07" y2="164.62" gradientUnits="userSpaceOnUse">
<stop stop-color="#626EEA"/>
<stop offset="0.11" stop-color="#7B7DDA"/>
<stop offset="0.3" stop-color="#A595C1"/>
<stop offset="0.49" stop-color="#C5A8AD"/>
<stop offset="0.68" stop-color="#DCB59F"/>
<stop offset="0.85" stop-color="#EABD96"/>
<stop offset="1" stop-color="#EFC093"/>
</linearGradient>
<linearGradient id="paint82_linear_151_345" x1="10.35" y1="229.17" x2="10.35" y2="163.34" gradientUnits="userSpaceOnUse">
<stop stop-color="#09052E"/>
<stop offset="1" stop-color="#181387"/>
</linearGradient>
<linearGradient id="paint83_linear_151_345" x1="10.0501" y1="220.73" x2="10.0501" y2="173.15" gradientUnits="userSpaceOnUse">
<stop stop-color="#EFC093"/>
<stop offset="0.11" stop-color="#D5B1A3"/>
<stop offset="0.3" stop-color="#AC99BC"/>
<stop offset="0.49" stop-color="#8C86D0"/>
<stop offset="0.68" stop-color="#7579DE"/>
<stop offset="0.85" stop-color="#6771E7"/>
<stop offset="1" stop-color="#626EEA"/>
</linearGradient>
<linearGradient id="paint84_linear_151_345" x1="10.42" y1="220.73" x2="10.42" y2="178.12" gradientUnits="userSpaceOnUse">
<stop stop-color="#626EEA"/>
<stop offset="0.04" stop-color="#797BDC"/>
<stop offset="0.09" stop-color="#988EC8"/>
<stop offset="0.16" stop-color="#B49DB8"/>
<stop offset="0.23" stop-color="#CAAAAA"/>
<stop offset="0.32" stop-color="#DBB4A0"/>
<stop offset="0.43" stop-color="#E6BB98"/>
<stop offset="0.58" stop-color="#EDBF94"/>
<stop offset="1" stop-color="#EFC093"/>
</linearGradient>
<linearGradient id="paint85_linear_151_345" x1="10.0101" y1="216" x2="10.0101" y2="169.85" gradientUnits="userSpaceOnUse">
<stop stop-color="#EFC093"/>
<stop offset="0.15" stop-color="#EABD96"/>
<stop offset="0.32" stop-color="#DCB59F"/>
<stop offset="0.51" stop-color="#C5A8AD"/>
<stop offset="0.7" stop-color="#A595C1"/>
<stop offset="0.89" stop-color="#7B7DDA"/>
<stop offset="1" stop-color="#626EEA"/>
</linearGradient>
<linearGradient id="paint86_linear_151_345" x1="10.3201" y1="212.62" x2="10.3201" y2="172.06" gradientUnits="userSpaceOnUse">
<stop stop-color="#626EEA"/>
<stop offset="0.11" stop-color="#7B7DDA"/>
<stop offset="0.3" stop-color="#A595C1"/>
<stop offset="0.49" stop-color="#C5A8AD"/>
<stop offset="0.68" stop-color="#DCB59F"/>
<stop offset="0.85" stop-color="#EABD96"/>
<stop offset="1" stop-color="#EFC093"/>
</linearGradient>
<linearGradient id="paint87_linear_151_345" x1="91.28" y1="187.04" x2="19.92" y2="187.04" gradientUnits="userSpaceOnUse">
<stop stop-color="#93ACFD"/>
<stop offset="0.23" stop-color="#A6BBFD"/>
<stop offset="0.68" stop-color="#D9E1FE"/>
<stop offset="1" stop-color="white"/>
</linearGradient>
<linearGradient id="paint88_linear_151_345" x1="86.62" y1="200.65" x2="23.11" y2="200.65" gradientUnits="userSpaceOnUse">
<stop stop-color="#93ACFD"/>
<stop offset="0.23" stop-color="#A6BBFD"/>
<stop offset="0.68" stop-color="#D9E1FE"/>
<stop offset="1" stop-color="white"/>
</linearGradient>
<linearGradient id="paint89_linear_151_345" x1="91.28" y1="188.02" x2="22.86" y2="188.02" gradientUnits="userSpaceOnUse">
<stop stop-color="#09052E"/>
<stop offset="1" stop-color="#181387"/>
</linearGradient>
<linearGradient id="paint90_linear_151_345" x1="96.3766" y1="173.057" x2="17.6892" y2="174.472" gradientUnits="userSpaceOnUse">
<stop stop-color="#93ACFD"/>
<stop offset="0.23" stop-color="#A6BBFD"/>
<stop offset="0.68" stop-color="#D9E1FE"/>
<stop offset="1" stop-color="white"/>
</linearGradient>
<linearGradient id="paint91_linear_151_345" x1="96.3962" y1="174.147" x2="20.9483" y2="175.504" gradientUnits="userSpaceOnUse">
<stop stop-color="#09052E"/>
<stop offset="1" stop-color="#181387"/>
</linearGradient>
<linearGradient id="paint92_linear_151_345" x1="86.62" y1="200.89" x2="26.05" y2="200.89" gradientUnits="userSpaceOnUse">
<stop stop-color="#09052E"/>
<stop offset="1" stop-color="#181387"/>
</linearGradient>
<linearGradient id="paint93_linear_151_345" x1="88.0188" y1="222.244" x2="24.5088" y2="224.784" gradientUnits="userSpaceOnUse">
<stop stop-color="#93ACFD"/>
<stop offset="0.23" stop-color="#A6BBFD"/>
<stop offset="0.68" stop-color="#D9E1FE"/>
<stop offset="1" stop-color="white"/>
</linearGradient>
<linearGradient id="paint94_linear_151_345" x1="83.9175" y1="226.425" x2="23.3476" y2="229.454" gradientUnits="userSpaceOnUse">
<stop stop-color="#09052E"/>
<stop offset="1" stop-color="#181387"/>
</linearGradient>
<linearGradient id="paint95_linear_151_345" x1="80.15" y1="256.37" x2="80.15" y2="222.23" gradientUnits="userSpaceOnUse">
<stop stop-color="#09052E"/>
<stop offset="1" stop-color="#181387"/>
</linearGradient>
<linearGradient id="paint96_linear_151_345" x1="165.05" y1="235.47" x2="123.65" y2="235.47" gradientUnits="userSpaceOnUse">
<stop stop-color="#181387"/>
<stop offset="1" stop-color="#09052E"/>
</linearGradient>
<linearGradient id="paint97_linear_151_345" x1="28.1331" y1="213.451" x2="27.5832" y2="213.458" gradientUnits="userSpaceOnUse">
<stop stop-color="white"/>
<stop offset="0.32" stop-color="#D9E1FE"/>
<stop offset="0.77" stop-color="#A6BBFD"/>
<stop offset="1" stop-color="#93ACFD"/>
</linearGradient>
<linearGradient id="paint98_linear_151_345" x1="30.553" y1="213.422" x2="30.003" y2="213.429" gradientUnits="userSpaceOnUse">
<stop stop-color="white"/>
<stop offset="0.32" stop-color="#D9E1FE"/>
<stop offset="0.77" stop-color="#A6BBFD"/>
<stop offset="1" stop-color="#93ACFD"/>
</linearGradient>
<linearGradient id="paint99_linear_151_345" x1="33.1628" y1="213.391" x2="32.6129" y2="213.398" gradientUnits="userSpaceOnUse">
<stop stop-color="white"/>
<stop offset="0.32" stop-color="#D9E1FE"/>
<stop offset="0.77" stop-color="#A6BBFD"/>
<stop offset="1" stop-color="#93ACFD"/>
</linearGradient>
<linearGradient id="paint100_linear_151_345" x1="35.8226" y1="213.359" x2="35.2727" y2="213.365" gradientUnits="userSpaceOnUse">
<stop stop-color="white"/>
<stop offset="0.32" stop-color="#D9E1FE"/>
<stop offset="0.77" stop-color="#A6BBFD"/>
<stop offset="1" stop-color="#93ACFD"/>
</linearGradient>
<linearGradient id="paint101_linear_151_345" x1="38.5124" y1="213.327" x2="37.9624" y2="213.334" gradientUnits="userSpaceOnUse">
<stop stop-color="white"/>
<stop offset="0.32" stop-color="#D9E1FE"/>
<stop offset="0.77" stop-color="#A6BBFD"/>
<stop offset="1" stop-color="#93ACFD"/>
</linearGradient>
<linearGradient id="paint102_linear_151_345" x1="41.2422" y1="213.294" x2="40.6922" y2="213.301" gradientUnits="userSpaceOnUse">
<stop stop-color="white"/>
<stop offset="0.32" stop-color="#D9E1FE"/>
<stop offset="0.77" stop-color="#A6BBFD"/>
<stop offset="1" stop-color="#93ACFD"/>
</linearGradient>
<linearGradient id="paint103_linear_151_345" x1="44.022" y1="213.26" x2="43.462" y2="213.267" gradientUnits="userSpaceOnUse">
<stop stop-color="white"/>
<stop offset="0.32" stop-color="#D9E1FE"/>
<stop offset="0.77" stop-color="#A6BBFD"/>
<stop offset="1" stop-color="#93ACFD"/>
</linearGradient>
<linearGradient id="paint104_linear_151_345" x1="46.8317" y1="213.227" x2="46.2818" y2="213.233" gradientUnits="userSpaceOnUse">
<stop stop-color="white"/>
<stop offset="0.32" stop-color="#D9E1FE"/>
<stop offset="0.77" stop-color="#A6BBFD"/>
<stop offset="1" stop-color="#93ACFD"/>
</linearGradient>
<linearGradient id="paint105_linear_151_345" x1="49.6916" y1="213.192" x2="49.1417" y2="213.199" gradientUnits="userSpaceOnUse">
<stop stop-color="white"/>
<stop offset="0.32" stop-color="#D9E1FE"/>
<stop offset="0.77" stop-color="#A6BBFD"/>
<stop offset="1" stop-color="#93ACFD"/>
</linearGradient>
<linearGradient id="paint106_linear_151_345" x1="52.5913" y1="213.157" x2="52.0414" y2="213.164" gradientUnits="userSpaceOnUse">
<stop stop-color="white"/>
<stop offset="0.32" stop-color="#D9E1FE"/>
<stop offset="0.77" stop-color="#A6BBFD"/>
<stop offset="1" stop-color="#93ACFD"/>
</linearGradient>
<linearGradient id="paint107_linear_151_345" x1="55.5412" y1="213.122" x2="54.9912" y2="213.128" gradientUnits="userSpaceOnUse">
<stop stop-color="white"/>
<stop offset="0.32" stop-color="#D9E1FE"/>
<stop offset="0.77" stop-color="#A6BBFD"/>
<stop offset="1" stop-color="#93ACFD"/>
</linearGradient>
<linearGradient id="paint108_linear_151_345" x1="58.531" y1="213.085" x2="57.981" y2="213.092" gradientUnits="userSpaceOnUse">
<stop stop-color="white"/>
<stop offset="0.32" stop-color="#D9E1FE"/>
<stop offset="0.77" stop-color="#A6BBFD"/>
<stop offset="1" stop-color="#93ACFD"/>
</linearGradient>
<linearGradient id="paint109_linear_151_345" x1="61.5708" y1="213.049" x2="61.0208" y2="213.056" gradientUnits="userSpaceOnUse">
<stop stop-color="white"/>
<stop offset="0.32" stop-color="#D9E1FE"/>
<stop offset="0.77" stop-color="#A6BBFD"/>
<stop offset="1" stop-color="#93ACFD"/>
</linearGradient>
<linearGradient id="paint110_linear_151_345" x1="64.6605" y1="213.012" x2="64.1105" y2="213.019" gradientUnits="userSpaceOnUse">
<stop stop-color="white"/>
<stop offset="0.32" stop-color="#D9E1FE"/>
<stop offset="0.77" stop-color="#A6BBFD"/>
<stop offset="1" stop-color="#93ACFD"/>
</linearGradient>
<linearGradient id="paint111_linear_151_345" x1="67.8003" y1="212.974" x2="67.2504" y2="212.981" gradientUnits="userSpaceOnUse">
<stop stop-color="white"/>
<stop offset="0.32" stop-color="#D9E1FE"/>
<stop offset="0.77" stop-color="#A6BBFD"/>
<stop offset="1" stop-color="#93ACFD"/>
</linearGradient>
<linearGradient id="paint112_linear_151_345" x1="70.99" y1="212.935" x2="70.4301" y2="212.942" gradientUnits="userSpaceOnUse">
<stop stop-color="white"/>
<stop offset="0.32" stop-color="#D9E1FE"/>
<stop offset="0.77" stop-color="#A6BBFD"/>
<stop offset="1" stop-color="#93ACFD"/>
</linearGradient>
<linearGradient id="paint113_linear_151_345" x1="74.2199" y1="212.897" x2="73.6699" y2="212.903" gradientUnits="userSpaceOnUse">
<stop stop-color="white"/>
<stop offset="0.32" stop-color="#D9E1FE"/>
<stop offset="0.77" stop-color="#A6BBFD"/>
<stop offset="1" stop-color="#93ACFD"/>
</linearGradient>
<linearGradient id="paint114_linear_151_345" x1="77.5196" y1="212.857" x2="76.9697" y2="212.864" gradientUnits="userSpaceOnUse">
<stop stop-color="white"/>
<stop offset="0.32" stop-color="#D9E1FE"/>
<stop offset="0.77" stop-color="#A6BBFD"/>
<stop offset="1" stop-color="#93ACFD"/>
</linearGradient>
<linearGradient id="paint115_linear_151_345" x1="80.8593" y1="212.817" x2="80.3094" y2="212.823" gradientUnits="userSpaceOnUse">
<stop stop-color="white"/>
<stop offset="0.32" stop-color="#D9E1FE"/>
<stop offset="0.77" stop-color="#A6BBFD"/>
<stop offset="1" stop-color="#93ACFD"/>
</linearGradient>
<linearGradient id="paint116_linear_151_345" x1="74.12" y1="138.51" x2="74.12" y2="38.8702" gradientUnits="userSpaceOnUse">
<stop stop-color="#181387"/>
<stop offset="0.18" stop-color="#161074"/>
<stop offset="0.41" stop-color="#140D64"/>
<stop offset="0.66" stop-color="#120B5A"/>
<stop offset="1" stop-color="#120B57"/>
</linearGradient>
<linearGradient id="paint117_linear_151_345" x1="134.34" y1="125.16" x2="13.6699" y2="125.16" gradientUnits="userSpaceOnUse">
<stop stop-color="#181387"/>
<stop offset="0.18" stop-color="#161074"/>
<stop offset="0.41" stop-color="#140D64"/>
<stop offset="0.66" stop-color="#120B5A"/>
<stop offset="1" stop-color="#120B57"/>
</linearGradient>
<linearGradient id="paint118_linear_151_345" x1="117.22" y1="241.01" x2="67.7699" y2="241.01" gradientUnits="userSpaceOnUse">
<stop stop-color="#181387"/>
<stop offset="0.46" stop-color="#181385"/>
<stop offset="0.63" stop-color="#17127E"/>
<stop offset="0.74" stop-color="#151073"/>
<stop offset="0.84" stop-color="#120D62"/>
<stop offset="0.92" stop-color="#0E0A4C"/>
<stop offset="0.99" stop-color="#0A0631"/>
<stop offset="1" stop-color="#09052E"/>
</linearGradient>
<linearGradient id="paint119_linear_151_345" x1="117.22" y1="239.51" x2="78.4399" y2="239.51" gradientUnits="userSpaceOnUse">
<stop stop-color="#EFC093"/>
<stop offset="0.11" stop-color="#D5B1A3"/>
<stop offset="0.3" stop-color="#AC99BC"/>
<stop offset="0.49" stop-color="#8C86D0"/>
<stop offset="0.68" stop-color="#7579DE"/>
<stop offset="0.85" stop-color="#6771E7"/>
<stop offset="1" stop-color="#626EEA"/>
</linearGradient>
<linearGradient id="paint120_linear_151_345" x1="9.16002" y1="241.19" x2="52.0601" y2="241.19" gradientUnits="userSpaceOnUse">
<stop stop-color="#181387"/>
<stop offset="0.46" stop-color="#181385"/>
<stop offset="0.63" stop-color="#17127E"/>
<stop offset="0.74" stop-color="#151073"/>
<stop offset="0.84" stop-color="#120D62"/>
<stop offset="0.92" stop-color="#0E0A4C"/>
<stop offset="0.99" stop-color="#0A0631"/>
<stop offset="1" stop-color="#09052E"/>
</linearGradient>
<linearGradient id="paint121_linear_151_345" x1="13.62" y1="239.89" x2="47.27" y2="239.89" gradientUnits="userSpaceOnUse">
<stop stop-color="#EFC093"/>
<stop offset="0.11" stop-color="#D5B1A3"/>
<stop offset="0.3" stop-color="#AC99BC"/>
<stop offset="0.49" stop-color="#8C86D0"/>
<stop offset="0.68" stop-color="#7579DE"/>
<stop offset="0.85" stop-color="#6771E7"/>
<stop offset="1" stop-color="#626EEA"/>
</linearGradient>
<linearGradient id="paint122_linear_151_345" x1="117.41" y1="241.01" x2="91.1" y2="241.01" gradientUnits="userSpaceOnUse">
<stop stop-color="#181387"/>
<stop offset="0.18" stop-color="#161074"/>
<stop offset="0.41" stop-color="#140D64"/>
<stop offset="0.66" stop-color="#120B5A"/>
<stop offset="1" stop-color="#120B57"/>
</linearGradient>
<linearGradient id="paint123_linear_151_345" x1="372.69" y1="224.67" x2="362.91" y2="224.67" gradientUnits="userSpaceOnUse">
<stop stop-color="#120B57"/>
<stop offset="0.14" stop-color="#140D64"/>
<stop offset="0.42" stop-color="#161077"/>
<stop offset="0.71" stop-color="#181283"/>
<stop offset="1" stop-color="#181387"/>
</linearGradient>
<linearGradient id="paint124_linear_151_345" x1="377.58" y1="224.67" x2="367.8" y2="224.67" gradientUnits="userSpaceOnUse">
<stop stop-color="#433DBF"/>
<stop offset="1" stop-color="#352C8F"/>
</linearGradient>
<linearGradient id="paint125_linear_151_345" x1="402.56" y1="224.67" x2="392.78" y2="224.67" gradientUnits="userSpaceOnUse">
<stop stop-color="#120B57"/>
<stop offset="0.14" stop-color="#140D64"/>
<stop offset="0.42" stop-color="#161077"/>
<stop offset="0.71" stop-color="#181283"/>
<stop offset="1" stop-color="#181387"/>
</linearGradient>
<linearGradient id="paint126_linear_151_345" x1="407.45" y1="224.67" x2="397.67" y2="224.67" gradientUnits="userSpaceOnUse">
<stop stop-color="#433DBF"/>
<stop offset="1" stop-color="#352C8F"/>
</linearGradient>
<linearGradient id="paint127_linear_151_345" x1="421.63" y1="236.06" x2="346.75" y2="236.06" gradientUnits="userSpaceOnUse">
<stop stop-color="#433DBF"/>
<stop offset="1" stop-color="#352C8F"/>
</linearGradient>
<linearGradient id="paint128_linear_151_345" x1="420.16" y1="236.06" x2="348.22" y2="236.06" gradientUnits="userSpaceOnUse">
<stop stop-color="white"/>
<stop offset="0.32" stop-color="#D9E1FE"/>
<stop offset="0.77" stop-color="#A6BBFD"/>
<stop offset="1" stop-color="#93ACFD"/>
</linearGradient>
<linearGradient id="paint129_linear_151_345" x1="346.75" y1="238.3" x2="339.41" y2="238.3" gradientUnits="userSpaceOnUse">
<stop stop-color="#181387"/>
<stop offset="1" stop-color="#120B57"/>
</linearGradient>
<linearGradient id="paint130_linear_151_345" x1="420.16" y1="234.48" x2="348.22" y2="234.48" gradientUnits="userSpaceOnUse">
<stop stop-color="#E88F8D"/>
<stop offset="0.08" stop-color="#E67A78"/>
<stop offset="0.2" stop-color="#E3605E"/>
<stop offset="0.34" stop-color="#E14D4A"/>
<stop offset="0.49" stop-color="#DF3F3C"/>
<stop offset="0.68" stop-color="#DE3633"/>
<stop offset="1" stop-color="#DE3431"/>
</linearGradient>
<linearGradient id="paint131_linear_151_345" x1="420.16" y1="233.27" x2="348.22" y2="233.27" gradientUnits="userSpaceOnUse">
<stop stop-color="#E88F8D"/>
<stop offset="0.08" stop-color="#E67A78"/>
<stop offset="0.2" stop-color="#E3605E"/>
<stop offset="0.34" stop-color="#E14D4A"/>
<stop offset="0.49" stop-color="#DF3F3C"/>
<stop offset="0.68" stop-color="#DE3633"/>
<stop offset="1" stop-color="#DE3431"/>
</linearGradient>
<linearGradient id="paint132_linear_151_345" x1="420.16" y1="237.28" x2="348.22" y2="237.28" gradientUnits="userSpaceOnUse">
<stop stop-color="#E88F8D"/>
<stop offset="0.08" stop-color="#E67A78"/>
<stop offset="0.2" stop-color="#E3605E"/>
<stop offset="0.34" stop-color="#E14D4A"/>
<stop offset="0.49" stop-color="#DF3F3C"/>
<stop offset="0.68" stop-color="#DE3633"/>
<stop offset="1" stop-color="#DE3431"/>
</linearGradient>
<linearGradient id="paint133_linear_151_345" x1="420.16" y1="235.88" x2="348.22" y2="235.88" gradientUnits="userSpaceOnUse">
<stop stop-color="#E88F8D"/>
<stop offset="0.08" stop-color="#E67A78"/>
<stop offset="0.2" stop-color="#E3605E"/>
<stop offset="0.34" stop-color="#E14D4A"/>
<stop offset="0.49" stop-color="#DF3F3C"/>
<stop offset="0.68" stop-color="#DE3633"/>
<stop offset="1" stop-color="#DE3431"/>
</linearGradient>
</defs>
</svg>
