<svg width="577" height="241" viewBox="0 0 577 241" fill="none" xmlns="http://www.w3.org/2000/svg">
<g style="mix-blend-mode:multiply">
<path d="M360.108 227.739C288.434 227.739 230.33 226.027 230.33 223.914C230.33 221.801 288.434 220.088 360.108 220.088C431.782 220.088 489.886 221.801 489.886 223.914C489.886 226.027 431.782 227.739 360.108 227.739Z" fill="#342447"/>
</g>
<g style="mix-blend-mode:multiply">
<path d="M0.0651823 237.043C0.0651823 239.114 62.0894 240.775 138.596 240.775C215.102 240.775 277.145 239.114 277.145 237.043C277.145 234.971 215.12 233.31 138.605 233.31C62.0894 233.31 0.0651823 234.962 0.0651823 237.043Z" fill="#342447"/>
</g>
<path d="M520.324 183.062L555.941 182.959V165.015L523.515 167.451L520.324 183.062Z" fill="url(#paint0_linear_191_447)"/>
<path d="M519.633 181.69L555.26 181.587V163.644L522.834 166.079L519.633 181.69Z" fill="url(#paint1_linear_191_447)"/>
<path d="M358.746 184.648C358.746 204.626 365.343 223.26 390.173 223.214C412.437 223.167 421.591 206.418 421.591 186.44C421.591 166.462 411.327 149.199 390.173 150.272C372.836 151.121 358.746 164.67 358.746 184.648Z" fill="url(#paint2_linear_191_447)"/>
<path style="mix-blend-mode:multiply" d="M396.947 219.36C383.739 219.36 373.032 204.546 373.032 186.271C373.032 167.997 383.739 153.183 396.947 153.183C410.156 153.183 420.863 167.997 420.863 186.271C420.863 204.546 410.156 219.36 396.947 219.36Z" fill="url(#paint3_linear_191_447)"/>
<path d="M321.934 203.124H338.572V206.175H364.139L366.425 210.131H391.545L397.022 203.45L400.447 208.116L423.644 206.641L430.39 208.153L453.718 206.203L481.497 206.641L511.179 189.668V204.029H525.353C525.353 204.029 528.097 185.32 522.61 170.595H318.818L321.934 203.124Z" fill="url(#paint4_linear_191_447)"/>
<path d="M269.83 202.998H290.55V206.023H322.328L325.169 209.945H356.383L363.192 203.322L367.453 207.947L396.226 206.448L404.631 207.947L433.568 206.023L468.187 206.458L505.083 189.632V203.895H522.692C522.692 203.895 526.096 185.35 519.288 170.754H266.003L269.83 202.998Z" fill="url(#paint5_linear_191_447)"/>
<path d="M278.74 170.595C278.311 180.402 278.414 190.284 280.364 199.914C280.789 202.036 281.321 204.135 281.959 206.203H258.081V203.124H241.612L238.57 170.595H278.74Z" fill="url(#paint6_linear_191_447)"/>
<path d="M274.644 169.914C274.261 178.713 274.345 187.587 276.1 196.237C276.482 198.159 276.967 200.035 277.527 201.836H256.066V199.037H241.276L238.542 169.83L274.644 169.914Z" fill="url(#paint7_linear_191_447)"/>
<path d="M443.631 185.18C443.631 205.158 450.228 223.783 475.049 223.736C497.313 223.69 506.467 206.94 506.467 186.971C506.467 167.003 496.203 149.721 475.049 150.795C457.721 151.681 443.631 165.202 443.631 185.18Z" fill="url(#paint8_linear_191_447)"/>
<path d="M452.962 185.18C452.962 205.158 459.559 223.783 484.38 223.736C506.644 223.69 515.798 206.94 515.798 186.971C515.798 167.003 505.534 149.721 484.38 150.795C467.052 151.681 452.962 165.202 452.962 185.18Z" fill="url(#paint9_linear_191_447)"/>
<path d="M459.78 211.69C455.108 204.663 453.462 195.13 453.462 185.18C453.462 165.468 467.344 152.167 484.406 151.294L459.78 211.69ZM459.78 211.69C464.427 218.681 472.115 223.259 484.379 223.236M459.78 211.69L484.379 223.236M484.379 223.236C495.37 223.213 503.072 219.076 508.04 212.522M484.379 223.236L508.04 212.522M508.04 212.522C513.024 205.949 515.298 196.889 515.298 186.971M508.04 212.522L515.298 186.971M515.298 186.971C515.298 177.064 512.751 167.87 507.628 161.3M515.298 186.971L507.628 161.3M507.628 161.3C502.52 154.748 494.823 150.765 484.406 151.294L507.628 161.3Z" stroke="black" stroke-opacity="0.2"/>
<path d="M490.558 219.882C477.349 219.882 466.642 205.068 466.642 186.794C466.642 168.52 477.349 153.706 490.558 153.706C503.766 153.706 514.473 168.52 514.473 186.794C514.473 205.068 503.766 219.882 490.558 219.882Z" fill="url(#paint10_linear_191_447)"/>
<path d="M489.624 210.449C480.183 210.449 472.53 199.858 472.53 186.794C472.53 173.73 480.183 163.14 489.624 163.14C499.065 163.14 506.719 173.73 506.719 186.794C506.719 199.858 499.065 210.449 489.624 210.449Z" fill="url(#paint11_linear_191_447)"/>
<path d="M487.655 208.955C478.792 208.955 471.606 199.012 471.606 186.747C471.606 174.482 478.792 164.539 487.655 164.539C496.519 164.539 503.705 174.482 503.705 186.747C503.705 199.012 496.519 208.955 487.655 208.955Z" fill="url(#paint12_linear_191_447)"/>
<path d="M488.682 208.703C480.385 208.703 473.659 198.873 473.659 186.747C473.659 174.621 480.385 164.791 488.682 164.791C496.979 164.791 503.705 174.621 503.705 186.747C503.705 198.873 496.979 208.703 488.682 208.703Z" fill="url(#paint13_linear_191_447)"/>
<path style="mix-blend-mode:multiply" d="M487.292 208.703C479.257 208.703 472.744 198.873 472.744 186.747C472.744 174.621 479.257 164.791 487.292 164.791C495.326 164.791 501.839 174.621 501.839 186.747C501.839 198.873 495.326 208.703 487.292 208.703Z" stroke="url(#paint14_linear_191_447)" stroke-width="0.63" stroke-miterlimit="10"/>
<path d="M486.965 201.463C482.466 201.463 478.819 194.561 478.819 186.048C478.819 177.534 482.466 170.633 486.965 170.633C491.464 170.633 495.111 177.534 495.111 186.048C495.111 194.561 491.464 201.463 486.965 201.463Z" fill="url(#paint15_linear_191_447)"/>
<path d="M486.965 200.474C482.914 200.474 479.631 194.257 479.631 186.589C479.631 178.921 482.914 172.704 486.965 172.704C491.016 172.704 494.299 178.921 494.299 186.589C494.299 194.257 491.016 200.474 486.965 200.474Z" fill="url(#paint16_linear_191_447)"/>
<path d="M484.408 197.245C484.408 200.483 485.789 203.105 487.506 203.105C489.223 203.105 490.595 200.483 490.595 197.245C490.595 194.007 489.214 191.395 487.506 191.395C485.799 191.395 484.408 194.558 484.408 197.245Z" fill="url(#paint17_linear_191_447)"/>
<path d="M487.506 191.525C485.965 191.525 484.716 189.165 484.716 186.253C484.716 183.341 485.965 180.981 487.506 180.981C489.047 180.981 490.296 183.341 490.296 186.253C490.296 189.165 489.047 191.525 487.506 191.525Z" fill="url(#paint18_linear_191_447)"/>
<path d="M245.148 206.212V232.19L233.774 231.322L237.534 200.585L245.148 206.212Z" fill="url(#paint19_linear_191_447)"/>
<path d="M243.776 206.212V232.19L232.402 231.322L236.171 200.585L243.776 206.212Z" fill="url(#paint20_linear_191_447)"/>
<path d="M245.419 206.175L186.101 203.095L190.216 164.987C190.216 164.987 216.492 146.885 233.727 152.53L239.82 170.912L245.419 206.175Z" fill="#2958AA"/>
<path d="M245.419 170.063L247.126 206.175H243.776C243.776 206.175 242.106 175.382 232.402 154.62L245.419 170.063Z" fill="#A3BCFF"/>
<path d="M58.7957 192.356C58.7957 215.32 66.3819 236.753 94.9259 236.688C120.531 236.641 131.056 217.382 131.056 194.409C131.056 171.435 119.29 151.588 94.9259 152.82C74.9665 153.827 58.7957 169.382 58.7957 192.356Z" fill="url(#paint21_linear_191_447)"/>
<path style="mix-blend-mode:multiply" d="M102.689 232.265C87.5021 232.265 75.1904 215.228 75.1904 194.212C75.1904 173.196 87.5021 156.16 102.689 156.16C117.877 156.16 130.188 173.196 130.188 194.212C130.188 215.228 117.877 232.265 102.689 232.265Z" fill="url(#paint22_linear_191_447)"/>
<path d="M94.7205 196.778C94.6819 196.223 94.8642 195.675 95.2278 195.254C95.5913 194.833 96.1066 194.573 96.6614 194.53H182.508C188.202 194.527 193.858 193.604 199.257 191.796L207.562 189.043C207.562 189.043 211.985 187.326 211.985 192.131C211.967 192.546 212.073 192.956 212.289 193.31C212.505 193.664 212.822 193.945 213.198 194.119C214.111 194.645 214.865 195.409 215.379 196.329C215.893 197.249 216.149 198.291 216.119 199.344V217.745C216.168 218.449 215.936 219.143 215.474 219.677C215.013 220.21 214.359 220.539 213.655 220.591L137.485 220.153L111.741 220.004C106.524 220.004 94.6738 223.26 94.6738 213.612L94.7205 196.778Z" fill="url(#paint23_linear_191_447)"/>
<path d="M166.309 195.238C166.309 218.212 173.895 239.636 202.439 239.58C228.044 239.524 238.57 220.265 238.57 197.301C238.57 174.337 226.812 154.471 202.439 155.702C182.517 156.719 166.309 172.265 166.309 195.238Z" fill="url(#paint24_linear_191_447)"/>
<path d="M209.55 235.148C194.362 235.148 182.051 218.112 182.051 197.096C182.051 176.08 194.362 159.043 209.55 159.043C224.737 159.043 237.049 176.08 237.049 197.096C237.049 218.112 224.737 235.148 209.55 235.148Z" fill="url(#paint25_linear_191_447)"/>
<path d="M209.55 224.296C198.697 224.296 189.898 212.118 189.898 197.096C189.898 182.074 198.697 169.896 209.55 169.896C220.403 169.896 229.201 182.074 229.201 197.096C229.201 212.118 220.403 224.296 209.55 224.296Z" fill="url(#paint26_linear_191_447)"/>
<path d="M208.355 222.589C198.162 222.589 189.898 211.154 189.898 197.049C189.898 182.944 198.162 171.51 208.355 171.51C218.549 171.51 226.812 182.944 226.812 197.049C226.812 211.154 218.549 222.589 208.355 222.589Z" fill="url(#paint27_linear_191_447)"/>
<path d="M207.385 222.299C197.841 222.299 190.104 210.994 190.104 197.049C190.104 183.104 197.841 171.799 207.385 171.799C216.929 171.799 224.666 183.104 224.666 197.049C224.666 210.994 216.929 222.299 207.385 222.299Z" fill="url(#paint28_linear_191_447)"/>
<path style="mix-blend-mode:multiply" d="M207.936 222.299C198.695 222.299 191.205 210.994 191.205 197.049C191.205 183.104 198.695 171.799 207.936 171.799C217.176 171.799 224.666 183.104 224.666 197.049C224.666 210.994 217.176 222.299 207.936 222.299Z" stroke="url(#paint29_linear_191_447)" stroke-width="0.72" stroke-miterlimit="10"/>
<path d="M212.508 213.967C207.334 213.967 203.139 206.033 203.139 196.247C203.139 186.46 207.334 178.527 212.508 178.527C217.682 178.527 221.876 186.46 221.876 196.247C221.876 206.033 217.682 213.967 212.508 213.967Z" fill="url(#paint30_linear_191_447)"/>
<path d="M212.508 212.828C207.849 212.828 204.072 205.68 204.072 196.863C204.072 188.045 207.849 180.897 212.508 180.897C217.166 180.897 220.943 188.045 220.943 196.863C220.943 205.68 217.166 212.828 212.508 212.828Z" fill="url(#paint31_linear_191_447)"/>
<path d="M213.124 202.974C211.16 202.974 209.568 199.962 209.568 196.246C209.568 192.531 211.16 189.519 213.124 189.519C215.087 189.519 216.679 192.531 216.679 196.246C216.679 199.962 215.087 202.974 213.124 202.974Z" fill="url(#paint32_linear_191_447)"/>
<path d="M213.124 213.742C211.356 213.742 209.923 211.027 209.923 207.677C209.923 204.327 211.356 201.612 213.124 201.612C214.891 201.612 216.324 204.327 216.324 207.677C216.324 211.027 214.891 213.742 213.124 213.742Z" fill="url(#paint33_linear_191_447)"/>
<path d="M15.7604 38.3073L32.5564 37.794C32.9038 37.7841 33.2496 37.8437 33.5735 37.9695C33.8974 38.0953 34.1929 38.2846 34.4424 38.5264C34.692 38.7682 34.8907 39.0574 35.0267 39.3772C35.1627 39.6969 35.2334 40.0406 35.2345 40.3881L35.4678 93.0158C35.469 93.3616 35.4014 93.7043 35.2688 94.0237C35.1362 94.3431 34.9413 94.6328 34.6954 94.8761C34.4496 95.1193 34.1578 95.3111 33.837 95.4403C33.5162 95.5695 33.1728 95.6335 32.827 95.6285L13.9874 95.3019C13.644 95.2972 13.3049 95.224 12.9901 95.0867C12.6752 94.9493 12.3909 94.7506 12.1537 94.5022C11.9165 94.2537 11.7313 93.9604 11.6087 93.6395C11.4862 93.3187 11.4288 92.9766 11.44 92.6332L13.2409 40.836C13.2574 40.1721 13.5278 39.5398 13.9965 39.0694C14.4652 38.5989 15.0965 38.3262 15.7604 38.3073Z" fill="url(#paint34_linear_191_447)"/>
<path d="M13.7074 38.3725L30.5035 37.8593C30.8512 37.848 31.1976 37.9068 31.5221 38.0321C31.8465 38.1574 32.1425 38.3467 32.3924 38.5887C32.6422 38.8307 32.8408 39.1205 32.9764 39.4408C33.112 39.7612 33.1817 40.1055 33.1816 40.4533L33.4242 93.0717C33.4255 93.4183 33.3575 93.7618 33.2243 94.0818C33.0911 94.4018 32.8954 94.692 32.6486 94.9354C32.4018 95.1787 32.1088 95.3703 31.7869 95.499C31.465 95.6276 31.1207 95.6907 30.7741 95.6844L11.9438 95.3672C11.5995 95.3612 11.2598 95.2869 10.9444 95.1487C10.629 95.0104 10.3442 94.811 10.1064 94.5619C9.86863 94.3129 9.68257 94.0191 9.55911 93.6976C9.43564 93.3761 9.37718 93.0334 9.38711 92.6892L11.2067 40.9012C11.2229 40.2405 11.4908 39.6108 11.9555 39.1409C12.4203 38.6709 13.0469 38.3961 13.7074 38.3725Z" fill="url(#paint35_linear_191_447)"/>
<path style="mix-blend-mode:multiply" d="M22.5814 39.3991L35.2625 38.8858C35.6098 38.8759 35.9556 38.9355 36.2795 39.0613C36.6034 39.1871 36.8988 39.3764 37.1484 39.6182C37.398 39.8599 37.5967 40.1492 37.7327 40.469C37.8687 40.7887 37.9394 41.1324 37.9405 41.4799L38.1738 94.1076C38.1751 94.4534 38.1074 94.7961 37.9748 95.1155C37.8422 95.4349 37.6473 95.7246 37.4015 95.9679C37.1556 96.2111 36.8638 96.4029 36.543 96.5321C36.2222 96.6613 35.8789 96.7253 35.5331 96.7203L16.7028 96.4031C15.2565 96.4031 12.0372 95.1714 12.0932 93.725L20.062 41.9465C20.0782 41.2807 20.348 40.6464 20.8163 40.1729C21.2845 39.6994 21.9159 39.4226 22.5814 39.3991Z" fill="url(#paint36_linear_191_447)"/>
<path d="M156.372 0.889632C156.372 0.889632 132.372 0.227126 92.1732 5.31261C77.5776 7.13364 63.2788 10.8346 49.6325 16.3234C46.1333 17.7324 42.7368 19.244 39.8068 20.7837C34.8476 23.3904 31.0844 27.8087 29.2999 33.1194C24.9702 45.8938 16.5442 74.0832 12.6345 96.0861C12.6345 96.0861 6.35459 107.022 6.91446 126.73C6.91446 126.73 0.699912 169.821 6.91446 181.625C6.91446 181.625 8.99531 186.234 17.7013 189.314L125.7 186.748L129.283 129.296L132.353 84.1609L136.16 45.1753L143.439 16.4447L156.372 0.889632Z" fill="#A3BCFF"/>
<path d="M97.1093 110.54C98.4157 105.716 101.15 101.134 103.361 96.6646C105.476 92.391 107.654 88.1453 109.893 83.9276H110.014C114.279 82.8545 117.638 80.0645 121.352 77.853C125.065 75.6415 129.134 74.9977 133.314 74.5498L132.381 84.1702L129.311 129.305L128.135 148.173C126.717 148.173 125.336 148.173 123.946 148.173C117.787 148.303 111.815 150.114 105.601 149.992C102.801 149.936 99.5821 149.46 97.5666 147.277C95.0938 144.599 95.7843 140.661 96.1389 137.348C96.5323 133.151 96.5854 128.929 96.2975 124.723C96.0176 119.993 95.8496 115.168 97.1093 110.54Z" fill="#A3BCFF"/>
<path d="M14.1927 157.746C11.0481 157.009 7.45562 156.552 4.28303 155.376C4.85223 141.006 6.91442 126.729 6.91442 126.729C6.56776 118.372 7.67276 110.019 10.1803 102.039C12.0466 109.924 12.5224 118.173 13.5489 126.169C14.8925 136.555 16.4229 147.388 14.1927 157.746Z" fill="#A3BCFF"/>
<path d="M126.428 175.037V189.314H174.334C174.334 189.314 181.034 153.603 206.592 147.762H238.318L231.151 17.9843L225.553 11.3219L154.636 2.92383L140.91 19.6453L130.767 87.2401L122.07 124.173L126.428 175.037Z" fill="#335DA8"/>
<path d="M137.532 121.103L214.262 85.8032C218.008 84.0773 221.18 81.3145 223.404 77.8417C225.629 74.369 226.811 70.3317 226.812 66.2077L223.379 22.398C223.384 19.9088 222.472 17.5048 220.819 15.6444C219.165 13.784 216.884 12.5975 214.411 12.311L154.692 2.92383C154.692 2.92383 138.633 18.087 138.25 39.6419C137.868 61.1969 137.532 121.103 137.532 121.103Z" fill="#A3BCFF"/>
<path style="mix-blend-mode:color-dodge" opacity="0.18" d="M159.432 111.044L214.262 85.8495C218.008 84.1236 221.18 81.3608 223.404 77.8881C225.629 74.4153 226.811 70.3781 226.812 66.2541L223.379 22.4443" stroke="url(#paint37_linear_191_447)" stroke-width="0.18" stroke-miterlimit="10"/>
<path d="M164.238 11.76H164.107C161.761 11.7463 159.453 12.3495 157.414 13.509C155.376 14.6685 153.677 16.3436 152.49 18.3665L152.284 18.7117C150.371 21.9843 148.97 25.5309 148.132 29.2279V29.4146C147.161 33.6805 146.537 38.0181 146.266 42.3849C145.333 57.5853 143.28 92.6145 142.935 98.4371C142.872 99.5357 142.903 100.638 143.028 101.731C143.338 102.665 143.976 103.455 144.823 103.956C145.67 104.457 146.67 104.634 147.637 104.456L149.83 104.045C150.152 103.987 150.465 103.89 150.763 103.756L159.572 99.7995L179.849 90.6456L202.309 80.4746L218.788 73.0097C221.466 71.806 222.52 67.8589 222.52 65.1622V63.2027L221.456 25.4768C221.391 23.1202 220.464 20.8693 218.851 19.1498C217.238 17.4303 215.051 16.3615 212.704 16.1456L164.238 11.76Z" fill="url(#paint38_linear_191_447)"/>
<path d="M165.171 14.0182H165.049C162.814 13.9964 160.612 14.5657 158.667 15.6685C156.722 16.7713 155.103 18.3683 153.973 20.298L153.777 20.6246C151.955 23.7395 150.624 27.1166 149.83 30.637V30.8049C148.914 34.8625 148.33 38.9881 148.085 43.1407C147.227 57.604 145.286 90.9256 144.913 96.4589C144.85 97.5047 144.881 98.554 145.006 99.5942C145.301 100.483 145.908 101.235 146.714 101.712C147.52 102.188 148.471 102.358 149.392 102.188L151.473 101.796C151.795 101.745 152.109 101.651 152.406 101.516L160.804 97.728L180.091 89.022L201.432 79.3829L217.108 72.3099C219.655 71.1622 220.616 67.411 220.616 64.845V62.9787L219.609 27.1004C219.552 25.2423 218.938 23.4443 217.845 21.9403C217.083 20.891 216.106 20.0155 214.98 19.3721C213.854 18.7286 212.604 18.3318 211.313 18.2079L165.171 14.0182Z" fill="url(#paint39_linear_191_447)"/>
<path d="M165.637 14.5594H165.516C163.345 14.543 161.208 15.0994 159.321 16.1725C157.434 17.2456 155.863 18.7973 154.766 20.6713L154.58 20.9793C152.805 24.0185 151.511 27.3141 150.745 30.749V30.9169C149.846 34.8515 149.266 38.8519 149.009 42.8795C148.179 56.9416 146.21 89.33 145.93 94.7141C145.869 95.7317 145.897 96.7527 146.014 97.7654C146.304 98.6272 146.894 99.3559 147.677 99.8184C148.46 100.281 149.383 100.447 150.278 100.285L152.303 99.9022C152.603 99.849 152.894 99.7581 153.171 99.6316L160.589 96.2817L177.936 88.4529L197.83 79.439L213.021 72.5806C214.952 71.7034 216.847 71.2276 217.966 69.3333C218.921 67.7061 219.427 65.8545 219.431 63.9679V62.1577L218.452 27.2778C218.39 25.0967 217.533 23.0135 216.04 21.4216C214.548 19.8297 212.525 18.8392 210.352 18.6372L165.637 14.5594Z" fill="url(#paint40_linear_191_447)"/>
<path d="M169.192 99.5664V99.9023C169.194 100.571 169.063 101.233 168.808 101.851C168.553 102.469 168.179 103.031 167.706 103.504C167.234 103.978 166.673 104.353 166.055 104.609C165.438 104.865 164.776 104.997 164.107 104.997H155.401C154.052 104.997 152.759 105.533 151.805 106.487C150.851 107.44 150.316 108.734 150.316 110.083V114.478" stroke="url(#paint41_linear_191_447)" stroke-width="2.2" stroke-miterlimit="10"/>
<path style="mix-blend-mode:color-dodge" d="M169.192 99.5664V99.9023C169.194 100.571 169.063 101.233 168.808 101.851C168.553 102.469 168.179 103.031 167.706 103.504C167.234 103.978 166.673 104.353 166.055 104.609C165.438 104.865 164.776 104.997 164.107 104.997H155.401C154.052 104.997 152.759 105.533 151.805 106.487C150.851 107.44 150.316 108.734 150.316 110.083V114.478" stroke="url(#paint42_linear_191_447)" stroke-width="0.55" stroke-miterlimit="10"/>
<path d="M166.701 26.1675H183.497C183.845 26.1673 184.189 26.2371 184.51 26.3727C184.83 26.5083 185.12 26.7069 185.362 26.9567C185.604 27.2066 185.793 27.5025 185.918 27.827C186.044 28.1515 186.102 28.4979 186.091 28.8455L184.3 95.8619C184.29 96.2083 184.212 96.5493 184.069 96.8652C183.926 97.181 183.722 97.4653 183.469 97.7015C183.215 97.9377 182.917 98.1211 182.592 98.241C182.267 98.3609 181.921 98.4149 181.575 98.4L162.763 97.4668C162.42 97.4502 162.083 97.3655 161.772 97.2178C161.461 97.0701 161.183 96.8622 160.953 96.6063C160.723 96.3503 160.546 96.0513 160.432 95.7265C160.319 95.4017 160.27 95.0577 160.29 94.7142L164.107 28.5842C164.154 27.9282 164.448 27.3144 164.929 26.8661C165.41 26.4177 166.043 26.1681 166.701 26.1675Z" fill="url(#paint43_linear_191_447)"/>
<path d="M164.639 26.1675H181.435C181.782 26.1686 182.126 26.2392 182.446 26.3753C182.766 26.5113 183.055 26.71 183.297 26.9595C183.538 27.2091 183.728 27.5046 183.853 27.8285C183.979 28.1524 184.039 28.4982 184.029 28.8455L182.228 95.8619C182.221 96.2083 182.145 96.5497 182.003 96.8661C181.862 97.1824 181.659 97.4673 181.406 97.7039C181.153 97.9404 180.855 98.1239 180.53 98.2435C180.205 98.363 179.859 98.4162 179.513 98.4L160.692 97.4668C159.999 97.4283 159.35 97.117 158.887 96.6011C158.424 96.0852 158.183 95.4067 158.219 94.7142L162.035 28.5842C162.085 27.9274 162.38 27.3135 162.863 26.8654C163.346 26.4173 163.98 26.168 164.639 26.1675Z" fill="url(#paint44_linear_191_447)"/>
<path style="mix-blend-mode:color-dodge" d="M162.045 28.6216C162.085 27.9597 162.375 27.3379 162.857 26.8822C163.339 26.4265 163.976 26.171 164.639 26.1675H181.435C181.782 26.1686 182.126 26.2392 182.446 26.3753C182.766 26.5113 183.055 26.71 183.297 26.9595C183.538 27.2091 183.728 27.5046 183.853 27.8285C183.979 28.1524 184.039 28.4982 184.029 28.8455L182.228 95.8619" stroke="url(#paint45_linear_191_447)" stroke-width="0.37" stroke-miterlimit="10"/>
<path d="M167.97 81.3145H172.421C172.513 81.3144 172.605 81.3329 172.69 81.3688C172.775 81.4046 172.852 81.4572 172.916 81.5233C172.98 81.5894 173.031 81.6677 173.064 81.7537C173.098 81.8396 173.114 81.9314 173.112 82.0236L172.636 99.7528C172.632 99.8448 172.61 99.9351 172.572 100.019C172.533 100.102 172.479 100.177 172.411 100.24C172.343 100.302 172.264 100.351 172.178 100.382C172.092 100.414 172 100.428 171.908 100.425L166.925 100.182C166.834 100.179 166.744 100.157 166.662 100.118C166.579 100.079 166.505 100.024 166.444 99.9564C166.383 99.8885 166.337 99.8091 166.307 99.7228C166.278 99.6365 166.265 99.5452 166.272 99.4542L167.28 81.921C167.3 81.7528 167.382 81.598 167.509 81.4862C167.637 81.3743 167.801 81.3132 167.97 81.3145Z" fill="url(#paint46_linear_191_447)"/>
<path d="M167.466 81.3145H171.917C172.009 81.3144 172.101 81.3329 172.186 81.3688C172.271 81.4046 172.348 81.4571 172.412 81.5233C172.477 81.5894 172.527 81.6677 172.561 81.7537C172.594 81.8396 172.61 81.9314 172.608 82.0236L172.132 99.7528C172.129 99.8443 172.109 99.9344 172.071 100.018C172.034 100.101 171.98 100.177 171.913 100.239C171.846 100.302 171.768 100.35 171.682 100.382C171.596 100.414 171.505 100.428 171.413 100.425L166.421 100.182C166.33 100.177 166.241 100.155 166.16 100.115C166.078 100.076 166.004 100.021 165.943 99.9537C165.883 99.8861 165.836 99.8072 165.806 99.7215C165.776 99.6357 165.763 99.5449 165.768 99.4542L166.785 81.921C166.803 81.7536 166.883 81.5989 167.009 81.4869C167.135 81.3749 167.298 81.3135 167.466 81.3145Z" fill="url(#paint47_linear_191_447)"/>
<path d="M143.84 113.097H152.583C153.078 113.097 153.553 113.293 153.903 113.643C154.253 113.993 154.449 114.468 154.449 114.963V127.093C154.449 128.004 154.087 128.878 153.443 129.522C152.799 130.165 151.926 130.527 151.015 130.527H142.011V114.954C142.013 114.467 142.206 114 142.547 113.653C142.889 113.306 143.353 113.106 143.84 113.097Z" fill="url(#paint48_linear_191_447)"/>
<path d="M145.445 113.097H154.179C154.674 113.097 155.148 113.293 155.498 113.643C155.848 113.993 156.045 114.468 156.045 114.963V127.093C156.046 127.544 155.958 127.99 155.787 128.407C155.615 128.823 155.363 129.202 155.045 129.521C154.727 129.84 154.349 130.093 153.933 130.266C153.517 130.438 153.071 130.527 152.62 130.527H143.616V114.954C143.618 114.467 143.811 114 144.152 113.653C144.494 113.306 144.958 113.106 145.445 113.097Z" fill="url(#paint49_linear_191_447)"/>
<path style="mix-blend-mode:multiply" d="M228.044 122.726V126.113C228.044 126.505 227.27 126.823 226.318 126.823H215.055C213.282 126.823 211.855 126.235 211.855 125.498V122.017H226.318C227.27 122.017 228.044 122.334 228.044 122.726Z" fill="url(#paint50_linear_191_447)"/>
<path d="M229.201 119.18V123.062C229.201 123.51 228.38 123.883 227.335 123.883H215.279C213.413 123.883 211.855 123.202 211.855 122.353V118.359H227.363C228.38 118.359 229.201 118.723 229.201 119.18Z" fill="url(#paint51_linear_191_447)"/>
<path d="M229.201 119.787V123.128C229.201 123.52 228.473 123.846 227.568 123.846H216.837C215.158 123.846 213.795 123.249 213.795 122.512V119.031H227.568C228.473 119.069 229.201 119.395 229.201 119.787Z" fill="url(#paint52_linear_191_447)"/>
<path style="mix-blend-mode:color-dodge" d="M229.201 119.787V123.128C229.201 123.52 228.473 123.846 227.568 123.846H216.837C215.158 123.846 213.795 123.249 213.795 122.512V119.031H227.568C228.473 119.069 229.201 119.395 229.201 119.787Z" stroke="url(#paint53_linear_191_447)" stroke-width="0.37" stroke-miterlimit="10"/>
<path d="M137.532 182.754C137.532 182.754 136.506 93.8837 140.275 57.1656C140.275 57.1656 141.302 7.41192 157.071 5.34973L218.722 12.5534C218.722 12.5534 228.651 13.5892 229.686 54.7675L232.355 149.815C232.355 149.815 241.266 149.815 241.602 169.028L243.655 168.692C243.655 168.692 245.027 26.97 235.444 9.46478C209.318 4.76726 182.897 1.90183 156.372 0.889442C156.372 0.889442 140.275 -6.85542 130.683 69.7627C130.683 69.7627 131.028 84.394 121.436 91.7096C121.436 91.7096 115.958 100.695 116.294 114.618V187.214H137.532V182.754Z" fill="#487CEF"/>
<path style="mix-blend-mode:multiply" d="M136.851 178.639H170.769L177.628 161.245C179.157 157.376 181.352 153.804 184.113 150.692L184.253 150.533C188.668 145.565 194.356 141.896 200.704 139.924L202.131 139.485C205.633 138.395 209.279 137.841 212.946 137.843H232.103L231.609 138.263C232.542 140.474 233.083 141.491 233.083 143.908L242.675 146.763V154.312C242.675 154.312 239.251 148.48 229.658 145.728L210.315 146.297C207.481 146.38 204.684 146.968 202.057 148.032L201.917 148.088C194.47 151.157 188.415 156.861 184.906 164.11L179.653 174.897V178.676L173.83 193.083L169.379 204.066H136.851V178.639Z" fill="url(#paint54_linear_191_447)"/>
<path d="M135.479 182.754H173.494L180.353 165.37C181.88 161.513 184.072 157.954 186.828 154.853L186.978 154.685C191.384 149.692 197.073 146.001 203.428 144.011L204.847 143.572C208.351 142.479 212 141.922 215.671 141.92H243.758L243.944 142.34C244.916 144.555 245.418 146.948 245.419 149.367V170.063H241.686C241.686 170.063 242.031 152.558 232.439 149.815L213.096 150.374C210.258 150.457 207.458 151.048 204.828 152.119L204.698 152.175C197.251 155.244 191.196 160.948 187.687 168.197L182.433 178.984V182.716L176.611 197.133L174.063 203.431C173.504 204.813 172.544 205.996 171.307 206.828C170.07 207.659 168.612 208.101 167.121 208.097H135.516L135.479 182.754Z" fill="url(#paint55_linear_191_447)"/>
<path d="M137.532 177.967C137.401 157.824 137.504 137.678 137.84 117.529C138.001 107.457 138.269 97.3921 138.642 87.3331C139.043 77.2741 139.519 67.2058 140.508 57.1934C140.648 52.4346 141.003 47.685 141.507 42.9541C142.011 38.2232 142.683 33.511 143.634 28.8454C144.519 24.1806 145.879 19.6187 147.693 15.2312C148.603 13.0596 149.819 11.0296 151.305 9.20332C152.722 7.35517 154.779 6.1037 157.071 5.69479H156.987L205.248 11.2935L217.313 12.6838C219.422 12.5345 220.85 14.1115 221.979 15.7071C223.087 17.3748 223.984 19.174 224.647 21.0632C225.98 24.8736 226.951 28.8006 227.55 32.7925C228.203 36.7769 228.604 40.7986 228.903 44.8297C229.201 48.8607 229.332 52.9104 229.462 56.9602L229.854 69.0907L230.647 93.3517L232.346 141.874L230.993 93.3517L230.256 69.0907L229.892 56.9602C229.77 52.9198 229.668 48.8607 229.369 44.8297C229.07 40.7986 228.679 36.7489 228.035 32.6992C227.445 28.6759 226.477 24.7175 225.142 20.8766C224.467 18.9408 223.552 17.0974 222.417 15.3899C221.836 14.524 221.129 13.7502 220.318 13.0944C219.893 12.759 219.413 12.5001 218.9 12.3292C218.312 12.2173 217.873 12.1986 217.351 12.124L205.295 10.6963L157.043 5.02295H156.959C154.508 5.44947 152.306 6.78169 150.791 8.75541C149.273 10.6342 148.032 12.7207 147.106 14.9513C145.28 19.3839 143.917 23.993 143.037 28.7054C142.104 33.371 141.423 38.1206 140.928 42.8701C140.434 47.6197 140.098 52.3692 139.995 57.1468C138.997 67.1871 138.558 77.2554 138.129 87.3238C137.7 97.3921 137.532 107.46 137.401 117.538C137.271 127.616 137.215 137.684 137.233 147.752C137.252 157.821 137.392 167.917 137.532 177.967Z" fill="#7A8DBF"/>
<path d="M172.636 196.069C175.191 196.067 177.682 195.264 179.758 193.772C181.833 192.281 183.389 190.177 184.206 187.755L185.289 184.554C185.842 182.903 186.554 181.309 187.416 179.796L191.149 173.264C193.72 168.735 197.535 165.037 202.141 162.608C206.055 160.54 210.414 159.461 214.841 159.463H231.758C233.225 159.46 234.646 159.973 235.772 160.913C236.899 161.854 237.658 163.16 237.916 164.605C238.244 166.703 238.385 168.826 238.336 170.95H241.686V158.213C241.684 155.911 240.772 153.704 239.148 152.073C238.343 151.268 237.387 150.629 236.335 150.194C235.283 149.758 234.156 149.534 233.018 149.535H218.694C211.152 149.54 203.746 151.546 197.233 155.348C194.556 156.909 192.198 158.96 190.281 161.395L187.985 164.315C186.772 165.851 185.748 167.527 184.934 169.307L172.636 196.069Z" fill="url(#paint56_linear_191_447)"/>
<path style="mix-blend-mode:color-dodge" d="M241.686 170.912V158.213C241.684 155.911 240.772 153.704 239.148 152.073C238.343 151.268 237.387 150.629 236.335 150.194C235.283 149.758 234.156 149.534 233.018 149.535H218.694C211.152 149.54 203.746 151.546 197.233 155.348C194.556 156.909 192.198 158.96 190.281 161.395L187.985 164.315C186.772 165.851 185.748 167.527 184.934 169.307L172.636 196.069" stroke="url(#paint57_linear_191_447)" stroke-width="0.37" stroke-miterlimit="10"/>
<path d="M13.9595 85.6257L29.0292 34.3043C29.5777 32.4258 30.4151 30.644 31.5114 29.0229C33.5345 26.0249 36.3699 23.6654 39.6855 22.2205L43.3433 20.6342C44.332 20.2045 45.356 19.8611 46.4038 19.6077L74.8546 12.6747L97.4919 8.60631C103.629 7.50304 109.827 6.77077 116.052 6.41348L132.717 5.48037C133.927 5.41568 135.132 5.67668 136.207 6.23619C137.296 6.80547 138.208 7.66218 138.845 8.71332C139.482 9.76447 139.818 10.9699 139.818 12.1988V15.1288C139.819 15.4916 139.788 15.8539 139.725 16.2112C138.792 21.9405 130.627 71.7875 130.562 72.4407C130.499 72.7216 130.411 72.9964 130.3 73.2619C128.45 78.3349 125.068 82.7076 120.624 85.775C118.959 86.9108 117.168 87.8502 115.286 88.5743L111.087 90.2259C102.879 93.4447 94.2718 95.5352 85.5014 96.4405L22.2455 102.972C20.3145 103.17 18.3761 102.674 16.7774 101.573C15.8614 100.943 15.0831 100.133 14.4896 99.1932C13.8961 98.2532 13.4998 97.2024 13.3249 96.1045L12.8584 93.2119C12.6978 92.1979 12.7295 91.1628 12.9517 90.1606L13.8195 86.2042C13.8544 86.0087 13.9011 85.8155 13.9595 85.6257Z" fill="url(#paint58_linear_191_447)"/>
<path d="M14.8272 84.0674L17.2906 73.9431C20.1831 62.1403 23.6649 50.4898 27.7228 39.0353L29.2624 34.8642C29.7932 33.0699 30.5957 31.3674 31.6419 29.8161C33.5827 26.9362 36.3052 24.6702 39.4894 23.2843L42.9886 21.7633C43.9399 21.3544 44.923 21.0236 45.9279 20.7742L73.2029 14.1304L94.9072 10.2206C100.788 9.16684 106.727 8.46575 112.692 8.12113L128.667 7.18802C129.829 7.12391 130.987 7.37541 132.017 7.91585C133.062 8.46174 133.937 9.2836 134.547 10.2921C135.158 11.3006 135.48 12.4571 135.479 13.6358V16.4352C135.479 16.7821 135.451 17.1285 135.395 17.471C134.462 22.967 126.67 70.7612 126.605 71.377C126.544 71.647 126.463 71.9122 126.362 72.1702C124.568 77.0365 121.308 81.2261 117.031 84.1607C115.436 85.2612 113.721 86.1754 111.918 86.8854L107.887 88.4624C100.017 91.5514 91.7646 93.5572 83.3552 94.425L22.7027 100.658C20.8518 100.848 18.9935 100.376 17.4586 99.3239C16.5813 98.7183 15.8356 97.9415 15.2663 97.0403C14.6971 96.1391 14.316 95.1321 14.146 94.0797L13.7074 91.2804C13.5485 90.3104 13.577 89.319 13.7914 88.3597L14.6219 84.562C14.6813 84.3935 14.7498 84.2284 14.8272 84.0674Z" fill="url(#paint59_linear_191_447)"/>
<g style="mix-blend-mode:multiply" opacity="0.26">
<path d="M132.017 7.93465C133.062 8.48055 133.937 9.30241 134.547 10.3109C135.158 11.3194 135.48 12.4758 135.479 13.6546V16.454C135.479 16.8009 135.451 17.1473 135.395 17.4897C135.33 17.8443 135.246 18.4229 135.134 19.0667L69.8157 95.8341L51.8345 97.7004L128.779 7.21615C129.903 7.16253 131.021 7.41061 132.017 7.93465Z" fill="url(#paint60_linear_191_447)"/>
<path d="M132.437 35.5454L82.2541 94.5557L77.4766 95.0502L133.464 29.1909C133.156 31.1785 132.801 33.3153 132.437 35.5454Z" fill="url(#paint61_linear_191_447)"/>
<path d="M126.67 70.9573L113.849 86.0831C113.243 86.3817 112.627 86.6617 111.983 86.9043L107.952 88.4812C105.47 89.4143 102.951 90.3475 100.403 91.066L128.854 57.6138C127.753 64.2482 126.913 69.4643 126.67 70.9573Z" fill="url(#paint62_linear_191_447)"/>
<path d="M126.726 7.32812L49.6978 97.915L45.872 98.3069L123.05 7.53341L126.726 7.32812Z" fill="url(#paint63_linear_191_447)"/>
<path d="M130.179 49.3462L93.1343 92.9134C89.9189 93.592 86.6704 94.1028 83.4019 94.4437L82.2542 94.5556L132.437 35.5454C131.709 39.9777 130.935 44.7459 130.179 49.3462Z" fill="url(#paint64_linear_191_447)"/>
<path d="M27.7229 39.0352L29.2625 34.8642C30.0195 32.2994 31.3314 29.9325 33.1053 27.9313C34.8791 25.9301 37.0714 24.3436 39.5268 23.2842L43.0259 21.7632C43.9773 21.3544 44.9603 21.0236 45.9653 20.7741L50.6309 19.6357L23.6358 51.3617C24.9235 47.172 26.3045 43.029 27.7229 39.0352Z" fill="url(#paint65_linear_191_447)"/>
<path d="M54.382 18.7121L64.5623 16.23L18.0465 70.9386C19.2129 66.3196 20.5192 61.6074 21.9095 56.9418L54.382 18.7121Z" fill="url(#paint66_linear_191_447)"/>
<path d="M105.507 8.7373L27.7601 100.183L22.768 100.696H22.5907L100.226 9.38116C101.99 9.13855 103.744 8.92393 105.507 8.7373Z" fill="url(#paint67_linear_191_447)"/>
<path d="M73.2029 14.1304L92.985 10.5752L17.5146 99.3331C16.6397 98.7281 15.8961 97.9526 15.3285 97.053C14.7609 96.1534 14.3808 95.1485 14.2113 94.0984L13.7728 91.299C13.6138 90.3291 13.6424 89.3376 13.8568 88.3784L14.6872 84.5806C14.724 84.4008 14.7707 84.2233 14.8272 84.0487L16.2082 78.3754L70.245 14.8862L73.2029 14.1304Z" fill="url(#paint68_linear_191_447)"/>
</g>
<path d="M15.1444 185.851L15.8349 153.818L13.6794 127.513L94.8325 121.793L90.7268 148.331L93.0036 185.851H15.1444Z" fill="url(#paint69_linear_191_447)"/>
<path d="M15.1165 185.851L15.7883 153.818L13.6795 127.513L93.2183 121.793L89.1872 148.331L91.4267 185.851H15.1165Z" fill="url(#paint70_linear_191_447)"/>
<path d="M93.0037 185.842L90.7269 148.331L94.8326 121.793L111.75 117.641C112.289 117.51 112.851 117.502 113.393 117.619C113.935 117.737 114.444 117.975 114.88 118.318C115.317 118.66 115.67 119.097 115.913 119.595C116.157 120.094 116.284 120.641 116.285 121.196V187.214L93.0037 185.842Z" fill="url(#paint71_linear_191_447)"/>
<path d="M109.492 181.783L98.817 181.12C97.7591 181.054 96.7622 180.602 96.0144 179.851C95.2666 179.1 94.8196 178.101 94.7579 177.043L94.002 164.063C93.8862 162.065 94.4648 160.088 95.64 158.467C96.8151 156.846 98.5144 155.682 100.45 155.171L107.756 153.248C108.376 153.087 109.025 153.071 109.653 153.199C110.281 153.328 110.871 153.598 111.378 153.99C111.885 154.382 112.296 154.884 112.579 155.459C112.861 156.034 113.009 156.667 113.01 157.307V178.461C113.01 178.914 112.918 179.363 112.739 179.779C112.56 180.196 112.298 180.571 111.968 180.882C111.639 181.193 111.249 181.434 110.823 181.589C110.397 181.744 109.944 181.81 109.492 181.783Z" fill="url(#paint72_linear_191_447)"/>
<path d="M109.809 181.783L100.123 181.186C99.1585 181.124 98.2502 180.709 97.5707 180.021C96.8913 179.333 96.4882 178.419 96.4376 177.454L95.7564 165.669C95.6509 163.855 96.1758 162.06 97.2421 160.589C98.3084 159.118 99.8505 158.061 101.607 157.597L108.251 155.88C108.814 155.733 109.403 155.717 109.974 155.834C110.544 155.95 111.08 156.196 111.54 156.552C112.001 156.908 112.374 157.365 112.63 157.887C112.886 158.41 113.019 158.984 113.019 159.566V178.769C113.02 179.182 112.936 179.591 112.772 179.97C112.609 180.349 112.369 180.69 112.068 180.973C111.767 181.256 111.411 181.473 111.023 181.613C110.634 181.752 110.221 181.81 109.809 181.783Z" fill="url(#paint73_linear_191_447)"/>
<path d="M113.01 148.21L96.9414 152.427C96.5141 152.54 96.067 152.557 95.6326 152.475C95.1982 152.394 94.7874 152.217 94.43 151.957C94.0726 151.697 93.7776 151.36 93.5664 150.972C93.3552 150.584 93.2331 150.153 93.2089 149.712L93.2929 149.106L108.876 145.019C109.363 144.892 109.873 144.878 110.367 144.979C110.86 145.08 111.324 145.293 111.722 145.601C112.12 145.909 112.443 146.305 112.664 146.757C112.886 147.209 113.001 147.706 113 148.21H113.01Z" fill="#EFC093"/>
<path d="M13.6701 127.513L6.88636 124.425C6.88636 124.425 2.68734 123.491 3.79775 153.64C3.93772 157.504 3.97504 161.367 3.79775 165.23C3.58313 171.006 3.93774 182.268 8.60332 185.329L15.1351 185.842L15.8163 153.818L13.6701 127.513Z" fill="url(#paint74_linear_191_447)"/>
<path d="M7.381 177.958L11.0575 177.426C11.8133 177.314 12.4105 175.895 12.4571 174.113L12.7184 163.569C12.8024 160.219 11.8693 157.196 10.4976 156.347L7.96886 154.788C7.03575 154.219 6.15862 155.852 6.15862 158.082V175.261C6.15862 176.819 6.71848 178.051 7.381 177.958Z" fill="url(#paint75_linear_191_447)"/>
<path d="M7.93148 177.957L11.2347 177.482C11.9066 177.379 12.4478 176.11 12.4851 174.514L12.7184 165.118C12.793 162.122 11.9625 159.416 10.7308 158.651L8.4727 157.261C7.65156 156.748 6.84909 158.194 6.84909 160.21V175.597C6.84909 176.94 7.34362 178.041 7.93148 177.957Z" fill="url(#paint76_linear_191_447)"/>
<path d="M6.15866 150.692L11.7014 154.116C12.3266 154.508 12.9517 153.444 12.989 151.914V151.429L7.61432 148.098C6.89582 147.659 6.18662 148.937 6.18662 150.692H6.15866Z" fill="#EFC093"/>
<path d="M82.4969 141.361L18.6531 143.88C19.4998 146.217 21.0601 148.229 23.1132 149.631C25.1662 151.032 27.608 151.753 30.0931 151.69L70.4503 150.067C73.7629 149.936 83.0941 145.196 85.2402 142.537L82.4969 141.361Z" fill="url(#paint77_linear_191_447)"/>
<path d="M78.1485 154.648L21.6297 156.879C22.3777 158.944 23.7556 160.723 25.5687 161.964C27.3819 163.204 29.5389 163.844 31.7353 163.793L67.483 162.319C70.4223 162.207 78.9883 157.42 80.8918 155.068L78.1485 154.648Z" fill="url(#paint78_linear_191_447)"/>
<path d="M85.2402 142.536L21.3964 144.925C22.2988 147.198 23.8831 149.137 25.9315 150.473C27.98 151.81 30.3921 152.479 32.8364 152.39L73.1937 150.85C74.8324 150.786 76.4399 150.381 77.9143 149.663C79.3888 148.945 80.6982 147.929 81.7597 146.679L85.2402 142.536Z" fill="url(#paint79_linear_191_447)"/>
<path d="M86.9011 127.84L16.5442 131.88C17.5216 134.444 19.2817 136.636 21.5747 138.143C23.8676 139.65 26.5771 140.398 29.3186 140.278L73.7815 137.694C77.4394 137.479 87.629 132.095 89.9431 129.09L86.9011 127.84Z" fill="url(#paint80_linear_191_447)"/>
<path d="M89.9431 129.081L19.6049 132.991C20.6522 135.47 22.4397 137.565 24.7229 138.99C27.006 140.414 29.6734 141.099 32.3605 140.95L76.8329 138.45C78.6338 138.341 80.3927 137.86 81.9986 137.038C83.6046 136.216 85.0229 135.07 86.164 133.672L89.9431 129.081Z" fill="url(#paint81_linear_191_447)"/>
<path d="M80.8918 155.105L24.373 157.214C25.1782 159.227 26.5879 160.941 28.4078 162.119C30.2278 163.297 32.3685 163.882 34.5347 163.793L70.2636 162.43C71.7179 162.369 73.1435 162.005 74.4496 161.362C75.7556 160.72 76.9136 159.812 77.8499 158.698L80.8918 155.105Z" fill="url(#paint82_linear_191_447)"/>
<path d="M78.3256 186.579L21.7602 186.85C22.4174 184.748 23.719 182.906 25.4807 181.585C27.2423 180.264 29.3749 179.53 31.5765 179.488L67.3242 179.357C70.2635 179.357 79.0441 183.733 81.041 186.01L78.3256 186.579Z" fill="url(#paint83_linear_191_447)"/>
<path d="M81.0503 185.917L24.4942 186.393C25.2061 184.352 26.5316 182.582 28.2889 181.324C30.0463 180.066 32.1495 179.383 34.3106 179.367L70.0582 179.087C71.511 179.077 72.95 179.369 74.2834 179.946C75.6169 180.523 76.8155 181.371 77.8031 182.437L81.0503 185.917Z" fill="url(#paint84_linear_191_447)"/>
<path d="M94.8325 121.793L95.5229 114.618L13.6794 121.103V127.513" fill="#A3BCFF"/>
<g style="mix-blend-mode:multiply">
<path d="M94.8325 121.793L95.7656 114.636V114.384H95.5044L90.3722 114.655L85.2587 115.065L74.9945 115.877L54.5685 117.529L34.1053 119.152L23.8411 119.964C22.1335 120.114 20.4259 120.207 18.7276 120.375L13.6235 120.935H13.4462V121.093L13.6235 127.504L13.8101 121.093L13.6421 121.28L18.7649 121.019C20.4818 120.925 22.1802 120.748 23.8878 120.627L34.152 119.815L54.6152 118.191L75.0878 116.596L85.3521 115.784L90.4655 115.383L95.5697 114.851L95.3364 114.618L94.8325 121.793Z" fill="#7A8DBF"/>
</g>
<path d="M95.8309 114.758L103.361 96.6646L95.2057 114.478L95.8309 114.758Z" fill="#7A8DBF"/>
<path d="M14.0154 121.065L11.8599 107.022L13.3342 121.149L14.0154 121.065Z" fill="#7A8DBF"/>
<path d="M4.30169 187.41C4.30169 186.814 4.53862 186.242 4.96035 185.82C5.38209 185.398 5.95411 185.161 6.55053 185.161H106.385C112.968 185.16 119.52 184.24 125.849 182.427L135.507 179.628C135.507 179.628 140.639 177.92 140.639 182.717C140.628 183.157 140.758 183.589 141.012 183.949C141.266 184.309 141.63 184.577 142.048 184.713C143.056 185.166 143.911 185.9 144.512 186.827C145.113 187.754 145.434 188.834 145.435 189.939V208.331C145.443 208.708 145.374 209.082 145.234 209.432C145.093 209.782 144.883 210.1 144.616 210.367C144.349 210.633 144.032 210.843 143.682 210.984C143.332 211.125 142.957 211.193 142.58 211.186L54.0741 210.747L24.1584 210.598C18.0932 210.598 4.32971 213.855 4.32971 204.197L4.30169 187.41Z" fill="url(#paint85_linear_191_447)"/>
<path d="M144.82 204.048C136.627 203.684 125.224 205.121 119.439 197.889C116.491 194.102 115.099 189.333 115.548 184.555C119.017 184.102 122.448 183.391 125.812 182.427L135.47 179.628C135.47 179.628 140.602 177.92 140.602 182.717C140.59 183.157 140.721 183.589 140.975 183.949C141.229 184.309 141.592 184.577 142.011 184.713C143.018 185.166 143.874 185.9 144.475 186.827C145.076 187.754 145.396 188.834 145.398 189.939V204.038L144.82 204.048Z" fill="url(#paint86_linear_191_447)"/>
<path d="M26.0246 165.379L26.1646 177.024" stroke="url(#paint87_linear_191_447)" stroke-width="0.55" stroke-miterlimit="10"/>
<path d="M28.2733 165.313L28.4133 177.033" stroke="url(#paint88_linear_191_447)" stroke-width="0.55" stroke-miterlimit="10"/>
<path d="M30.7182 165.239L30.8582 177.053" stroke="url(#paint89_linear_191_447)" stroke-width="0.55" stroke-miterlimit="10"/>
<path d="M33.191 165.165L33.3309 177.062" stroke="url(#paint90_linear_191_447)" stroke-width="0.55" stroke-miterlimit="10"/>
<path d="M35.701 165.09L35.8503 177.071" stroke="url(#paint91_linear_191_447)" stroke-width="0.55" stroke-miterlimit="10"/>
<path d="M38.2484 165.015L38.3977 177.09" stroke="url(#paint92_linear_191_447)" stroke-width="0.55" stroke-miterlimit="10"/>
<path d="M40.8424 164.94L40.9824 177.099" stroke="url(#paint93_linear_191_447)" stroke-width="0.55" stroke-miterlimit="10"/>
<path d="M43.4645 164.856L43.6138 177.118" stroke="url(#paint94_linear_191_447)" stroke-width="0.55" stroke-miterlimit="10"/>
<path d="M46.1332 164.782L46.2825 177.127" stroke="url(#paint95_linear_191_447)" stroke-width="0.55" stroke-miterlimit="10"/>
<path d="M48.8392 164.698L48.9885 177.146" stroke="url(#paint96_linear_191_447)" stroke-width="0.55" stroke-miterlimit="10"/>
<path d="M51.5919 164.623L51.7412 177.155" stroke="url(#paint97_linear_191_447)" stroke-width="0.55" stroke-miterlimit="10"/>
<path d="M54.3819 164.539L54.5312 177.173" stroke="url(#paint98_linear_191_447)" stroke-width="0.55" stroke-miterlimit="10"/>
<path d="M57.2186 164.455L57.3679 177.192" stroke="url(#paint99_linear_191_447)" stroke-width="0.55" stroke-miterlimit="10"/>
<path d="M60.0926 164.371L60.2512 177.201" stroke="url(#paint100_linear_191_447)" stroke-width="0.55" stroke-miterlimit="10"/>
<path d="M63.0227 164.278L63.1813 177.22" stroke="url(#paint101_linear_191_447)" stroke-width="0.55" stroke-miterlimit="10"/>
<path d="M65.9992 164.194L66.1578 177.239" stroke="url(#paint102_linear_191_447)" stroke-width="0.55" stroke-miterlimit="10"/>
<path d="M69.0225 164.101L69.1812 177.248" stroke="url(#paint103_linear_191_447)" stroke-width="0.55" stroke-miterlimit="10"/>
<path d="M72.0926 164.007L72.2512 177.267" stroke="url(#paint104_linear_191_447)" stroke-width="0.55" stroke-miterlimit="10"/>
<path d="M75.209 163.914L75.377 177.286" stroke="url(#paint105_linear_191_447)" stroke-width="0.55" stroke-miterlimit="10"/>
<path d="M15.9842 86.3069L123.722 73.9618C124.006 73.9285 124.293 73.9739 124.553 74.0931C124.813 74.2123 125.035 74.4008 125.195 74.6378C125.355 74.8749 125.447 75.1513 125.46 75.437C125.474 75.7226 125.408 76.0064 125.271 76.2573C123.398 79.5818 120.794 82.4374 117.657 84.6087C116.057 85.7226 114.331 86.6434 112.515 87.352L108.465 88.9383C100.551 92.0454 92.2513 94.0608 83.7937 94.9289L22.8147 101.199C20.9533 101.395 19.0834 100.918 17.5425 99.8558C15.7603 98.6241 13.8754 96.7205 13.5302 94.5837L13.0916 91.7843C12.9328 90.8081 12.9613 89.8106 13.1756 88.845C13.3209 88.182 13.6697 87.581 14.1733 87.126C14.6768 86.6709 15.31 86.3845 15.9842 86.3069Z" fill="url(#paint106_linear_191_447)"/>
<g style="mix-blend-mode:color-dodge">
<path d="M125.271 76.2573C123.398 79.5818 120.794 82.4374 117.657 84.6087C116.057 85.7226 114.331 86.6435 112.515 87.3521L108.465 88.9384C100.551 92.0455 92.2513 94.0608 83.7938 94.929L22.8147 101.2C20.9533 101.395 19.0835 100.918 17.5425 99.8558C15.7603 98.6241 13.8754 96.7205 13.5302 94.5837L13.0916 91.7844C12.9328 90.8081 12.9613 89.8106 13.1756 88.845" stroke="url(#paint107_linear_191_447)" stroke-width="0.37" stroke-miterlimit="10"/>
</g>
<path d="M109.445 192.803L108.885 200.091C108.773 201.584 107.29 202.769 105.442 202.89L94.4873 203.413C91.0068 203.571 87.8622 201.733 87.0224 199.008L85.3988 194.025C84.8109 192.206 86.4998 190.442 88.8233 190.442H106.646C108.251 190.405 109.538 191.497 109.445 192.803Z" fill="url(#paint108_linear_191_447)"/>
<path d="M109.445 192.281L109.006 198.001C108.891 198.624 108.555 199.186 108.06 199.583C107.565 199.981 106.944 200.187 106.31 200.165L97.7158 200.576C94.9818 200.697 92.5277 199.26 91.8278 197.123L90.5588 193.214C90.1015 191.786 91.4266 190.414 93.2461 190.414H107.243C107.511 190.385 107.783 190.41 108.042 190.489C108.3 190.568 108.539 190.699 108.746 190.874C108.952 191.048 109.12 191.263 109.24 191.505C109.36 191.747 109.43 192.011 109.445 192.281Z" fill="url(#paint109_linear_191_447)"/>
<path d="M8.61259 193.522L9.09783 199.839C9.2232 200.531 9.59432 201.155 10.1429 201.596C10.6915 202.036 11.3807 202.264 12.0838 202.237L21.5923 202.685C24.6062 202.825 27.3309 201.229 28.1241 198.869L29.5331 194.539C30.0463 192.971 28.6 191.432 26.5658 191.432H11.0667C10.7663 191.397 10.4619 191.424 10.1725 191.512C9.88315 191.6 9.615 191.747 9.38476 191.943C9.15451 192.139 8.96709 192.38 8.83425 192.652C8.70141 192.924 8.62595 193.22 8.61259 193.522Z" fill="url(#paint110_linear_191_447)"/>
<path d="M12.7743 193.111L13.1569 198.075C13.2575 198.616 13.5496 199.103 13.9798 199.445C14.41 199.788 14.9494 199.964 15.499 199.942L22.9639 200.296C25.3247 200.408 27.4616 199.158 28.0681 197.301L29.1692 193.904C29.5704 192.673 28.4133 191.469 26.8364 191.469H14.7059C14.4695 191.44 14.2297 191.461 14.0017 191.53C13.7737 191.598 13.5623 191.713 13.3809 191.868C13.1995 192.022 13.052 192.212 12.9476 192.426C12.8432 192.64 12.7842 192.873 12.7743 193.111Z" fill="url(#paint111_linear_191_447)"/>
<path style="mix-blend-mode:color-dodge" d="M109.445 192.803L108.885 200.091C108.773 201.584 107.29 202.769 105.442 202.89L94.4873 203.413C91.0068 203.571 87.8622 201.733 87.0224 199.008L85.3988 194.025C84.8109 192.206 86.4998 190.442 88.8233 190.442H106.646C108.251 190.405 109.538 191.497 109.445 192.803Z" stroke="url(#paint112_linear_191_447)" stroke-width="0.37" stroke-miterlimit="10"/>
<path d="M116.387 121.532L137.728 114.618L116.182 120.87L116.387 121.532Z" fill="#7A8DBF"/>
<path d="M137.728 110.493C134.089 111.426 130.487 112.359 126.904 113.479C125.112 114.002 123.33 114.562 121.548 115.131C119.765 115.7 117.992 116.278 116.219 116.885C114.717 117.109 113.215 117.38 111.713 117.65C113.233 117.548 114.754 117.436 116.266 117.286C118.067 116.801 119.868 116.297 121.66 115.747C123.451 115.196 125.243 114.692 127.025 114.114C130.645 112.975 134.21 111.8 137.728 110.493Z" fill="#7A8DBF"/>
<path d="M116.388 153.902L127.006 150.291L116.182 153.249L116.388 153.902Z" fill="#7A8DBF"/>
<path d="M126.717 85.5508C125.364 86.9131 124.076 88.3501 122.779 89.7405C122.135 90.459 121.492 91.1122 120.913 91.924C120.359 92.7258 119.867 93.5679 119.439 94.4434C118.606 96.1873 117.98 98.0224 117.572 99.9114C117.155 101.793 116.946 103.714 116.947 105.641C117.204 103.752 117.584 101.881 118.086 100.042C118.598 98.2202 119.27 96.4467 120.092 94.742C120.499 93.893 120.963 93.0731 121.482 92.2879C121.986 91.5507 122.677 90.8229 123.255 90.0764C124.394 88.6021 125.579 87.0904 126.717 85.5508Z" fill="#7A8DBF"/>
<path d="M12.6344 96.0674C11.134 98.0382 9.97331 100.246 9.20048 102.599C8.39738 104.93 7.79182 107.324 7.39024 109.756C7.00481 112.184 6.76802 114.634 6.68112 117.09V120.767C6.75577 121.999 6.80241 123.221 6.90506 124.443C6.96104 123.212 6.9797 121.989 7.01702 120.776L7.22228 117.118C7.38957 114.689 7.6792 112.269 8.09007 109.868C8.45606 107.464 9.00191 105.09 9.72303 102.767L10.2923 101.041C10.5255 100.472 10.7215 99.9025 10.9734 99.3426C11.4181 98.1989 11.9744 97.1019 12.6344 96.0674Z" fill="#7A8DBF"/>
<path d="M153.759 0.889648C152.298 1.21131 150.926 1.84824 149.737 2.75588C148.532 3.64484 147.466 4.70775 146.574 5.90981C145.692 7.11432 144.959 8.42079 144.39 9.80091C144.11 10.4914 143.896 11.2006 143.644 11.9004C143.392 12.6003 143.289 13.3374 143.149 14.0559C143.439 13.3747 143.681 12.6842 143.961 12.0124C144.241 11.3405 144.53 10.6687 144.894 10.0248C145.537 8.71946 146.289 7.47085 147.143 6.29238C148.004 5.13616 148.99 4.07846 150.082 3.13846C151.184 2.20355 152.425 1.44496 153.759 0.889648Z" fill="#7A8DBF"/>
<path d="M338.702 188.259V175.037H347.828V187.568L338.702 188.259Z" fill="url(#paint113_linear_191_447)"/>
<path d="M343.265 188.259V175.037H352.391V187.568L343.265 188.259Z" fill="url(#paint114_linear_191_447)"/>
<path d="M410.431 188.259V175.037H419.557V187.568L410.431 188.259Z" fill="url(#paint115_linear_191_447)"/>
<path d="M414.994 188.259V175.037H424.12V187.568L414.994 188.259Z" fill="url(#paint116_linear_191_447)"/>
<path d="M328.522 199.68V188.793L443.295 184.75V194.372L328.522 199.68Z" fill="url(#paint117_linear_191_447)"/>
<path d="M330.388 197.814V190.763L441.429 186.617V192.382L330.388 197.814Z" fill="url(#paint118_linear_191_447)"/>
<path d="M316.391 188.483H328.522V199.68H316.391V188.483Z" fill="url(#paint119_linear_191_447)"/>
<path d="M420.9 187.55V193.364L405.971 194.082V188.088L420.9 187.55Z" fill="url(#paint120_linear_191_447)"/>
<path d="M441.429 186.617V192.868L435.83 193.149V186.837L441.429 186.617Z" fill="url(#paint121_linear_191_447)"/>
<path d="M360.248 189.416V196.147L345.318 196.881V189.982L360.248 189.416Z" fill="url(#paint122_linear_191_447)"/>
<path d="M391.041 188.483V195.168L376.111 195.948V189.077L391.041 188.483Z" fill="url(#paint123_linear_191_447)"/>
<path fill-rule="evenodd" clip-rule="evenodd" d="M371.279 234.144V225.61L379.287 224.75L379.893 201.616L372.546 201.791L372.344 193.257L379.967 192.732L379.783 189.786L356.824 171.476H247.043C245.499 166.702 243.343 162.094 240.614 157.736C240.045 136.704 243.32 104.606 239.886 83.5573C241.337 83.9713 239.683 71.7275 238.82 62.7477C237.112 50.8224 235.147 38.9608 232.943 27.3221C233.065 25.1556 232.684 22.9899 231.823 20.9534L223.441 31.0479L231.547 20.5554L231.731 10.541L224.384 11.7985L224.494 12.5946L223.998 11.9898L223.117 9.95174L221.5 7.19733L252.847 12.3878L256.134 7.19733C257.581 6.84023 259.13 6.97103 260.469 7.5635L276.522 69.3554L276.742 79.8953L571.207 116.69L572.878 153.851L575.119 154.201L576.57 172.432L565.862 172.846L565.421 172.352L414.295 171.285L414.497 191.649L425.334 191.49L425.536 199.658L414.901 200.517L414.681 222.426L425.536 222.266L426.124 229.558L371.279 234.144ZM385.256 224.05L409.281 222.187L409.685 200.82L385.808 202.03L385.256 224.05ZM385.385 192.366L408.656 192.159C408.944 191.917 409.173 191.627 409.329 191.307C409.485 190.987 409.566 190.643 409.566 190.296C409.566 189.948 409.485 189.604 409.329 189.284C409.173 188.964 408.944 188.675 408.656 188.433L384.779 171.652L385.385 192.366ZM409.538 185.137L409.281 171.874L391.207 171.54L409.538 185.137ZM379.783 184.214L379.893 171.827L363.712 171.492L379.783 184.214ZM250 58.3218L261.535 68.8458L253.214 18.0875L239 20.9853L250 58.3218Z" fill="#241833"/>
<path fill-rule="evenodd" clip-rule="evenodd" d="M239.696 74.0266L261.37 70.9795V81.647L245.5 83.5L242.084 80.2679L240.706 79.9495L239.696 74.0266Z" fill="#595A5D"/>
<path fill-rule="evenodd" clip-rule="evenodd" d="M278.763 168.626L269.579 168.292L267.743 68.1612L257.549 8.15232L256.869 7.0857H256.998C258.118 7.00115 259.244 7.18873 260.249 7.62718L276.302 69.4187L276.522 79.959H276.853L278.689 168.594" fill="#47315D"/>
<path fill-rule="evenodd" clip-rule="evenodd" d="M564.999 121.594L501.779 114.335L501.411 109.781L564.815 117.646L564.999 121.594ZM492.264 113.22L407.775 103.508L407.389 98.1101L491.879 108.587L492.264 113.22ZM396.424 102.202L284.714 89.3692V82.9053L396.203 96.7251L396.442 102.202" fill="black"/>
<path fill-rule="evenodd" clip-rule="evenodd" d="M565.292 126.578L502.293 119.939L502.183 118.442L565.237 125.193L565.292 126.578ZM492.797 118.936L408.307 110.019L408.179 108.348L492.668 117.423L492.797 118.936ZM396.754 108.793L284.843 96.9956V95.0532L396.718 107.058V108.73" fill="black"/>
<path fill-rule="evenodd" clip-rule="evenodd" d="M565.495 133.265L502.844 127.533L502.715 125.941L565.458 131.848L565.495 133.265ZM493.366 126.674L408.877 118.952L408.748 117.2L493.238 125.161L493.366 126.674ZM397.085 117.853L284.806 107.599V105.53L397.03 116.086V117.853" fill="black"/>
<path fill-rule="evenodd" clip-rule="evenodd" d="M565.991 144.314L503.872 140.127L503.579 136.417L565.844 141.194L565.991 144.314ZM494.358 139.538L409.869 133.838L409.538 129.348L494.027 135.717L494.358 139.538ZM397.654 133.01L284.769 125.4V119.954L397.471 128.456L397.673 133.01" fill="black"/>
<path fill-rule="evenodd" clip-rule="evenodd" d="M566.229 150.158L504.423 146.767L504.277 145.254L566.174 148.821L566.229 150.158ZM495.019 146.241L410.53 141.592L410.42 139.841L494.909 144.713L495.019 146.241ZM398.077 140.892L284.88 134.666V132.867L284.989 132.597L398.004 139.124V140.892" fill="black"/>
<path fill-rule="evenodd" clip-rule="evenodd" d="M566.505 156.67L505.011 154.138L504.901 152.641L566.45 155.348L566.505 156.67ZM495.662 153.74L411.063 150.253L410.952 148.534L495.442 152.243L495.662 153.74ZM398.444 149.728L284.916 144.952V143.184L285.026 142.914L398.371 147.897V149.648" fill="black"/>
<path fill-rule="evenodd" clip-rule="evenodd" d="M574.531 162.927L286.165 155.061L286.073 154.186L574.586 162.274L574.531 162.927Z" fill="black"/>
<path fill-rule="evenodd" clip-rule="evenodd" d="M284.843 157.657C285.277 157.698 285.698 157.813 286.081 157.996C286.463 158.179 286.801 158.425 287.074 158.721C287.347 159.016 287.55 159.356 287.671 159.72C287.793 160.083 287.83 160.465 287.781 160.841C287.859 161.589 287.594 162.333 287.045 162.914C286.495 163.495 285.704 163.865 284.843 163.946C283.978 163.869 283.183 163.5 282.629 162.919C282.076 162.338 281.809 161.592 281.886 160.841C281.837 160.463 281.875 160.081 281.998 159.717C282.121 159.352 282.325 159.012 282.6 158.716C282.875 158.42 283.215 158.174 283.599 157.992C283.984 157.81 284.407 157.696 284.843 157.657Z" fill="black"/>
<path fill-rule="evenodd" clip-rule="evenodd" d="M400.281 159.727C401.044 159.799 401.743 160.129 402.227 160.644C402.712 161.159 402.943 161.82 402.871 162.481C402.938 163.143 402.705 163.8 402.222 164.315C401.738 164.829 401.042 165.16 400.281 165.236C399.514 165.167 398.809 164.84 398.317 164.325C397.826 163.809 397.588 163.147 397.655 162.481C397.588 161.815 397.826 161.153 398.317 160.638C398.809 160.123 399.514 159.796 400.281 159.727Z" fill="black"/>
<path fill-rule="evenodd" clip-rule="evenodd" d="M497.334 161.478C498.099 161.554 498.8 161.886 499.287 162.403C499.774 162.921 500.009 163.583 499.942 164.248C500.009 164.91 499.772 165.568 499.284 166.08C498.797 166.593 498.096 166.918 497.334 166.986C496.571 166.918 495.871 166.593 495.383 166.08C494.895 165.568 494.659 164.91 494.725 164.248C494.653 163.582 494.887 162.918 495.375 162.4C495.863 161.881 496.566 161.55 497.334 161.478Z" fill="black"/>
<path fill-rule="evenodd" clip-rule="evenodd" d="M508.574 161.478C509.34 161.554 510.04 161.886 510.528 162.403C511.015 162.921 511.25 163.583 511.182 164.248C511.249 164.91 511.013 165.568 510.525 166.08C510.037 166.593 509.337 166.918 508.574 166.986C507.811 166.918 507.108 166.593 506.617 166.081C506.126 165.569 505.886 164.911 505.948 164.248C505.881 163.58 506.118 162.916 506.609 162.398C507.1 161.881 507.806 161.55 508.574 161.478Z" fill="black"/>
<path fill-rule="evenodd" clip-rule="evenodd" d="M568.25 162.958C568.891 163.019 569.481 163.294 569.892 163.725C570.304 164.156 570.505 164.71 570.454 165.267C570.506 165.827 570.305 166.382 569.894 166.816C569.482 167.249 568.893 167.528 568.25 167.592C567.608 167.528 567.02 167.249 566.612 166.815C566.204 166.38 566.007 165.825 566.064 165.267C566.007 164.711 566.205 164.158 566.613 163.726C567.022 163.295 567.609 163.019 568.25 162.958Z" fill="black"/>
<defs>
<linearGradient id="paint0_linear_191_447" x1="538.128" y1="185.068" x2="538.128" y2="165.015" gradientUnits="userSpaceOnUse">
<stop stop-color="#433DBF"/>
<stop offset="1" stop-color="#352C8F"/>
</linearGradient>
<linearGradient id="paint1_linear_191_447" x1="537.447" y1="183.696" x2="537.447" y2="163.644" gradientUnits="userSpaceOnUse">
<stop stop-color="#352C8F"/>
<stop offset="1" stop-color="#433DBF"/>
</linearGradient>
<linearGradient id="paint2_linear_191_447" x1="421.591" y1="186.72" x2="358.746" y2="186.72" gradientUnits="userSpaceOnUse">
<stop stop-color="#181387"/>
<stop offset="1" stop-color="#120B57"/>
</linearGradient>
<linearGradient id="paint3_linear_191_447" x1="420.854" y1="186.271" x2="373.032" y2="186.271" gradientUnits="userSpaceOnUse">
<stop stop-color="#120B57"/>
<stop offset="0.27" stop-color="#120B59" stop-opacity="0.97"/>
<stop offset="0.47" stop-color="#130C5E" stop-opacity="0.86"/>
<stop offset="0.65" stop-color="#140E67" stop-opacity="0.67"/>
<stop offset="0.81" stop-color="#161073" stop-opacity="0.41"/>
<stop offset="0.97" stop-color="#181283" stop-opacity="0.07"/>
<stop offset="1" stop-color="#181387" stop-opacity="0"/>
</linearGradient>
<linearGradient id="paint4_linear_191_447" x1="422.421" y1="210.159" x2="422.421" y2="170.595" gradientUnits="userSpaceOnUse">
<stop stop-color="#181387"/>
<stop offset="0.33" stop-color="#181385"/>
<stop offset="0.51" stop-color="#16117C"/>
<stop offset="0.66" stop-color="#140F6F"/>
<stop offset="0.79" stop-color="#110D5B"/>
<stop offset="0.91" stop-color="#0D0942"/>
<stop offset="1" stop-color="#090527"/>
</linearGradient>
<linearGradient id="paint5_linear_191_447" x1="394.77" y1="209.973" x2="394.77" y2="170.754" gradientUnits="userSpaceOnUse">
<stop stop-color="#181387"/>
<stop offset="0.09" stop-color="#151176"/>
<stop offset="0.29" stop-color="#100C54"/>
<stop offset="0.49" stop-color="#0C083B"/>
<stop offset="0.67" stop-color="#0A062C"/>
<stop offset="0.81" stop-color="#090527"/>
<stop offset="1" stop-color="#090527"/>
</linearGradient>
<linearGradient id="paint6_linear_191_447" x1="260.265" y1="210.159" x2="260.265" y2="170.595" gradientUnits="userSpaceOnUse">
<stop stop-color="#181387"/>
<stop offset="0.14" stop-color="#16117A"/>
<stop offset="0.42" stop-color="#140E66"/>
<stop offset="0.71" stop-color="#120C5B"/>
<stop offset="1" stop-color="#120B57"/>
</linearGradient>
<linearGradient id="paint7_linear_191_447" x1="258.053" y1="205.438" x2="258.053" y2="169.914" gradientUnits="userSpaceOnUse">
<stop stop-color="#120B57"/>
<stop offset="0.29" stop-color="#120C5B"/>
<stop offset="0.58" stop-color="#140E66"/>
<stop offset="0.86" stop-color="#16117A"/>
<stop offset="1" stop-color="#181387"/>
</linearGradient>
<linearGradient id="paint8_linear_191_447" x1="506.467" y1="187.242" x2="443.631" y2="187.242" gradientUnits="userSpaceOnUse">
<stop/>
<stop offset="1" stop-color="#140B6D"/>
</linearGradient>
<linearGradient id="paint9_linear_191_447" x1="515.798" y1="187.242" x2="452.962" y2="187.242" gradientUnits="userSpaceOnUse">
<stop stop-color="#181387"/>
<stop offset="1" stop-color="#120B57"/>
</linearGradient>
<linearGradient id="paint10_linear_191_447" x1="514.473" y1="186.794" x2="466.651" y2="186.794" gradientUnits="userSpaceOnUse">
<stop stop-color="#2B25A8" stop-opacity="0"/>
<stop offset="1" stop-color="#221978"/>
</linearGradient>
<linearGradient id="paint11_linear_191_447" x1="506.719" y1="186.794" x2="472.539" y2="186.794" gradientUnits="userSpaceOnUse">
<stop stop-color="white"/>
<stop offset="0.32" stop-color="#D9E1FE"/>
<stop offset="0.77" stop-color="#A6BBFD"/>
<stop offset="1" stop-color="#93ACFD"/>
</linearGradient>
<linearGradient id="paint12_linear_191_447" x1="503.705" y1="186.747" x2="471.606" y2="186.747" gradientUnits="userSpaceOnUse">
<stop stop-color="#7797FD"/>
<stop offset="0.18" stop-color="#8AA6FD"/>
<stop offset="0.56" stop-color="#BDCCFE"/>
<stop offset="1" stop-color="white"/>
</linearGradient>
<linearGradient id="paint13_linear_191_447" x1="503.705" y1="186.747" x2="473.649" y2="186.747" gradientUnits="userSpaceOnUse">
<stop stop-color="#9BB3FE"/>
<stop offset="0.45" stop-color="#9DB4FE"/>
<stop offset="0.61" stop-color="#A4BAFE"/>
<stop offset="0.73" stop-color="#AFC3FE"/>
<stop offset="0.82" stop-color="#C0CFFE"/>
<stop offset="0.9" stop-color="#D6E0FF"/>
<stop offset="0.97" stop-color="#F1F4FF"/>
<stop offset="1" stop-color="white"/>
</linearGradient>
<linearGradient id="paint14_linear_191_447" x1="502.137" y1="186.747" x2="472.446" y2="186.747" gradientUnits="userSpaceOnUse">
<stop stop-color="white"/>
<stop offset="0.52" stop-color="#C9D6FE"/>
<stop offset="1" stop-color="#9BB3FE"/>
</linearGradient>
<linearGradient id="paint15_linear_191_447" x1="495.111" y1="186.048" x2="478.819" y2="186.048" gradientUnits="userSpaceOnUse">
<stop stop-color="#C0CEFE"/>
<stop offset="0.17" stop-color="#AFC1FE"/>
<stop offset="0.39" stop-color="#9FB5FD"/>
<stop offset="0.64" stop-color="#96AEFD"/>
<stop offset="1" stop-color="#93ACFD"/>
</linearGradient>
<linearGradient id="paint16_linear_191_447" x1="494.299" y1="186.589" x2="479.631" y2="186.589" gradientUnits="userSpaceOnUse">
<stop stop-color="white"/>
<stop offset="0.16" stop-color="#FEFEFF" stop-opacity="0.99"/>
<stop offset="0.28" stop-color="#F9FBFF" stop-opacity="0.95"/>
<stop offset="0.41" stop-color="#F2F5FF" stop-opacity="0.88"/>
<stop offset="0.52" stop-color="#E8EDFF" stop-opacity="0.78"/>
<stop offset="0.63" stop-color="#DAE3FE" stop-opacity="0.66"/>
<stop offset="0.74" stop-color="#CAD6FE" stop-opacity="0.51"/>
<stop offset="0.84" stop-color="#B6C7FE" stop-opacity="0.33"/>
<stop offset="0.95" stop-color="#A0B6FD" stop-opacity="0.12"/>
<stop offset="1" stop-color="#93ACFD" stop-opacity="0"/>
</linearGradient>
<linearGradient id="paint17_linear_191_447" x1="490.595" y1="197.245" x2="484.408" y2="197.245" gradientUnits="userSpaceOnUse">
<stop stop-color="#C0CEFE"/>
<stop offset="0.17" stop-color="#AFC1FE"/>
<stop offset="0.39" stop-color="#9FB5FD"/>
<stop offset="0.64" stop-color="#96AEFD"/>
<stop offset="1" stop-color="#93ACFD"/>
</linearGradient>
<linearGradient id="paint18_linear_191_447" x1="490.287" y1="186.253" x2="484.716" y2="186.253" gradientUnits="userSpaceOnUse">
<stop stop-color="white"/>
<stop offset="0.16" stop-color="#FEFEFF" stop-opacity="0.99"/>
<stop offset="0.28" stop-color="#F9FBFF" stop-opacity="0.95"/>
<stop offset="0.41" stop-color="#F2F5FF" stop-opacity="0.88"/>
<stop offset="0.52" stop-color="#E8EDFF" stop-opacity="0.78"/>
<stop offset="0.63" stop-color="#DAE3FE" stop-opacity="0.66"/>
<stop offset="0.74" stop-color="#CAD6FE" stop-opacity="0.51"/>
<stop offset="0.84" stop-color="#B6C7FE" stop-opacity="0.33"/>
<stop offset="0.95" stop-color="#A0B6FD" stop-opacity="0.12"/>
<stop offset="1" stop-color="#93ACFD" stop-opacity="0"/>
</linearGradient>
<linearGradient id="paint19_linear_191_447" x1="239.456" y1="232.19" x2="239.456" y2="200.585" gradientUnits="userSpaceOnUse">
<stop stop-color="#120B57"/>
<stop offset="0.5" stop-color="#120B59"/>
<stop offset="0.69" stop-color="#130C60"/>
<stop offset="0.84" stop-color="#150F6C"/>
<stop offset="0.95" stop-color="#17117D"/>
<stop offset="1" stop-color="#181387"/>
</linearGradient>
<linearGradient id="paint20_linear_191_447" x1="238.094" y1="232.19" x2="238.094" y2="200.585" gradientUnits="userSpaceOnUse">
<stop stop-color="#181387"/>
<stop offset="0.05" stop-color="#17117D"/>
<stop offset="0.16" stop-color="#150F6C"/>
<stop offset="0.31" stop-color="#130C60"/>
<stop offset="0.5" stop-color="#120B59"/>
<stop offset="1" stop-color="#120B57"/>
</linearGradient>
<linearGradient id="paint21_linear_191_447" x1="131.028" y1="194.726" x2="58.7677" y2="194.726" gradientUnits="userSpaceOnUse">
<stop stop-color="#181387"/>
<stop offset="1" stop-color="#120B57"/>
</linearGradient>
<linearGradient id="paint22_linear_191_447" x1="130.188" y1="194.212" x2="75.1997" y2="194.212" gradientUnits="userSpaceOnUse">
<stop stop-color="#120B57"/>
<stop offset="0.27" stop-color="#120B59" stop-opacity="0.97"/>
<stop offset="0.47" stop-color="#130C5E" stop-opacity="0.86"/>
<stop offset="0.65" stop-color="#140E67" stop-opacity="0.67"/>
<stop offset="0.81" stop-color="#161073" stop-opacity="0.41"/>
<stop offset="0.97" stop-color="#181283" stop-opacity="0.07"/>
<stop offset="1" stop-color="#181387" stop-opacity="0"/>
</linearGradient>
<linearGradient id="paint23_linear_191_447" x1="155.438" y1="220.591" x2="155.438" y2="188.744" gradientUnits="userSpaceOnUse">
<stop stop-color="#181387"/>
<stop offset="0.01" stop-color="#16127D"/>
<stop offset="0.05" stop-color="#120E62"/>
<stop offset="0.09" stop-color="#0F0A4C"/>
<stop offset="0.14" stop-color="#0C083B"/>
<stop offset="0.2" stop-color="#0A0630"/>
<stop offset="0.29" stop-color="#090529"/>
<stop offset="0.53" stop-color="#090527"/>
<stop offset="0.72" stop-color="#090527"/>
</linearGradient>
<linearGradient id="paint24_linear_191_447" x1="238.57" y1="197.618" x2="166.309" y2="197.618" gradientUnits="userSpaceOnUse">
<stop stop-color="#181387"/>
<stop offset="1" stop-color="#120B57"/>
</linearGradient>
<linearGradient id="paint25_linear_191_447" x1="237.049" y1="197.096" x2="182.051" y2="197.096" gradientUnits="userSpaceOnUse">
<stop stop-color="#2B25A8" stop-opacity="0"/>
<stop offset="1" stop-color="#221978"/>
</linearGradient>
<linearGradient id="paint26_linear_191_447" x1="229.211" y1="197.096" x2="189.898" y2="197.096" gradientUnits="userSpaceOnUse">
<stop stop-color="white"/>
<stop offset="0.32" stop-color="#D9E1FE"/>
<stop offset="0.77" stop-color="#A6BBFD"/>
<stop offset="1" stop-color="#93ACFD"/>
</linearGradient>
<linearGradient id="paint27_linear_191_447" x1="226.812" y1="197.049" x2="189.898" y2="197.049" gradientUnits="userSpaceOnUse">
<stop stop-color="#7797FD"/>
<stop offset="0.18" stop-color="#8AA6FD"/>
<stop offset="0.56" stop-color="#BDCCFE"/>
<stop offset="1" stop-color="white"/>
</linearGradient>
<linearGradient id="paint28_linear_191_447" x1="224.666" y1="197.049" x2="190.104" y2="197.049" gradientUnits="userSpaceOnUse">
<stop stop-color="white"/>
<stop offset="0.52" stop-color="#C9D6FE"/>
<stop offset="1" stop-color="#9BB3FE"/>
</linearGradient>
<linearGradient id="paint29_linear_191_447" x1="225.002" y1="197.049" x2="190.869" y2="197.049" gradientUnits="userSpaceOnUse">
<stop stop-color="white"/>
<stop offset="0.52" stop-color="#C9D6FE"/>
<stop offset="1" stop-color="#9BB3FE"/>
</linearGradient>
<linearGradient id="paint30_linear_191_447" x1="221.876" y1="196.247" x2="203.149" y2="196.247" gradientUnits="userSpaceOnUse">
<stop stop-color="#C0CEFE"/>
<stop offset="0.17" stop-color="#AFC1FE"/>
<stop offset="0.39" stop-color="#9FB5FD"/>
<stop offset="0.64" stop-color="#96AEFD"/>
<stop offset="1" stop-color="#93ACFD"/>
</linearGradient>
<linearGradient id="paint31_linear_191_447" x1="220.952" y1="196.863" x2="204.072" y2="196.863" gradientUnits="userSpaceOnUse">
<stop stop-color="white"/>
<stop offset="0.16" stop-color="#FEFEFF" stop-opacity="0.99"/>
<stop offset="0.28" stop-color="#F9FBFF" stop-opacity="0.95"/>
<stop offset="0.41" stop-color="#F2F5FF" stop-opacity="0.88"/>
<stop offset="0.52" stop-color="#E8EDFF" stop-opacity="0.78"/>
<stop offset="0.63" stop-color="#DAE3FE" stop-opacity="0.66"/>
<stop offset="0.74" stop-color="#CAD6FE" stop-opacity="0.51"/>
<stop offset="0.84" stop-color="#B6C7FE" stop-opacity="0.33"/>
<stop offset="0.95" stop-color="#A0B6FD" stop-opacity="0.12"/>
<stop offset="1" stop-color="#93ACFD" stop-opacity="0"/>
</linearGradient>
<linearGradient id="paint32_linear_191_447" x1="216.688" y1="196.246" x2="209.568" y2="196.246" gradientUnits="userSpaceOnUse">
<stop stop-color="#C0CEFE"/>
<stop offset="0.17" stop-color="#AFC1FE"/>
<stop offset="0.39" stop-color="#9FB5FD"/>
<stop offset="0.64" stop-color="#96AEFD"/>
<stop offset="1" stop-color="#93ACFD"/>
</linearGradient>
<linearGradient id="paint33_linear_191_447" x1="216.334" y1="207.677" x2="209.923" y2="207.677" gradientUnits="userSpaceOnUse">
<stop stop-color="white"/>
<stop offset="0.16" stop-color="#FEFEFF" stop-opacity="0.99"/>
<stop offset="0.28" stop-color="#F9FBFF" stop-opacity="0.95"/>
<stop offset="0.41" stop-color="#F2F5FF" stop-opacity="0.88"/>
<stop offset="0.52" stop-color="#E8EDFF" stop-opacity="0.78"/>
<stop offset="0.63" stop-color="#DAE3FE" stop-opacity="0.66"/>
<stop offset="0.74" stop-color="#CAD6FE" stop-opacity="0.51"/>
<stop offset="0.84" stop-color="#B6C7FE" stop-opacity="0.33"/>
<stop offset="0.95" stop-color="#A0B6FD" stop-opacity="0.12"/>
<stop offset="1" stop-color="#93ACFD" stop-opacity="0"/>
</linearGradient>
<linearGradient id="paint34_linear_191_447" x1="24.1988" y1="95.8759" x2="22.4433" y2="38.0867" gradientUnits="userSpaceOnUse">
<stop stop-color="#120B57"/>
<stop offset="0.15" stop-color="#140D65"/>
<stop offset="0.42" stop-color="#161078"/>
<stop offset="0.7" stop-color="#181283"/>
<stop offset="1" stop-color="#181387"/>
</linearGradient>
<linearGradient id="paint35_linear_191_447" x1="22.1469" y1="95.9381" x2="20.3913" y2="38.1489" gradientUnits="userSpaceOnUse">
<stop stop-color="#120B57"/>
<stop offset="0.34" stop-color="#120B5A"/>
<stop offset="0.59" stop-color="#140D64"/>
<stop offset="0.82" stop-color="#161074"/>
<stop offset="1" stop-color="#181387"/>
</linearGradient>
<linearGradient id="paint36_linear_191_447" x1="25.8854" y1="97.001" x2="24.1299" y2="39.2118" gradientUnits="userSpaceOnUse">
<stop stop-color="#120B57"/>
<stop offset="0.27" stop-color="#120B59" stop-opacity="0.97"/>
<stop offset="0.47" stop-color="#130C5E" stop-opacity="0.86"/>
<stop offset="0.65" stop-color="#140E67" stop-opacity="0.67"/>
<stop offset="0.81" stop-color="#161073" stop-opacity="0.41"/>
<stop offset="0.97" stop-color="#181283" stop-opacity="0.07"/>
<stop offset="1" stop-color="#181387" stop-opacity="0"/>
</linearGradient>
<linearGradient id="paint37_linear_191_447" x1="193.146" y1="111.118" x2="193.146" y2="22.4163" gradientUnits="userSpaceOnUse">
<stop stop-color="#EB9B9A"/>
<stop offset="0.16" stop-color="#EA9493"/>
<stop offset="0.39" stop-color="#E88280"/>
<stop offset="0.66" stop-color="#E46462"/>
<stop offset="0.96" stop-color="#DF3A37"/>
<stop offset="1" stop-color="#DE3431"/>
</linearGradient>
<linearGradient id="paint38_linear_191_447" x1="182.685" y1="104.512" x2="182.685" y2="11.7507" gradientUnits="userSpaceOnUse">
<stop stop-color="#181387"/>
<stop offset="1" stop-color="#120B57"/>
</linearGradient>
<linearGradient id="paint39_linear_191_447" x1="220.532" y1="58.1359" x2="144.847" y2="58.1359" gradientUnits="userSpaceOnUse">
<stop stop-color="#120B57"/>
<stop offset="0.04" stop-color="#130C5E"/>
<stop offset="0.35" stop-color="#1A138C"/>
<stop offset="0.62" stop-color="#2018AD"/>
<stop offset="0.85" stop-color="#231BC2"/>
<stop offset="1" stop-color="#241CC9"/>
</linearGradient>
<linearGradient id="paint40_linear_191_447" x1="182.685" y1="100.331" x2="182.685" y2="14.5594" gradientUnits="userSpaceOnUse">
<stop/>
<stop offset="0.15" stop-color="#454448"/>
<stop offset="0.28125" stop-color="#4B494F"/>
<stop offset="0.427083" stop-color="#726F76"/>
<stop offset="0.473958" stop-color="#79777D"/>
<stop offset="0.588542" stop-color="#9C98A5"/>
<stop offset="0.7" stop-color="#C1C1C1"/>
<stop offset="0.89" stop-color="#D3D3D3"/>
<stop offset="1" stop-color="#F0F0F0"/>
</linearGradient>
<linearGradient id="paint41_linear_191_447" x1="170.219" y1="106.677" x2="149.289" y2="106.677" gradientUnits="userSpaceOnUse">
<stop stop-color="#181387"/>
<stop offset="0.18" stop-color="#161074"/>
<stop offset="0.41" stop-color="#140D64"/>
<stop offset="0.66" stop-color="#120B5A"/>
<stop offset="1" stop-color="#120B57"/>
</linearGradient>
<linearGradient id="paint42_linear_191_447" x1="169.444" y1="107.022" x2="150.064" y2="107.022" gradientUnits="userSpaceOnUse">
<stop stop-color="#241DCC"/>
<stop offset="0.18" stop-color="#2219B9"/>
<stop offset="0.41" stop-color="#2116A9"/>
<stop offset="0.66" stop-color="#20159F"/>
<stop offset="1" stop-color="#20149C"/>
</linearGradient>
<linearGradient id="paint43_linear_191_447" x1="173.186" y1="98.4" x2="173.186" y2="26.1675" gradientUnits="userSpaceOnUse">
<stop stop-color="#120B57"/>
<stop offset="0.15" stop-color="#140D65"/>
<stop offset="0.42" stop-color="#161078"/>
<stop offset="0.7" stop-color="#181283"/>
<stop offset="1" stop-color="#181387"/>
</linearGradient>
<linearGradient id="paint44_linear_191_447" x1="171.133" y1="98.4" x2="171.133" y2="26.1675" gradientUnits="userSpaceOnUse">
<stop stop-color="#181387"/>
<stop offset="0.18" stop-color="#161074"/>
<stop offset="0.41" stop-color="#140D64"/>
<stop offset="0.66" stop-color="#120B5A"/>
<stop offset="1" stop-color="#120B57"/>
</linearGradient>
<linearGradient id="paint45_linear_191_447" x1="173.046" y1="95.8712" x2="173.046" y2="25.9995" gradientUnits="userSpaceOnUse">
<stop stop-color="#181387"/>
<stop offset="0.18" stop-color="#161074"/>
<stop offset="0.41" stop-color="#140D64"/>
<stop offset="0.66" stop-color="#120B5A"/>
<stop offset="1" stop-color="#120B57"/>
</linearGradient>
<linearGradient id="paint46_linear_191_447" x1="169.734" y1="100.462" x2="169.734" y2="81.3145" gradientUnits="userSpaceOnUse">
<stop stop-color="#120B57"/>
<stop offset="0.15" stop-color="#140D65"/>
<stop offset="0.42" stop-color="#161078"/>
<stop offset="0.7" stop-color="#181283"/>
<stop offset="1" stop-color="#181387"/>
</linearGradient>
<linearGradient id="paint47_linear_191_447" x1="169.192" y1="100.462" x2="169.192" y2="81.3145" gradientUnits="userSpaceOnUse">
<stop stop-color="#181387"/>
<stop offset="0.18" stop-color="#161074"/>
<stop offset="0.41" stop-color="#140D64"/>
<stop offset="0.66" stop-color="#120B5A"/>
<stop offset="1" stop-color="#120B57"/>
</linearGradient>
<linearGradient id="paint48_linear_191_447" x1="148.216" y1="130.49" x2="148.216" y2="113.097" gradientUnits="userSpaceOnUse">
<stop stop-color="#120B57"/>
<stop offset="0.01" stop-color="#120B59"/>
<stop offset="0.19" stop-color="#150F6D"/>
<stop offset="0.38" stop-color="#17117C"/>
<stop offset="0.62" stop-color="#181384"/>
<stop offset="1" stop-color="#181387"/>
</linearGradient>
<linearGradient id="paint49_linear_191_447" x1="149.812" y1="130.49" x2="149.812" y2="113.097" gradientUnits="userSpaceOnUse">
<stop stop-color="#181387"/>
<stop offset="0.18" stop-color="#161074"/>
<stop offset="0.41" stop-color="#140D64"/>
<stop offset="0.66" stop-color="#120B5A"/>
<stop offset="1" stop-color="#120B57"/>
</linearGradient>
<linearGradient id="paint50_linear_191_447" x1="211.855" y1="124.415" x2="228.044" y2="124.415" gradientUnits="userSpaceOnUse">
<stop stop-color="#E8423F"/>
<stop offset="0.1" stop-color="#E84744" stop-opacity="0.93"/>
<stop offset="0.31" stop-color="#E85552" stop-opacity="0.75"/>
<stop offset="0.59" stop-color="#E86B69" stop-opacity="0.46"/>
<stop offset="0.94" stop-color="#E88987" stop-opacity="0.07"/>
<stop offset="1" stop-color="#E88F8D" stop-opacity="0"/>
</linearGradient>
<linearGradient id="paint51_linear_191_447" x1="211.855" y1="121.121" x2="229.201" y2="121.121" gradientUnits="userSpaceOnUse">
<stop stop-color="#120B57"/>
<stop offset="0.01" stop-color="#120B59"/>
<stop offset="0.19" stop-color="#150F6D"/>
<stop offset="0.38" stop-color="#17117C"/>
<stop offset="0.62" stop-color="#181384"/>
<stop offset="1" stop-color="#181387"/>
</linearGradient>
<linearGradient id="paint52_linear_191_447" x1="213.795" y1="121.476" x2="229.201" y2="121.476" gradientUnits="userSpaceOnUse">
<stop stop-color="#181387"/>
<stop offset="0.18" stop-color="#161074"/>
<stop offset="0.41" stop-color="#140D64"/>
<stop offset="0.66" stop-color="#120B5A"/>
<stop offset="1" stop-color="#120B57"/>
</linearGradient>
<linearGradient id="paint53_linear_191_447" x1="229.378" y1="121.476" x2="213.627" y2="121.476" gradientUnits="userSpaceOnUse">
<stop stop-color="#181387"/>
<stop offset="0.18" stop-color="#161074"/>
<stop offset="0.41" stop-color="#140D64"/>
<stop offset="0.66" stop-color="#120B5A"/>
<stop offset="1" stop-color="#120B57"/>
</linearGradient>
<linearGradient id="paint54_linear_191_447" x1="197.074" y1="188.044" x2="176.685" y2="152.726" gradientUnits="userSpaceOnUse">
<stop stop-color="#E88F8D" stop-opacity="0"/>
<stop offset="1" stop-color="#CC3A37"/>
</linearGradient>
<linearGradient id="paint55_linear_191_447" x1="201.413" y1="195.463" x2="179.195" y2="156.981" gradientUnits="userSpaceOnUse">
<stop stop-color="#181387"/>
<stop offset="1" stop-color="#120B57"/>
</linearGradient>
<linearGradient id="paint56_linear_191_447" x1="241.649" y1="172.797" x2="172.608" y2="172.797" gradientUnits="userSpaceOnUse">
<stop stop-color="#231CC4"/>
<stop offset="0.42" stop-color="#231CC2"/>
<stop offset="0.57" stop-color="#211BBB"/>
<stop offset="0.67" stop-color="#1F19B0"/>
<stop offset="0.76" stop-color="#1D169F"/>
<stop offset="0.83" stop-color="#191389"/>
<stop offset="0.9" stop-color="#140F6D"/>
<stop offset="0.95" stop-color="#0F0A4E"/>
<stop offset="1" stop-color="#09052E"/>
</linearGradient>
<linearGradient id="paint57_linear_191_447" x1="241.826" y1="172.751" x2="172.458" y2="172.751" gradientUnits="userSpaceOnUse">
<stop stop-color="#181387"/>
<stop offset="0.18" stop-color="#161074"/>
<stop offset="0.41" stop-color="#140D64"/>
<stop offset="0.66" stop-color="#120B5A"/>
<stop offset="1" stop-color="#120B57"/>
</linearGradient>
<linearGradient id="paint58_linear_191_447" x1="76.2916" y1="103" x2="76.2916" y2="5.44304" gradientUnits="userSpaceOnUse">
<stop stop-color="#181387"/>
<stop offset="1" stop-color="#120B57"/>
</linearGradient>
<linearGradient id="paint59_linear_191_447" x1="74.5745" y1="100.714" x2="74.5745" y2="7.19735" gradientUnits="userSpaceOnUse">
<stop/>
<stop offset="0.15" stop-color="#2E3638"/>
<stop offset="0.32" stop-color="#496065"/>
<stop offset="0.51" stop-color="#73959C"/>
<stop offset="0.7" stop-color="#A7D9E4"/>
<stop offset="0.89" stop-color="#7B7DDA"/>
<stop offset="1" stop-color="#626EEA"/>
</linearGradient>
<linearGradient id="paint60_linear_191_447" x1="93.6754" y1="100.714" x2="93.6754" y2="7.19749" gradientUnits="userSpaceOnUse">
<stop stop-color="#EFC093"/>
<stop offset="0.15" stop-color="#EABD96"/>
<stop offset="0.32" stop-color="#DCB59F"/>
<stop offset="0.51" stop-color="#C5A8AD"/>
<stop offset="0.7" stop-color="#A595C1"/>
<stop offset="0.89" stop-color="#7B7DDA"/>
<stop offset="1" stop-color="#626EEA"/>
</linearGradient>
<linearGradient id="paint61_linear_191_447" x1="105.479" y1="100.714" x2="105.479" y2="7.19738" gradientUnits="userSpaceOnUse">
<stop stop-color="#EFC093"/>
<stop offset="0.15" stop-color="#EABD96"/>
<stop offset="0.32" stop-color="#DCB59F"/>
<stop offset="0.51" stop-color="#C5A8AD"/>
<stop offset="0.7" stop-color="#A595C1"/>
<stop offset="0.89" stop-color="#7B7DDA"/>
<stop offset="1" stop-color="#626EEA"/>
</linearGradient>
<linearGradient id="paint62_linear_191_447" x1="114.605" y1="100.714" x2="114.605" y2="7.19753" gradientUnits="userSpaceOnUse">
<stop stop-color="#EFC093"/>
<stop offset="0.15" stop-color="#EABD96"/>
<stop offset="0.32" stop-color="#DCB59F"/>
<stop offset="0.51" stop-color="#C5A8AD"/>
<stop offset="0.7" stop-color="#A595C1"/>
<stop offset="0.89" stop-color="#7B7DDA"/>
<stop offset="1" stop-color="#626EEA"/>
</linearGradient>
<linearGradient id="paint63_linear_191_447" x1="86.2945" y1="100.724" x2="86.2945" y2="7.20682" gradientUnits="userSpaceOnUse">
<stop stop-color="#EFC093"/>
<stop offset="0.15" stop-color="#EABD96"/>
<stop offset="0.32" stop-color="#DCB59F"/>
<stop offset="0.51" stop-color="#C5A8AD"/>
<stop offset="0.7" stop-color="#A595C1"/>
<stop offset="0.89" stop-color="#7B7DDA"/>
<stop offset="1" stop-color="#626EEA"/>
</linearGradient>
<linearGradient id="paint64_linear_191_447" x1="107.346" y1="100.714" x2="107.346" y2="7.19735" gradientUnits="userSpaceOnUse">
<stop stop-color="#EFC093"/>
<stop offset="0.15" stop-color="#EABD96"/>
<stop offset="0.32" stop-color="#DCB59F"/>
<stop offset="0.51" stop-color="#C5A8AD"/>
<stop offset="0.7" stop-color="#A595C1"/>
<stop offset="0.89" stop-color="#7B7DDA"/>
<stop offset="1" stop-color="#626EEA"/>
</linearGradient>
<linearGradient id="paint65_linear_191_447" x1="37.1007" y1="100.714" x2="37.1007" y2="7.19731" gradientUnits="userSpaceOnUse">
<stop stop-color="#EFC093"/>
<stop offset="0.15" stop-color="#EABD96"/>
<stop offset="0.32" stop-color="#DCB59F"/>
<stop offset="0.51" stop-color="#C5A8AD"/>
<stop offset="0.7" stop-color="#A595C1"/>
<stop offset="0.89" stop-color="#7B7DDA"/>
<stop offset="1" stop-color="#626EEA"/>
</linearGradient>
<linearGradient id="paint66_linear_191_447" x1="41.2997" y1="100.714" x2="41.2997" y2="7.19742" gradientUnits="userSpaceOnUse">
<stop stop-color="#EFC093"/>
<stop offset="0.15" stop-color="#EABD96"/>
<stop offset="0.32" stop-color="#DCB59F"/>
<stop offset="0.51" stop-color="#C5A8AD"/>
<stop offset="0.7" stop-color="#A595C1"/>
<stop offset="0.89" stop-color="#7B7DDA"/>
<stop offset="1" stop-color="#626EEA"/>
</linearGradient>
<linearGradient id="paint67_linear_191_447" x1="64.049" y1="100.687" x2="64.049" y2="7.16967" gradientUnits="userSpaceOnUse">
<stop stop-color="#EFC093"/>
<stop offset="0.15" stop-color="#EABD96"/>
<stop offset="0.32" stop-color="#DCB59F"/>
<stop offset="0.51" stop-color="#C5A8AD"/>
<stop offset="0.7" stop-color="#A595C1"/>
<stop offset="0.89" stop-color="#7B7DDA"/>
<stop offset="1" stop-color="#626EEA"/>
</linearGradient>
<linearGradient id="paint68_linear_191_447" x1="53.3276" y1="100.714" x2="53.3276" y2="7.19732" gradientUnits="userSpaceOnUse">
<stop stop-color="#EFC093"/>
<stop offset="0.15" stop-color="#EABD96"/>
<stop offset="0.32" stop-color="#DCB59F"/>
<stop offset="0.51" stop-color="#C5A8AD"/>
<stop offset="0.7" stop-color="#A595C1"/>
<stop offset="0.89" stop-color="#7B7DDA"/>
<stop offset="1" stop-color="#626EEA"/>
</linearGradient>
<linearGradient id="paint69_linear_191_447" x1="94.8325" y1="153.817" x2="13.6795" y2="153.817" gradientUnits="userSpaceOnUse">
<stop stop-color="#93ACFD"/>
<stop offset="0.23" stop-color="#A6BBFD"/>
<stop offset="0.68" stop-color="#D9E1FE"/>
<stop offset="1" stop-color="white"/>
</linearGradient>
<linearGradient id="paint70_linear_191_447" x1="93.2183" y1="153.817" x2="13.6795" y2="153.817" gradientUnits="userSpaceOnUse">
<stop stop-color="white"/>
<stop offset="0.32" stop-color="#D9E1FE"/>
<stop offset="0.77" stop-color="#A6BBFD"/>
<stop offset="1" stop-color="#93ACFD"/>
</linearGradient>
<linearGradient id="paint71_linear_191_447" x1="116.285" y1="152.371" x2="90.7269" y2="152.371" gradientUnits="userSpaceOnUse">
<stop stop-color="#09052E"/>
<stop offset="1" stop-color="#181387"/>
</linearGradient>
<linearGradient id="paint72_linear_191_447" x1="103.501" y1="181.783" x2="103.501" y2="127.121" gradientUnits="userSpaceOnUse">
<stop stop-color="#EFC093"/>
<stop offset="0.11" stop-color="#D5B1A3"/>
<stop offset="0.3" stop-color="#AC99BC"/>
<stop offset="0.49" stop-color="#8C86D0"/>
<stop offset="0.68" stop-color="#7579DE"/>
<stop offset="0.85" stop-color="#6771E7"/>
<stop offset="1" stop-color="#626EEA"/>
</linearGradient>
<linearGradient id="paint73_linear_191_447" x1="104.378" y1="181.783" x2="104.378" y2="132.16" gradientUnits="userSpaceOnUse">
<stop stop-color="#626EEA"/>
<stop offset="0.04" stop-color="#797BDC"/>
<stop offset="0.09" stop-color="#988EC8"/>
<stop offset="0.16" stop-color="#B49DB8"/>
<stop offset="0.23" stop-color="#CAAAAA"/>
<stop offset="0.32" stop-color="#DBB4A0"/>
<stop offset="0.43" stop-color="#E6BB98"/>
<stop offset="0.58" stop-color="#EDBF94"/>
<stop offset="1" stop-color="#EFC093"/>
</linearGradient>
<linearGradient id="paint74_linear_191_447" x1="9.72304" y1="185.842" x2="9.72304" y2="124.415" gradientUnits="userSpaceOnUse">
<stop stop-color="#09052E"/>
<stop offset="1" stop-color="#181387"/>
</linearGradient>
<linearGradient id="paint75_linear_191_447" x1="9.44317" y1="177.967" x2="9.44317" y2="133.569" gradientUnits="userSpaceOnUse">
<stop stop-color="#EFC093"/>
<stop offset="0.11" stop-color="#D5B1A3"/>
<stop offset="0.3" stop-color="#AC99BC"/>
<stop offset="0.49" stop-color="#8C86D0"/>
<stop offset="0.68" stop-color="#7579DE"/>
<stop offset="0.85" stop-color="#6771E7"/>
<stop offset="1" stop-color="#626EEA"/>
</linearGradient>
<linearGradient id="paint76_linear_191_447" x1="9.7884" y1="177.967" x2="9.7884" y2="138.207" gradientUnits="userSpaceOnUse">
<stop stop-color="#626EEA"/>
<stop offset="0.04" stop-color="#797BDC"/>
<stop offset="0.09" stop-color="#988EC8"/>
<stop offset="0.16" stop-color="#B49DB8"/>
<stop offset="0.23" stop-color="#CAAAAA"/>
<stop offset="0.32" stop-color="#DBB4A0"/>
<stop offset="0.43" stop-color="#E6BB98"/>
<stop offset="0.58" stop-color="#EDBF94"/>
<stop offset="1" stop-color="#EFC093"/>
</linearGradient>
<linearGradient id="paint77_linear_191_447" x1="85.2402" y1="146.53" x2="18.6531" y2="146.53" gradientUnits="userSpaceOnUse">
<stop stop-color="#93ACFD"/>
<stop offset="0.23" stop-color="#A6BBFD"/>
<stop offset="0.68" stop-color="#D9E1FE"/>
<stop offset="1" stop-color="white"/>
</linearGradient>
<linearGradient id="paint78_linear_191_447" x1="80.8918" y1="159.23" x2="21.6297" y2="159.23" gradientUnits="userSpaceOnUse">
<stop stop-color="#93ACFD"/>
<stop offset="0.23" stop-color="#A6BBFD"/>
<stop offset="0.68" stop-color="#D9E1FE"/>
<stop offset="1" stop-color="white"/>
</linearGradient>
<linearGradient id="paint79_linear_191_447" x1="85.2402" y1="147.444" x2="21.3964" y2="147.444" gradientUnits="userSpaceOnUse">
<stop stop-color="#09052E"/>
<stop offset="1" stop-color="#181387"/>
</linearGradient>
<linearGradient id="paint80_linear_191_447" x1="89.9958" y1="133.483" x2="16.5715" y2="134.803" gradientUnits="userSpaceOnUse">
<stop stop-color="#93ACFD"/>
<stop offset="0.23" stop-color="#A6BBFD"/>
<stop offset="0.68" stop-color="#D9E1FE"/>
<stop offset="1" stop-color="white"/>
</linearGradient>
<linearGradient id="paint81_linear_191_447" x1="90.0141" y1="134.5" x2="19.6126" y2="135.766" gradientUnits="userSpaceOnUse">
<stop stop-color="#09052E"/>
<stop offset="1" stop-color="#181387"/>
</linearGradient>
<linearGradient id="paint82_linear_191_447" x1="80.8918" y1="159.454" x2="24.373" y2="159.454" gradientUnits="userSpaceOnUse">
<stop stop-color="#09052E"/>
<stop offset="1" stop-color="#181387"/>
</linearGradient>
<linearGradient id="paint83_linear_191_447" x1="82.197" y1="179.379" x2="22.9348" y2="181.75" gradientUnits="userSpaceOnUse">
<stop stop-color="#93ACFD"/>
<stop offset="0.23" stop-color="#A6BBFD"/>
<stop offset="0.68" stop-color="#D9E1FE"/>
<stop offset="1" stop-color="white"/>
</linearGradient>
<linearGradient id="paint84_linear_191_447" x1="78.3699" y1="183.281" x2="21.8511" y2="186.107" gradientUnits="userSpaceOnUse">
<stop stop-color="#09052E"/>
<stop offset="1" stop-color="#181387"/>
</linearGradient>
<linearGradient id="paint85_linear_191_447" x1="74.8546" y1="211.223" x2="74.8546" y2="179.367" gradientUnits="userSpaceOnUse">
<stop stop-color="#09052E"/>
<stop offset="1" stop-color="#181387"/>
</linearGradient>
<linearGradient id="paint86_linear_191_447" x1="154.076" y1="191.721" x2="115.445" y2="191.721" gradientUnits="userSpaceOnUse">
<stop stop-color="#181387"/>
<stop offset="1" stop-color="#09052E"/>
</linearGradient>
<linearGradient id="paint87_linear_191_447" x1="26.3168" y1="171.175" x2="25.8036" y2="171.181" gradientUnits="userSpaceOnUse">
<stop stop-color="white"/>
<stop offset="0.32" stop-color="#D9E1FE"/>
<stop offset="0.77" stop-color="#A6BBFD"/>
<stop offset="1" stop-color="#93ACFD"/>
</linearGradient>
<linearGradient id="paint88_linear_191_447" x1="28.5748" y1="171.148" x2="28.0615" y2="171.154" gradientUnits="userSpaceOnUse">
<stop stop-color="white"/>
<stop offset="0.32" stop-color="#D9E1FE"/>
<stop offset="0.77" stop-color="#A6BBFD"/>
<stop offset="1" stop-color="#93ACFD"/>
</linearGradient>
<linearGradient id="paint89_linear_191_447" x1="31.0101" y1="171.119" x2="30.4969" y2="171.125" gradientUnits="userSpaceOnUse">
<stop stop-color="white"/>
<stop offset="0.32" stop-color="#D9E1FE"/>
<stop offset="0.77" stop-color="#A6BBFD"/>
<stop offset="1" stop-color="#93ACFD"/>
</linearGradient>
<linearGradient id="paint90_linear_191_447" x1="33.492" y1="171.089" x2="32.9788" y2="171.095" gradientUnits="userSpaceOnUse">
<stop stop-color="white"/>
<stop offset="0.32" stop-color="#D9E1FE"/>
<stop offset="0.77" stop-color="#A6BBFD"/>
<stop offset="1" stop-color="#93ACFD"/>
</linearGradient>
<linearGradient id="paint91_linear_191_447" x1="36.0019" y1="171.059" x2="35.4887" y2="171.065" gradientUnits="userSpaceOnUse">
<stop stop-color="white"/>
<stop offset="0.32" stop-color="#D9E1FE"/>
<stop offset="0.77" stop-color="#A6BBFD"/>
<stop offset="1" stop-color="#93ACFD"/>
</linearGradient>
<linearGradient id="paint92_linear_191_447" x1="38.5491" y1="171.028" x2="38.0359" y2="171.034" gradientUnits="userSpaceOnUse">
<stop stop-color="white"/>
<stop offset="0.32" stop-color="#D9E1FE"/>
<stop offset="0.77" stop-color="#A6BBFD"/>
<stop offset="1" stop-color="#93ACFD"/>
</linearGradient>
<linearGradient id="paint93_linear_191_447" x1="41.143" y1="170.997" x2="40.6204" y2="171.003" gradientUnits="userSpaceOnUse">
<stop stop-color="white"/>
<stop offset="0.32" stop-color="#D9E1FE"/>
<stop offset="0.77" stop-color="#A6BBFD"/>
<stop offset="1" stop-color="#93ACFD"/>
</linearGradient>
<linearGradient id="paint94_linear_191_447" x1="43.7648" y1="170.965" x2="43.2516" y2="170.971" gradientUnits="userSpaceOnUse">
<stop stop-color="white"/>
<stop offset="0.32" stop-color="#D9E1FE"/>
<stop offset="0.77" stop-color="#A6BBFD"/>
<stop offset="1" stop-color="#93ACFD"/>
</linearGradient>
<linearGradient id="paint95_linear_191_447" x1="46.4333" y1="170.933" x2="45.9201" y2="170.939" gradientUnits="userSpaceOnUse">
<stop stop-color="white"/>
<stop offset="0.32" stop-color="#D9E1FE"/>
<stop offset="0.77" stop-color="#A6BBFD"/>
<stop offset="1" stop-color="#93ACFD"/>
</linearGradient>
<linearGradient id="paint96_linear_191_447" x1="49.1391" y1="170.9" x2="48.6259" y2="170.906" gradientUnits="userSpaceOnUse">
<stop stop-color="white"/>
<stop offset="0.32" stop-color="#D9E1FE"/>
<stop offset="0.77" stop-color="#A6BBFD"/>
<stop offset="1" stop-color="#93ACFD"/>
</linearGradient>
<linearGradient id="paint97_linear_191_447" x1="51.8916" y1="170.867" x2="51.3784" y2="170.873" gradientUnits="userSpaceOnUse">
<stop stop-color="white"/>
<stop offset="0.32" stop-color="#D9E1FE"/>
<stop offset="0.77" stop-color="#A6BBFD"/>
<stop offset="1" stop-color="#93ACFD"/>
</linearGradient>
<linearGradient id="paint98_linear_191_447" x1="54.6815" y1="170.833" x2="54.1683" y2="170.84" gradientUnits="userSpaceOnUse">
<stop stop-color="white"/>
<stop offset="0.32" stop-color="#D9E1FE"/>
<stop offset="0.77" stop-color="#A6BBFD"/>
<stop offset="1" stop-color="#93ACFD"/>
</linearGradient>
<linearGradient id="paint99_linear_191_447" x1="57.5179" y1="170.799" x2="57.0047" y2="170.806" gradientUnits="userSpaceOnUse">
<stop stop-color="white"/>
<stop offset="0.32" stop-color="#D9E1FE"/>
<stop offset="0.77" stop-color="#A6BBFD"/>
<stop offset="1" stop-color="#93ACFD"/>
</linearGradient>
<linearGradient id="paint100_linear_191_447" x1="60.401" y1="170.765" x2="59.8878" y2="170.771" gradientUnits="userSpaceOnUse">
<stop stop-color="white"/>
<stop offset="0.32" stop-color="#D9E1FE"/>
<stop offset="0.77" stop-color="#A6BBFD"/>
<stop offset="1" stop-color="#93ACFD"/>
</linearGradient>
<linearGradient id="paint101_linear_191_447" x1="63.3308" y1="170.729" x2="62.8177" y2="170.736" gradientUnits="userSpaceOnUse">
<stop stop-color="white"/>
<stop offset="0.32" stop-color="#D9E1FE"/>
<stop offset="0.77" stop-color="#A6BBFD"/>
<stop offset="1" stop-color="#93ACFD"/>
</linearGradient>
<linearGradient id="paint102_linear_191_447" x1="66.3072" y1="170.694" x2="65.7847" y2="170.7" gradientUnits="userSpaceOnUse">
<stop stop-color="white"/>
<stop offset="0.32" stop-color="#D9E1FE"/>
<stop offset="0.77" stop-color="#A6BBFD"/>
<stop offset="1" stop-color="#93ACFD"/>
</linearGradient>
<linearGradient id="paint103_linear_191_447" x1="69.321" y1="170.657" x2="68.8078" y2="170.663" gradientUnits="userSpaceOnUse">
<stop stop-color="white"/>
<stop offset="0.32" stop-color="#D9E1FE"/>
<stop offset="0.77" stop-color="#A6BBFD"/>
<stop offset="1" stop-color="#93ACFD"/>
</linearGradient>
<linearGradient id="paint104_linear_191_447" x1="72.4001" y1="170.62" x2="71.887" y2="170.626" gradientUnits="userSpaceOnUse">
<stop stop-color="white"/>
<stop offset="0.32" stop-color="#D9E1FE"/>
<stop offset="0.77" stop-color="#A6BBFD"/>
<stop offset="1" stop-color="#93ACFD"/>
</linearGradient>
<linearGradient id="paint105_linear_191_447" x1="75.5163" y1="170.583" x2="75.0031" y2="170.589" gradientUnits="userSpaceOnUse">
<stop stop-color="white"/>
<stop offset="0.32" stop-color="#D9E1FE"/>
<stop offset="0.77" stop-color="#A6BBFD"/>
<stop offset="1" stop-color="#93ACFD"/>
</linearGradient>
<linearGradient id="paint106_linear_191_447" x1="69.2278" y1="101.246" x2="69.2278" y2="8.27048" gradientUnits="userSpaceOnUse">
<stop stop-color="#181387"/>
<stop offset="0.18" stop-color="#161074"/>
<stop offset="0.41" stop-color="#140D64"/>
<stop offset="0.66" stop-color="#120B5A"/>
<stop offset="1" stop-color="#120B57"/>
</linearGradient>
<linearGradient id="paint107_linear_191_447" x1="125.42" y1="88.7891" x2="12.821" y2="88.7891" gradientUnits="userSpaceOnUse">
<stop stop-color="#181387"/>
<stop offset="0.18" stop-color="#161074"/>
<stop offset="0.41" stop-color="#140D64"/>
<stop offset="0.66" stop-color="#120B5A"/>
<stop offset="1" stop-color="#120B57"/>
</linearGradient>
<linearGradient id="paint108_linear_191_447" x1="109.445" y1="196.89" x2="63.3026" y2="196.89" gradientUnits="userSpaceOnUse">
<stop stop-color="#181387"/>
<stop offset="0.46" stop-color="#181385"/>
<stop offset="0.63" stop-color="#17127E"/>
<stop offset="0.74" stop-color="#151073"/>
<stop offset="0.84" stop-color="#120D62"/>
<stop offset="0.92" stop-color="#0E0A4C"/>
<stop offset="0.99" stop-color="#0A0631"/>
<stop offset="1" stop-color="#09052E"/>
</linearGradient>
<linearGradient id="paint109_linear_191_447" x1="109.445" y1="195.49" x2="73.2588" y2="195.49" gradientUnits="userSpaceOnUse">
<stop stop-color="#EFC093"/>
<stop offset="0.11" stop-color="#D5B1A3"/>
<stop offset="0.3" stop-color="#AC99BC"/>
<stop offset="0.49" stop-color="#8C86D0"/>
<stop offset="0.68" stop-color="#7579DE"/>
<stop offset="0.85" stop-color="#6771E7"/>
<stop offset="1" stop-color="#626EEA"/>
</linearGradient>
<linearGradient id="paint110_linear_191_447" x1="8.61259" y1="197.058" x2="48.6433" y2="197.058" gradientUnits="userSpaceOnUse">
<stop stop-color="#181387"/>
<stop offset="0.46" stop-color="#181385"/>
<stop offset="0.63" stop-color="#17127E"/>
<stop offset="0.74" stop-color="#151073"/>
<stop offset="0.84" stop-color="#120D62"/>
<stop offset="0.92" stop-color="#0E0A4C"/>
<stop offset="0.99" stop-color="#0A0631"/>
<stop offset="1" stop-color="#09052E"/>
</linearGradient>
<linearGradient id="paint111_linear_191_447" x1="12.7743" y1="195.845" x2="44.1737" y2="195.845" gradientUnits="userSpaceOnUse">
<stop stop-color="#EFC093"/>
<stop offset="0.11" stop-color="#D5B1A3"/>
<stop offset="0.3" stop-color="#AC99BC"/>
<stop offset="0.49" stop-color="#8C86D0"/>
<stop offset="0.68" stop-color="#7579DE"/>
<stop offset="0.85" stop-color="#6771E7"/>
<stop offset="1" stop-color="#626EEA"/>
</linearGradient>
<linearGradient id="paint112_linear_191_447" x1="109.622" y1="196.89" x2="85.0722" y2="196.89" gradientUnits="userSpaceOnUse">
<stop stop-color="#181387"/>
<stop offset="0.18" stop-color="#161074"/>
<stop offset="0.41" stop-color="#140D64"/>
<stop offset="0.66" stop-color="#120B5A"/>
<stop offset="1" stop-color="#120B57"/>
</linearGradient>
<linearGradient id="paint113_linear_191_447" x1="347.828" y1="181.643" x2="338.702" y2="181.643" gradientUnits="userSpaceOnUse">
<stop stop-color="#120B57"/>
<stop offset="0.14" stop-color="#140D64"/>
<stop offset="0.42" stop-color="#161077"/>
<stop offset="0.71" stop-color="#181283"/>
<stop offset="1" stop-color="#181387"/>
</linearGradient>
<linearGradient id="paint114_linear_191_447" x1="352.391" y1="181.643" x2="343.265" y2="181.643" gradientUnits="userSpaceOnUse">
<stop stop-color="#433DBF"/>
<stop offset="1" stop-color="#352C8F"/>
</linearGradient>
<linearGradient id="paint115_linear_191_447" x1="419.557" y1="181.643" x2="410.431" y2="181.643" gradientUnits="userSpaceOnUse">
<stop stop-color="#120B57"/>
<stop offset="0.14" stop-color="#140D64"/>
<stop offset="0.42" stop-color="#161077"/>
<stop offset="0.71" stop-color="#181283"/>
<stop offset="1" stop-color="#181387"/>
</linearGradient>
<linearGradient id="paint116_linear_191_447" x1="424.12" y1="181.643" x2="414.994" y2="181.643" gradientUnits="userSpaceOnUse">
<stop stop-color="#433DBF"/>
<stop offset="1" stop-color="#352C8F"/>
</linearGradient>
<linearGradient id="paint117_linear_191_447" x1="443.295" y1="192.211" x2="328.522" y2="192.211" gradientUnits="userSpaceOnUse">
<stop stop-color="#433DBF"/>
<stop offset="1" stop-color="#352C8F"/>
</linearGradient>
<linearGradient id="paint118_linear_191_447" x1="441.429" y1="192.215" x2="330.388" y2="192.215" gradientUnits="userSpaceOnUse">
<stop stop-color="white"/>
<stop offset="0.32" stop-color="#D9E1FE"/>
<stop offset="0.77" stop-color="#A6BBFD"/>
<stop offset="1" stop-color="#93ACFD"/>
</linearGradient>
<linearGradient id="paint119_linear_191_447" x1="328.522" y1="194.082" x2="316.391" y2="194.082" gradientUnits="userSpaceOnUse">
<stop stop-color="#181387"/>
<stop offset="1" stop-color="#120B57"/>
</linearGradient>
<linearGradient id="paint120_linear_191_447" x1="441.056" y1="190.816" x2="331.123" y2="190.816" gradientUnits="userSpaceOnUse">
<stop stop-color="#E88F8D"/>
<stop offset="0.08" stop-color="#E67A78"/>
<stop offset="0.2" stop-color="#E3605E"/>
<stop offset="0.34" stop-color="#E14D4A"/>
<stop offset="0.49" stop-color="#DF3F3C"/>
<stop offset="0.68" stop-color="#DE3633"/>
<stop offset="1" stop-color="#DE3431"/>
</linearGradient>
<linearGradient id="paint121_linear_191_447" x1="441.429" y1="189.888" x2="323.66" y2="189.888" gradientUnits="userSpaceOnUse">
<stop stop-color="#E88F8D"/>
<stop offset="0.08" stop-color="#E67A78"/>
<stop offset="0.2" stop-color="#E3605E"/>
<stop offset="0.34" stop-color="#E14D4A"/>
<stop offset="0.49" stop-color="#DF3F3C"/>
<stop offset="0.68" stop-color="#DE3633"/>
<stop offset="1" stop-color="#DE3431"/>
</linearGradient>
<linearGradient id="paint122_linear_191_447" x1="440.108" y1="193.148" x2="330.174" y2="193.148" gradientUnits="userSpaceOnUse">
<stop stop-color="#E88F8D"/>
<stop offset="0.08" stop-color="#E67A78"/>
<stop offset="0.2" stop-color="#E3605E"/>
<stop offset="0.34" stop-color="#E14D4A"/>
<stop offset="0.49" stop-color="#DF3F3C"/>
<stop offset="0.68" stop-color="#DE3633"/>
<stop offset="1" stop-color="#DE3431"/>
</linearGradient>
<linearGradient id="paint123_linear_191_447" x1="441.108" y1="192.215" x2="331.061" y2="192.215" gradientUnits="userSpaceOnUse">
<stop stop-color="#E88F8D"/>
<stop offset="0.08" stop-color="#E67A78"/>
<stop offset="0.2" stop-color="#E3605E"/>
<stop offset="0.34" stop-color="#E14D4A"/>
<stop offset="0.49" stop-color="#DF3F3C"/>
<stop offset="0.68" stop-color="#DE3633"/>
<stop offset="1" stop-color="#DE3431"/>
</linearGradient>
</defs>
</svg>
