<svg width="50" height="50" viewBox="0 0 50 50" fill="none" xmlns="http://www.w3.org/2000/svg">
<circle cx="25" cy="25" r="25" fill="#2E2E2E"/>
<path d="M27.844 33H19.5C18.121 33 17 31.879 17 30.5C17 29.121 18.121 28 19.5 28H26.5C28.43 28 30 26.43 30 24.5C30 22.57 28.43 21 26.5 21H21.639C21.2718 21.7199 20.817 22.3916 20.285 23H26.5C27.327 23 28 23.673 28 24.5C28 25.327 27.327 26 26.5 26H19.5C17.019 26 15 28.019 15 30.5C15 32.981 17.019 35 19.5 35H29.093C28.6023 34.3828 28.1833 33.7118 27.844 33ZM18 15C16.346 15 15 16.346 15 18C15 21.188 18 23 18 23C18 23 21 21.187 21 18C21 16.346 19.654 15 18 15ZM18 19.5C17.803 19.4999 17.6078 19.4611 17.4258 19.3856C17.2438 19.3101 17.0784 19.1995 16.9391 19.0602C16.7998 18.9208 16.6894 18.7553 16.614 18.5733C16.5387 18.3912 16.4999 18.196 16.5 17.999C16.5001 17.802 16.5389 17.6068 16.6144 17.4248C16.6899 17.2428 16.8005 17.0774 16.9398 16.9381C17.0792 16.7988 17.2447 16.6884 17.4267 16.613C17.6088 16.5377 17.804 16.4989 18.001 16.499C18.399 16.4991 18.7806 16.6573 19.0619 16.9388C19.3432 17.2203 19.5011 17.602 19.501 18C19.5009 18.398 19.3427 18.7796 19.0612 19.0609C18.7797 19.3422 18.398 19.5001 18 19.5Z" fill="#00F0FF"/>
<path d="M32 27C30.346 27 29 28.346 29 30C29 33.188 32 35 32 35C32 35 35 33.187 35 30C35 28.346 33.654 27 32 27ZM32 31.5C31.803 31.4999 31.6078 31.4611 31.4258 31.3856C31.2438 31.3101 31.0784 31.1995 30.9391 31.0602C30.7998 30.9208 30.6894 30.7553 30.614 30.5733C30.5387 30.3912 30.4999 30.196 30.5 29.999C30.5001 29.802 30.5389 29.6068 30.6144 29.4248C30.6899 29.2428 30.8005 29.0774 30.9398 28.9381C31.0792 28.7988 31.2447 28.6884 31.4267 28.613C31.6088 28.5377 31.804 28.4989 32.001 28.499C32.399 28.4991 32.7806 28.6573 33.0619 28.9388C33.3432 29.2203 33.5011 29.602 33.501 30C33.5009 30.398 33.3427 30.7796 33.0612 31.0609C32.7797 31.3422 32.398 31.5001 32 31.5Z" fill="#00F0FF"/>
</svg>
