<svg id="_ëîé_1" data-name="‘ëîé_1" xmlns="http://www.w3.org/2000/svg" viewBox="0 0 2254 1508.46"><defs><style>.cls-1{fill:#f9f8f8;}.cls-2{fill:#f2f2f2;}.cls-3{fill:#ececec;}.cls-4{fill:#e4e4e4;}.cls-5{fill:#eaeaea;}.cls-6{fill:#4656a1;}.cls-7{fill:#38488c;}.cls-8{fill:#232851;}.cls-9{fill:#2b3872;}.cls-10{fill:#fff;}.cls-11{fill:#242850;}</style></defs><path class="cls-1" d="M3570.5,2009h-237a927.12,927.12,0,0,0-74.08-640H3427.5a17.49,17.49,0,0,0,17.5-17.5h0a17.5,17.5,0,0,0-17.5-17.5H3240.58C3082,1054,2781.3,865,2436.5,865c-229.34,0-439.14,83.61-600.62,222H1551.5a17.51,17.51,0,0,0-17.5,17.5h0a17.5,17.5,0,0,0,17.5,17.5h245.78q-29.44,28.24-56.33,59H1351.5a17.51,17.51,0,0,0-17.5,17.5h0a17.5,17.5,0,0,0,17.5,17.5h360.34C1587.34,1373.38,1513,1572.25,1513,1788.5a921,921,0,0,0,65.61,342.5H1532.5a17.5,17.5,0,0,0-17.5,17.5h0a17.5,17.5,0,0,0,17.5,17.5h60.94q9.55,21.28,20.13,42H1406.5a17.5,17.5,0,0,0-17.5,17.5h0a17.5,17.5,0,0,0,17.5,17.5h225.91a924,924,0,0,0,72.39,109H3168.2a922.61,922.61,0,0,0,122.54-212H3462.5a17.49,17.49,0,0,0,17.5-17.5h0a17.49,17.49,0,0,0-17.5-17.5H3304.32q11-30,19.87-61H3570.5a17.49,17.49,0,0,0,17.5-17.5h0A17.49,17.49,0,0,0,3570.5,2009Z" transform="translate(-1334 -865)"/><path class="cls-2" d="M2824.64,2352H2712.76a14.63,14.63,0,0,1,14.62-14.63H2810a14.63,14.63,0,0,1,14.63,14.63Z" transform="translate(-1334 -865)"/><polygon class="cls-2" points="1464.13 1472.32 1405.26 1472.32 1424.39 926.98 1437.25 935.52 1464.13 1472.32"/><path class="cls-2" d="M2816.31,2352H2704.43a14.63,14.63,0,0,1,14.63-14.63h82.63a14.63,14.63,0,0,1,14.62,14.63Z" transform="translate(-1334 -865)"/><path class="cls-2" d="M2760.37,1796.8l281.51,162.53-3.07-16a13.23,13.23,0,0,0-4.89-7.95L2850,1793a13.19,13.19,0,0,0-11.86-2.21l-36.9,11a13.18,13.18,0,0,1-10.38-1.22l-24.52-14.15Z" transform="translate(-1334 -865)"/><path class="cls-2" d="M2754.4,1786.46,2472.89,1949l15.37,5.32a13.3,13.3,0,0,0,9.38-.25L2712.83,1866a13.27,13.27,0,0,0,7.89-9.22l8.88-37.4a13.3,13.3,0,0,1,6.28-8.43l24.49-14.14Z" transform="translate(-1334 -865)"/><path class="cls-2" d="M2766.34,1786.46V1461.4L2754,1472.05a13.28,13.28,0,0,0-4.46,8.23l-31.33,230.42a13.27,13.27,0,0,0,4,11.41l28,26.42a13.25,13.25,0,0,1,4.15,9.63v28.3Z" transform="translate(-1334 -865)"/><polygon class="cls-2" points="1453.39 1472.32 1399.36 1472.32 1418.49 926.98 1434.26 926.98 1453.39 1472.32"/><circle class="cls-2" cx="2760.37" cy="1791.98" r="13.84" transform="translate(-951.87 3201.8) rotate(-76.72)"/><circle class="cls-2" cx="1425.43" cy="926.16" r="12.62"/><polygon class="cls-2" points="1143.88 1085.72 1412.81 926.16 1412.57 925.98 1138.89 1083.99 1143.88 1085.72"/><rect class="cls-2" x="1399.48" y="1468.78" width="53.91" height="3.54"/><polygon class="cls-2" points="1428.35 599.86 1432.05 914.75 1432.34 914.63 1432.34 596.4 1428.35 599.86"/><polygon class="cls-2" points="1706.88 1089.14 1434.24 936.02 1434.2 936.32 1707.88 1094.33 1706.88 1089.14"/><path class="cls-3" d="M3192.19,2352H3013.08a23.42,23.42,0,0,1,23.42-23.42h132.28a23.41,23.41,0,0,1,23.41,23.42Z" transform="translate(-1334 -865)"/><polygon class="cls-3" points="1815.77 1463.53 1721.51 1463.53 1752.14 590.45 1772.73 604.13 1815.77 1463.53"/><path class="cls-2" d="M3178.87,2352H2999.76a23.41,23.41,0,0,1,23.41-23.42h132.28a23.42,23.42,0,0,1,23.42,23.42Z" transform="translate(-1334 -865)"/><path class="cls-2" d="M3089.31,1463.17,3540,1723.38l-5.49-28.56a13.19,13.19,0,0,0-4.89-8l-300-232.25a13.22,13.22,0,0,0-11.88-2.21l-66.24,19.79a13.25,13.25,0,0,1-10.39-1.21l-42.22-24.38Z" transform="translate(-1334 -865)"/><path class="cls-2" d="M3079.75,1446.61l-450.69,260.21,27.47,9.52a13.27,13.27,0,0,0,9.35-.26l357.42-146.27,18.86-79.42,47.15-27.22Z" transform="translate(-1334 -865)"/><path class="cls-2" d="M3098.86,1446.61V926.2l-22,19a13.19,13.19,0,0,0-4.45,8.23l-51.12,375.92a13.28,13.28,0,0,0,4,11.42l50.24,47.45a13.26,13.26,0,0,1,4.16,9.63v48.73Z" transform="translate(-1334 -865)"/><polygon class="cls-2" points="1798.57 1463.53 1712.06 1463.53 1742.69 590.45 1767.93 590.45 1798.57 1463.53"/><circle class="cls-3" cx="3089.31" cy="1455.45" r="22.15" transform="translate(-771.58 2887.63) rotate(-67.5)"/><circle class="cls-2" cx="3087.8" cy="1454.15" r="20.2" transform="translate(-771.31 2885.43) rotate(-67.5)"/><polygon class="cls-3" points="1303.05 844.59 1733.6 589.15 1733.21 588.85 1295.06 841.82 1303.05 844.59"/><rect class="cls-3" x="1712.26" y="1457.86" width="86.31" height="5.67"/><polygon class="cls-3" points="1758.48 66.75 1764.41 570.87 1764.86 570.69 1764.86 61.2 1758.48 66.75"/><polygon class="cls-3" points="2204.4 850.07 1767.91 604.93 1767.85 605.41 2206 858.38 2204.4 850.07"/><rect class="cls-2" x="318.78" y="613.15" width="209.71" height="451.08" rx="104.86"/><path class="cls-4" d="M1763.36,2352.47h-11.44V1645.86a5.72,5.72,0,0,1,5.72-5.72h0a5.72,5.72,0,0,1,5.72,5.72Z" transform="translate(-1334 -865)"/><path class="cls-4" d="M1763.36,1741.63l-31.81-55.1a5.72,5.72,0,0,0-9.91,5.72l31.81,55.1Z" transform="translate(-1334 -865)"/><path class="cls-4" d="M1761.82,1807.53l31.81-55.1a5.72,5.72,0,1,0-9.9-5.72l-31.81,55.1Z" transform="translate(-1334 -865)"/><rect class="cls-2" x="558.25" y="376.57" width="266.3" height="572.81" rx="133.15"/><path class="cls-4" d="M2032.66,2351.83h-14.52V1454.54a7.27,7.27,0,0,1,7.26-7.27h0a7.27,7.27,0,0,1,7.26,7.27Z" transform="translate(-1334 -865)"/><path class="cls-4" d="M2032.66,1576.15l-40.39-70a7.26,7.26,0,1,0-12.58,7.26l40.39,70Z" transform="translate(-1334 -865)"/><path class="cls-4" d="M2030.72,1659.84l40.39-70a7.26,7.26,0,0,0-12.58-7.26l-40.39,70Z" transform="translate(-1334 -865)"/><path class="cls-4" d="M1822.32,2312.81c6.11-5.74,8.9-12.29,6.49-16.91-3-5.71-13-6.59-23.61-2.57.54-1.38,1-2.81,1.51-4.28,5.68-18.13,2.43-35.29-7.24-38.32-9.44-2.95-21.5,8.61-27.36,26-4.85-19.91-17.32-33.94-28-31.43-10.07,2.37-15,18.57-11.76,37.14-14.74-6.51-29-6-33.5,1.85-4.69,8.13,2.62,21.32,16.54,30.94-6.6,2.21-11.14,6.26-11.76,11.33-.76,6.24,4.58,12.38,13.06,16.18a6.07,6.07,0,0,0-.32,3.6c.89,3.76,5.65,6.08,11.88,6.33v0h79.65v-.07c1.53-.2,2.68-.85,3.07-1.89a2.79,2.79,0,0,0-.26-2.26c4.14-.4,7.25-2,8.28-4.77.79-2.13.19-4.59-1.46-7,10.75-.72,19-5.43,19.28-11.49C1837,2319.85,1831,2315,1822.32,2312.81Z" transform="translate(-1334 -865)"/><path class="cls-2" d="M1987.89,2279.38c11.24-10.57,16.38-22.62,11.95-31.11-5.49-10.51-23.84-12.12-43.43-4.72q1.5-3.83,2.78-7.89c10.44-33.34,4.48-64.88-13.32-70.45-17.35-5.44-39.53,15.82-50.31,47.77-8.93-36.62-31.85-62.43-51.5-57.81-18.51,4.36-27.57,34.15-21.62,68.3-27.11-12-53.27-11-61.6,3.42-8.63,14.94,4.81,39.21,30.42,56.89-12.14,4.07-20.49,11.51-21.63,20.84-1.41,11.47,8.42,22.77,24,29.75a11.12,11.12,0,0,0-.58,6.63c1.62,6.91,10.38,11.18,21.83,11.63v0h146.49v-.13c2.82-.37,4.92-1.56,5.64-3.47a5.07,5.07,0,0,0-.48-4.16c7.62-.74,13.35-3.75,15.23-8.78,1.46-3.91.36-8.44-2.68-12.87,19.78-1.33,35-10,35.46-21.14C2015,2292.31,2003.89,2283.43,1987.89,2279.38Z" transform="translate(-1334 -865)"/><path class="cls-5" d="M2972.67,2286.92c-10-9.4-14.58-20.14-10.63-27.7,4.88-9.35,21.22-10.78,38.67-4.2q-1.34-3.41-2.48-7c-9.29-29.69-4-57.78,11.86-62.74,15.45-4.84,35.2,14.09,44.8,42.54,8-32.6,28.36-55.59,45.86-51.47,16.48,3.87,24.55,30.4,19.25,60.81,24.14-10.66,47.44-9.81,54.86,3,7.68,13.31-4.29,34.92-27.09,50.66,10.81,3.63,18.24,10.25,19.26,18.56,1.25,10.21-7.5,20.28-21.38,26.49a9.89,9.89,0,0,1,.52,5.9c-1.45,6.16-9.25,10-19.45,10.36v0H2996.29v-.11c-2.52-.33-4.39-1.38-5-3.09a4.59,4.59,0,0,1,.42-3.71c-6.77-.65-11.88-3.33-13.55-7.81-1.31-3.49-.33-7.52,2.38-11.46-17.61-1.18-31.14-8.9-31.57-18.83C2948.56,2298.44,2958.43,2290.54,2972.67,2286.92Z" transform="translate(-1334 -865)"/><path class="cls-4" d="M3121.53,2325.91c-4-3.8-5.89-8.14-4.29-11.19,2-3.78,8.57-4.36,15.62-1.7-.36-.92-.7-1.87-1-2.84-3.76-12-1.61-23.34,4.79-25.35,6.24-1.95,14.22,5.69,18.1,17.19,3.21-13.17,11.46-22.46,18.53-20.8,6.66,1.57,9.92,12.29,7.78,24.57,9.75-4.3,19.17-4,22.16,1.23,3.11,5.38-1.73,14.11-10.94,20.47,4.37,1.47,7.37,4.14,7.78,7.5.51,4.13-3,8.19-8.64,10.7a4,4,0,0,1,.21,2.39c-.58,2.49-3.73,4-7.85,4.18v0h-52.71v-.05a2.32,2.32,0,0,1-2-1.25,1.86,1.86,0,0,1,.17-1.49c-2.74-.27-4.8-1.35-5.47-3.16a5.07,5.07,0,0,1,1-4.63c-7.12-.48-12.58-3.6-12.76-7.61C3111.79,2330.56,3115.78,2327.37,3121.53,2325.91Z" transform="translate(-1334 -865)"/><path class="cls-2" d="M2487.31,2290.7c-9.44-8.87-13.75-19-10-26.11,4.6-8.82,20-10.17,36.45-4q-1.26-3.21-2.33-6.62c-8.77-28-3.76-54.46,11.18-59.14,14.56-4.56,33.18,13.28,42.22,40.1,7.5-30.74,26.74-52.4,43.23-48.52,15.53,3.65,23.14,28.66,18.15,57.32,22.75-10,44.71-9.24,51.7,2.87,7.25,12.54-4,32.91-25.53,47.75,10.19,3.42,17.2,9.66,18.16,17.5,1.17,9.62-7.08,19.11-20.16,25a9.3,9.3,0,0,1,.49,5.56c-1.36,5.8-8.71,9.38-18.33,9.76v0h-123v-.1c-2.37-.32-4.13-1.31-4.73-2.92a4.29,4.29,0,0,1,.39-3.49c-6.39-.62-11.19-3.15-12.77-7.37-1.23-3.28-.31-7.08,2.24-10.8-16.6-1.11-29.35-8.39-29.76-17.75C2464.58,2301.55,2473.88,2294.1,2487.31,2290.7Z" transform="translate(-1334 -865)"/><path class="cls-4" d="M2623.81,2317.37c-5.35-5-7.79-10.75-5.68-14.79,2.61-5,11.33-5.76,20.64-2.24q-.7-1.83-1.32-3.75c-5-15.85-2.13-30.85,6.34-33.5,8.24-2.58,18.79,7.52,23.91,22.71,4.25-17.41,15.15-29.68,24.49-27.48,8.8,2.07,13.11,16.24,10.28,32.47,12.89-5.69,25.32-5.24,29.28,1.62,4.11,7.11-2.28,18.65-14.46,27.05,5.77,1.94,9.74,5.47,10.28,9.91.67,5.45-4,10.82-11.41,14.14a5.3,5.3,0,0,1,.28,3.15c-.78,3.29-4.94,5.32-10.38,5.53v0h-69.65v-.06a3,3,0,0,1-2.68-1.65,2.4,2.4,0,0,1,.23-2c-3.62-.35-6.35-1.78-7.24-4.17-.7-1.86-.17-4,1.27-6.12-9.4-.63-16.63-4.75-16.85-10.05C2610.93,2323.52,2616.2,2319.3,2623.81,2317.37Z" transform="translate(-1334 -865)"/><path class="cls-2" d="M2693,1488.51a8.39,8.39,0,0,0-2.47.38c0-.41.05-.82.05-1.24a17.36,17.36,0,0,0-34.06-4.71,11,11,0,0,0-3.06-.43,11.25,11.25,0,0,0,0,22.49l.59,0v0H2693a8.25,8.25,0,0,0,0-16.49Z" transform="translate(-1334 -865)"/><path class="cls-2" d="M2390,1299a25,25,0,0,0-12.83,3.54,37.86,37.86,0,0,0-41.56-29,53.56,53.56,0,0,0-102.43,21.9c0,.31,0,.63,0,.94a27.63,27.63,0,1,0-11.8,52.61H2390a25,25,0,0,0,0-50Z" transform="translate(-1334 -865)"/><path class="cls-2" d="M2133,1894.12a16.38,16.38,0,0,1,8.44,2.33,24.91,24.91,0,0,1,24.26-19.28,25.81,25.81,0,0,1,3.07.2,35.23,35.23,0,0,1,67.38,14.4v.63a18,18,0,0,1,7.76-1.75,18.18,18.18,0,0,1,0,36.35H2133a16.44,16.44,0,0,1,0-32.88Z" transform="translate(-1334 -865)"/><path class="cls-4" d="M3236.23,2253.79l-.26,1a30.16,30.16,0,0,1-2.39,5.87,21.54,21.54,0,0,1-21.13,12.47,30.45,30.45,0,0,1-6.3-.74l-1-.25.27-1a29.47,29.47,0,0,1,2.39-5.86,21.5,21.5,0,0,1,21.13-12.47,30.59,30.59,0,0,1,6.29.73Zm-28.51,16.82c2.73.49,10.22,1.35,16.2-2.18s8.85-10.5,9.75-13.13c-2.74-.48-10.22-1.34-16.21,2.19S3208.61,2268,3207.72,2270.61Z" transform="translate(-1334 -865)"/><path class="cls-2" d="M3222,2277.71c-9.51,3.59-20.11-1.16-20.11-1.16s4.82-10.57,14.34-14.15,20.11,1.16,20.11,1.16S3231.47,2274.13,3222,2277.71Z" transform="translate(-1334 -865)"/><path class="cls-4" d="M3201.59,2139.46v1.28a37,37,0,0,1-1.11,7.8c-1,4-3.11,9.78-7.51,14.12s-10.16,6.38-14.21,7.32a37.21,37.21,0,0,1-7.82,1h-1.28v-1.28a37.5,37.5,0,0,1,1.12-7.81c1-4,3.1-9.77,7.5-14.12s10.16-6.38,14.22-7.32a38,38,0,0,1,7.81-1Zm-29.31,28.93c3.45-.24,12.75-1.47,18.89-7.54s7.5-15.35,7.79-18.79c-3.44.25-12.74,1.47-18.89,7.54S3172.57,2165,3172.28,2168.39Z" transform="translate(-1334 -865)"/><path class="cls-2" d="M3191.61,2172.65c-10.4,7.21-24.63,4.69-24.63,4.69s2.63-14.21,13-21.42,24.63-4.69,24.63-4.69S3202,2165.44,3191.61,2172.65Z" transform="translate(-1334 -865)"/><path class="cls-4" d="M1881.75,2105.9l.81.69a31.61,31.61,0,0,1,4.39,4.89,22.32,22.32,0,0,1,2.07,25.35,30.67,30.67,0,0,1-3.54,5.53l-.68.82-.82-.69a31.88,31.88,0,0,1-4.38-4.89,22.32,22.32,0,0,1-2.07-25.35,32,32,0,0,1,3.53-5.54Zm2.79,34.2c1.69-2.33,5.88-8.92,5.3-16.1s-5.79-13-7.84-15c-1.68,2.34-5.88,8.93-5.29,16.1S1882.5,2138.08,1884.54,2140.1Z" transform="translate(-1334 -865)"/><path class="cls-2" d="M1897.61,2130c-1,10.5-10.19,18.24-10.19,18.24s-7.67-9.29-6.71-19.78,10.18-18.24,10.18-18.24S1898.56,2119.54,1897.61,2130Z" transform="translate(-1334 -865)"/><path class="cls-4" d="M1679.41,2227.17l.89-.06a25.83,25.83,0,0,1,5.51.37,18.75,18.75,0,0,1,16.13,14,25.5,25.5,0,0,1,1.12,5.41l.07.89-.9.06a26.22,26.22,0,0,1-5.51-.36,18.75,18.75,0,0,1-16.12-14,26.61,26.61,0,0,1-1.13-5.41Zm21.76,18.94c-.35-2.39-1.7-8.82-6.27-12.8s-11.12-4.42-13.54-4.44c.36,2.39,1.71,8.82,6.27,12.8S1698.75,2246.09,1701.17,2246.11Z" transform="translate(-1334 -865)"/><path class="cls-2" d="M1703.12,2232.39c5.59,6.87,4.58,17,4.58,17s-10.07-1.08-15.65-8-4.58-17-4.58-17S1697.53,2225.51,1703.12,2232.39Z" transform="translate(-1334 -865)"/><path class="cls-4" d="M2933.27,2199.87l1,0a29.61,29.61,0,0,1,6.16.66,21,21,0,0,1,17.44,16.48,28.72,28.72,0,0,1,1,6.11l0,1-1,0a29.56,29.56,0,0,1-6.16-.66,21,21,0,0,1-17.44-16.47,30,30,0,0,1-1-6.12Zm23.54,22.23c-.29-2.7-1.51-10-6.45-14.64s-12.26-5.46-15-5.59c.29,2.7,1.5,10,6.44,14.63S2954.1,2222,2956.81,2222.1Z" transform="translate(-1334 -865)"/><path class="cls-2" d="M2959.62,2206.8c6,8,4.36,19.21,4.36,19.21s-11.24-1.66-17.19-9.63-4.35-19.22-4.35-19.22S2953.67,2198.83,2959.62,2206.8Z" transform="translate(-1334 -865)"/><polygon class="cls-6" points="1320.46 1425.62 855.54 1425.62 864 1394.99 880.52 1335.19 890.52 1298.98 905.27 1245.6 933.7 1142.69 948.45 1089.3 1052.14 714 1123.86 714 1161.86 851.54 1227.55 1089.3 1242.3 1142.69 1270.73 1245.6 1285.48 1298.98 1312 1394.99 1320.46 1425.62"/><path class="cls-7" d="M2654.46,2290.62H2189.54L2198,2260l16.52-59.8c324-19.14,281.34-483.65,281.34-483.65L2646,2260Z" transform="translate(-1334 -865)"/><rect class="cls-7" x="760.41" y="1425.62" width="655.17" height="62.29"/><polygon class="cls-8" points="1320.46 1425.62 855.54 1425.62 864 1394.99 1312 1394.99 1320.46 1425.62"/><path class="cls-9" d="M2576.3,2007.69s-9.74,205.47-245.81,252.47L2646,2260Z" transform="translate(-1334 -865)"/><polygon class="cls-10" points="1242.3 1142.69 933.7 1142.69 948.45 1089.3 1227.55 1089.3 1242.3 1142.69"/><polygon class="cls-10" points="1285.48 1298.98 890.52 1298.98 905.27 1245.6 1270.73 1245.6 1285.48 1298.98"/><path class="cls-9" d="M2598,2290.62s-86.84,65.56-408.5,62.29h560.05v-62.29Z" transform="translate(-1334 -865)"/><rect class="cls-11" x="644.49" y="1487.1" width="877.89" height="21.36" rx="10.53"/><rect class="cls-11" x="521.98" y="1487.1" width="159.81" height="21.36" rx="10.53"/><rect class="cls-11" x="312.59" y="1487.1" width="166.84" height="21.36" rx="10.53"/><rect class="cls-11" x="1566.63" y="1487.1" width="140.72" height="21.36" rx="10.53"/><rect class="cls-11" x="1751.71" y="1487.1" width="112.08" height="21.36" rx="10.53"/></svg>