<svg id="New_Layer" data-name="New Layer" xmlns="http://www.w3.org/2000/svg" viewBox="0 0 372.8 202.86"><defs><style>.cls-1{fill:#070002;}.cls-1,.cls-10,.cls-11,.cls-12,.cls-13,.cls-14,.cls-15,.cls-16,.cls-17,.cls-18,.cls-19,.cls-2,.cls-20,.cls-3,.cls-4,.cls-5,.cls-6,.cls-7,.cls-8,.cls-9{fill-rule:evenodd;}.cls-2{fill:#241833;}.cls-3{fill:#342446;}.cls-4{fill:#595a5d;}.cls-5{fill:#47315d;}.cls-6{fill:#a8bae0;}.cls-8{fill:#72889e;}.cls-9{fill:#5476ba;}.cls-10{fill:#748eba;}.cls-11{fill:#373e48;}.cls-12{fill:#41505f;}.cls-13{fill:#180e10;}.cls-14{fill:#414245;}.cls-15{fill:#6f7273;}.cls-16{fill:#8b8c8d;}.cls-17{fill:#2a2e36;}.cls-18{fill:#31363a;}.cls-19{fill:none;stroke:#070002;stroke-linejoin:bevel;stroke-width:1.07px;}.cls-20{fill:#2a2829;}</style></defs><path class="cls-1" d="M-2094.44,2679.72l-142.43,13.6-76.15,7.48c-4.75.34-29.22,6.46,156.38,11.9,56.92-11,114.64-21.76,185.26-27.88,10.69-.44,19.42-1.85,26.52-4.07,2.94-3.4-31.92-4.64-141.08-1.71l-8.5.68" transform="translate(2316.69 -2509.84)"/><path class="cls-1" d="M-2156.39,2709.86c-14.94.09-22.58-13.84-22.44-22.11l-35-2.13c-3.14,12.26-12.56,17.23-26.92,16.49-11.72-1.21-17-9.53-20-20.41-15.23-1.16-27-1.62-46.9-3.7-1.07-.3-1.57-.6-1.45-.9-.6-5.16-.84-10-1.13-15.15l1.23-2.25a47.13,47.13,0,0,1,.23-6.84c.81-1.38.56-2.77.56-4.16l2.59-2.91-.57-1.79.22-3.25c-5.35-2.09-3.25-27.49-1.9-41.19a11,11,0,0,1,5.5-8.85c3.81-5.43,5.2-10.85,7.06-16.28a2.86,2.86,0,0,1,1.12-3.58,27.74,27.74,0,0,1-.67-4.6c-2.16-1-1.89-3.63-1.9-6.06-.33-1.51.49-2.57,1.67-3.47a16,16,0,0,1,.12-3.72c.34-.63.29-1.08-.56-1.12-3,1.64-4.3,1.54-5.17,1-1.16-1.92.79-3.4,2.25-4.94-2.3-2.93-.56-2.93,2.59-1.91,2-1,3.91-1.51,5.61-.33,3.79-10.37,8.86-15,14.46-17.28l1.8-.33a32,32,0,0,1,9.09-3.72,491.33,491.33,0,0,1,60.8-12.89h1.46l2.58-1.35a17.54,17.54,0,0,1,11.45,1.68l-.57,7.74a228.4,228.4,0,0,1,41.07,6.63,11.21,11.21,0,0,1,6.62,5.61l21.32-3.7,1.79-3.26a3.24,3.24,0,0,1,2.36.23l8.74,38.81.12,6.62,160.32,23.11.91,23.34,1.22.22.79,11.45-30.29,1.34.12,9.2,25.13-1.23.45,4.26-3.27.22,2.14,2.92.56,3.82-18.28.33-.12-3.37,1.12-2.79-7.4.67,1.68,18.73c.41,2.37-.36,3.37-2,3.37-.83,12.23-5.34,19.05-13.81,20.08-6.16.12-11-1-13.57-4.15-1.93,3.41-4.07,4.81-6.29,5.5l-7.29.45c-3.73-.23-6-1.28-7.63-2.7-1.87,1.49-4.44,2.16-8.07,1.58-7.31-1.06-9-8.72-10.66-16.39h-.57c-1.27,6.37-4.08,9.79-8.3,10.55-4,.49-8.68.63-13.35.78a19.12,19.12,0,0,1-9.09-2,9.13,9.13,0,0,1-4.6,3.81l-15.36.68c-6.87.31-10.75-2.78-13.69-5.73l-22.22-.33c-2.62,21-9.64,29.5-17.5,30.85A58.52,58.52,0,0,1-2156.39,2709.86Zm-128.14-128.68c10.55-2.19,20.78-3.95,30.45-5l2-22c-4.12-1-8.76-2.34-8,.17l-4.1,4.27a3.31,3.31,0,0,1-3.51.51l-9.75-1.36A90,90,0,0,0-2284.53,2581.18Zm154.84-15.91,14.27-1.77-4.53-31.88-11.22,1.86Zm-160.14-8.79a1.14,1.14,0,0,0,.94-1l2-4.62-.25-.43c-3.74-.12-6.62.6-5.65,5C-2292.62,2555.73-2291.87,2556.11-2289.83,2556.48Zm154-16.31.1-6.29-4,.79a14.48,14.48,0,0,0,.4,3.44c1.17.44,2.35.48,3.54,2.06" transform="translate(2316.69 -2509.84)"/><path class="cls-2" d="M-2055.63,2667.36V2662l4.36-.54.33-14.53-4,.11-.11-5.36,4.15-.33-.1-1.85L-2063.5,2628h-59.77a41.63,41.63,0,0,0-3.5-8.63c-.31-13.21-2.61-26.44-4.48-39.66.79.26-.11-7.43-.58-13.07-.93-7.49-2-14.94-3.2-22.25a10.18,10.18,0,0,0-.61-4l-.48-.59.33.34.1-6.29-4,.79.06.5-.27-.38-.48-1.28-.88-1.73,21.15-3.67,1.79-3.26a3.24,3.24,0,0,1,2.36.23l8.74,38.81.12,6.62,160.32,23.11.91,23.34,1.22.22.79,11.45-5.83.26-.24-.31-82.28-.67.11,12.79,5.9-.1.11,5.13-5.79.54L-2032,2660l5.91-.1.32,4.58Zm7.61-6.34,13.08-1.17.22-13.42-13,.76Zm.07-19.9,12.67-.13a1.63,1.63,0,0,0,0-2.34l-13-10.54Zm13.15-4.54-.14-8.33-9.84-.21ZM-2051,2636l.06-7.78-8.81-.21Zm-78.65-70.69,14.27-1.77-4.53-31.88-11.22,1.86,1.48,31.79" transform="translate(2316.69 -2509.84)"/><polyline class="cls-3" points="186.99 55.43 185.99 55.53 184.6 24.61 181.12 25.16 180.98 25.22 181 24.03 176.97 24.82 176.99 25.05 176.79 24.89 176.37 23.92 196.6 20.29 197.02 21.68 196.83 22.35 196.74 21.77 185.52 23.64 187 55.43 187.71 55.34 186.99 55.43"/><polyline class="cls-4" points="184.86 57.27 201.22 55.04 201.22 61.74 188.02 63.22 186.16 61.19 185.41 60.99 184.86 57.27"/><path class="cls-5" d="M-2106,2626.21l-5-.21-1-62.89-5.55-37.69-.37-.67h.07a3.3,3.3,0,0,1,1.77.34l8.74,38.81.12,6.62.18,0,1,55.67" transform="translate(2316.69 -2509.84)"/><path class="cls-6" d="M-2231.44,2683.74a272.41,272.41,0,0,1-28.4-2l-.68.51-.21-.59c-15.23-1.16-27-1.62-46.9-3.7-1.07-.3-1.57-.6-1.45-.9-.6-5.16-.84-10-1.13-15.15l1.23-2.25a47.13,47.13,0,0,1,.23-6.84c.81-1.38.56-2.77.56-4.16l2.59-2.91-.57-1.79.22-3.25c-5.35-2.09-3.25-27.49-1.9-41.19a11,11,0,0,1,5.5-8.85c3.81-5.43,5.2-10.85,7.06-16.28a2.86,2.86,0,0,1,1.12-3.58,27.74,27.74,0,0,1-.67-4.6c-2.16-1-1.89-3.63-1.9-6.06-.33-1.51.49-2.57,1.67-3.47a16,16,0,0,1,.12-3.72c.34-.63.29-1.08-.56-1.12-3,1.64-4.3,1.54-5.17,1-1.16-1.92.79-3.4,2.25-4.94-2.3-2.93-.56-2.93,2.59-1.91,2-1,3.91-1.51,5.61-.33,3.79-10.37,8.86-15,14.46-17.28l1.8-.33a31.75,31.75,0,0,1,9.09-3.71,489.6,489.6,0,0,1,60.8-12.9h1.46l2.58-1.34a17.48,17.48,0,0,1,11.45,1.67l-.57,7.74a228.4,228.4,0,0,1,41.07,6.63,11.09,11.09,0,0,1,5.28,3.59l1.29,1.94,0,.24c1.57,1.59,2,3.47,1.76,6,1.5.5,4.15.77,4.47,1.85,3.75,21.06,4.15,31.18,4.59,40.37,2.1,12.43,3.13,25.82,4,39.44,3.36,5.34,4.7,12.2,6,19.09l-2.29-.35c-2.54-8.7-7.83-13.3-16.44-14.14-13.2-1.17-20,6.21-24.21,17.32l-1.25.53-1.59,5.65,4.06.18c-3.31,11.26-4.72,22.51-6.35,33.76l-30.4.88-1.07.36Q-2216.54,2684-2231.44,2683.74Zm-53.09-102.56c10.55-2.19,20.78-3.95,30.45-5l2-22c-4.12-1-8.76-2.34-8,.17l-4.1,4.27a3.31,3.31,0,0,1-3.51.51l-9.75-1.36A90,90,0,0,0-2284.53,2581.18Zm-5.3-24.7a1.14,1.14,0,0,0,.94-1l2-4.62-.25-.43c-3.74-.12-6.62.6-5.65,5C-2292.62,2555.73-2291.87,2556.11-2289.83,2556.48Z" transform="translate(2316.69 -2509.84)"/><path class="cls-7" d="M-2294.18,2587.41c-1.57-.49-2.43-1-1.32-1.48,4.79-12.46,9.56-24.44,14.35-34.17-5.09-1.65-4.12-3.8-3.29-6q34.91-6,69.82-13.36c5.67-1.35,11-2.27,15.35-1.81-4.7,5.44-7.54,24.91-10.89,40.43-.13,3-1,5.25-3.8,5.61a120.8,120.8,0,0,0-12.71,2.81,3.43,3.43,0,0,1-3.14,1C-2250.52,2582.29-2272.14,2584.73-2294.18,2587.41Zm9.65-6.23c10.55-2.19,20.78-3.95,30.45-5l2-22c-4.12-1-8.76-2.34-8,.17l-4.1,4.27a3.31,3.31,0,0,1-3.51.51l-9.75-1.36a90,90,0,0,0-7,23.42" transform="translate(2316.69 -2509.84)"/><path class="cls-1" d="M-2274.63,2554.82a9.24,9.24,0,0,1-5-1.8l-1.53-1.24v0l0,0-.4-.33-.08.16-.35-.13c-4.09-1.6-3.19-3.61-2.41-5.63q34.91-6,69.82-13.36c5.67-1.35,11-2.27,15.35-1.81-1.76,2-3.26,6.05-4.63,11.09l-.22.85-8.46,1.06c-20.59,2.73-39.81,6.61-58.61,10.84a12.71,12.71,0,0,1-3.44.34" transform="translate(2316.69 -2509.84)"/><path class="cls-8" d="M-2294.29,2587.38l-.28-.1.51-1.26c1.41-3.08,3.53-4.73,6.65-4.38l2.68-.41.24-.21,0,.16c10.55-2.19,20.78-3.95,30.45-5V2576l3.64-.37,3.76-.42a62.86,62.86,0,0,1,19-4.12l17.53-.92.18,0-.17.85c-.13,3-1,5.25-3.8,5.61a120.8,120.8,0,0,0-12.71,2.81,2.68,2.68,0,0,1-1.24.82l-.36.07-.05-.08-2.16.24-7.13.65c-13.09,1.23-26.5,2.67-40.13,4.26l-13.9,1.66-2.65.27" transform="translate(2316.69 -2509.84)"/><path class="cls-1" d="M-2258.71,2583.06c8.31-2.69,16.5-4.15,24.38-2.42a179.76,179.76,0,0,0-24.38,2.42" transform="translate(2316.69 -2509.84)"/><path class="cls-1" d="M-2279.73,2585.09a37.52,37.52,0,0,1,20.24-2,134.62,134.62,0,0,0-20.24,2" transform="translate(2316.69 -2509.84)"/><path class="cls-1" d="M-2293.87,2587.12c3.4-1.74,7.53-2.78,13.67-1.8a42.23,42.23,0,0,0-13.67,1.8" transform="translate(2316.69 -2509.84)"/><path class="cls-7" d="M-1950.16,2596.67l-34.42-4.56-.2-2.86,34.52,4.94Zm-39.6-5.26-46-6.1-.21-3.39,46,6.58Zm-52.18-6.92-60.82-8.06v-4.06l60.7,8.68.13,3.44" transform="translate(2316.69 -2509.84)"/><path class="cls-7" d="M-1950,2599.8l-34.3-4.17-.06-.94,34.33,4.24Zm-39.47-4.8-46-5.6-.07-1.05,46,5.7Zm-52.29-6.37-60.93-7.41V2580l60.91,7.54,0,1.05" transform="translate(2316.69 -2509.84)"/><path class="cls-7" d="M-1949.89,2604l-34.11-3.6-.07-1,34.16,3.71Zm-39.27-4.14-46-4.85-.07-1.1,46,5Zm-52.42-5.54-61.13-6.44v-1.3l61.1,6.63,0,1.11" transform="translate(2316.69 -2509.84)"/><path class="cls-7" d="M-1949.62,2610.94l-33.82-2.63-.16-2.33,33.9,3Zm-39-3-46-3.58-.18-2.82,46,4Zm-52.65-4.1-61.46-4.78v-3.42l61.36,5.34.11,2.86" transform="translate(2316.69 -2509.84)"/><path class="cls-7" d="M-1949.49,2614.61l-33.65-2.13-.08-.95,33.7,2.24Zm-38.77-2.46-46-2.92-.06-1.1,46,3.06Zm-52.78-3.36-61.63-3.91v-1.13l.06-.17,61.53,4.1,0,1.11" transform="translate(2316.69 -2509.84)"/><path class="cls-7" d="M-1949.34,2618.7l-33.48-1.59-.06-.94,33.51,1.7Zm-38.57-1.84-46.06-2.19-.06-1.08,46,2.33Zm-52.93-2.52-61.81-3v-1.11l.06-.17,61.71,3.13,0,1.1" transform="translate(2316.69 -2509.84)"/><polyline class="cls-7" points="371.72 112.79 214.72 107.85 214.67 107.3 371.75 112.38 371.72 112.79"/><path class="cls-9" d="M-2302.76,2641.1l-3.21-.09,0-.26a4.1,4.1,0,0,1-2-2.56l-.17-.51,25.11-.1c24.41-.25,46.42-.89,64.26-2.22,7.56-.55,14.34-1.94,19.28-2.48.33,1.89-.46,4.62-.5,7-10.87-.22-21.27-.22-30.25.5-22-.18-44.13-.27-68.47.49-1.47.15-2.83.23-4.08.26" transform="translate(2316.69 -2509.84)"/><path class="cls-10" d="M-2306.15,2643.69l.18-2.7,38.72-.75c12.78-.25,25.31-.43,37.44-.38h30.07l.19,3.78-29.68-.76c-24.9.26-50.39.51-76.78.76l-.14.05" transform="translate(2316.69 -2509.84)"/><path class="cls-1" d="M-2192.85,2590.12c-1.12-.19-1.49-1.22-1.52-2.66-.56-19-.13-34.67,3.37-44,2-5.82,5.52-8.37,10.56-7.78l45.13,8.24.66-.19.58,3.48a247.21,247.21,0,0,1,3.15,29.46l.13,2.75-.11.12-30.29-3.94-30.28,14.38a3.47,3.47,0,0,1-1.38.12" transform="translate(2316.69 -2509.84)"/><path class="cls-11" d="M-2192.82,2588.36a.34.34,0,0,1-.27-.2c-.76-17.83.23-32.35,3.37-42.74,1.41-4.6,3.5-8.12,8.22-7.55l17.4,3.37c1.66,10.44,1.71,22,2,33.3l-28.73,13.21a3.41,3.41,0,0,1-2,.61" transform="translate(2316.69 -2509.84)"/><path class="cls-1" d="M-2134.87,2542.49l-1.28-.55-51.51-10.06-.44-3.7,48.31,9.75v.05c1.5.5,4.15.77,4.47,1.85.11.66.22,1.31.34,2l.12.71" transform="translate(2316.69 -2509.84)"/><path class="cls-12" d="M-2139.83,2545.81c.59,12.16,4.15,31.9-.89,29.69l-15-1.4-.25.64,16.68,1.89c2.84-.13,4.42-.76,4-5.69-.85-11.25-2.27-26.14-4.55-25.13" transform="translate(2316.69 -2509.84)"/><path class="cls-7" d="M-2160.23,2598.76c-1.69.66-2.94,1.23-3.43,4.91-.29,4.16-1.09,8.85,1.83,9.81,3.07.38,6.07.65,6.64-1.83a66.28,66.28,0,0,0-.49-11.17c-.28-1.81-2-2.19-4.55-1.72" transform="translate(2316.69 -2509.84)"/><path class="cls-13" d="M-2158.38,2600.6c-1.27.33-2.34,1.61-2.58,7,0,2.57,1.83,3.08,2.58,2.46.85-1.11.68-7.4,0-9.45" transform="translate(2316.69 -2509.84)"/><path class="cls-14" d="M-2155.67,2576.47c.7,6.86,1.41,13.73,2,20.63q.69,8.15,1.31,16.33l-.42,0c-.58-5.57-1.07-11.17-1.59-16.78q-.93-10.07-1.72-20.18l.42,0" transform="translate(2316.69 -2509.84)"/><path class="cls-1" d="M-2174,2647.38l-1.5,0c-2.48,0-5-.05-7.44-.1-4.5-.09-9-.25-13.35-.58l-4.34-.4-.65.24-.73.13c-.76.11-1.55.17-2.36.21-1.07.06-2.14.08-3.22.11s-2.42,0-3.62,0h0q-13.47.2-26.93.24-25.6.08-51-.32l-16.88-.35-.39.17.83-.93-.57-1.79,0-.58h.21c.39,0,1.06.09,3,.08l3.83,0,3.83,0,38.39-.22,3.84,0,3.84,0,3.84,0,3.84,0,3.85,0,3.84,0,3.84,0c.29,0,.64,0,1-.05,3.79-.24,7.68-.34,11.59-.29,2,0,3.94.11,5.88.2,3.28.14,6.5.47,9.69.81l.2,0,.44-.09,1.51-.29v-2.85a1.52,1.52,0,0,1,0-.21c0-.14,0-.28.07-.41.08-.37.14-.76.21-1.13.3-2,.55-4.14.73-6.26.08-.89.13-1.77.18-2.67,0-.37,0-.76.08-1.13a.72.72,0,0,1,0-.21h.12s0,0,0,0a.07.07,0,0,1,0,0,.8.8,0,0,1,0,.15c.07.28.12.55.18.83.17.8.35,1.59.55,2.38a23.15,23.15,0,0,0,1,3.25c.15.36.31.72.48,1.05a5.23,5.23,0,0,0,1.85,2.16,3,3,0,0,0,1.47.42,4.57,4.57,0,0,0,.75-.05h18.24l.12-.27q.2-.43.36-.87c.35-.76.68-1.54,1-2.31,1-2.24,2.07-4.45,3.24-6.6a44.26,44.26,0,0,1,5.2-7.67c.41-.49.84-1,1.29-1.42a26.17,26.17,0,0,1,7.56-5.43,18.22,18.22,0,0,1,4-1.4,22.22,22.22,0,0,1,2.67-.42c.81-.09,1.62-.13,2.46-.16a26.27,26.27,0,0,1,4.38.2c1.07.14,2.11.32,3.12.55a28.87,28.87,0,0,1,2.92.87,23.92,23.92,0,0,1,2.74,1.2c.59.3,1.15.66,1.72,1a16.78,16.78,0,0,1,3,2.42l1.14,1.27h0l.14.25-.35-.34.44.51,0,.07-.34-.34.07.07.24.32.07.09h0v0h0s0,0,0,0h0s-.07-.07-.1-.1c-.32-.35-.66-.69-1-1a22.14,22.14,0,0,0-6.33-4.19,25.9,25.9,0,0,0-7.15-2,28.87,28.87,0,0,0-7.43,0,29.9,29.9,0,0,0-4.23.89h-.05l-.08,0a3.21,3.21,0,0,0-.33.12c-.33.11-.66.23-1,.37a19,19,0,0,0-2.84,1.45,28.2,28.2,0,0,0-7.57,7.21,69,69,0,0,0-6.75,11.55c-.73,1.55-1.44,3.12-2.11,4.68-.19.44-.37.88-.55,1.31-.1.22-.2.46-.29.68,0,.05-.05.09-.07.14v0l.19.2a.9.9,0,0,0,.27.12l1.18.19h.58l1.15,0,2.88-.1.87,0,.21,0,0,0,0,0h0l0,0,0,0h0l-.05.07-.2.1c-.52.27-1.05.58-1.55.88a17,17,0,0,0-4.19,3.54c-.24.27-.45.56-.66.84C-2173.66,2647.43-2173.85,2647.38-2174,2647.38Zm-132.05-.83h0Zm105.42-.27h0Zm.95-2.92v0h0s0,0,0-.06l-.06,0Zm27-1.4h0Zm5.64-.06h.07l0,0v0Zm0-.06h.05Zm-7.28-.39,0,0S-2174.31,2641.5-2174.29,2641.45Zm.63-2.74h0s.06,0,.06,0h-.06Zm-24.56-10v-.26h-.08Zm-.09,0,0-.25h-.07l.05.24" transform="translate(2316.69 -2509.84)"/><path class="cls-9" d="M-2211.47,2683.5l-.3-.18s0-.06,0-.07a4.84,4.84,0,0,1,0-.53c0-.26,0-.51.05-.77q.22-3.3.44-6.61c.4-6.29.79-12.63,1.05-19,.07-2,.13-4,.17-6,0-1.24,0-2.52-.06-3.73.08-.07.16-.05.27-.05h.49l1.41,0,4.4-.1,1.51,0,.55,0,.39,0c4.76.17,9.53.38,14.29.57q6.33.26,12.65.54l5.92.28c1.84.09,3.67.19,5.51.27-.1,0,0,0,.11,0l.19,0-1.15,4.22c-2.52,9.84-3.77,19.69-5.2,29.54l-30.4.88-1.07.36c-2.71.18-5.4.33-8.05.46Zm1.41-36.88h0Zm0,0Z" transform="translate(2316.69 -2509.84)"/><path class="cls-15" d="M-2304.7,2619.26c33.28-.49,65.32-1.26,84.9-4.83-.31.78-.64,1.57-12.46,3.74-25.23,1.75-50.11,3.22-72.28,2.33l-.16-1.24" transform="translate(2316.69 -2509.84)"/><path class="cls-16" d="M-2305.73,2597.13c-.88,8.71-.14,19.6,1.91,32.29-1.84,0-3.49-1-2.72-16,.16-5.85.44-11.82-1-16.05l1.83-.2" transform="translate(2316.69 -2509.84)"/><path class="cls-9" d="M-2214.16,2579.62a59.25,59.25,0,0,0-3.51,6.81c-.18.75-1,1.77,1.71,1.23.79.08,1.16,1.2.95,3.78l-4.08,33.5c-1.44,2.57-5,4.31-10.3,4.63l-1.43,6a8.74,8.74,0,0,0,1.05,4.17c10.61.14,21.31.22,31,.94l.09-1.89c-.12-20.06-.32-40.08-2.65-59a43.12,43.12,0,0,0-12.86-.09" transform="translate(2316.69 -2509.84)"/><path class="cls-4" d="M-2303,2630.77c44.06-.82,78.52-1.94,83.23-4-.7,1-3.65,2.77-18.25,3.57-21.24,1-42.55,1.79-64.21,1.54l-.77-1.09" transform="translate(2316.69 -2509.84)"/><path class="cls-1" d="M-2296.4,2610.39c-1.73-.23-3.11.12-2.44,3.89l1.44,13.7c.72,1.4,1.14,3,3.74,3,16.93-.14,34.5-.54,53.34-1.44.64-.08,1-.45.86-1.29.54-6.35,1-12.7,2-19,.2-1.82-.38-3-2.88-2.46-18.35,1-36.95,2.2-56.08,3.61" transform="translate(2316.69 -2509.84)"/><path class="cls-17" d="M-2215.41,2581.56a37.8,37.8,0,0,0-3.74,6.38c-.55,1.24-.12,1.74,1,1.73a5.4,5.4,0,0,1,2.48,1.33c.94-1.76-.24-2.22-1.9-2.38-.69.23-.75-.24-.32-1.26a31.87,31.87,0,0,1,3.22-6.11l-.74.31" transform="translate(2316.69 -2509.84)"/><path class="cls-1" d="M-2293.24,2646.67l-1.76,1.92c-.55,6.69.78,10.46,4.49,9.94l40.86,1.44c2.62.29,4.48-.79,5-4.33.74-3.92,1.56-8,3.68-8.65l-52.24-.32" transform="translate(2316.69 -2509.84)"/><path class="cls-10" d="M-2222.73,2664.84h-2.47l-4.56,0c-7.11-.05-14.18-.13-21.25-.23-11.66-.18-23.28-.45-34.79-.92-6.13-.26-12.23-.56-18.29-.95l-6-.43h0l-.12,0,0-.34,1.23-2.25v-.12h0l4.52.29c3.15.18,6.3.33,9.47.47,5.29.25,10.61.42,15.95.61,3.3.12,6.62.21,9.94.31q23.63.66,47.33,1.23h.57c.1,0,.19,0,.26.06h0s0,0,0,0a.69.69,0,0,1,0,.2,1.24,1.24,0,0,1-.24.52,6.38,6.38,0,0,1-1,1.18l-.23.19a.65.65,0,0,1-.16.13A.32.32,0,0,1-2222.73,2664.84Zm1.77-2.17h0Zm-.08-.09h0Zm-89-.32Zm1.14-2.66,0,0h0l.05,0" transform="translate(2316.69 -2509.84)"/><path class="cls-9" d="M-2195.08,2646.49c1.31,4.46,2.32,10.37,5,10.65a126.78,126.78,0,0,0,20.48-.94c.72-.24,1.28-.92,1.6-2.2l1.46-6.33-22.7-.86-5.82-.32" transform="translate(2316.69 -2509.84)"/><path class="cls-10" d="M-2187.1,2657.23a4.23,4.23,0,0,1-.72,0,28.7,28.7,0,0,1-3-.45l-.43-.1-.22-.2a3.46,3.46,0,0,1-.38-.45l-.3-.46.48,0c.81.08,1.62.13,2.45.17,2.84.14,5.8.13,8.65,0l1.51-.06a3.75,3.75,0,0,0,1.33-.21,3.38,3.38,0,0,0,1.28-1.13,8,8,0,0,0,.84-1.62,20.87,20.87,0,0,0,.68-2.07c.17-.57.31-1.14.47-1.7l.24-.87.09-.32a.32.32,0,0,0,0-.09v0l0-.26,7.47.29-.67,2.86-.28,1.12c-.1.4-.19.81-.28,1.21,0,.2-.07.39-.12.58a.68.68,0,0,0,0,.14,0,0,0,0,0,0,0v.15l-.06.24a4.72,4.72,0,0,1-.45,1.2l-.13.19-.14.16a3.19,3.19,0,0,1-.87.57l-.31.11-1.27.14c-3.1.33-6,.56-8.59.71l-.68,0-2.27.07-2.85.05Zm19.15-3.58h0Zm-6.11-6h0" transform="translate(2316.69 -2509.84)"/><path class="cls-18" d="M-2187.51,2661.74c-2.39.16-4,.75-2.95,4.43l2.53,11.27c.31,1.64,1,3,3,3.17l11.07-.74c1.26,0,1.75-2.35,2.21-4.75l1.58-11.07c.35-3.17-.95-3.55-2.63-3.26l-14.86.95" transform="translate(2316.69 -2509.84)"/><path class="cls-10" d="M-2184.88,2680.61a3,3,0,0,1-2.73-2l0-.11.15,0,.27-.08a1,1,0,0,1,.46-.08c.52,0,1.06,0,1.58,0a11.28,11.28,0,0,0,3.78-.68,5.27,5.27,0,0,0,2-1.39,10.27,10.27,0,0,0,1-1.52c1.18-1.86,2.38-3.71,3.56-5.57,1.48-2.31,3-4.64,4.46-7a.57.57,0,0,1,.26-.12h0l0,.11a5.75,5.75,0,0,1,0,1.88l-1.58,11.07c-.46,2.41-1,4.75-2.21,4.75l-11.07.74" transform="translate(2316.69 -2509.84)"/><path class="cls-7" d="M-2211.47,2653.71c-16.33-1.06-24.38,2.44-27.13,8.87,1-4.86,1-10,6.2-15.43l21.63-.17-.7,6.73" transform="translate(2316.69 -2509.84)"/><path class="cls-7" d="M-2298.55,2660.29h-.21l-.06-.22c-.08-.27-.15-.55-.23-.82-.21-.66-.43-1.32-.68-2a15,15,0,0,0-2.23-4.06,7.48,7.48,0,0,0-2.81-2.25,6.39,6.39,0,0,0-2.89-.51l-.5.05v-.83c0-.33,0-.67,0-1l2-2.22,1.2,0a37.76,37.76,0,0,1,4.31.23q.55,0,1.08.12h.13s0,0,0,0,0,0,0,0v.12h0l-.13.07a2.23,2.23,0,0,0-.24.19,1.48,1.48,0,0,0-.36.63,5.5,5.5,0,0,0-.24,2,28.47,28.47,0,0,0,.72,5c.33,1.62.72,3.23,1.09,4.83,0,.13.07.27.1.4S-2298.45,2660.26-2298.55,2660.29Zm-.89-13.35v-.06l-.09,0h.09Zm0-.07,0-.06-.1.05h.12" transform="translate(2316.69 -2509.84)"/><path class="cls-9" d="M-2244.84,2682.76a48.07,48.07,0,0,1-7.6-.19l-2.1-.2-5.3-.59-.08,0h-.09l-.38.38-.13.09-.21-.59c-11.42-.87-20.9-1.35-33.31-2.42l-1.79-.14,0-.12a2.14,2.14,0,0,1-.06-.27c-.05-.24-.09-.5-.14-.75a22.39,22.39,0,0,1-.16-3.5c.05-1.31.22-2.55.39-3.79h0a4.46,4.46,0,0,1,.59-2.22,3.75,3.75,0,0,1,.6-.74c.15-.11.3-.23.45-.33a4.45,4.45,0,0,1,1.16-.51c.21,0,.42-.08.62-.14s3.5.14,3.78.15c2.5.11,5,.2,7.52.3l26.32,1h.5c.33,0,.67,0,1,0,.8,0,1.64,0,2.41,0l.8.08a4,4,0,0,1,2.6,1.1,2.58,2.58,0,0,1,.32.49,6.16,6.16,0,0,1,.3.79c.23.8.36,1.53.6,2.49l.54,2.36q.69,3,1.39,5.9c0,.19.08.38.13.59s.1.39.14.58c0,0,0,0,0,0a.16.16,0,0,1,0,.08h-.07Zm.7-.21h0Zm-15.87-.73,0,0-.07,0h0" transform="translate(2316.69 -2509.84)"/><path class="cls-1" d="M-2246.73,2671.11l-3.34-.16-17-.83-17-.83-11.4-.56,0,0c0-.08.08-.17.13-.25a3.53,3.53,0,0,1,.6-.75,4.43,4.43,0,0,1,.45-.34,4.81,4.81,0,0,1,1.16-.51l.62-.14c.27,0,3.5.14,3.78.15l7.52.3,26.32,1.05h.14l.36,0,1,0c.8,0,1.64,0,2.41,0a7.47,7.47,0,0,1,.8.08,4,4,0,0,1,2.6,1.12,2.3,2.3,0,0,1,.32.49,6.46,6.46,0,0,1,.3.81l.12.43" transform="translate(2316.69 -2509.84)"/><path class="cls-7" d="M-2102.69,2619.32a1.81,1.81,0,0,1,1.6,2,1.8,1.8,0,0,1-1.6,1.95,1.8,1.8,0,0,1-1.61-1.95,1.81,1.81,0,0,1,1.61-2" transform="translate(2316.69 -2509.84)"/><path class="cls-7" d="M-2039.84,2620.62a1.59,1.59,0,0,1,1.41,1.73,1.6,1.6,0,0,1-1.41,1.73,1.6,1.6,0,0,1-1.43-1.73,1.6,1.6,0,0,1,1.43-1.73" transform="translate(2316.69 -2509.84)"/><path class="cls-7" d="M-1987,2621.72a1.61,1.61,0,0,1,1.42,1.74,1.59,1.59,0,0,1-1.42,1.72,1.59,1.59,0,0,1-1.42-1.72,1.6,1.6,0,0,1,1.42-1.74" transform="translate(2316.69 -2509.84)"/><path class="cls-7" d="M-1980.88,2621.72a1.61,1.61,0,0,1,1.42,1.74,1.59,1.59,0,0,1-1.42,1.72,1.6,1.6,0,0,1-1.43-1.72,1.61,1.61,0,0,1,1.43-1.74" transform="translate(2316.69 -2509.84)"/><path class="cls-7" d="M-1948.39,2622.65a1.35,1.35,0,0,1,1.2,1.45,1.36,1.36,0,0,1-1.2,1.46,1.35,1.35,0,0,1-1.19-1.46,1.34,1.34,0,0,1,1.19-1.45" transform="translate(2316.69 -2509.84)"/><path class="cls-17" d="M-2203,2653.55a1.44,1.44,0,0,1,1.23,1.68,1.66,1.66,0,0,1-1.41,1.7c-.73,0-1.28-.76-1.23-1.7a1.64,1.64,0,0,1,1.41-1.68" transform="translate(2316.69 -2509.84)"/><path class="cls-17" d="M-2203.23,2672.26c.73,0,1.27.75,1.23,1.68a1.64,1.64,0,0,1-1.42,1.69c-.72,0-1.27-.75-1.22-1.69a1.63,1.63,0,0,1,1.41-1.68" transform="translate(2316.69 -2509.84)"/><path class="cls-17" d="M-2241.16,2653.55a1.65,1.65,0,0,1,1.42,1.53c.12.84-.32,1.53-1,1.53a1.66,1.66,0,0,1-1.41-1.53c-.13-.85.32-1.53,1-1.53" transform="translate(2316.69 -2509.84)"/><path class="cls-17" d="M-2242.16,2671.25a1.68,1.68,0,0,1,1.42,1.53c.12.84-.33,1.52-1,1.52a1.67,1.67,0,0,1-1.42-1.52c-.12-.84.33-1.53,1-1.53" transform="translate(2316.69 -2509.84)"/><path class="cls-17" d="M-2297.39,2653.05a1.16,1.16,0,0,1,1,1.15c0,.64-.32,1.15-.82,1.15a1.14,1.14,0,0,1-1-1.15c-.05-.63.32-1.15.81-1.15" transform="translate(2316.69 -2509.84)"/><path class="cls-17" d="M-2298.77,2668.74a1.15,1.15,0,0,1,1,1.15,1,1,0,0,1-.81,1.16,1.17,1.17,0,0,1-1-1.16c0-.63.32-1.15.82-1.15" transform="translate(2316.69 -2509.84)"/><path class="cls-9" d="M-2269,2594.08c2.67,0,4.42,2.81,3.92,6.26s-3.06,6.26-5.72,6.26-4.42-2.8-3.91-6.26,3.06-6.26,5.71-6.26" transform="translate(2316.69 -2509.84)"/><path class="cls-19" d="M-2269,2594.08c2.67,0,4.42,2.81,3.92,6.26s-3.06,6.26-5.72,6.26-4.42-2.8-3.91-6.26S-2271.67,2594.08-2269,2594.08Z" transform="translate(2316.69 -2509.84)"/><path class="cls-7" d="M-2146.83,2698c-6.48,0-11.74-9-11.77-20s5.22-20,11.7-20c6.05,0,11.07,7.88,11.7,18v.12l-.13-1.24c-.83-6.23-4.4-10.92-8.65-10.92-4.86,0-8.79,6.13-8.78,13.68s4,13.68,8.84,13.68c4.56,0,8.3-5.39,8.74-12.28l0-1.19v.2c0,11.05-5.22,20-11.69,20" transform="translate(2316.69 -2509.84)"/><path class="cls-7" d="M-2146.83,2698c-6.48,0-11.74-9-11.77-20s5.22-20,11.7-20c6.05,0,11.07,7.88,11.7,18v.12l-.13-1.24c-.83-6.23-4.4-10.92-8.65-10.92-4.86,0-8.79,6.13-8.78,13.68s4,13.68,8.84,13.68c4.56,0,8.3-5.39,8.74-12.28l0-1.19v.2c0,11.05-5.22,20-11.69,20" transform="translate(2316.69 -2509.84)"/><path class="cls-7" d="M-2143.92,2691.2c-4.86,0-8.82-6.12-8.84-13.68s3.92-13.68,8.78-13.68c4.25,0,7.82,4.69,8.65,10.92l.13,1.24,0,1.73,0,1.19c-.44,6.89-4.18,12.28-8.74,12.28" transform="translate(2316.69 -2509.84)"/><path class="cls-7" d="M-2143.8,2669.36c2.65,0,4.74,3.84,4.64,8.57s-2.33,8.56-5,8.56-4.74-3.83-4.65-8.56,2.32-8.57,5-8.57" transform="translate(2316.69 -2509.84)"/><path class="cls-1" d="M-2149.81,2671.73c.6,0,1,.84.94,1.87s-.62,1.88-1.21,1.88-1-.84-.93-1.88.62-1.87,1.2-1.87" transform="translate(2316.69 -2509.84)"/><path class="cls-1" d="M-2150.18,2678.83c.59,0,1,.83,1,1.85s-.58,1.86-1.16,1.86-1-.83-1-1.86.57-1.85,1.17-1.85" transform="translate(2316.69 -2509.84)"/><path class="cls-1" d="M-2148,2684.72c.58,0,1,.83,1,1.84s-.59,1.86-1.18,1.86-1-.84-1-1.86.59-1.84,1.18-1.84" transform="translate(2316.69 -2509.84)"/><path class="cls-1" d="M-2144.23,2687.31c.59,0,1,.83,1,1.85s-.58,1.86-1.17,1.86-1-.83-1-1.86.59-1.85,1.17-1.85" transform="translate(2316.69 -2509.84)"/><path class="cls-1" d="M-2140.26,2685.81c.54,0,1,.78.9,1.73s-.55,1.72-1.09,1.72-1-.77-.9-1.72.54-1.73,1.09-1.73" transform="translate(2316.69 -2509.84)"/><path class="cls-1" d="M-2137.62,2680.25c.56,0,1,.8.93,1.78s-.56,1.79-1.13,1.79-1-.8-.94-1.79.57-1.78,1.14-1.78" transform="translate(2316.69 -2509.84)"/><path class="cls-1" d="M-2137.64,2673.22c.58,0,1,.8,1,1.78s-.53,1.79-1.09,1.79-1-.8-1-1.79.52-1.78,1.08-1.78" transform="translate(2316.69 -2509.84)"/><path class="cls-1" d="M-2139.62,2667.26c.58,0,1,.8,1,1.79s-.52,1.78-1.09,1.78-1-.8-1-1.78.52-1.79,1.09-1.79" transform="translate(2316.69 -2509.84)"/><path class="cls-1" d="M-2143.51,2664.74c.56,0,1,.8,1,1.79s-.53,1.78-1.09,1.78-1-.8-1-1.78.52-1.79,1.09-1.79" transform="translate(2316.69 -2509.84)"/><path class="cls-1" d="M-2147.33,2666.35c.57,0,1,.8,1,1.78s-.52,1.79-1.09,1.79-1-.8-1-1.79.52-1.78,1.09-1.78" transform="translate(2316.69 -2509.84)"/><path class="cls-1" d="M-2146.51,2662.54c-2-.51-6,2.29-3.73,2.29,1.26,0,4.8-1,3.73-2.29" transform="translate(2316.69 -2509.84)"/><path class="cls-1" d="M-2154.61,2673.15a.86.86,0,0,0-.75.39,2.12,2.12,0,0,0-.77,1.6,4,4,0,0,1,.07,1.15c-.08.36-.63.61-.46,1.14a6.17,6.17,0,0,0,.62,1.23c.07.09,0,.48,0,.6s-.06.71.08.85a2.61,2.61,0,0,0,.76.53c.37.12.62-.72.69-.92a2.35,2.35,0,0,0,0-.53v-3.52a5.21,5.21,0,0,0-.24-2.52" transform="translate(2316.69 -2509.84)"/><path class="cls-1" d="M-2151.16,2690c-.2.1-.64,0-.77.23a.72.72,0,0,0-.22.46c0,1.16,1.07.85,1.52,1.29.12.13.08.16.23.24.4.2.34,1,.76,1.14.24.08.47-.15.76-.15s.64-.08,1-.08a1,1,0,0,0,.24,0c.09-.09,0-.32-.08-.38a5.89,5.89,0,0,0-.91-1c-.34-.33-.92-.69-1.23-1a5.12,5.12,0,0,0-1.29-.77" transform="translate(2316.69 -2509.84)"/><path class="cls-7" d="M-2105.51,2679.36l-.84-.81-11.61-.17-.08-.49c-.24-4.95.05-9.9.2-14.84-.18-.3,1.05-6.15,1.36-7.06,5.95.09,12.11-.25,18.35-.73,3.59-1.43,6,4.86,8.41,11.52,1.78,3,1.18,5.79.11,8.5-2.62,3.06-8.86,3.67-15.78,3.84l-.12.24" transform="translate(2316.69 -2509.84)"/><path class="cls-7" d="M-2105.51,2679.36l-.84-.81-11.61-.17-.08-.49c-.24-4.95.05-9.9.2-14.84-.18-.3,1.05-6.15,1.36-7.06,5.95.09,12.11-.25,18.35-.73,3.59-1.43,6,4.86,8.41,11.52,1.78,3,1.18,5.79.11,8.5-2.62,3.06-8.86,3.67-15.78,3.84l-.12.24" transform="translate(2316.69 -2509.84)"/><path class="cls-20" d="M-2119.69,2678.35l-7-.11-.2-.83a113.08,113.08,0,0,0-3.59-15.52,32.64,32.64,0,0,1,6.19-12.59c.44,1.57,1.69,2,3,2.39,2.2,8.79,2.32,17.58,1.62,26.37l-.09.29" transform="translate(2316.69 -2509.84)"/><path class="cls-9" d="M-2117.83,2678.38l-2,0,.15-.29a143.17,143.17,0,0,0-3.16-35.44h3.29c1.63,11.86,1.66,23.72,1.71,35.57l0,.19" transform="translate(2316.69 -2509.84)"/><path class="cls-7" d="M-2007,2677.42c-3.37,0-6.1-6-6.1-13.47s2.73-13.49,6.1-13.49,6.1,6,6.1,13.49S-2003.65,2677.42-2007,2677.42Zm-2.67-3.84c1.77,0,3.21-4.56,3.21-10.18s-1.44-10.16-3.21-10.16-3.22,4.55-3.22,10.16,1.44,10.18,3.22,10.18" transform="translate(2316.69 -2509.84)"/><path class="cls-7" d="M-2009.69,2673.58c-1.78,0-3.22-4.56-3.22-10.18s1.44-10.16,3.22-10.16,3.21,4.55,3.21,10.16-1.44,10.18-3.21,10.18" transform="translate(2316.69 -2509.84)"/><path class="cls-7" d="M-1981.92,2675.79c-3.06,0-5.52-5.65-5.52-12.59s2.46-12.6,5.52-12.6,5.51,5.65,5.51,12.6S-1978.88,2675.79-1981.92,2675.79Zm-2.43-3.6c1.62,0,2.91-4.25,2.91-9.49s-1.29-9.5-2.91-9.5-2.9,4.25-2.9,9.5,1.31,9.49,2.9,9.49" transform="translate(2316.69 -2509.84)"/><path class="cls-7" d="M-1984.35,2672.19c-1.59,0-2.9-4.25-2.9-9.49s1.31-9.5,2.9-9.5,2.91,4.25,2.91,9.5-1.29,9.49-2.91,9.49" transform="translate(2316.69 -2509.84)"/></svg>