<svg id="OBJECTS" xmlns="http://www.w3.org/2000/svg" viewBox="0 0 592.23 390.39"><defs><style>.cls-1{fill:#342447;}.cls-2{fill:#241933;}.cls-3{fill:#ef701b;}.cls-4{fill:#47315d;}.cls-5{fill:#487cef;}.cls-6{fill:#3e5fa8;}.cls-7{fill:#a3bcff;}.cls-8{fill:#583d71;}.cls-9{fill:#fda635;}.cls-10{fill:#7a8dbf;}.cls-11{fill:#808dc3;}.cls-12{fill:#91b0f5;}.cls-13{fill:#fff5df;}.cls-14{fill:none;stroke:#3e5fa8;stroke-miterlimit:10;}.cls-15{fill:#ffe08a;}.cls-16{fill:#cbe3f8;}.cls-17{fill:#e1f1ff;}.cls-18{fill:#a1c5eb;}</style></defs><path class="cls-1" d="M98.23,455.7a1.41,1.41,0,0,0,.27,2.79L359.88,457a303.59,303.59,0,0,0,66.95-7.8L670.5,392.91a1.22,1.22,0,0,0-.25-2.41l-198.7-4Z" transform="translate(-79.21 -68.1)"/><path class="cls-2" d="M655.54,343.57l.21,3.44-7.35-.28.16-11.09-295.5-5.17s16,39.61,18.13,39.72,277-6.4,277-6.4l.07-4.71h8.26l.35,5.79h6.92l1.3-21.95Z" transform="translate(-79.21 -68.1)"/><polygon class="cls-3" points="582.49 277.61 582.49 293.63 586.53 293.63 587.24 277.61 582.49 277.61"/><path class="cls-2" d="M620.92,339.63c-8.55,0-15.48,13.08-15.48,29.2S612.37,398,620.92,398h16.89V339.63Z" transform="translate(-79.21 -68.1)"/><ellipse class="cls-2" cx="558.6" cy="300.74" rx="15.48" ry="29.2"/><ellipse class="cls-1" cx="560" cy="300.74" rx="9.35" ry="17.63"/><ellipse class="cls-4" cx="560" cy="300.74" rx="4.4" ry="8.3"/><path class="cls-2" d="M573.89,339.45c-10.23,0-18.51,15.64-18.51,34.92s8.28,34.92,18.51,34.92h20.2V339.45Z" transform="translate(-79.21 -68.1)"/><ellipse class="cls-2" cx="514.88" cy="306.27" rx="18.51" ry="34.92"/><ellipse class="cls-1" cx="516.55" cy="306.27" rx="11.17" ry="21.08"/><ellipse class="cls-4" cx="516.55" cy="306.27" rx="5.26" ry="9.93"/><polygon class="cls-4" points="461.79 279.22 461.79 310.37 501.02 304.44 501.02 279.07 461.79 279.22"/><polygon class="cls-1" points="461.79 279.22 435.5 279.22 438.87 310.37 461.79 310.37 461.79 279.22"/><path class="cls-2" d="M487.3,335.64c-12.81,0-23.2,19.59-23.2,43.75s10.39,43.75,23.2,43.75h25.32v-87.5Z" transform="translate(-79.21 -68.1)"/><ellipse class="cls-2" cx="433.41" cy="311.29" rx="23.2" ry="43.75"/><ellipse class="cls-1" cx="435.5" cy="311.29" rx="14" ry="26.41"/><ellipse class="cls-4" cx="435.5" cy="311.29" rx="6.59" ry="12.44"/><path class="cls-5" d="M470.6,338h-96l37.47,77.24L460.93,410a14.45,14.45,0,0,0,12.89-15.19Z" transform="translate(-79.21 -68.1)"/><path class="cls-2" d="M397,338H344.27c6.23,11.92,17.25,39,13.09,75.68l54.71,1.56a101.49,101.49,0,0,0,3-24.77C415,367,407.62,346.93,397,338Z" transform="translate(-79.21 -68.1)"/><polygon class="cls-6" points="343.81 318.44 344.32 330.58 353.47 329.94 354.12 318.44 343.81 318.44"/><polygon class="cls-6" points="342.4 292.33 343.81 305.64 353.47 305.64 354.12 291.49 342.4 292.33"/><polygon class="cls-6" points="333 279.3 334.7 285.75 388.01 284.88 388.01 278.95 333 279.3"/><path class="cls-7" d="M452,387.8c0,4.64-2.31,8.4-5.15,8.4s-5.15-3.76-5.15-8.4,2.3-8.41,5.15-8.41S452,383.15,452,387.8Z" transform="translate(-79.21 -68.1)"/><polygon class="cls-4" points="334.16 0 335.03 274.44 134.53 276 123.19 10.03 334.16 0"/><polygon class="cls-8" points="136.71 25.72 146.46 267.3 320.83 263.05 320.83 17.31 136.71 25.72"/><path class="cls-9" d="M378.18,83.29,400,82.07a1.77,1.77,0,0,1,1.75,2l-.36,6.61a1.74,1.74,0,0,1-1.66,1.73H378.89a1.74,1.74,0,0,1-1.66-1.61l-.62-5.39A1.8,1.8,0,0,1,378.18,83.29Zm-165.8,7.14.49,4.07a3.53,3.53,0,0,0,3.57,3.15l18.87-.54a3.54,3.54,0,0,0,3.4-3.32l.26-3.53a3.56,3.56,0,0,0-3.5-3.86H215.86A3.57,3.57,0,0,0,212.38,90.43Z" transform="translate(-79.21 -68.1)"/><polygon class="cls-1" points="334.16 0 591.57 114.7 589.07 270.4 335.03 274.44 334.16 0"/><polygon class="cls-2" points="353.12 29.52 352.21 257.98 579.73 258.73 575.7 122.82 353.12 29.52"/><path class="cls-1" d="M504.16,326.32l-3.94,0V126.07l3.94,1.65Zm14.33-192.59-3.94-1.65V326.35l3.94,0Zm14.33,6-3.94-1.65V326.4h3.94Zm-43-18-3.94-1.65v206.2h3.94Zm57.33,24-3.94-1.65V326.45h3.94Zm-86-36-3.94-1.65V326.16l3.94,0Zm14.33,6-3.94-1.66V326.21h3.94Zm-32.6,210.4,3.94,0V103.69L442.89,102ZM633.14,181.8l-3.93-1.65V326.73l3.93,0Zm-14.33-6-3.94-1.65V326.69h3.94Zm28.67,12-3.94-1.66V326.78h3.94Zm-43-18-3.94-1.65V326.64h3.94Zm-28.66-12-3.94-1.65V326.54l3.94,0Zm-14.34-6-3.93-1.66V326.5h3.93Zm28.67,12-3.94-1.65V326.59h3.94Z" transform="translate(-79.21 -68.1)"/><path class="cls-3" d="M434.06,95.23l15.65,5.51a1.58,1.58,0,0,1,1.1,1.44v3.44a1.73,1.73,0,0,1-2.38,1.44l-15.65-5.34a1.56,1.56,0,0,1-1.12-1.45V96.66A1.73,1.73,0,0,1,434.06,95.23ZM645,186.51v1.92a1,1,0,0,0,.65.94l9.2,3.35a1,1,0,0,0,1.33-.83l.22-2a1,1,0,0,0-.66-1l-9.42-3.3A1,1,0,0,0,645,186.51Zm5.34,139.56.12,1.35a1,1,0,0,0,1,.92h8.84a1,1,0,0,0,1-1V326a1,1,0,0,0-1-1h-9A1,1,0,0,0,650.3,326.07Zm-223.4-2.28v3.61a1.47,1.47,0,0,0,1.47,1.47h12.9a1.46,1.46,0,0,0,1.46-1.39l.16-2.93A1.47,1.47,0,0,0,441.5,323l-13.06-.68A1.46,1.46,0,0,0,426.9,323.79Z" transform="translate(-79.21 -68.1)"/><path class="cls-2" d="M109.2,230.31c1.62,13.19,1.37,27.51-.11,42.58a6.49,6.49,0,0,1-6.06,5.87,86.25,86.25,0,0,1-15.42-.54,6.45,6.45,0,0,1-5.54-5.62,290.11,290.11,0,0,1-2.82-42.74,6.51,6.51,0,0,1,6.52-6.36,136,136,0,0,1,17.9,1.17A6.46,6.46,0,0,1,109.2,230.31Z" transform="translate(-79.21 -68.1)"/><path class="cls-2" d="M107.06,209.2a5.16,5.16,0,0,1,5-5.38l4.18-.11a2.63,2.63,0,0,1,2.39-1.55h7a2.63,2.63,0,0,1,2.63,2.63v1.86a2.62,2.62,0,0,1-2.63,2.62h-7a2.62,2.62,0,0,1-2.19-1.18l-4.26.12a.77.77,0,0,0-.75.8l-8.63,64.08,11.27,5V278a4,4,0,0,1,4-4h6.23a4,4,0,0,1,4,4v6.24a4,4,0,0,1-4,4h-6.23a4,4,0,0,1-4-4v-1.37L98.54,276Z" transform="translate(-79.21 -68.1)"/><path class="cls-2" d="M190.88,347.05h-29.5c-14.93,0-27,22.83-27,51s12.1,51,27,51h29.5c14.93,0,27-22.83,27-51S205.81,347.05,190.88,347.05Z" transform="translate(-79.21 -68.1)"/><rect class="cls-1" x="32.3" y="348.43" width="220.29" height="19.33"/><path class="cls-2" d="M340.55,347.05c-14.93,0-27,22.83-27,51s12.1,51,27,51h29.5v-102Z" transform="translate(-79.21 -68.1)"/><ellipse class="cls-2" cx="290.84" cy="329.94" rx="27.03" ry="50.98"/><ellipse class="cls-1" cx="293.28" cy="329.94" rx="16.32" ry="30.78"/><ellipse class="cls-4" cx="293.28" cy="329.94" rx="7.68" ry="14.49"/><path class="cls-7" d="M220.29,108.05c-34.69,1.07-66.73,33.17-83.75,69-31.93,67.14-26,170.69-21.3,208.16.86,7,5.38,12.09,10.68,12.09H290.78L380.21,105Z" transform="translate(-79.21 -68.1)"/><path class="cls-10" d="M314.5,106.25l-1.13,0a141.77,141.77,0,0,1-16,25.09c-12.71,15.76-34.13,34.13-64.95,34.12-1.23,0-2.49,0-3.76-.09-14.55-.69-23.28-4.69-26-11.88-4.8-12.88,10.55-33.37,21.25-45.53l-1.42,0c-10.83,12.37-25.71,32.61-20.77,45.86,2.84,7.6,11.87,11.82,26.85,12.53,1.29.06,2.56.09,3.82.09,31.21,0,52.89-18.57,65.74-34.51A143.54,143.54,0,0,0,314.5,106.25Z" transform="translate(-79.21 -68.1)"/><path class="cls-10" d="M134.65,181.15H356.91l.61-2h-222Z" transform="translate(-79.21 -68.1)"/><path class="cls-5" d="M356.17,327.79s21.45-1,35.6.46c1.94-45.77,3.86-108.19-1.3-185.62-.55-8.27-5.17-38.13-11.38-37.6-25.71,2.18-60.22,40.85-71.82,72-30.17,80.93-16.49,220.25-16.49,220.25l43.38-.66C330.22,332.27,356.17,327.79,356.17,327.79Z" transform="translate(-79.21 -68.1)"/><path class="cls-11" d="M305.78,181.15h86.76l-.09-2H306.5C306.26,179.81,306,180.47,305.78,181.15Z" transform="translate(-79.21 -68.1)"/><polygon class="cls-2" points="58.33 281.96 68.11 314.33 162.46 314.33 174.76 281.96 58.33 281.96"/><path class="cls-12" d="M114.88,301.46l-4.39,2.85a19.72,19.72,0,0,0-8.9,16.55V341.8a19.75,19.75,0,0,0,7.83,15.81l4.74,3.55a13.09,13.09,0,0,0,7.86,2.63H282.51l3.09-2.5a27.68,27.68,0,0,0,10.2-21.53V304.49l-14.36-7.34Z" transform="translate(-79.21 -68.1)"/><path class="cls-13" d="M164.29,299.74l2.79,6.25a3.46,3.46,0,0,0,3.14,2h42.53a3.43,3.43,0,0,0,3.1-2l2.61-5.45a3.44,3.44,0,0,0-3.05-4.92l-47.92-.79A3.44,3.44,0,0,0,164.29,299.74Z" transform="translate(-79.21 -68.1)"/><path class="cls-4" d="M227.57,307.1l-3.81,4.95a5.81,5.81,0,0,1-4.52,2.28l-49.6,1a5.84,5.84,0,0,1-4.33-1.8l-5.77-6a5.86,5.86,0,0,0-4.29-1.79l-20,.24a5.86,5.86,0,0,0-5.73,6.67,61.69,61.69,0,0,0,8.43,24.7,25.22,25.22,0,0,0,21.45,11.75h67.42a25.32,25.32,0,0,0,19.42-9,60.94,60.94,0,0,0,13.19-28.67,5.84,5.84,0,0,0-5.83-6.87l-21.47.25A5.83,5.83,0,0,0,227.57,307.1Z" transform="translate(-79.21 -68.1)"/><path class="cls-2" d="M261.15,306.49a8.43,8.43,0,0,0-7.57-4.5l-21.43.26a8.5,8.5,0,0,0-6.65,3.32l-3.78,4.91a3.27,3.27,0,0,1-2.53,1.28l-49.6,1a3.37,3.37,0,0,1-2.43-1l-5.77-6a8.56,8.56,0,0,0-6.17-2.58l-19.81.24a8.65,8.65,0,0,0-3.55.73A8.52,8.52,0,0,0,127,313c1.35,10,4.23,18.39,8.8,25.71a28,28,0,0,0,23.63,13h67.42a27.79,27.79,0,0,0,21.4-9.91,63.88,63.88,0,0,0,13.71-29.67A8.53,8.53,0,0,0,261.15,306.49Zm-16.88,32a22.61,22.61,0,0,1-17.44,8.07H159.41A22.75,22.75,0,0,1,140.15,336l-.1-.15a3.54,3.54,0,0,1,3-5.37H243.26a3.55,3.55,0,0,1,2.84,5.67Q245.21,337.33,244.27,338.45Zm12.61-27.32a64.32,64.32,0,0,1-2.66,9.88,8.93,8.93,0,0,1-8.43,5.82H142a8.57,8.57,0,0,1-8.31-6.43,71.24,71.24,0,0,1-1.53-7.92,3.6,3.6,0,0,1,.44-2.39,3.26,3.26,0,0,1,2.74-1.54l20-.24h0a3.35,3.35,0,0,1,2.42,1l5.74,6a8.33,8.33,0,0,0,6.24,2.58l49.6-1a8.38,8.38,0,0,0,6.52-3.29l3.8-4.95h0a3.25,3.25,0,0,1,2.56-1.27l21.47-.26a3.34,3.34,0,0,1,3,1.79A3.4,3.4,0,0,1,256.88,311.13Z" transform="translate(-79.21 -68.1)"/><path class="cls-5" d="M321.16,400.5s-11.57-67.95,30.89-74.85c16.15-2.63,39.72,2.6,39.72,2.6l-9.71,17.09s-23.44-10.72-35.68,10.56c-6.92,12-6,45.45-6,45.45Z" transform="translate(-79.21 -68.1)"/><path class="cls-1" d="M342.08,313.66l1.6,9.24a3.89,3.89,0,0,0,4.17,3.21l3.23-.28a3.88,3.88,0,0,0,3.5-3.23l1.46-8.79a3.89,3.89,0,0,0-3.73-4.53l-6.29-.17A3.89,3.89,0,0,0,342.08,313.66Z" transform="translate(-79.21 -68.1)"/><path class="cls-14" d="M364.1,270.35l.91,28c.1,3,1.74,5.4,3.73,5.4h10.41c2,0,3.61-2.35,3.72-5.36l1.05-27.69c.12-3.22-1.54-5.95-3.66-6l-12.37-.34C365.73,264.33,364,267.06,364.1,270.35Z" transform="translate(-79.21 -68.1)"/><path class="cls-9" d="M309.59,342v3.46a2,2,0,0,0,2,2h14.13a2,2,0,0,0,2-1.93l0-3.46a2,2,0,0,0-2-2H311.55A2,2,0,0,0,309.59,342Z" transform="translate(-79.21 -68.1)"/><path class="cls-15" d="M312,342.81v1.61a.92.92,0,0,0,.92.92h6.62a.92.92,0,0,0,.92-.9l0-1.62a.92.92,0,0,0-.92-.93H313A.92.92,0,0,0,312,342.81Z" transform="translate(-79.21 -68.1)"/><path class="cls-5" d="M336.32,375.17l-48.62.2c0,.14,0,3.36,0,3.51v51h44.89c4.52,0,8.18-4.42,8.18-9.88l4.2-35C345,379.36,341,374.85,336.32,375.17Z" transform="translate(-79.21 -68.1)"/><path class="cls-16" d="M311.25,204.48c-7.14,19.81-11.41,67.37-10,94.84.15,3,2,5.34,4.16,5.34h9.68a3.76,3.76,0,0,0,3.07-1.85l35.14-61.24a7,7,0,0,0,1.1-3.87V206.14c0-3.2-1.91-5.77-4.24-5.71l-35.23.86C313.36,201.32,311.94,202.56,311.25,204.48Z" transform="translate(-79.21 -68.1)"/><path class="cls-1" d="M315.08,306.86H305.4c-3.41,0-6.14-3.2-6.36-7.43-1.38-27.39,2.74-75.16,10.14-95.69,1-2.81,3.19-4.59,5.69-4.65l35.22-.86a5.62,5.62,0,0,1,4.08,1.68,8.67,8.67,0,0,1,2.42,6.23V237.7a9.22,9.22,0,0,1-1.43,5l-35.1,61.18L320,304A5.93,5.93,0,0,1,315.08,306.86Zm35.14-104.24h0l-35.22.86c-.63,0-1.3.72-1.67,1.75h0c-7.11,19.73-11.22,67.55-9.88,94,.09,1.92,1.11,3.26,2,3.26h9.68a1.65,1.65,0,0,0,1.21-.83l35.1-61.17.08-.12a4.9,4.9,0,0,0,.73-2.65V206.14a4.41,4.41,0,0,0-1.1-3.09A1.31,1.31,0,0,0,350.22,202.62Zm-39,1.86h0Z" transform="translate(-79.21 -68.1)"/><path class="cls-1" d="M301,281.74c-.13,6.37-.07,12.34.2,17.58.15,3,2,5.34,4.16,5.34h9.68a3.76,3.76,0,0,0,3.07-1.85l12.09-21.07Z" transform="translate(-79.21 -68.1)"/><path class="cls-2" d="M320,230.31c-1.62,13.19-1.38,27.51.11,42.58a6.49,6.49,0,0,0,6.06,5.87,86.25,86.25,0,0,0,15.42-.54,6.45,6.45,0,0,0,5.54-5.62A290.11,290.11,0,0,0,350,229.86a6.51,6.51,0,0,0-6.52-6.36,135.92,135.92,0,0,0-17.9,1.17A6.46,6.46,0,0,0,320,230.31Z" transform="translate(-79.21 -68.1)"/><path class="cls-2" d="M332.7,209.2a5.16,5.16,0,0,0-5-5.38l-4.19-.11a2.62,2.62,0,0,0-2.39-1.55h-7a2.62,2.62,0,0,0-2.62,2.63v1.86a2.62,2.62,0,0,0,2.62,2.62h7a2.62,2.62,0,0,0,2.19-1.18l4.27.12a.75.75,0,0,1,.74.8l-2.76,64.08-11.27,5V278a4,4,0,0,0-4-4h-6.24a4,4,0,0,0-4,4v6.24a4,4,0,0,0,4,4h6.24a4,4,0,0,0,4-4v-1.37L329.82,276Z" transform="translate(-79.21 -68.1)"/><path class="cls-10" d="M243.82,379.84l-2-.9,23.7-52.11,8.64-70.06,2.18.27-8.69,70.4Zm-102.64-.9-23.64-52,6.37-69.34-2.19-.2-6.42,69.91,23.88,52.52Z" transform="translate(-79.21 -68.1)"/><path class="cls-4" d="M265.36,325.38l-11.52,22.53a4.07,4.07,0,0,0,3.62,5.92h0a20.44,20.44,0,0,0,17.3-9.57l8.76-14a4.66,4.66,0,0,0-3.95-7.13H268.83A4.08,4.08,0,0,0,265.36,325.38Z" transform="translate(-79.21 -68.1)"/><path class="cls-4" d="M124.1,325.38l11.52,22.53a4.06,4.06,0,0,1-3.62,5.92h0a20.44,20.44,0,0,1-17.3-9.57l-8.76-14a4.66,4.66,0,0,1,4-7.13h10.74A4.08,4.08,0,0,1,124.1,325.38Z" transform="translate(-79.21 -68.1)"/><rect class="cls-12" x="21.37" y="308.36" width="195.21" height="53.45" rx="7.94"/><path class="cls-2" d="M146.26,433.45h91.42L233,425.87c-2.54-4.08-4.72-4.67-9.4-4.59l-63.05-.83a13.58,13.58,0,0,0-12.09,8.16Z" transform="translate(-79.21 -68.1)"/><path class="cls-11" d="M335.73,374.27H114.05l.16,2.19h16.13L143,403.68a13.54,13.54,0,0,0,12.17,7.79l74.83.29h.06a13.52,13.52,0,0,0,11.57-6.57l17.15-28.73h76.92Zm-96,29.8a11.35,11.35,0,0,1-9.69,5.5H230l-74.84-.3A11.32,11.32,0,0,1,145,402.76l-12.26-26.3h123.5Z" transform="translate(-79.21 -68.1)"/><path class="cls-2" d="M146.26,386.74h91.42L233,394.32a13.44,13.44,0,0,1-11.61,6.44l-60.84-1a13.58,13.58,0,0,1-12.09-8.16Z" transform="translate(-79.21 -68.1)"/><path class="cls-17" d="M161.45,376.66l1,10.36a4.58,4.58,0,0,0,4.45,4.14l41.92,1a4.59,4.59,0,0,0,4.66-4.07l1.28-11.34a4.57,4.57,0,0,0-4.55-5.09H166A4.58,4.58,0,0,0,161.45,376.66Z" transform="translate(-79.21 -68.1)"/><path class="cls-2" d="M208.93,393.29h-.14l-41.91-1a5.75,5.75,0,0,1-5.58-5.18l-1-10.36a5.73,5.73,0,0,1,5.71-6.28h44.2a5.73,5.73,0,0,1,5.7,6.37l-1.29,11.34A5.69,5.69,0,0,1,208.93,393.29Zm-46.34-16.74,1,10.36a3.44,3.44,0,0,0,3.34,3.1l41.92,1a3.41,3.41,0,0,0,3.49-3.05l1.28-11.33a3.46,3.46,0,0,0-.85-2.68,3.42,3.42,0,0,0-2.56-1.14H166a3.43,3.43,0,0,0-3.42,3.76Z" transform="translate(-79.21 -68.1)"/><path class="cls-16" d="M114.53,271.49l7.54,5.57a7.47,7.47,0,0,0,4.41,1.45H265.9a7.44,7.44,0,0,0,4.39-1.44l10-7.39a7.38,7.38,0,0,0,3-5.64c.8-19.45,4.85-41.61,7.32-53.64a7.42,7.42,0,0,0-7.27-8.91H130.16a7.39,7.39,0,0,0-6.9,4.68c-7.07,18.12-10.47,38.72-11.73,58.85A7.45,7.45,0,0,0,114.53,271.49Z" transform="translate(-79.21 -68.1)"/><path class="cls-18" d="M112.6,252.54q-.69,6.25-1.07,12.48a7.45,7.45,0,0,0,3,6.47l7.54,5.57a7.47,7.47,0,0,0,4.41,1.45H265.9a7.44,7.44,0,0,0,4.39-1.44l10-7.39a7.38,7.38,0,0,0,3-5.64c.15-3.76.43-7.63.79-11.5Z" transform="translate(-79.21 -68.1)"/><polygon class="cls-17" points="129.43 133.4 109.31 133.4 78.58 210.41 98.7 210.41 129.43 133.4"/><polygon class="cls-17" points="164.81 133.4 135.01 133.4 104.28 210.41 134.09 210.41 164.81 133.4"/><polygon class="cls-17" points="64.41 210.41 74.47 210.41 105.2 133.4 95.14 133.4 64.41 210.41"/><path class="cls-2" d="M290.86,202.84a9.59,9.59,0,0,0-7.46-3.54H130.16a9.65,9.65,0,0,0-8.94,6.07c-6.45,16.51-10.44,36.53-11.88,59.52a9.58,9.58,0,0,0,3.88,8.36l7.55,5.58a9.68,9.68,0,0,0,5.71,1.87H265.9a9.49,9.49,0,0,0,5.69-1.87l10.05-7.38a9.55,9.55,0,0,0,3.9-7.32c.8-19.43,4.9-41.73,7.28-53.29A9.54,9.54,0,0,0,290.86,202.84ZM288.52,210c-2.4,11.69-6.56,34.25-7.37,54a5.13,5.13,0,0,1-2.12,4l-.51.38L116.18,270l-.35-.26h0a5.25,5.25,0,0,1-2.11-4.56c1.41-22.53,5.31-42.11,11.59-58.2a5.21,5.21,0,0,1,4.85-3.27H283.4a5.21,5.21,0,0,1,5.12,6.27Z" transform="translate(-79.21 -68.1)"/><path class="cls-2" d="M123.2,198.26a3,3,0,0,0-2.94,2.41c-.89,4.37-2,13.39,3.49,15.14,7.3,2.34,153.54-.06,153.54-.06s14.52,1.07,18.42-14.55a3,3,0,0,0-3-3.78Z" transform="translate(-79.21 -68.1)"/><path class="cls-17" d="M280.47,207.13H270a2.48,2.48,0,0,1-2.48-2.48h0a2.48,2.48,0,0,1,2.48-2.49h10.44a2.48,2.48,0,0,1,2.49,2.49h0A2.48,2.48,0,0,1,280.47,207.13Z" transform="translate(-79.21 -68.1)"/><path class="cls-17" d="M133.52,207.13H123.08a2.48,2.48,0,0,1-2.49-2.48h0a2.48,2.48,0,0,1,2.49-2.49h10.44a2.48,2.48,0,0,1,2.48,2.49h0A2.48,2.48,0,0,1,133.52,207.13Z" transform="translate(-79.21 -68.1)"/><path class="cls-2" d="M188.77,272.08l-8.83-11.62a1.78,1.78,0,0,0-1.85-1.55l-36.49,1.88a1.78,1.78,0,0,0-1.47.92h0l-19.36.61a1.51,1.51,0,0,0-1.08.41c-.49.54.15,1.2,1.14,1.2h19.73a1.76,1.76,0,0,0,1.13.42h35l6.57,9.44a1.48,1.48,0,0,0,1.2.63h3.11A1.47,1.47,0,0,0,188.77,272.08Z" transform="translate(-79.21 -68.1)"/><path class="cls-2" d="M265.62,270.07l-8.82-11.62A1.77,1.77,0,0,0,255,256.9l-36.5,1.88a1.79,1.79,0,0,0-1.47.92h0l-19.36.61a1.54,1.54,0,0,0-1.08.41c-.48.54.15,1.2,1.15,1.2h19.73a1.73,1.73,0,0,0,1.13.41h35l6.58,9.45a1.47,1.47,0,0,0,1.2.63h3.11A1.46,1.46,0,0,0,265.62,270.07Z" transform="translate(-79.21 -68.1)"/><rect class="cls-18" x="105.22" y="382.8" width="24.26" height="18.78" rx="3.85" transform="translate(155.49 716.29) rotate(180)"/><path class="cls-17" d="M125.63,382.8H109.12a13.39,13.39,0,0,0-.26,5.29,11.71,11.71,0,0,0,2,4.79A15.58,15.58,0,0,0,123.19,399a13.7,13.7,0,0,0,6.29-1.35v-11A3.86,3.86,0,0,0,125.63,382.8Z" transform="translate(-79.21 -68.1)"/><path class="cls-18" d="M128.8,408.83v9c0,1.81-1.14,3.24-2.46,3.08-7.74-.95-14.13-.89-19.76-6.43-1.79-1.76-1.31-8.71.89-8.71h19.08C127.79,405.75,128.8,407.13,128.8,408.83Z" transform="translate(-79.21 -68.1)"/><path class="cls-17" d="M126.55,405.75H111.06a13.79,13.79,0,0,0,.3,2.17,18.64,18.64,0,0,0,8.9,12.28c1.94.24,4,.43,6.08.69,1.32.16,2.46-1.27,2.46-3.08v-9C128.8,407.13,127.79,405.75,126.55,405.75Z" transform="translate(-79.21 -68.1)"/><rect class="cls-18" x="181.87" y="314.71" width="24.26" height="18.78" rx="3.85"/><path class="cls-17" d="M264.93,382.8h16.51a13.58,13.58,0,0,1,.26,5.29,11.59,11.59,0,0,1-2,4.79A15.57,15.57,0,0,1,267.37,399a13.7,13.7,0,0,1-6.29-1.35v-11A3.85,3.85,0,0,1,264.93,382.8Z" transform="translate(-79.21 -68.1)"/><path class="cls-18" d="M261.76,408.83v9c0,1.81,1.13,3.24,2.45,3.08,7.75-.95,14.13-.89,19.76-6.43,1.79-1.76,1.32-8.71-.89-8.71H264C262.76,405.75,261.76,407.13,261.76,408.83Z" transform="translate(-79.21 -68.1)"/><path class="cls-17" d="M264,405.75h15.48a11.79,11.79,0,0,1-.3,2.17,18.64,18.64,0,0,1-8.9,12.28c-1.93.24-4,.43-6.08.69-1.32.16-2.45-1.27-2.45-3.08v-9C261.76,407.13,262.76,405.75,264,405.75Z" transform="translate(-79.21 -68.1)"/></svg>