<svg id="Layer_1" data-name="Layer 1" xmlns="http://www.w3.org/2000/svg" viewBox="0 0 2780.58 1283.36"><defs><style>.cls-1{fill:#342447;}.cls-2{fill:#583d71;}.cls-3{fill:#2c1c30;}.cls-4{fill:#487cef;}.cls-5{fill:#3f3049;}.cls-6{fill:#c1b5c2;}.cls-7{fill:#47315d;}.cls-8{fill:#a697a8;}.cls-9{fill:#3e5fa8;}.cls-10{fill:#a3bcff;}.cls-11{fill:#6d2236;}.cls-12{fill:#331c39;}.cls-13{fill:#443047;}.cls-14{fill:#fff;}.cls-15{fill:#f05727;}.cls-16{fill:#f5f3f6;}.cls-17{fill:#efeaec;}.cls-18{fill:#e74125;}.cls-19{fill:#e0dfe1;}.cls-20{fill:#4d3957;}.cls-21{fill:#636a76;}.cls-22{fill:#454c57;}.cls-23{fill:#8c9cb4;}.cls-24{fill:#575d68;}.cls-25{fill:#3c434c;}.cls-26{fill:#b2d1d0;opacity:0.39;}.cls-27{fill:#7a8dbf;}</style></defs><ellipse cx="1399.81" cy="1257.79" rx="1380.77" ry="25.56"/><path class="cls-1" d="M3837.91,1014.08v847.31H2631V998.77c0-61.57-50.37-111.94-111.94-111.94H3727.66c60.64,0,110.24,49.64,110.24,110.32v16.92Z" transform="translate(-1075.14 -886.83)"/><path class="cls-2" d="M2631,998.77v565.45A112.24,112.24,0,0,1,2519,1676.16H1929.11c-61.57,0-111.95-50.37-111.95-111.94V998.77c0-61.57,50.38-111.94,111.95-111.94H2519C2580.59,886.83,2631,937.2,2631,998.77Z" transform="translate(-1075.14 -886.83)"/><path class="cls-3" d="M2085.58,1935.22c0-49.12-12.81-94.28-34.26-130v-79.42H1927c-87.61,0-158.63,93.75-158.63,209.41s71,209.4,158.63,209.4h124.36V2065.2C2072.77,2029.49,2085.58,1984.33,2085.58,1935.22Z" transform="translate(-1075.14 -886.83)"/><path class="cls-4" d="M2606.49,1121.5v859.63H1095.08V1690.34a274.69,274.69,0,0,1,10.37-37.27c1-2.76,2-5.6,3.13-8.51,14.23-36.87,41.19-83.86,87.76-91.83.25-.06.51-.09.77-.13h186.21l241-390.28,76-40.82Z" transform="translate(-1075.14 -886.83)"/><path class="cls-4" d="M2606.49,1121.5v859.63H2206.11a273.15,273.15,0,0,0,3.84-45.92c0-110.3-64.6-200.68-146.58-208.79a117.28,117.28,0,0,0-12-.61c-87.6,0-158.63,93.75-158.63,209.4a273.15,273.15,0,0,0,3.84,45.92h-86V1690.34a254.61,254.61,0,0,1,6.59-25.73c1.11-3.61,2.37-7.48,3.79-11.54q1.44-4.14,3.13-8.51c14.22-36.87,41.18-83.86,87.75-91.83.26-.06.52-.09.78-.13h186.21l150.5-392.83,59.36-38.27Z" transform="translate(-1075.14 -886.83)"/><path class="cls-5" d="M2210,1935.22a273,273,0,0,1-3.84,45.9c-15.84,93.57-79.13,163.5-154.79,163.5s-139-69.93-154.79-163.5a273,273,0,0,1-3.84-45.9c0-115.66,71-209.41,158.63-209.41S2210,1819.56,2210,1935.22Z" transform="translate(-1075.14 -886.83)"/><ellipse class="cls-6" cx="976.19" cy="1048.39" rx="73.68" ry="97.27"/><rect class="cls-7" x="1510.78" y="127.16" width="45.05" height="967.15"/><ellipse class="cls-8" cx="976.19" cy="1048.39" rx="63.44" ry="83.75"/><ellipse class="cls-6" cx="976.19" cy="1048.39" rx="33.17" ry="43.78"/><ellipse class="cls-8" cx="976.19" cy="1048.39" rx="25.74" ry="33.97"/><rect class="cls-9" x="1166.8" y="1031.6" width="343.97" height="62.71"/><path class="cls-3" d="M2054.88,1713c-97.91,0-177.29,98.45-177.29,219.91v48.2h18.94a273,273,0,0,1-3.84-45.9c0-115.66,71-209.41,158.63-209.41S2210,1819.56,2210,1935.22a273,273,0,0,1-3.84,45.9h35.83v-62.7S2236.28,1713,2054.88,1713Z" transform="translate(-1075.14 -886.83)"/><rect class="cls-9" x="458.1" y="1002.47" width="352" height="91.83" rx="11.42"/><path class="cls-3" d="M3537.1,1981.12c-5.28,31.25-15.86,59.84-30.41,84.08v79.42H3382.31c-75.64,0-138.95-69.93-154.79-163.5Z" transform="translate(-1075.14 -886.83)"/><path class="cls-10" d="M1808.22,1889.3v91.82H1086.88a11.77,11.77,0,0,1-11.74-11.74V1901a11.77,11.77,0,0,1,11.74-11.74Z" transform="translate(-1075.14 -886.83)"/><path class="cls-4" d="M3855.72,1877.27v88a15.94,15.94,0,0,1-15.9,15.89H3697.3v-62.7s-.68-24.74-9.15-57h151.67A15.94,15.94,0,0,1,3855.72,1877.27Z" transform="translate(-1075.14 -886.83)"/><path class="cls-11" d="M1894.6,1675.93v62.16c-1.27,34-31.88,29.76-31.88,29.76H1095.08v-77.52a275.14,275.14,0,0,1,10.37-37.27c1-2.75,2-5.59,3.13-8.5H1864C1897.15,1644.56,1894.6,1675.93,1894.6,1675.93Z" transform="translate(-1075.14 -886.83)"/><path class="cls-10" d="M1911.83,1552.73c-46.57,8-73.53,55-87.75,91.83h-715.5c14.23-36.87,41.18-83.86,87.76-91.83Z" transform="translate(-1075.14 -886.83)"/><rect class="cls-12" x="142.79" y="899.12" width="463.96" height="85.42"/><rect class="cls-13" x="142.79" y="927.1" width="463.97" height="29.16"/><path class="cls-14" d="M1821,1653.06a276.23,276.23,0,0,0-10.38,37.27v67.32H1095.08v-67.32a275.14,275.14,0,0,1,10.37-37.27Z" transform="translate(-1075.14 -886.83)"/><rect class="cls-15" x="19.94" y="823" width="715.5" height="47.83"/><rect class="cls-16" x="122.66" y="766.23" width="497.42" height="104.59"/><path class="cls-17" d="M1885.24,1671.07v68.56a18.06,18.06,0,0,1-18,18h-56.66v-67.32a276.23,276.23,0,0,1,10.38-37.27h46.28A18.06,18.06,0,0,1,1885.24,1671.07Z" transform="translate(-1075.14 -886.83)"/><path class="cls-18" d="M1885.24,1709.83v29.8a18.06,18.06,0,0,1-18,18h-56.66v-47.82Z" transform="translate(-1075.14 -886.83)"/><rect class="cls-19" x="122.66" y="779.32" width="497.42" height="19.56"/><rect class="cls-19" x="122.66" y="808.57" width="497.42" height="19.56"/><rect class="cls-19" x="122.66" y="838.18" width="497.42" height="19.56"/><rect class="cls-19" x="298.02" y="766.23" width="137.05" height="104.59" rx="22.14"/><path class="cls-20" d="M2192.62,1160.76h-497.4s-48.47-4.25-68.88,36.56l-179.83,307.8s-7.18,13.6,11.5,16.15h609.78s21.1,2.55,27.05-10.2l126.69-325.66S2233.44,1160.76,2192.62,1160.76Z" transform="translate(-1075.14 -886.83)"/><path class="cls-21" d="M2105,1442.72l-3.2,8-18.42,46.19c-5.65,11.82-25.71,9.44-25.71,9.44h-63.95c-1.49-26.46,10-48.84,29.93-61.45,11.12-7,24.86-11,40.48-11a100.09,100.09,0,0,1,32.26,5.52Q2100.79,1440.86,2105,1442.72Z" transform="translate(-1075.14 -886.83)"/><path class="cls-21" d="M2203.8,1195.2l-33.33,83.54-57.84,145c-1.14-.52-2.29-1-3.44-1.51s-2.29-1-3.45-1.41-2-.8-3.08-1.17-2.07-.75-3.08-1.1-1.9-.64-2.85-.93l-.51-.17c-.77-.24-1.55-.48-2.35-.7a.28.28,0,0,0-.15,0l-1.32-.38a5.09,5.09,0,0,0-.67-.18c-.54-.17-1.11-.31-1.67-.46-.41-.12-.83-.22-1.25-.31s-1-.26-1.55-.38c-.8-.2-1.61-.38-2.4-.55-.13,0-.28-.06-.41-.09h0c-.14,0-.29-.06-.43-.09-.46-.11-.93-.2-1.4-.29l-.39-.08c-.9-.18-1.8-.34-2.7-.49s-1.59-.28-2.4-.39c-.59-.11-1.18-.19-1.76-.26s-.89-.13-1.35-.17-1.2-.16-1.79-.23-1.25-.15-1.87-.19a2.35,2.35,0,0,0-.45,0l-.61-.07h-.14c-.77-.06-1.53-.13-2.3-.17a1.85,1.85,0,0,0-.33,0l-1.16-.08h-.05c-.95-.07-1.92-.1-2.89-.13-1.14,0-2.28,0-3.43,0-.64,0-1.28,0-1.92,0-.44,0-.88,0-1.31,0-1,0-1.9.06-2.82.12-1.23.06-2.44.14-3.64.24l-2.74.29c-2.08.24-4.11.52-6.11.89-.61.1-1.21.22-1.83.34-.45.08-.91.17-1.35.27-.72.16-1.41.3-2.12.47-1.45.34-2.87.71-4.28,1.11l-1.77.52c-1.41.43-2.81.89-4.17,1.39s-2.71,1-4,1.56c-1.5.63-3,1.28-4.41,2-.59.27-1.18.56-1.75.86s-1.16.6-1.72.9c-.13.07-.25.13-.37.21-.56.3-1.11.61-1.64.93-1.1.62-2.17,1.26-3.21,1.94q-1,.63-2,1.29a77.65,77.65,0,0,0-6.35,4.8c-.52.44-1,.88-1.56,1.35s-1,.89-1.51,1.37-1,.9-1.42,1.34-.72.71-1,1.06c-.48.48-1,1-1.4,1.46-.63.65-1.22,1.31-1.81,2q-.3.38-.63.75c-.67.78-1.32,1.57-2,2.38-.43.54-.84,1.07-1.23,1.62s-.82,1.08-1.2,1.65c-.74,1-1.46,2.08-2.14,3.17-.51.81-1,1.62-1.49,2.45l-.58,1c-.41.7-.79,1.4-1.17,2.11s-.73,1.41-1.08,2.14l-.06.12c-.24.45-.45.91-.66,1.38s-.58,1.24-.84,1.88c-.58,1.26-1.1,2.56-1.57,3.86-.22.55-.43,1.1-.61,1.66-.08.22-.16.43-.23.65-.19.54-.37,1.1-.54,1.65q-.68,2-1.2,4c-.19.71-.37,1.41-.54,2.12s-.3,1.19-.42,1.81c0,.12,0,.22-.08.34q-.45,2-.78,4.14c-.13.72-.23,1.43-.32,2.16-.1.56-.17,1.13-.23,1.69,0,.28-.07.56-.1.85-.16,1.34-.29,2.7-.37,4.07,0,.74-.1,1.48-.13,2.23s-.07,1.5-.07,2.26q-.09,2.31,0,4.65c0,.64,0,1.28.06,1.92,0,.2,0,.41,0,.62.06,1.55.18,3.1.32,4.68H1478.23c-17.76-2.36-10.93-15-10.93-15l5.66-9.46,91.89-153.34,46.16-77,27.18-45.36a58.36,58.36,0,0,1,11.55-15.61c21.88-21,53.91-18.27,53.91-18.27h472.68C2215.12,1172.35,2203.8,1195.2,2203.8,1195.2Z" transform="translate(-1075.14 -886.83)"/><path class="cls-20" d="M2473.18,1506.56H2178.89l1.3-4,111.62-288.75,45.34-40.19h115.68s34.3,8,33.14,33.87l22.09,273.26S2513.87,1506,2473.18,1506.56Z" transform="translate(-1075.14 -886.83)"/><path class="cls-21" d="M2508.06,1480.69a19.27,19.27,0,0,1-8.77,19.62c-5.22,3.48-13.4,6.08-26.11,6.25H2178.89l1.31-4,43.45-112.41h0L2283,1236.63l8.84-22.87,45.34-40.2h115.68c15.73,1,27,4.28,35.09,8.44,21.43,11,20.42,28.58,20.42,28.58l-.13,120.81Z" transform="translate(-1075.14 -886.83)"/><path class="cls-22" d="M2359.47,1440.35l-20.23,66.21h-26.66l20.23-66.21a37.58,37.58,0,0,0,0-12.25c-2.64-15.66-15.6-27.06-33-27.06h-22.58c21.63,0,42.18-17.69,45.69-39.31l6.62-40.89c3.51-21.65-11.31-39.34-32.93-39.34h26.66c21.63,0,36.45,17.69,32.94,39.34l-6.63,40.89c-3.5,21.62-24.06,39.31-45.68,39.31h22.57c17.37,0,30.33,11.4,33,27.06A37,37,0,0,1,2359.47,1440.35Z" transform="translate(-1075.14 -886.83)"/><path class="cls-23" d="M1816.4,1223.85l-30.78,248.41s.52,23-36.1,23.5H1527.81v-72.94l113.13-193.22s20-36.53,48.15-36.53h103.84S1822.23,1200.38,1816.4,1223.85Z" transform="translate(-1075.14 -886.83)"/><path class="cls-22" d="M2059.25,1440.35,2039,1506.56h-26.67l20.24-66.21a37.58,37.58,0,0,0,0-12.25c-2.64-15.66-15.6-27.06-33-27.06h-22.57c21.62,0,42.18-17.69,45.69-39.31l6.62-40.89c3.51-21.65-11.31-39.34-32.94-39.34h26.67c21.62,0,36.45,17.69,32.94,39.34l-6.63,40.89c-3.5,21.62-24.06,39.31-45.68,39.31h22.57c17.36,0,30.32,11.4,33,27.06A37.58,37.58,0,0,1,2059.25,1440.35Z" transform="translate(-1075.14 -886.83)"/><path class="cls-24" d="M2032.59,1440.35l-20.24,66.21H1803.18l20.26-66.21a43.68,43.68,0,0,1,4-12.25c7.72-15.66,24.37-27.06,41.74-27.06h22.08c-21.63,0-36.45-17.69-33-39.31l6.63-40.89c3.51-21.65,24.07-39.34,45.69-39.34h85.86c21.63,0,36.45,17.69,32.94,39.34l-6.62,40.89c-3.51,21.62-24.07,39.31-45.69,39.31h22.57c17.37,0,30.33,11.4,33,27.06A37.58,37.58,0,0,1,2032.59,1440.35Z" transform="translate(-1075.14 -886.83)"/><path class="cls-25" d="M2112.62,1423.7l-7.59,19q-4.25-1.86-8.61-3.33a100.09,100.09,0,0,0-32.26-5.52c-15.62,0-29.36,4-40.48,11-20,12.61-31.42,35-29.93,61.45h-22.83c-.14-1.58-.26-3.13-.32-4.68,0-.21,0-.42,0-.61,0-.64,0-1.28-.07-1.92,0-1.57,0-3.11,0-4.66,0-.76,0-1.5.08-2.26s.08-1.5.13-2.23c.09-1.37.22-2.73.37-4.07,0-.29.06-.56.1-.85.07-.57.15-1.14.22-1.68.11-.73.21-1.45.33-2.17q.36-2.1.78-4.14a3.38,3.38,0,0,0,.08-.34c.13-.61.28-1.21.42-1.81s.35-1.41.53-2.11c.37-1.37.77-2.73,1.21-4.06q.26-.82.54-1.65c.07-.22.15-.43.23-.65.19-.56.4-1.11.61-1.66.48-1.3,1-2.59,1.56-3.86.28-.62.57-1.25.85-1.88.21-.47.43-.92.66-1.38a.67.67,0,0,1,.06-.12c.35-.73.72-1.43,1.08-2.14s.76-1.41,1.16-2.11l.59-1c.48-.83,1-1.64,1.49-2.45.69-1.07,1.41-2.14,2.14-3.17.39-.56.8-1.11,1.2-1.65s.81-1.08,1.23-1.61c.64-.81,1.29-1.61,1.95-2.39.23-.25.44-.5.64-.75.59-.66,1.18-1.31,1.8-2,.45-.49.93-1,1.41-1.46q.49-.52,1-1c.45-.45.94-.91,1.42-1.35s1-.93,1.51-1.37,1-.9,1.56-1.34a77.76,77.76,0,0,1,6.35-4.81q1-.66,2-1.29c1-.68,2.11-1.32,3.21-1.94.53-.31,1.08-.63,1.64-.93.12-.08.24-.14.37-.21.56-.3,1.13-.61,1.72-.9s1.16-.58,1.75-.86c1.43-.72,2.91-1.37,4.41-2,1.33-.55,2.67-1.08,4-1.57s2.76-1,4.17-1.38c.58-.19,1.17-.36,1.77-.53,1.41-.4,2.83-.77,4.28-1.11l2.11-.46c.45-.11.91-.2,1.36-.28l1.83-.34c2-.36,4-.65,6.11-.89l2.74-.28c1.2-.11,2.41-.19,3.64-.25q1.38-.07,2.82-.12l1.31,0c.64,0,1.28,0,1.92,0,1.15,0,2.29,0,3.43,0,1,0,1.94.07,2.89.13h.05l1.16.08a1.85,1.85,0,0,1,.33,0c.77,0,1.52.11,2.29.17l.15,0,.61.06a2.25,2.25,0,0,1,.44,0c.63.05,1.26.12,1.88.2s1.19.13,1.79.22.9.1,1.35.17,1.17.15,1.76.26c.81.12,1.6.25,2.4.39s1.8.31,2.7.5l.39.07,1.4.29.43.09h0v0a2.7,2.7,0,0,1,.41.07c.79.17,1.6.36,2.4.55.52.12,1,.24,1.55.38s.83.2,1.25.31,1.12.29,1.67.46c.22.05.45.11.67.18l1.32.38a.42.42,0,0,1,.15,0c.8.22,1.58.46,2.35.71a5.08,5.08,0,0,1,.51.17c.95.28,1.91.6,2.85.92s2,.72,3.08,1.1,2.06.77,3.07,1.17c1.17.46,2.31.93,3.46,1.41S2111.49,1423.17,2112.62,1423.7Z" transform="translate(-1075.14 -886.83)"/><path class="cls-20" d="M2508.21,1331.39l-.15,149.3s5.81,25.32-34.88,25.87H2178.89l1.31-4,85.43-221,26.18-67.74,45.34-40.2h115.68c15.73,1,27,4.28,35.09,8.44-.72-.93-1.5-1.87-2.33-2.79a42.67,42.67,0,0,0-6.17-5.65,40.13,40.13,0,0,0-19-7.71H2325.83l-47.61,45.35-26.17,70.3-83.78,225.06-4,10.74,321.7,4.17s35.71-2.32,37-26.55Z" transform="translate(-1075.14 -886.83)"/><path class="cls-24" d="M2332.81,1440.35l-20.23,66.21H2178.89l1.3-4,85.44-221h31c21.61,0,36.44,17.69,32.94,39.34l-6.63,40.88c-3.51,21.63-24.06,39.32-45.69,39.32h22.58c17.36,0,30.31,11.39,33,27.07A37.24,37.24,0,0,1,2332.81,1440.35Z" transform="translate(-1075.14 -886.83)"/><path class="cls-26" d="M2499.29,1500.31c-5.22,3.48-13.4,6.08-26.11,6.25h-61.32L2283,1236.63l8.84-22.87,45.34-40.19h6.12Z" transform="translate(-1075.14 -886.83)"/><polygon class="cls-26" points="657.53 619.53 574.6 619.53 489.72 441.76 535.87 364.76 657.53 619.53"/><path class="cls-26" d="M2053,1506.36H1800.51l-150.77-315.74c21.88-21,53.9-18.27,53.9-18.27h189.89L2013,1422.57l10.67,22.34Z" transform="translate(-1075.14 -886.83)"/><polygon class="cls-26" points="1044.54 285.52 1095.34 391.91 1037.49 536.87 1029.89 555.89 1026.7 563.9 1021.28 552.56 1009.32 527.5 1009.32 527.48 1009.3 527.48 893.78 285.52 1044.54 285.52"/><polygon class="cls-26" points="1204.12 619.73 1103.75 619.73 1105.06 615.68 1148.51 503.28 1204.12 619.73"/><path class="cls-20" d="M2275.13,1465.9a16.3,16.3,0,0,0-16.26-16.25H2244a16.3,16.3,0,0,0-16.26,16.25s-70.28,13.74-68.31,44.08h0a16.3,16.3,0,0,0,16.26,16.25h14.87a16.3,16.3,0,0,0,16.26-16.25h0S2278.29,1487.45,2275.13,1465.9Z" transform="translate(-1075.14 -886.83)"/><rect class="cls-27" x="1168.75" y="504.86" width="129.98" height="86.09" rx="27.82"/><rect class="cls-4" x="1147.61" y="504.86" width="129.98" height="86.09" rx="27.82"/><path class="cls-3" d="M3697.3,1918.43v62.7h-35.84a1.25,1.25,0,0,0,0-.19c.52-3,1-6.09,1.39-9.17a276.88,276.88,0,0,0-1.42-82.48,257.5,257.5,0,0,0-6.3-27.9c-22.62-79.23-80.56-135.58-148.48-135.58s-125.87,56.35-148.49,135.58a269,269,0,0,0-10.14,73.82,273.1,273.1,0,0,0,3.8,45.73l0,.19H3333v-48.21a267.3,267.3,0,0,1,9.6-71.53c23.92-86.35,90-148.38,167.68-148.38,118.45,0,162,87.59,177.92,148.38C3696.62,1893.68,3697.3,1918.43,3697.3,1918.43Z" transform="translate(-1075.14 -886.83)"/><path class="cls-5" d="M3665.31,1935.22a273,273,0,0,1-3.84,45.9c-15.84,93.57-79.13,163.5-154.79,163.5s-138.95-69.93-154.79-163.5a273,273,0,0,1-3.84-45.9c0-115.66,71-209.41,158.63-209.41S3665.31,1819.56,3665.31,1935.22Z" transform="translate(-1075.14 -886.83)"/><ellipse class="cls-6" cx="2431.55" cy="1048.39" rx="73.68" ry="97.27"/><ellipse class="cls-8" cx="2431.55" cy="1048.39" rx="63.44" ry="83.75"/><ellipse class="cls-6" cx="2431.55" cy="1048.39" rx="33.17" ry="43.78"/><ellipse class="cls-8" cx="2431.55" cy="1048.39" rx="25.74" ry="33.97"/><path class="cls-5" d="M1466,1981.12c-4.93,31.25-14.81,59.84-28.4,84.08v79.42h-116c-70.6,0-129.65-69.93-144.43-163.5Z" transform="translate(-1075.14 -886.83)"/><path class="cls-3" d="M1582.05,1981.12c-14.78,93.57-73.83,163.5-144.43,163.5s-129.64-69.93-144.43-163.5Z" transform="translate(-1075.14 -886.83)"/><path class="cls-5" d="M2940.49,1981.12c-4.93,31.25-14.81,59.84-28.4,84.08v79.42h-116c-70.6,0-129.65-69.93-144.43-163.5Z" transform="translate(-1075.14 -886.83)"/><path class="cls-3" d="M3056.52,1981.12c-14.78,93.57-73.83,163.5-144.43,163.5s-129.64-69.93-144.42-163.5Z" transform="translate(-1075.14 -886.83)"/><path class="cls-11" d="M2527.56,1541.33v11.4h-91.78v-11.4a2.64,2.64,0,0,1,2.63-2.63h86.52A2.63,2.63,0,0,1,2527.56,1541.33Z" transform="translate(-1075.14 -886.83)"/><path class="cls-5" d="M2527.56,1552.73v8.57a2.64,2.64,0,0,1-2.63,2.63h-86.52a2.65,2.65,0,0,1-2.63-2.63v-8.57Z" transform="translate(-1075.14 -886.83)"/><path class="cls-27" d="M2562.8,1591.75h0V1142.59H2307l-48.48,42.46-138.33,365.28-15.68,41.42-6.25,16.5-.29.77V1697l3.71.7c35.9,6.76,66.59,22.23,91.22,46,19.77,19.09,35.75,43.55,47.49,72.73,20.14,50,20.83,97.07,20.83,97.56l0,4.49H2562.8V1610.35h0Zm-9.14,317.59H2270.17a311.13,311.13,0,0,0-21.23-96.08c-12.2-30.41-28.89-56-49.6-76-25.09-24.26-56.13-40.34-92.28-47.79v-78.79l.12-.32,7.05-18.61,15.68-41.42,136.3-360,44.21-38.69h172v0h71.19v757.66Z" transform="translate(-1075.14 -886.83)"/><path class="cls-20" d="M2523,1199.12v295.8l-14.89-14.23.15-149.3.13-120.81s1-17.53-20.42-28.58c-8.08-4.16-19.36-7.4-35.09-8.44H2337.15l-11.32-7.71h134.63C2521.84,1165.85,2523,1199.12,2523,1199.12Z" transform="translate(-1075.14 -886.83)"/><rect class="cls-9" x="1510.78" y="974.56" width="45.04" height="119.56"/><path class="cls-4" d="M3342.55,1861.39a267.3,267.3,0,0,0-9.6,71.53v48H2631V1861.39Z" transform="translate(-1075.14 -886.83)"/><path class="cls-15" d="M3814.39,1751.61v12.09a8.47,8.47,0,0,1-8.44,8.44H3706.8a8.46,8.46,0,0,1-8.44-8.44v-12.09a8.46,8.46,0,0,1,8.44-8.44H3806A8.47,8.47,0,0,1,3814.39,1751.61Z" transform="translate(-1075.14 -886.83)"/><path class="cls-14" d="M3756.37,1743.17v29H3706.8a8.46,8.46,0,0,1-8.44-8.44v-12.09a8.46,8.46,0,0,1,8.44-8.44Z" transform="translate(-1075.14 -886.83)"/></svg>