<svg width="354" height="60" viewBox="0 0 354 60" fill="none" xmlns="http://www.w3.org/2000/svg">
<path d="M72.88 24.96C72.88 26.5867 72.5067 28.08 71.76 29.44C71.0133 30.7733 69.8667 31.8533 68.32 32.68C66.7733 33.5067 64.8533 33.92 62.56 33.92H58.32V44H51.48V15.92H62.56C64.8 15.92 66.6933 16.3067 68.24 17.08C69.7867 17.8533 70.9467 18.92 71.72 20.28C72.4933 21.64 72.88 23.2 72.88 24.96ZM62.04 28.48C63.3467 28.48 64.32 28.1733 64.96 27.56C65.6 26.9467 65.92 26.08 65.92 24.96C65.92 23.84 65.6 22.9733 64.96 22.36C64.32 21.7467 63.3467 21.44 62.04 21.44H58.32V28.48H62.04ZM79.8809 19.36C78.6809 19.36 77.6943 19.0133 76.9209 18.32C76.1743 17.6 75.8009 16.72 75.8009 15.68C75.8009 14.6133 76.1743 13.7333 76.9209 13.04C77.6943 12.32 78.6809 11.96 79.8809 11.96C81.0543 11.96 82.0143 12.32 82.7609 13.04C83.5343 13.7333 83.9209 14.6133 83.9209 15.68C83.9209 16.72 83.5343 17.6 82.7609 18.32C82.0143 19.0133 81.0543 19.36 79.8809 19.36ZM83.2809 21.68V44H76.4409V21.68H83.2809ZM95.0778 14.4V44H88.2378V14.4H95.0778ZM98.6747 32.8C98.6747 30.5067 99.1014 28.4933 99.9547 26.76C100.835 25.0267 102.021 23.6933 103.515 22.76C105.008 21.8267 106.675 21.36 108.515 21.36C110.088 21.36 111.461 21.68 112.635 22.32C113.835 22.96 114.755 23.8 115.395 24.84V21.68H122.235V44H115.395V40.84C114.728 41.88 113.795 42.72 112.595 43.36C111.421 44 110.048 44.32 108.475 44.32C106.661 44.32 105.008 43.8533 103.515 42.92C102.021 41.96 100.835 40.6133 99.9547 38.88C99.1014 37.12 98.6747 35.0933 98.6747 32.8ZM115.395 32.84C115.395 31.1333 114.915 29.7867 113.955 28.8C113.021 27.8133 111.875 27.32 110.515 27.32C109.155 27.32 107.995 27.8133 107.035 28.8C106.101 29.76 105.635 31.0933 105.635 32.8C105.635 34.5067 106.101 35.8667 107.035 36.88C107.995 37.8667 109.155 38.36 110.515 38.36C111.875 38.36 113.021 37.8667 113.955 36.88C114.915 35.8933 115.395 34.5467 115.395 32.84ZM134.023 25.4C134.823 24.1733 135.823 23.2133 137.023 22.52C138.223 21.8 139.556 21.44 141.023 21.44V28.68H139.143C137.436 28.68 136.156 29.0533 135.303 29.8C134.45 30.52 134.023 31.8 134.023 33.64V44H127.183V21.68H134.023V25.4ZM172.969 15.92V21.4H165.529V44H158.689V21.4H151.249V15.92H172.969ZM183.242 25.4C184.042 24.1733 185.042 23.2133 186.242 22.52C187.442 21.8 188.775 21.44 190.242 21.44V28.68H188.362C186.655 28.68 185.375 29.0533 184.522 29.8C183.669 30.52 183.242 31.8 183.242 33.64V44H176.402V21.68H183.242V25.4ZM192.151 32.8C192.151 30.5067 192.578 28.4933 193.431 26.76C194.311 25.0267 195.498 23.6933 196.991 22.76C198.485 21.8267 200.151 21.36 201.991 21.36C203.565 21.36 204.938 21.68 206.111 22.32C207.311 22.96 208.231 23.8 208.871 24.84V21.68H215.711V44H208.871V40.84C208.205 41.88 207.271 42.72 206.071 43.36C204.898 44 203.525 44.32 201.951 44.32C200.138 44.32 198.485 43.8533 196.991 42.92C195.498 41.96 194.311 40.6133 193.431 38.88C192.578 37.12 192.151 35.0933 192.151 32.8ZM208.871 32.84C208.871 31.1333 208.391 29.7867 207.431 28.8C206.498 27.8133 205.351 27.32 203.991 27.32C202.631 27.32 201.471 27.8133 200.511 28.8C199.578 29.76 199.111 31.0933 199.111 32.8C199.111 34.5067 199.578 35.8667 200.511 36.88C201.471 37.8667 202.631 38.36 203.991 38.36C205.351 38.36 206.498 37.8667 207.431 36.88C208.391 35.8933 208.871 34.5467 208.871 32.84ZM234.26 21.44C236.873 21.44 238.953 22.2933 240.5 24C242.073 25.68 242.86 28 242.86 30.96V44H236.06V31.88C236.06 30.3867 235.673 29.2267 234.9 28.4C234.126 27.5733 233.086 27.16 231.78 27.16C230.473 27.16 229.433 27.5733 228.66 28.4C227.886 29.2267 227.5 30.3867 227.5 31.88V44H220.66V21.68H227.5V24.64C228.193 23.6533 229.126 22.88 230.3 22.32C231.473 21.7333 232.793 21.44 234.26 21.44ZM256.693 44.32C254.746 44.32 253.013 43.9867 251.493 43.32C249.973 42.6533 248.773 41.7467 247.893 40.6C247.013 39.4267 246.519 38.12 246.413 36.68H253.173C253.253 37.4533 253.613 38.08 254.253 38.56C254.893 39.04 255.679 39.28 256.613 39.28C257.466 39.28 258.119 39.12 258.573 38.8C259.053 38.4533 259.293 38.0133 259.293 37.48C259.293 36.84 258.959 36.3733 258.293 36.08C257.626 35.76 256.546 35.4133 255.053 35.04C253.453 34.6667 252.119 34.28 251.053 33.88C249.986 33.4533 249.066 32.8 248.293 31.92C247.519 31.0133 247.133 29.8 247.133 28.28C247.133 27 247.479 25.84 248.173 24.8C248.893 23.7333 249.933 22.8933 251.293 22.28C252.679 21.6667 254.319 21.36 256.213 21.36C259.013 21.36 261.213 22.0533 262.813 23.44C264.439 24.8267 265.373 26.6667 265.613 28.96H259.293C259.186 28.1867 258.839 27.5733 258.253 27.12C257.693 26.6667 256.946 26.44 256.013 26.44C255.213 26.44 254.599 26.6 254.173 26.92C253.746 27.2133 253.533 27.6267 253.533 28.16C253.533 28.8 253.866 29.28 254.533 29.6C255.226 29.92 256.293 30.24 257.733 30.56C259.386 30.9867 260.733 31.4133 261.773 31.84C262.813 32.24 263.719 32.9067 264.493 33.84C265.293 34.7467 265.706 35.9733 265.733 37.52C265.733 38.8267 265.359 40 264.613 41.04C263.893 42.0533 262.839 42.8533 261.453 43.44C260.093 44.0267 258.506 44.32 256.693 44.32ZM276.758 24.84C277.424 23.8 278.344 22.96 279.518 22.32C280.691 21.68 282.064 21.36 283.638 21.36C285.478 21.36 287.144 21.8267 288.638 22.76C290.131 23.6933 291.304 25.0267 292.158 26.76C293.038 28.4933 293.478 30.5067 293.478 32.8C293.478 35.0933 293.038 37.12 292.158 38.88C291.304 40.6133 290.131 41.96 288.638 42.92C287.144 43.8533 285.478 44.32 283.638 44.32C282.091 44.32 280.718 44 279.518 43.36C278.344 42.72 277.424 41.8933 276.758 40.88V54.64H269.918V21.68H276.758V24.84ZM286.518 32.8C286.518 31.0933 286.038 29.76 285.078 28.8C284.144 27.8133 282.984 27.32 281.598 27.32C280.238 27.32 279.078 27.8133 278.118 28.8C277.184 29.7867 276.718 31.1333 276.718 32.84C276.718 34.5467 277.184 35.8933 278.118 36.88C279.078 37.8667 280.238 38.36 281.598 38.36C282.958 38.36 284.118 37.8667 285.078 36.88C286.038 35.8667 286.518 34.5067 286.518 32.8ZM307.226 44.32C305.039 44.32 303.066 43.8533 301.306 42.92C299.573 41.9867 298.199 40.6533 297.186 38.92C296.199 37.1867 295.706 35.16 295.706 32.84C295.706 30.5467 296.213 28.5333 297.226 26.8C298.239 25.04 299.626 23.6933 301.386 22.76C303.146 21.8267 305.119 21.36 307.306 21.36C309.493 21.36 311.466 21.8267 313.226 22.76C314.986 23.6933 316.373 25.04 317.386 26.8C318.399 28.5333 318.906 30.5467 318.906 32.84C318.906 35.1333 318.386 37.16 317.346 38.92C316.333 40.6533 314.933 41.9867 313.146 42.92C311.386 43.8533 309.413 44.32 307.226 44.32ZM307.226 38.4C308.533 38.4 309.639 37.92 310.546 36.96C311.479 36 311.946 34.6267 311.946 32.84C311.946 31.0533 311.493 29.68 310.586 28.72C309.706 27.76 308.613 27.28 307.306 27.28C305.973 27.28 304.866 27.76 303.986 28.72C303.106 29.6533 302.666 31.0267 302.666 32.84C302.666 34.6267 303.093 36 303.946 36.96C304.826 37.92 305.919 38.4 307.226 38.4ZM329.375 25.4C330.175 24.1733 331.175 23.2133 332.375 22.52C333.575 21.8 334.908 21.44 336.375 21.44V28.68H334.495C332.788 28.68 331.508 29.0533 330.655 29.8C329.801 30.52 329.375 31.8 329.375 33.64V44H322.535V21.68H329.375V25.4ZM352.084 38.2V44H348.604C346.124 44 344.191 43.4 342.804 42.2C341.417 40.9733 340.724 38.9867 340.724 36.24V27.36H338.004V21.68H340.724V16.24H347.564V21.68H352.044V27.36H347.564V36.32C347.564 36.9867 347.724 37.4667 348.044 37.76C348.364 38.0533 348.897 38.2 349.644 38.2H352.084Z" fill="url(#paint0_linear_225_14190)"/>
<path d="M2.97034 19.0098V29.1088L11.2871 24.3563L2.97034 19.0098Z" fill="url(#paint1_linear_225_14190)"/>
<path d="M1.78223 33.8614V51.6832L15.4455 60L16.0396 34.4554L12 28L1.78223 33.8614Z" fill="url(#paint2_linear_225_14190)"/>
<path d="M19.0099 44.5545V22.5743L0 9.50495L14.2574 0L33.8614 11.2871V36.2376L19.0099 44.5545Z" fill="url(#paint3_linear_225_14190)"/>
<path d="M12.0625 24.5003C12.0629 24.6594 12.0221 24.816 11.944 24.9547C11.866 25.0934 11.7534 25.2096 11.6172 25.2919L3.175 30.4563C3.03267 30.5435 2.86965 30.5911 2.70278 30.5942C2.53591 30.5973 2.37124 30.5557 2.22578 30.4739C2.08171 30.3934 1.96169 30.2759 1.87806 30.1336C1.79444 29.9912 1.75024 29.8292 1.75 29.6642V19.3364C1.75024 19.1714 1.79444 19.0093 1.87806 18.867C1.96169 18.7247 2.08171 18.6072 2.22578 18.5267C2.37124 18.4448 2.53591 18.4033 2.70278 18.4064C2.86965 18.4095 3.03267 18.4571 3.175 18.5442L11.6172 23.7087C11.7534 23.791 11.866 23.9072 11.944 24.0459C12.0221 24.1846 12.0629 24.3411 12.0625 24.5003Z" fill="black"/>
<defs>
<linearGradient id="paint0_linear_225_14190" x1="201.5" y1="-3.95251e-05" x2="201.5" y2="60" gradientUnits="userSpaceOnUse">
<stop stop-color="#162F6F"/>
<stop offset="1" stop-color="#00D1FF"/>
</linearGradient>
<linearGradient id="paint1_linear_225_14190" x1="16.9307" y1="-0.000137308" x2="16.9307" y2="59.9999" gradientUnits="userSpaceOnUse">
<stop stop-color="#162F6F"/>
<stop offset="1" stop-color="#00D1FF"/>
</linearGradient>
<linearGradient id="paint2_linear_225_14190" x1="16.9307" y1="1.3411e-06" x2="16.9307" y2="60" gradientUnits="userSpaceOnUse">
<stop stop-color="#162F6F"/>
<stop offset="1" stop-color="#00D1FF"/>
</linearGradient>
<linearGradient id="paint3_linear_225_14190" x1="16.9307" y1="0" x2="16.9307" y2="60" gradientUnits="userSpaceOnUse">
<stop stop-color="#162F6F"/>
<stop offset="1" stop-color="#00D1FF"/>
</linearGradient>
</defs>
</svg>
