<svg width="660" height="366" viewBox="0 0 660 366" fill="none" xmlns="http://www.w3.org/2000/svg">
<g clip-path="url(#clip0_180_62)">
<path fill-rule="evenodd" clip-rule="evenodd" d="M639.794 263.295L626.517 264.398L597.581 266.338C598.381 269.995 598.896 273.708 599.122 277.444C600.814 305.103 586.814 328.471 567.86 329.63C566.423 329.718 543.855 330.287 542.443 330.123C527.306 328.344 514.301 312.288 510.371 290.938L495.998 291.005C476.356 302.065 478.409 304.334 457.803 297.82C450.269 297.178 448.517 297.185 445.195 293L439.707 290.25L429.549 290.431C426.611 310.377 414.297 325.588 398.696 326.542C397.268 326.629 374.694 327.248 373.292 327.094C363.611 326.053 354.795 319.509 348.741 309.65C347.592 339.997 330.258 364.38 307.541 365.77C305.664 365.885 276.158 366.687 274.323 366.499C255.716 364.501 239.623 346.921 233.586 322.905L220.076 319.723L187.834 320.994L183.396 317.078L182.159 317.154C177.912 337 165.035 351.693 148.955 352.677C147.368 352.774 122.564 353.459 121.021 353.293C104.643 351.53 90.5836 335.428 86.1262 313.82L19.5455 313.714C14.5359 313.71 12.1098 311.554 11.9319 306.516C11.7806 302.404 11.6324 298.289 11.4873 294.17L7.11177 285.531C5.93684 283.493 5.32185 281.18 5.32919 278.827C4.90185 271.84 4.47451 264.853 4.04717 257.866C3.63509 251.129 8.68538 248.686 14.617 248.203L16.0044 248.118C14.6835 247.884 13.4838 247.201 12.6077 246.185C11.7315 245.169 11.2326 243.882 11.1949 242.541L11.1876 242.422C10.6178 230.594 10.0516 218.77 9.4889 206.949C9.46335 205.879 9.67616 204.816 10.1119 203.838C10.5477 202.86 11.1955 201.992 12.0084 201.295C30.4773 145.674 67.0059 94.7385 110.18 55.6399C119.226 47.4423 128.548 41.7927 139.441 36.4277C158.893 26.8523 180.129 19.913 201.005 14.1377C208.29 12.1359 215.609 10.259 222.962 8.50677C236.07 5.32175 249.56 3.99417 263.036 4.56296C290.811 5.75958 318.536 7.93111 346.214 10.4962C353.388 11.1694 357.567 14.2902 360.134 21.046C377.803 67.504 387.16 116.644 391.892 165.998L639.479 168.047L642.907 168.067L643.117 171.501C643.266 173.936 643.414 176.362 643.563 178.797L643.768 182.151L641.017 182.55L641.474 190.016L643.374 193.076L643.885 193.886L643.943 194.834L645.409 224.7L645.616 228.094L642.236 228.521L638.985 228.93C639.315 240.382 639.593 251.816 639.915 263.298" fill="black"/>
<path fill-rule="evenodd" clip-rule="evenodd" d="M669.1 328.828L363.561 359.969L437.9 358.498L160.082 376.192L203.407 366.268L36.6979 353.522L345.88 325.935L538.341 322.84L562.888 323.853L581.979 324.92L669.1 328.828Z" fill="black"/>
<path fill-rule="evenodd" clip-rule="evenodd" d="M305.269 266.063C321.08 265.096 334.345 281.316 334.888 302.322C335.432 323.328 323.045 341.117 307.264 342.083C291.484 343.048 278.189 326.829 277.645 305.823C277.102 284.817 289.479 267.028 305.269 266.063Z" fill="#B3B3B3"/>
<path fill-rule="evenodd" clip-rule="evenodd" d="M305.339 269.004C319.932 268.111 332.169 283.092 332.672 302.458C333.176 321.823 321.747 338.241 307.154 339.134C292.561 340.026 280.334 325.055 279.881 305.686C279.428 286.318 290.796 269.893 305.389 269.001" fill="black"/>
<path fill-rule="evenodd" clip-rule="evenodd" d="M305.785 270.56C319.759 269.705 331.404 284.021 331.884 302.506C332.363 320.991 321.439 336.657 307.505 337.509C293.571 338.362 281.886 324.048 281.407 305.573C280.928 287.098 291.811 271.414 305.785 270.56Z" fill="#666666"/>
<path fill-rule="evenodd" clip-rule="evenodd" d="M304.051 271.537C317.716 270.701 329.167 284.628 329.628 302.643C330.089 320.659 319.381 335.931 305.717 336.767C292.052 337.603 280.61 323.675 280.15 305.67C279.69 287.664 290.387 272.373 304.051 271.537Z" fill="black"/>
<path fill-rule="evenodd" clip-rule="evenodd" d="M304.814 273.033C318.219 272.213 329.429 285.464 329.848 302.63C330.267 319.797 319.766 334.365 306.341 335.186C292.917 336.007 281.737 322.755 281.319 305.598C280.9 288.442 291.399 273.854 304.814 273.033Z" fill="#666666"/>
<path fill-rule="evenodd" clip-rule="evenodd" d="M290.074 329.999C284.235 323.213 280.859 314.654 280.494 305.709C280.148 291.704 287.128 279.204 296.134 273.133C296.909 272.986 297.693 272.888 298.48 272.84C311.077 272.069 321.631 284.748 322.044 301.174C322.458 317.599 312.58 331.528 299.983 332.299C296.528 332.501 293.087 331.703 290.074 329.999Z" fill="black"/>
<path fill-rule="evenodd" clip-rule="evenodd" d="M290.438 328.745C284.833 322.281 281.591 314.103 281.245 305.553C280.909 292.189 287.622 280.247 296.285 274.447C297.03 274.301 297.783 274.205 298.541 274.159C310.639 273.419 320.776 285.522 321.165 301.208C321.553 316.894 312.059 330.218 299.961 330.958C296.643 331.15 293.339 330.389 290.44 328.765" fill="#CCCCCC"/>
<path fill-rule="evenodd" clip-rule="evenodd" d="M289.469 327.972C284.036 321.723 280.891 313.81 280.553 305.535C280.233 292.61 286.482 281.588 294.885 275.975C295.626 275.518 296.463 275.237 297.33 275.154C309.068 274.436 318.892 286.158 319.268 301.324C319.645 316.489 310.434 329.365 298.695 330.083C295.482 330.272 292.281 329.54 289.469 327.972Z" fill="black"/>
<path fill-rule="evenodd" clip-rule="evenodd" d="M302.549 331.501L307.606 330.47C301.497 335.753 314.213 333.172 316.772 331.773C315.688 333.372 313.304 333.878 311.203 334.578L306.935 335.56L300.426 335.438L294.091 332.609L292.522 330.701L296.746 330.974L302.547 331.471" fill="black"/>
<path fill-rule="evenodd" clip-rule="evenodd" d="M322.679 282.39C319.888 279.836 316.211 279.67 315.809 281.628C310.986 277.785 310.831 277.054 304.674 274.505L301.056 273.343L304.469 272.133L310.801 272.797L318.952 277.308C320.428 278.817 321.683 280.528 322.679 282.39Z" fill="black"/>
<path fill-rule="evenodd" clip-rule="evenodd" d="M288.918 281.439C290.507 279.057 292.573 277.03 294.986 275.488C296.161 282.589 306.25 283.736 309.819 279.179C311.725 280.503 313.275 282.277 314.332 284.343C312.871 290.594 313.138 297.581 318.838 302.312C319.187 302.611 317.478 303.838 317.876 304.114C317.03 306.66 318.499 307.422 317.603 309.971C317.344 309.987 317.974 310.8 317.717 310.856C311.777 312.011 308.679 318.863 310.044 324.149C310.189 324.712 308.034 324.032 308.256 324.549C305.566 326.607 306.666 326.4 303.844 327.444C303.977 326.835 302.623 328.771 302.61 328.241C302.482 321.065 289.902 321.444 289.701 327.497C287.735 325.162 286.166 322.52 285.055 319.677C286.237 313.944 285.632 308.971 281.618 304.268C281.629 301.044 281.939 297.829 282.543 294.663C287.798 292.128 290.283 289.18 288.918 281.439Z" fill="#CCCCCC"/>
<path fill-rule="evenodd" clip-rule="evenodd" d="M284.979 319.752C286.605 312.429 286.177 310.842 283.816 304.003C294.616 303.192 305.101 301.479 315.902 300.668C316.778 301.461 317.825 302.041 318.961 302.365C319.121 302.355 318.995 302.914 319.128 302.965C318.672 305.999 318.238 307.909 317.792 310.932C317.549 310.887 317.626 311.493 317.394 311.467C314.207 311.121 311.99 313.05 310.703 315.263C309.948 316.637 309.506 318.161 309.409 319.726C309.313 321.291 309.564 322.857 310.145 324.314C309.738 324.88 309.053 325.142 308.658 325.717C306.923 326.675 305.466 327.916 303.733 328.904L301.986 329.341C303.227 324.066 299.321 322.621 296.415 322.448C293.862 322.304 291.261 323.525 290.366 327.227L289.578 328.277C287.694 325.967 285.809 323.648 284.975 319.682" fill="black"/>
<path fill-rule="evenodd" clip-rule="evenodd" d="M299.007 286.032C305.575 285.63 311.338 292.391 311.872 301.125C312.406 309.858 307.51 317.271 300.942 317.673C294.374 318.075 288.612 311.324 288.077 302.58C287.542 293.837 292.429 286.434 299.007 286.032Z" fill="black"/>
<path fill-rule="evenodd" clip-rule="evenodd" d="M299.076 287.16C305.174 286.787 310.527 293.062 311.024 301.177C311.52 309.292 309.46 300.992 303.351 301.366C295.387 299.749 290.654 306.711 290.014 301.66C289.982 304.908 290.111 307.004 292.859 312.797C290.515 309.865 289.14 306.277 288.925 302.528C288.429 294.414 292.967 287.534 299.076 287.16Z" fill="#CCCCCC"/>
<path fill-rule="evenodd" clip-rule="evenodd" d="M299.138 288.168C304.747 287.825 309.678 293.595 310.135 301.061C310.298 303.726 310.153 304.466 309.664 304.336C309.732 303.452 309.725 302.565 309.642 301.682C309.186 294.216 304.264 288.446 298.645 288.79C297.454 288.89 296.296 289.234 295.243 289.8C294.191 290.366 293.265 291.142 292.524 292.079C293.266 290.976 294.244 290.053 295.389 289.376C296.533 288.7 297.814 288.287 299.138 288.168Z" fill="black"/>
<path fill-rule="evenodd" clip-rule="evenodd" d="M305.662 293.931C308.796 293.739 311.547 296.957 311.803 301.129C312.058 305.301 309.719 308.841 306.585 309.032C306.376 309.045 300.292 309.337 300.091 309.319C297.212 309.095 294.79 306.027 294.551 302.124C294.312 298.221 296.25 295.007 298.975 294.35C299.234 294.334 305.383 293.958 305.662 293.941" fill="black"/>
<path fill-rule="evenodd" clip-rule="evenodd" d="M305.659 294.382C308.723 294.194 311.375 297.258 311.624 301.33C311.873 305.403 308.276 297.528 305.202 297.716C304.353 297.768 296.898 297.582 296.634 298.019C294.711 301.143 296.043 305.71 296.809 307.106C295.789 305.707 295.202 304.039 295.123 302.31C294.896 298.587 296.56 295.489 299.223 294.815C299.473 294.8 305.392 294.438 305.661 294.422" fill="#CCCCCC"/>
<path fill-rule="evenodd" clip-rule="evenodd" d="M305.661 293.93C308.795 293.739 311.547 296.957 311.802 301.129C312.057 305.301 309.719 308.841 306.585 309.032C303.451 309.224 300.699 305.996 300.443 301.824C300.188 297.652 302.517 294.123 305.661 293.93Z" fill="black"/>
<path fill-rule="evenodd" clip-rule="evenodd" d="M305.711 294.739C308.506 294.568 310.955 297.424 311.184 301.167C311.412 304.91 309.33 308.043 306.535 308.214C303.74 308.385 301.281 305.53 301.052 301.787C300.824 298.044 302.906 294.911 305.711 294.739Z" fill="#CCCCCC"/>
<path fill-rule="evenodd" clip-rule="evenodd" d="M305.737 295.168C308.352 295.008 310.651 297.703 310.864 301.187C311.077 304.67 309.124 307.625 306.509 307.785C303.894 307.945 301.585 305.251 301.372 301.767C301.159 298.284 303.112 295.329 305.737 295.168Z" fill="black"/>
<path fill-rule="evenodd" clip-rule="evenodd" d="M305.734 295.109C308.159 294.96 310.285 297.455 310.482 300.679C310.68 303.903 308.795 300.281 306.37 300.43C303.944 300.578 301.886 304.441 301.689 301.217C301.492 297.993 303.328 295.256 305.734 295.109Z" fill="#CCCCCC"/>
<path fill-rule="evenodd" clip-rule="evenodd" d="M569.587 255.647C579.767 255.024 588.451 267.758 588.968 284.076C589.486 300.395 581.661 314.149 571.47 314.772C561.279 315.395 552.605 302.661 552.087 286.332C551.569 270.003 559.396 256.27 569.587 255.647Z" fill="#B3B3B3"/>
<path fill-rule="evenodd" clip-rule="evenodd" d="M569.656 257.937C579.059 257.362 587.061 269.105 587.541 284.164C588.021 299.223 580.802 311.907 571.4 312.482C561.997 313.057 553.995 301.314 553.515 286.245C553.034 271.177 560.264 258.512 569.656 257.937Z" fill="black"/>
<path fill-rule="evenodd" clip-rule="evenodd" d="M569.951 259.151C578.934 258.602 586.573 269.816 587.029 284.155C587.486 298.494 580.632 310.595 571.648 311.144C562.665 311.694 555.026 300.479 554.57 286.14C554.114 271.801 560.968 259.7 569.951 259.151Z" fill="#666666"/>
<path fill-rule="evenodd" clip-rule="evenodd" d="M568.844 259.89C577.648 259.351 585.139 270.275 585.585 284.283C586.031 298.292 579.258 310.088 570.455 310.626C561.651 311.165 554.161 300.252 553.714 286.233C553.268 272.214 560.041 260.428 568.844 259.89Z" fill="black"/>
<path fill-rule="evenodd" clip-rule="evenodd" d="M569.357 261.061C577.981 260.534 585.309 270.926 585.724 284.275C586.14 297.625 579.473 308.853 570.839 309.381C562.205 309.909 554.887 299.516 554.472 286.167C554.056 272.817 560.722 261.569 569.355 261.041" fill="#666666"/>
<path fill-rule="evenodd" clip-rule="evenodd" d="M560.317 305.236C556.405 299.662 554.193 293.074 553.947 286.269C553.602 275.39 558 265.713 563.757 261.073C564.253 260.959 564.758 260.885 565.266 260.851C573.381 260.354 580.282 270.312 580.652 283.083C581.023 295.854 574.808 306.613 566.693 307.11C564.408 307.223 562.151 306.564 560.287 305.237" fill="black"/>
<path fill-rule="evenodd" clip-rule="evenodd" d="M560.538 304.27C556.784 298.955 554.659 292.662 554.421 286.16C554.096 275.76 558.32 266.525 563.849 262.089C564.326 261.98 564.811 261.91 565.299 261.88C573.095 261.404 579.727 270.906 580.112 283.096C580.497 295.285 574.474 305.572 566.678 306.049C564.497 306.149 562.345 305.523 560.558 304.269" fill="#CCCCCC"/>
<path fill-rule="evenodd" clip-rule="evenodd" d="M559.909 303.657C556.27 298.519 554.209 292.43 553.979 286.137C553.664 276.077 557.602 267.561 562.969 263.265C563.431 262.924 563.974 262.711 564.545 262.648C572.1 262.186 578.534 271.38 578.894 283.17C579.255 294.96 573.431 304.914 565.875 305.376C563.751 305.481 561.652 304.876 559.909 303.657Z" fill="black"/>
<path fill-rule="evenodd" clip-rule="evenodd" d="M568.37 306.526L571.62 305.766C567.721 309.832 575.899 307.919 577.538 306.857C576.852 308.091 575.322 308.466 573.971 308.989L571.231 309.718L567.034 309.574L562.889 307.322L561.867 305.852L564.587 306.096L568.33 306.529" fill="black"/>
<path fill-rule="evenodd" clip-rule="evenodd" d="M580.942 268.488C579.115 266.475 576.801 266.316 576.504 267.837C573.313 264.817 573.278 264.238 569.276 262.198L566.935 261.269L569.114 260.375L573.156 260.939L578.454 264.502C579.432 265.723 580.252 267.063 580.892 268.491" fill="black"/>
<path fill-rule="evenodd" clip-rule="evenodd" d="M559.178 267.464C560.129 265.686 561.444 264.127 563.036 262.89C563.856 268.421 570.357 269.396 572.627 265.88C573.911 266.987 574.921 268.376 575.58 269.938C574.684 274.781 574.936 280.216 578.621 283.948C578.855 284.174 577.761 285.123 578.015 285.338C577.464 287.315 578.453 287.916 577.893 289.894C577.723 289.904 578.143 290.54 577.935 290.582C574.11 291.438 572.18 296.735 573.096 300.897C573.193 301.342 571.786 300.787 571.952 301.198C570.235 302.775 570.947 302.622 569.079 303.377C569.16 302.891 568.302 304.426 568.294 303.976C568.143 298.395 560.05 298.589 559.967 303.293C558.65 301.414 557.619 299.35 556.908 297.168C557.638 292.726 557.191 288.856 554.57 285.159C554.558 282.663 554.741 280.169 555.116 277.702C558.484 275.772 560.058 273.492 559.117 267.438" fill="#CCCCCC"/>
<path fill-rule="evenodd" clip-rule="evenodd" d="M556.94 297.206C557.935 291.525 557.649 290.29 556.071 284.957C563.05 284.41 569.764 283.117 576.717 282.622C577.263 283.219 577.944 283.679 578.702 283.963C578.802 283.957 578.728 284.392 578.811 284.427C578.554 286.778 578.285 288.277 578.017 290.617C577.864 290.577 577.914 291.055 577.771 291.023C575.75 290.736 574.299 292.237 573.491 293.93C572.521 296.155 572.417 298.663 573.2 300.961C572.946 301.397 572.507 301.594 572.262 302.02C571.156 302.759 570.223 303.728 569.116 304.467L567.993 304.786C568.747 300.732 566.219 299.534 564.347 299.388C562.695 299.249 561.029 300.182 560.493 303.05C560.32 303.331 560.157 303.612 559.995 303.902C558.478 301.923 557.436 299.621 556.948 297.176" fill="black"/>
<path fill-rule="evenodd" clip-rule="evenodd" d="M565.714 271.122C569.946 270.863 573.717 276.163 574.132 282.96C574.548 289.757 571.452 295.487 567.22 295.746C562.988 296.005 559.217 290.705 558.801 283.898C558.385 277.091 561.482 271.381 565.714 271.122Z" fill="black"/>
<path fill-rule="evenodd" clip-rule="evenodd" d="M565.768 272.001C569.7 271.76 573.198 276.686 573.583 282.994C573.969 289.302 572.573 282.846 568.64 283.086C563.489 281.758 560.492 287.141 560.041 283.201C560.055 285.725 560.144 287.353 561.974 291.879C560.403 289.488 559.498 286.722 559.35 283.865C558.964 277.556 561.835 272.241 565.768 272.001Z" fill="#CCCCCC"/>
<path fill-rule="evenodd" clip-rule="evenodd" d="M565.815 272.779C569.429 272.558 572.651 277.09 573.007 282.899C573.134 284.975 573.049 285.551 572.731 285.441C572.765 284.753 572.753 284.065 572.695 283.379C572.34 277.57 569.117 273.038 565.504 273.259C564.702 273.349 563.932 273.623 563.254 274.059C562.575 274.495 562.006 275.081 561.59 275.773C561.992 274.964 562.589 274.267 563.326 273.744C564.063 273.222 564.919 272.89 565.815 272.779Z" fill="black"/>
<path fill-rule="evenodd" clip-rule="evenodd" d="M570.063 277.368C572.06 277.246 573.887 279.769 574.086 283.013C574.284 286.257 572.808 288.992 570.782 289.116C570.652 289.124 566.786 289.301 566.605 289.292C564.749 289.095 563.159 286.687 562.973 283.643C562.787 280.599 564.01 278.149 565.761 277.631C565.931 277.621 569.894 277.379 570.063 277.368Z" fill="black"/>
<path fill-rule="evenodd" clip-rule="evenodd" d="M570.072 277.669C572.068 277.546 573.778 279.947 573.972 283.121C574.166 286.295 571.784 280.109 569.788 280.231C569.249 280.264 564.438 280.067 564.268 280.398C563.054 282.827 563.952 286.378 564.46 287.469C563.778 286.333 563.39 285.045 563.329 283.721C563.152 280.827 564.197 278.429 565.91 277.933C566.08 277.923 569.903 277.689 570.062 277.679" fill="#CCCCCC"/>
<path fill-rule="evenodd" clip-rule="evenodd" d="M570.063 277.368C572.06 277.246 573.887 279.769 574.086 283.013C574.284 286.257 572.808 288.992 570.782 289.116C568.756 289.24 566.968 286.705 566.769 283.461C566.571 280.217 568.047 277.492 570.063 277.368Z" fill="black"/>
<path fill-rule="evenodd" clip-rule="evenodd" d="M570.099 277.947C571.906 277.837 573.506 280.093 573.683 282.988C573.86 285.883 572.547 288.327 570.741 288.438C568.934 288.548 567.333 286.282 567.155 283.387C566.978 280.493 568.302 278.057 570.099 277.947Z" fill="#CCCCCC"/>
<path fill-rule="evenodd" clip-rule="evenodd" d="M570.119 278.277C571.806 278.173 573.318 280.295 573.484 283C573.649 285.705 572.407 287.995 570.72 288.098C569.033 288.201 567.531 286.089 567.365 283.374C567.199 280.659 568.432 278.38 570.119 278.277Z" fill="black"/>
<path fill-rule="evenodd" clip-rule="evenodd" d="M570.117 278.237C571.684 278.141 573.074 280.06 573.229 282.605C573.385 285.15 572.137 282.281 570.58 282.376C569.023 282.472 567.764 285.464 567.61 282.949C567.456 280.433 568.599 278.33 570.157 278.234" fill="#CCCCCC"/>
<path fill-rule="evenodd" clip-rule="evenodd" d="M15.5319 306.406L15.0585 293.26L10.3283 283.902C9.34938 282.321 8.86062 280.486 8.92374 278.628C8.4964 271.641 8.06906 264.654 7.64172 257.667C7.46529 254.782 8.56012 252.371 14.8417 251.876L22.0641 251.204C21.9257 248.942 21.7705 246.677 21.5985 244.41L17.7008 244.568C15.9541 244.675 14.9183 243.957 14.7728 242.233C14.2097 230.405 13.6434 218.581 13.0741 206.76C13.0961 206.076 13.2908 205.408 13.6402 204.819C13.9895 204.23 14.4821 203.739 15.0722 203.392C30.8281 155.34 63.2347 103.024 112.547 58.3106C121.536 50.1566 130.138 45.0119 140.963 39.6811C165.481 27.6018 195.112 19.0168 223.768 12.0144C236.549 8.94278 249.692 7.65004 262.826 8.17274C290.299 9.34774 318.003 11.5105 345.814 14.1175C351.537 14.6492 354.556 16.8289 356.645 22.3216C374.253 68.603 383.766 118.145 388.499 169.652L639.373 171.71L639.818 178.997L637.038 179.407L637.817 191.161L640.197 195.023L641.624 224.902L635.062 225.724C635.138 228.435 635.213 231.135 635.298 233.845L583.46 236.434C580.835 233.659 579.204 231.555 575.6 231.765C563.772 232.489 552.959 233.09 541.129 233.784C538.737 233.82 537.396 235.164 534.627 238.379C486.769 239.874 439.426 241.276 391.568 242.771C391.542 257.038 390.634 271.291 388.849 285.446C388.062 293.88 384.151 299.229 376.356 300.688L349.187 302.349C351.019 273.664 342.722 253.984 326.119 244.78C306.136 233.709 272.736 237.025 257.553 255.125C249.083 265.221 243.416 280.516 237.373 305.221C236.004 310.835 235.273 311.831 229.894 311.689C211.236 311.308 190.385 311.1 171.603 310.666C162.233 310.458 152.835 310.281 143.466 310.263C101.924 310.189 61.0961 310.161 19.4837 310.082C16.177 310.073 15.6317 309.185 15.5325 306.416" fill="#A3BCFF"/>
<path fill-rule="evenodd" clip-rule="evenodd" d="M637.209 196.448C639.674 196.297 640.03 197.037 640.298 197.822C640.628 204.514 640.91 209.947 641.238 216.63L393.038 222.072C392.264 214.004 392.883 208.236 392.109 200.168C392.621 197.572 394.571 197.833 396.493 197.816C476.594 197.014 557.158 198.228 637.209 196.448Z" fill="#342447"/>
<path fill-rule="evenodd" clip-rule="evenodd" d="M13.2575 209.594L13.0841 206.76C13.1061 206.075 13.3008 205.407 13.6502 204.819C13.9995 204.23 14.4922 203.739 15.0822 203.391C20.8991 185.851 28.3303 168.889 37.2803 152.722L39.6374 152.437L73.9886 138.795L103.298 135.92C69.2868 144.643 50.5399 150.017 34.1841 178.268C35.7742 173.478 37.6485 168.787 39.7969 164.219C30.9985 177.782 27.2143 187.822 23.3093 203.419C23.2831 205.284 23.7139 205.448 23.6877 207.313L13.2575 209.594Z" fill="#487CEF"/>
<path fill-rule="evenodd" clip-rule="evenodd" d="M29.7724 216.378L112.312 207.132L112.047 239.329L36.3041 245.364L29.7724 216.378Z" fill="#A3BCFF"/>
<path fill-rule="evenodd" clip-rule="evenodd" d="M187.884 180.129C188.84 183.41 189.786 186.711 190.724 190.034L307.02 190.014L230.584 193.567C267.419 193.177 321.252 191.748 358.077 191.35C367.538 191.252 377.868 195.028 377.023 166.146C377.479 177.359 379.445 211.142 379.9 222.355L190.187 226.945C189.425 211.323 188.656 195.701 187.881 180.079" fill="#91B0F5"/>
<path fill-rule="evenodd" clip-rule="evenodd" d="M637.069 179.756C637.303 183.568 637.535 187.375 637.768 191.174L495.685 191.208L550.654 189.028C500.725 188.606 446.652 189.058 396.723 188.635C390.588 188.579 390.926 190.993 391.511 194.484C390.992 189.172 390.482 183.887 389.98 178.628L636.99 179.76" fill="#583D71"/>
<path fill-rule="evenodd" clip-rule="evenodd" d="M637.069 179.756C637.182 181.602 637.295 183.449 637.408 185.285C637.312 184.711 637.009 184.191 636.557 183.824C636.104 183.457 635.533 183.268 634.951 183.292C554.515 183.022 474.421 182.781 393.984 182.501C391.868 182.63 391.434 183.729 391.188 184.786C390.802 182.739 390.419 180.685 390.04 178.625L637.049 179.757" fill="#999999"/>
<path fill-rule="evenodd" clip-rule="evenodd" d="M32.0026 210.091L48.0277 206.736L77.2387 203.076L103.88 199.493L108.87 199.188C108.437 203.028 108.005 206.878 107.573 210.739C81.9894 212.935 57.2519 216.351 32.8885 220.316C32.592 216.888 32.2886 213.456 31.9784 210.022" fill="#487CEF"/>
<path fill-rule="evenodd" clip-rule="evenodd" d="M637.994 225.334L635.1 225.691C635.176 228.402 635.251 231.102 635.336 233.812L583.498 236.402C580.873 233.627 579.242 231.522 575.638 231.733C563.81 232.456 552.997 233.057 541.167 233.751C538.775 233.787 537.434 235.131 534.665 238.346C486.807 239.841 439.465 241.244 391.607 242.738C391.577 255.041 390.887 267.334 389.541 279.563L348.421 280.665C345.812 263.563 338.146 251.408 326.117 244.74C306.133 233.669 272.734 236.984 257.55 255.085C251.9 261.812 247.494 270.858 243.407 283.471L187.503 284.957L188.833 230.033L190.526 226.924L392.142 222.498L397.124 222.053L641.304 217.547L641.622 223.89L637.994 225.334Z" fill="#91B0F5"/>
<path fill-rule="evenodd" clip-rule="evenodd" d="M188.716 234.84C188.735 233.837 188.764 232.833 188.782 231.83C189.098 230.929 189.424 230.037 189.74 229.137L190.731 227.152L391.58 222.973C391.769 226.057 391.908 229.154 392.077 232.24L201.506 235.6C194.651 235.729 193.018 237.522 189.583 242.952C189.296 240.234 189.001 237.527 188.715 234.82" fill="#A3BCFF"/>
<path fill-rule="evenodd" clip-rule="evenodd" d="M190.174 225.093L641.179 215.011L641.327 218.078L190.221 228.166L190.174 225.093Z" fill="#808080"/>
<path fill-rule="evenodd" clip-rule="evenodd" d="M248.557 269.892C244.508 278.866 241.01 290.321 237.371 305.181C236.616 308.232 236.061 309.97 234.801 310.838C233.783 311.551 232.311 311.732 229.894 311.679C217.436 311.439 204 311.259 190.853 311.061C190.589 298.554 190.607 283.786 190.343 271.278C191.241 274.97 195.45 275.645 197.23 275.606C211.788 275.287 224.672 273.487 239.298 273.454C243.194 273.446 245.382 272.03 248.557 269.882M390.309 271.812C389.931 275.952 389.383 281.236 388.856 285.396C388.069 293.83 384.158 299.178 376.363 300.637L349.183 302.299C350.044 288.842 348.66 277.365 345.263 268.015C348.942 272.468 350.75 272.548 356.375 272.455C368.546 272.271 377.725 271.97 390.31 271.822L390.309 271.812Z" fill="#47315D"/>
<path fill-rule="evenodd" clip-rule="evenodd" d="M109.715 237.398C107.416 237.167 105.53 236.311 105.157 233.158C104.396 227.103 104.548 208.94 107.081 196.793C108.375 190.592 110.908 187.952 117.26 186.973C136.601 184.117 156.081 182.297 175.616 181.52C179.772 181.326 181.188 183.183 181.336 187.071C181.833 200.653 182.33 214.241 182.827 227.836C182.892 228.606 182.755 229.379 182.428 230.079C182.102 230.779 181.598 231.382 180.967 231.827L109.715 237.398Z" fill="black"/>
<path fill-rule="evenodd" clip-rule="evenodd" d="M14.9561 307.313C14.7985 302.935 14.3695 297.721 14.2212 293.332L9.49108 283.973C8.51864 282.393 8.03053 280.563 8.08709 278.709C7.65975 271.722 7.23241 264.735 6.80507 257.748C6.62864 254.864 7.73346 252.452 14.005 251.958C16.4156 251.73 18.8541 251.14 21.2548 250.913L19.491 243.207L153.335 231.314L189.692 229.992L192.357 294.048L193.467 305.312L193.86 312.561C186.379 312.438 178.966 312.3 171.854 312.144C162.483 311.925 153.085 311.759 143.717 311.741C102.175 311.667 60.4699 311.062 18.8674 310.981C15.5607 310.973 15.0055 310.085 14.9062 307.316" fill="black"/>
<path fill-rule="evenodd" clip-rule="evenodd" d="M36.4623 153.433C80.7373 140.205 127.394 130.699 170.977 123.675C174.693 122.847 178.172 120.931 179.843 117.282C194.288 85.4709 210.215 54.3104 230.121 24.8002C232.977 20.5579 231.868 16.6784 226.169 17.6882C195.962 23.0389 166.523 32.0632 138.506 44.56C123.945 51.051 118.036 56.1513 106.492 66.7658C79.467 92.2432 51.5417 122.494 36.4623 153.433Z" fill="black"/>
<path fill-rule="evenodd" clip-rule="evenodd" d="M70.4912 141.894C103.468 133.465 136.89 126.902 170.512 121.489C173.536 120.804 176.389 119.297 177.762 116.357C184.772 100.9 192.126 85.6731 200.069 70.7404C179.447 68.8858 158.334 67.5022 135.959 67.2878C130.421 67.2438 125.039 69.1163 120.724 72.5877C98.8858 92.2877 82.0313 113.206 69.9972 135.291C68.9963 137.927 69.1218 140.144 70.4912 141.894Z" fill="#808080"/>
<path fill-rule="evenodd" clip-rule="evenodd" d="M181.455 108.417C184.994 100.767 188.651 93.173 192.424 85.6352L197.33 72.1406L181.455 108.417ZM171.705 121.176C173.428 120.699 175.005 119.8 176.294 118.561L193.083 72.3202L171.705 121.176ZM167.159 122.035L170.552 121.487L171.095 121.354L188.836 72.5098L167.159 122.035ZM162.676 122.771L166.643 122.117L184.59 72.6994L162.676 122.771ZM158.174 123.537L162.19 122.85L180.334 72.8895L158.174 123.537ZM153.673 124.303L157.737 123.604L176.085 73.0392L153.673 124.303ZM149.163 125.1L153.286 124.377L171.843 73.2987L149.163 125.1ZM144.644 125.907L148.816 125.161L167.594 73.4484L144.644 125.907ZM140.116 126.735L144.346 125.956L163.348 73.6379L140.116 126.735ZM135.578 127.574L139.868 126.78L159.101 73.8275L135.578 127.574ZM131.033 128.443L135.391 127.615L154.854 74.0071L131.033 128.443ZM126.478 129.323L130.904 128.471L150.626 74.1656L126.478 129.323ZM121.925 130.232L126.4 129.347L146.362 74.3863L121.925 130.232ZM71.2419 141.718C88.0118 137.436 104.922 133.647 121.895 130.234L142.115 74.5759L117.557 130.72L137.869 74.7754L113.311 130.909L133.623 74.965L109.054 131.09L129.377 75.1546L104.806 131.259L125.129 75.3243L100.56 131.449L120.872 75.5045L96.3134 131.638L116.257 76.6985L116.124 76.8268L92.0646 131.788L109.806 82.9439L108.861 83.8833L87.8201 132.008L103.109 89.9158L101.145 92.0396L83.5631 132.188L96.0566 97.791C94.9164 99.1331 93.7855 100.465 92.6959 101.814L79.3274 132.387L88.5101 107.089C86.5793 109.592 84.7297 112.113 82.9615 114.652L75.1209 132.574L80.0953 118.734C76.4207 124.176 73.0646 129.694 70.0273 135.29C69.052 137.854 69.1545 140.022 70.4222 141.748L71.2407 141.698L71.2419 141.718Z" fill="black"/>
<path fill-rule="evenodd" clip-rule="evenodd" d="M206.945 109.123C217.585 81.9324 230.63 55.5768 248.882 31.137C252.494 26.3075 255.663 24.5508 261.805 24.7261C287.406 25.4345 311.921 27.8725 337.122 30.7194C342.752 31.3768 345.098 34.0285 346.842 40.9149C353.014 68.2792 356.027 96.2474 357.772 124.453L210.483 115.539C207.325 115.341 205.887 111.812 206.945 109.123Z" fill="black"/>
<path fill-rule="evenodd" clip-rule="evenodd" d="M41.0809 243.198C37.2573 243.091 36.8402 241.023 36.6112 238.753C35.5262 227.238 34.4061 215.314 33.636 203.869C33.2037 201.551 32.1111 200.887 30.4585 201.058C25.1517 201.763 19.9446 202.463 14.8005 203.208C14.2098 203.557 13.7169 204.05 13.3677 204.64C13.0185 205.231 12.8242 205.9 12.8031 206.586C13.3656 218.404 13.9916 230.278 14.5541 242.096C14.561 242.486 14.6488 242.87 14.8119 243.224C14.9749 243.579 15.2098 243.895 15.5015 244.154C15.7932 244.413 16.1355 244.609 16.5067 244.729C16.878 244.849 17.27 244.891 17.6581 244.851C18.9557 244.772 20.0626 245.015 21.362 244.965L21.7744 246.303C29.1548 245.1 41.076 243.118 41.076 243.118" fill="black"/>
<path d="M390.502 168.327C391.314 178.496 392.043 189.422 392.556 200.441C393.049 211.111 393.344 221.843 393.286 232.036L643.607 223.739L643.676 225.858L391.145 234.21L391.158 233.108C391.234 222.563 390.948 211.49 390.438 200.531C389.928 189.572 389.198 178.626 388.396 168.466L390.502 168.327Z" fill="black"/>
<path d="M390.563 177.511L640.679 177.842L640.679 179.966L390.562 179.625L390.563 177.511Z" fill="black"/>
<path d="M187.627 230.629C188.286 230.125 188.819 229.475 189.184 228.73C189.533 227.977 189.706 227.155 189.688 226.325L185.835 141.061C185.638 136.635 185.938 132.201 186.73 127.842C187.474 123.764 188.805 119.815 190.682 116.119C197.58 99.8271 205.028 84.0029 213.383 68.5941C221.799 53.0019 231.185 37.9525 241.484 23.5345C243.822 20.1134 247.089 17.4317 250.9 15.8052C254.731 14.3326 258.862 13.8084 262.939 14.2774L349.478 21.7683C350.46 21.7542 351.427 22.0143 352.269 22.5193C353.036 23.1785 353.546 24.0876 353.708 25.0862C358.329 42.4866 362.705 62.106 366.743 84.882C370.781 107.658 374.474 133.631 377.717 163.729L380.505 220.936C380.538 222.159 380.341 223.378 379.923 224.528C379.561 225.451 379.403 226.442 379.459 227.432C379.7 230.062 379.864 232.737 380.028 235.412C380.138 237.218 380.248 239.015 380.358 240.822C380.476 241.243 380.486 241.686 380.386 242.112C380.287 242.537 380.082 242.931 379.79 243.256C379.499 243.582 379.13 243.828 378.718 243.973C378.306 244.118 377.863 244.157 377.432 244.086L362.702 244.687L337.827 245.707C336.57 245.746 335.354 246.17 334.345 246.922C333.417 247.646 332.771 248.67 332.519 249.819L331.137 249.513C331.444 248.051 332.254 246.742 333.426 245.816C334.657 244.883 336.147 244.354 337.691 244.303L362.585 243.281L377.306 242.681C378.035 242.637 378.48 242.54 378.685 242.297C378.916 241.878 378.99 241.39 378.892 240.921C378.782 239.125 378.671 237.308 378.56 235.502C378.398 232.846 378.236 230.191 377.982 227.522C377.909 226.349 378.086 225.173 378.503 224.074C378.874 223.087 379.054 222.039 379.035 220.985L376.251 163.839C373.012 133.811 369.322 107.877 365.294 85.1109C361.267 62.3443 356.883 42.7554 352.276 25.4243C352.18 24.7456 351.864 24.1173 351.376 23.636C350.748 23.3089 350.05 23.1417 349.342 23.1492L262.803 15.6583C258.949 15.2068 255.043 15.6967 251.419 17.0859C247.852 18.6077 244.797 21.1207 242.615 24.3269C232.347 38.6969 222.992 53.6977 214.605 69.2407C206.286 84.5971 198.846 100.381 191.966 116.641C190.137 120.225 188.843 124.058 188.123 128.017C187.355 132.274 187.062 136.603 187.25 140.924L191.105 226.228C191.13 227.278 190.913 228.32 190.469 229.273C190.015 230.216 189.344 231.04 188.512 231.677L187.627 230.629Z" fill="black"/>
<path fill-rule="evenodd" clip-rule="evenodd" d="M253.791 66.0223C273.12 61.1532 291.642 56.3535 311.79 51.4544C314.634 50.7695 319.193 50.9415 319.786 54.5821C321.819 67.0212 323.821 79.1115 325.866 91.9105C326.467 95.6709 325.412 98.5807 321.25 99.4865C299.781 103.434 277.187 107.832 255.718 111.78C256.069 111.375 256.334 110.904 256.499 110.395C256.664 109.886 256.725 109.349 256.679 108.816L253.792 66.0423" fill="#808080"/>
<path fill-rule="evenodd" clip-rule="evenodd" d="M282.897 106.671L278.678 107.47L301.796 54.6405L282.897 106.671ZM287.383 105.816L283.214 106.612L306.072 54.449L287.383 105.816ZM291.87 104.97L287.76 105.753L310.29 54.2812L291.87 104.97ZM296.357 104.125L292.295 104.884L314.585 54.0786L296.357 104.125ZM300.853 103.269L296.842 104.025L318.822 53.8897L300.853 103.269ZM325.987 94.548C325.904 95.7696 325.397 96.9238 324.554 97.8116L325.987 94.548ZM325.088 87.0589L325.917 91.9274L323.465 98.6897C322.786 99.0575 322.056 99.3248 321.3 99.4834L319.576 99.7992L325.088 87.0589ZM323.962 80.1147L324.587 83.9337L318.782 99.918L314.998 100.62L323.962 80.1147ZM322.836 73.1705L323.289 75.9782L314.303 100.733L310.46 101.459L322.836 73.1705ZM321.7 66.2269L321.991 68.0226L309.815 101.558L305.922 102.287L321.7 66.2269ZM320.564 59.2833L320.693 60.077L305.327 102.374L301.365 103.127L320.564 59.2833ZM297.475 54.9247L278.388 107.478L274.11 108.291L297.475 54.9247ZM292.798 56.0925L292.898 56.0864L273.922 108.342L269.594 109.158L292.798 56.0925ZM288.121 57.2702L288.301 57.2592L269.436 109.188L265.057 110.007L288.121 57.2702ZM283.434 58.4485L283.694 58.4326L264.91 110.056L260.482 110.878L283.434 58.4485ZM278.748 59.6368L279.094 59.5555L260.467 110.788L255.712 111.67C255.927 111.431 256.109 111.163 256.254 110.876L255.989 111.613L278.748 59.6368ZM274.062 60.8351L274.487 60.729L256.577 110.094C256.675 109.669 256.709 109.231 256.678 108.796L256.195 101.712L274.062 60.8351ZM269.376 62.0234L269.879 61.8925L256.074 99.9062L255.677 93.4183L269.376 62.0234ZM264.69 63.2117L265.282 63.0653L255.422 90.2279L255.117 85.2372L264.69 63.2117ZM260.004 64.4L260.675 64.2287L254.766 80.4898L254.548 76.9164L260.004 64.4ZM255.328 65.5877L256.068 65.4022L254.112 70.7816L253.983 68.6655L255.328 65.5877Z" fill="black"/>
<path fill-rule="evenodd" clip-rule="evenodd" d="M386.922 148.298L230.35 145.842L387.186 150.977L386.922 148.298Z" fill="black"/>
<path fill-rule="evenodd" clip-rule="evenodd" d="M9.60004 255.122L147.989 244.654C150.075 244.527 151.525 245.29 151.765 247.589C152.536 254.776 153.341 261.399 154.102 268.586C154.36 271.004 153.557 271.975 151.193 272.461L142.04 273.852L177.864 271.661C172.77 271.431 167.367 271.712 162.274 271.482C160.154 271.391 158.652 270.582 158.459 268.079L157.018 248.46C156.882 246.224 157.555 244.951 159.846 244.731C168.29 243.883 176.814 243.693 185.237 242.827C187.229 242.635 188.185 243.528 188.688 246.172C188.535 243.684 188.36 241.2 188.162 238.721C187.699 235.743 185.651 233.534 182.261 234.132C172.804 235.793 163.96 238.127 154.58 240.214C156.763 239.089 159.002 238.076 161.288 237.178C117.068 240.835 68.4108 244.001 24.1915 247.657L24.2874 249.225L133.997 241.122L16.5862 250.587C13.0771 250.872 10.0348 250.928 9.6424 255.16" fill="#4D4D4D"/>
<path fill-rule="evenodd" clip-rule="evenodd" d="M11.4332 259.869L137.857 252.137C138.3 252.11 138.736 252.259 139.069 252.552C139.402 252.845 139.606 253.258 139.636 253.701L140.437 266.807C140.451 267.026 140.421 267.247 140.349 267.455C140.277 267.663 140.164 267.855 140.018 268.019C139.872 268.183 139.694 268.317 139.496 268.413C139.298 268.509 139.082 268.564 138.862 268.576L12.3368 274.642C11.8943 274.663 11.4609 274.511 11.1299 274.216C10.799 273.922 10.5969 273.509 10.5673 273.067L9.86831 261.638C9.84127 261.196 9.99095 260.761 10.2844 260.43C10.5779 260.098 10.9912 259.896 11.4332 259.869Z" fill="#333333"/>
<path fill-rule="evenodd" clip-rule="evenodd" d="M138.557 254.568C138.58 254.697 138.588 254.827 138.581 254.958L139.26 267.049C139.287 267.492 139.138 267.928 138.845 268.261C138.552 268.594 138.139 268.798 137.696 268.828L13.5307 274.669C13.0893 274.693 12.6561 274.542 12.3249 274.249C11.9938 273.956 11.7915 273.545 11.7619 273.104L11.116 262.543C11.0998 262.448 11.0939 262.351 11.0983 262.254L11.276 265.158C11.3056 265.6 11.5079 266.011 11.839 266.304C12.1701 266.597 12.6034 266.748 13.0448 266.723L137.21 260.882C137.653 260.853 138.066 260.649 138.359 260.316C138.652 259.982 138.801 259.547 138.774 259.104L138.557 254.568Z" fill="black"/>
<path fill-rule="evenodd" clip-rule="evenodd" d="M138.393 253.857C138.583 254.192 138.695 254.565 138.72 254.949L139.39 267.051C139.412 267.49 139.318 267.928 139.117 268.32L138.912 268.723L121.644 269.779C121.066 269.825 120.494 269.641 120.053 269.266C119.611 268.891 119.336 268.357 119.287 267.779L118.616 256.8C118.594 256.221 118.801 255.657 119.194 255.231C119.587 254.805 120.132 254.552 120.711 254.528L138.148 253.461L138.393 253.857Z" fill="black"/>
<path fill-rule="evenodd" clip-rule="evenodd" d="M137.706 254.26C137.837 254.485 137.915 254.738 137.932 254.997L138.601 267.089C138.614 267.391 138.549 267.692 138.414 267.962L121.596 268.991C121.229 269.021 120.865 268.906 120.582 268.671C120.3 268.435 120.121 268.097 120.086 267.731L119.414 256.751C119.405 256.383 119.541 256.026 119.793 255.758C120.044 255.489 120.392 255.331 120.759 255.316L137.706 254.26Z" fill="#531805"/>
<path fill-rule="evenodd" clip-rule="evenodd" d="M12.8571 261.035L21.8403 260.485C22.081 260.47 22.3222 260.503 22.5502 260.582C22.7781 260.661 22.9882 260.784 23.1684 260.945C23.3485 261.105 23.4953 261.299 23.6001 261.516C23.7049 261.734 23.7658 261.969 23.7792 262.21L24.3244 271.123C24.3404 271.364 24.3087 271.605 24.2311 271.834C24.1536 272.062 24.0316 272.273 23.8723 272.454C23.713 272.635 23.5195 272.783 23.3029 272.889C23.0863 272.995 22.8508 273.057 22.6101 273.072L13.6269 273.621C13.1398 273.651 12.6608 273.486 12.2953 273.163C11.9299 272.839 11.7078 272.384 11.678 271.897L11.1328 262.984C11.103 262.496 11.268 262.017 11.5913 261.652C11.9147 261.287 12.37 261.064 12.8571 261.035Z" fill="black"/>
<path fill-rule="evenodd" clip-rule="evenodd" d="M12.9051 261.823L21.8884 261.274C22.1531 261.258 22.4134 261.347 22.612 261.523C22.8107 261.699 22.9314 261.946 22.9475 262.211L23.4927 271.124C23.5077 271.259 23.4952 271.395 23.4558 271.525C23.4165 271.655 23.3511 271.775 23.2638 271.879C23.1764 271.983 23.0688 272.068 22.9476 272.129C22.8264 272.19 22.6941 272.225 22.5587 272.233L13.5755 272.783C13.4401 272.791 13.3044 272.772 13.1767 272.726C13.049 272.681 12.9318 272.61 12.8325 272.517C12.7331 272.425 12.6536 272.313 12.5987 272.189C12.5438 272.065 12.5147 271.931 12.5132 271.796L11.9681 262.882C11.9519 262.618 12.0415 262.357 12.2172 262.159C12.393 261.96 12.6404 261.839 12.9051 261.823Z" fill="#531805"/>
<path d="M38.6363 283.984C38.37 283.498 38.2076 282.962 38.1593 282.41C38.1248 282.012 38.2009 281.612 38.3792 281.254C38.5641 280.877 38.87 280.573 39.248 280.39C39.6257 280.201 40.0391 280.093 40.4611 280.075C40.6674 280.173 88.1358 277.55 93.1889 277.281C93.9404 277.201 94.6998 277.317 95.3935 277.617C96.0654 277.937 96.6196 278.461 96.9778 279.113L101.121 290.02L95.7486 279.819C95.5442 279.409 95.2106 279.078 94.7992 278.876C94.3161 278.679 93.7919 278.604 93.2731 278.658C93.0674 278.571 45.5989 281.194 40.5459 281.463C40.3207 281.468 40.0989 281.519 39.8939 281.613C39.7847 281.665 39.6953 281.752 39.6384 281.859C39.5773 281.995 39.552 282.145 39.5649 282.294C39.6094 282.639 39.7181 282.972 39.8854 283.276L44.0581 292.038L38.6363 283.984Z" fill="#333333"/>
<path fill-rule="evenodd" clip-rule="evenodd" d="M20.6561 308.447L156.572 307.338C156.572 307.338 158.268 307.054 158.637 306.21C159.006 305.365 160.312 291.34 160.312 291.34L162.905 306.209L166.454 307.064L187.783 307.873L189.782 303.052L190.867 310.47L159.13 309.686L19.5489 309.837L17.1627 308.661L16.4171 305.481L16.5308 296.036L17.4665 306.749L20.0145 308.276L20.6561 308.447Z" fill="#333333"/>
<path d="M33.323 208.908C45.5619 206.77 57.9248 204.801 70.4116 203.002C82.8984 201.203 95.5601 199.587 108.397 198.154L108.552 199.557C95.7771 201.007 83.1288 202.622 70.6075 204.403C58.0862 206.184 45.7497 208.148 33.5981 210.293L33.323 208.908Z" fill="black"/>
<path fill-rule="evenodd" clip-rule="evenodd" d="M392.916 221.068L491.754 218.349L392.917 219.284L392.916 221.068Z" fill="black"/>
<path fill-rule="evenodd" clip-rule="evenodd" d="M641.513 215.06L592.383 216.071L641.304 213.29L641.513 215.06Z" fill="black"/>
<path d="M167.423 123.893C162.743 132.554 157.742 142.518 153.162 152.817C149.395 161.248 146.083 169.875 143.242 178.661C142.929 179.602 142.763 180.585 142.749 181.577C142.731 182.471 142.873 183.362 143.17 184.206L141.848 184.707C141.483 183.7 141.309 182.634 141.335 181.563C141.352 180.419 141.546 179.285 141.911 178.201C144.767 169.374 148.093 160.707 151.874 152.235C156.444 141.937 161.452 131.922 166.131 123.25L167.423 123.893Z" fill="black"/>
<path fill-rule="evenodd" clip-rule="evenodd" d="M40.4813 150.181C52.9789 146.812 65.5303 143.339 77.9719 139.873C75.2256 140.182 67.2084 142.275 61.2107 142.822C54.6046 143.416 52.875 141.018 55.4805 134.967C60.4205 123.514 76.1016 102.578 79.5882 97.6659C65.6149 114.443 52.5595 131.964 40.4794 150.151" fill="white"/>
<path fill-rule="evenodd" clip-rule="evenodd" d="M222.299 21.2516C212.244 25.2429 205.38 25.2119 200.384 34.6144C190.168 53.8339 178.138 88.7635 171.842 118.173C171.638 119.097 172.029 120.415 175.401 119.358C174.004 120.51 172.316 121.255 170.523 121.509C159.023 123.335 133.984 127.882 128.341 128.989C147.657 123.91 157.788 123.451 162.473 119.136C169.745 113.211 186.819 58.5371 188.734 35.7878C189.337 29.2588 175.365 33.7602 165.925 36.6619C180.068 30.8677 206.396 24.3081 222.279 21.2528" fill="white"/>
<path fill-rule="evenodd" clip-rule="evenodd" d="M229.207 66.8744L247.277 64.5069C249.363 64.3793 250.482 65.3127 250.618 67.3783C251.549 80.6262 251.951 93.9164 253.41 107.132C253.595 108.844 252.559 109.599 250.947 110.098L231.909 112.525L245.994 108.728C243.439 108.724 241.698 107.788 241.362 105.234C240.59 93.8198 239.826 82.4118 239.068 71.0101C238.958 69.2135 238.08 68.4557 236.302 68.6947L229.793 69.5637C228.976 70.3018 228.197 71.0817 227.461 71.9004C226.904 72.4654 228.16 98.5675 228.09 98.5717C227.821 98.5882 226.244 72.4758 226.517 71.858C226.789 71.2402 227.238 70.3812 227.507 69.8738L229.217 66.8738" fill="#4D4D4D"/>
<path fill-rule="evenodd" clip-rule="evenodd" d="M274.896 27.622C291.8 28.642 308.556 29.8713 325.376 31.8081C315.462 31.5629 307.824 29.6957 306.394 40.3829C304.744 51.7348 307.872 93.051 311.646 107.748C314.486 120.599 322.936 119.841 336.377 121.263C316.518 119.907 296.661 118.556 276.809 117.212C290.867 117.725 303.489 119.338 304.412 108.391C305.805 85.3194 303.998 62.1662 299.042 39.5903C296.475 27.6046 284.165 29.2893 274.896 27.622Z" fill="white"/>
<path fill-rule="evenodd" clip-rule="evenodd" d="M286.331 40.618C288.779 60.8761 290.119 81.2527 290.345 101.657C286.788 78.5609 286.298 63.9836 286.331 40.618Z" fill="white"/>
<path fill-rule="evenodd" clip-rule="evenodd" d="M169.917 43.1197C163.142 66.0275 155.114 88.546 145.87 110.574C152.787 84.1019 159.028 68.2113 169.917 43.1197Z" fill="white"/>
<path fill-rule="evenodd" clip-rule="evenodd" d="M150.95 72.7528C146.259 88.6167 140.701 104.211 134.301 119.466C139.081 101.14 143.407 90.1257 150.95 72.7528Z" fill="white"/>
<path fill-rule="evenodd" clip-rule="evenodd" d="M315.468 73.2602C317.453 85.8865 318.331 98.662 318.094 111.441C315.069 97.0389 314.911 87.9115 315.479 73.2696" fill="white"/>
<path fill-rule="evenodd" clip-rule="evenodd" d="M625.796 235.568L635.321 235.196L636.031 259.918L631.43 260.2L625.796 235.568Z" fill="#47315D"/>
<path fill-rule="evenodd" clip-rule="evenodd" d="M390.707 286.505C392.462 272.616 393.43 258.639 393.606 244.64L409.103 244.113C407.182 258.407 401.015 281.076 390.707 286.505Z" fill="#B3B3B3"/>
<path fill-rule="evenodd" clip-rule="evenodd" d="M345.886 132.414L364.727 132.173C367.049 132.141 367.859 135.227 368.341 138.033C368.415 138.276 368.431 138.532 368.387 138.782C367.586 137.639 366.618 136.726 365.477 136.746L347.265 136.948C346.745 136.98 346.257 137.214 345.906 137.6C345.555 137.987 345.369 138.495 345.388 139.016L345.52 141.162C345.197 141.013 344.92 140.78 344.717 140.488C344.514 140.195 344.393 139.854 344.366 139.5L344.061 134.509C344.035 134.249 344.063 133.987 344.142 133.738C344.221 133.489 344.349 133.259 344.52 133.061C344.69 132.863 344.899 132.702 345.134 132.587C345.369 132.473 345.624 132.407 345.885 132.394" fill="black"/>
<path fill-rule="evenodd" clip-rule="evenodd" d="M155.195 189.321L173.161 188.222C173.64 188.193 174.111 188.355 174.471 188.673C174.83 188.991 175.049 189.439 175.078 189.918L176.979 221C177.009 221.48 176.847 221.953 176.529 222.314C176.211 222.675 175.764 222.895 175.284 222.927L157.317 224.026C156.837 224.053 156.366 223.889 156.006 223.569C155.647 223.249 155.429 222.8 155.399 222.32L153.498 191.238C153.472 190.76 153.635 190.29 153.953 189.931C154.27 189.572 154.716 189.353 155.195 189.321Z" fill="#6D3012"/>
<path fill-rule="evenodd" clip-rule="evenodd" d="M150.131 193.027C151.039 202.299 151.877 211.575 152.755 220.849C152.846 221.437 152.812 222.039 152.655 222.613C152.498 223.187 152.222 223.722 151.845 224.183C151.467 224.644 150.997 225.02 150.465 225.287C149.933 225.554 149.35 225.705 148.755 225.732L113.386 229.779C110.113 230.15 107.865 228.774 107.723 225.316C107.462 215.766 108.221 206.214 109.988 196.825C110.353 194.278 111.445 192.298 114.178 191.95C124.219 190.665 134.24 189.24 144.281 187.965C147.681 187.527 149.831 189.75 150.151 193.026" fill="#666666"/>
<path fill-rule="evenodd" clip-rule="evenodd" d="M149.345 193.106C150.242 202.538 151.07 211.495 151.968 220.927C152.055 221.413 152.037 221.912 151.915 222.39C151.794 222.868 151.571 223.315 151.262 223.7C150.954 224.085 150.566 224.4 150.126 224.623C149.686 224.846 149.203 224.973 148.71 224.994L113.331 229.041C110.506 229.364 108.679 228.324 108.556 225.326C108.283 215.821 109.045 206.314 110.829 196.974C111.187 194.468 112.202 193.053 114.328 192.753C124.825 191.409 133.893 190.113 144.431 188.767C147.234 188.406 149.1 190.095 149.416 193.121" fill="black"/>
<path fill-rule="evenodd" clip-rule="evenodd" d="M148.334 193.458C149.188 202.503 149.994 211.089 150.858 220.144C150.931 220.613 150.903 221.093 150.776 221.552C150.649 222.01 150.426 222.435 150.121 222.8C149.816 223.165 149.437 223.461 149.008 223.667C148.58 223.873 148.113 223.986 147.637 223.997L126.368 226.3C125.576 225.927 124.907 225.336 124.437 224.597C123.968 223.857 123.719 223 123.718 222.124C123.152 213.523 122.583 204.921 122.01 196.32C121.895 194.434 122.84 193.514 124.759 193.277C130.365 192.553 138.757 191.659 144.363 190.936C145.468 190.719 146.612 190.826 147.658 191.245C148.034 191.942 148.265 192.709 148.337 193.498" fill="white"/>
<path fill-rule="evenodd" clip-rule="evenodd" d="M148.334 193.458C148.731 197.642 149.121 201.735 149.501 205.82C145.158 206.396 141.039 208.491 136.676 209.069C131.901 208.81 129.581 203.311 126.051 205.872C126.581 211.43 126.832 217.015 127.353 222.573C127.652 224.358 128.222 224.985 129.89 225.884L126.346 226.262C125.554 225.888 124.884 225.297 124.415 224.558C123.946 223.819 123.697 222.961 123.696 222.086C123.13 213.484 122.56 204.883 121.988 196.282C121.872 194.395 122.818 193.476 124.737 193.238C130.343 192.515 138.734 191.621 144.341 190.897C145.446 190.68 146.59 190.788 147.636 191.206C148.012 191.904 148.243 192.67 148.314 193.459" fill="#B3B3B3"/>
<path fill-rule="evenodd" clip-rule="evenodd" d="M155.037 191.986C154.921 191.232 155.151 190.747 155.824 190.605L172.586 189.47C172.763 189.44 172.945 189.445 173.12 189.485C173.295 189.526 173.461 189.6 173.607 189.705C173.753 189.81 173.877 189.943 173.972 190.095C174.066 190.248 174.129 190.419 174.158 190.596C171.707 190.666 170.725 190.656 170.876 192.801C171.528 201.657 172.175 209.933 172.826 218.79C172.936 220.577 173.326 221.384 175.339 221.702L159.868 222.648L165.901 221.378C167.207 221.097 167.288 220.291 167.185 219.095C166.456 210.457 165.732 201.848 165.014 193.269C164.939 192.042 164.249 191.573 163.078 191.594C160.396 191.638 157.758 191.92 155.084 191.933" fill="#9E4C05"/>
<path fill-rule="evenodd" clip-rule="evenodd" d="M109.371 212.281C112.733 212.216 111.992 212.552 115.394 212.484C119.487 212.404 119.462 211.985 119.658 208.316C120.168 213.214 120.119 218.146 120.628 223.034C121.226 225.593 121.915 226.552 123.323 226.957C118.347 227.502 118.043 227.28 113.128 228.011C109.852 228.502 109.582 226.715 109.451 224.569C109.22 220.796 109.291 216.384 109.411 212.279" fill="#333333"/>
<path fill-rule="evenodd" clip-rule="evenodd" d="M30.0556 209.709L20.6075 210.848C19.0763 211.202 18.8086 211.739 18.8951 213.317C19.272 220.354 19.6496 227.4 20.0278 234.457C20.1242 236.034 20.6365 236.875 22.4026 236.756L32.5717 236.104L30.0581 209.749" fill="white"/>
<path fill-rule="evenodd" clip-rule="evenodd" d="M31.5876 208.383C32.4943 217.965 33.4143 227.547 34.3476 237.128L34.3971 237.936L33.5886 237.986C28.1288 238.32 22.6158 238.767 17.2077 239.128C14.8821 239.27 13.9268 238.066 13.8131 235.879L12.5831 212.821C12.458 210.775 12.949 209.793 15.0237 209.316L15.1035 209.311C20.2949 208.683 25.5214 208.303 30.7028 207.675L31.5082 207.576L31.5876 208.383Z" fill="#666666"/>
<path fill-rule="evenodd" clip-rule="evenodd" d="M30.8008 208.461C27.4194 208.868 18.583 209.689 15.2016 210.096C13.5618 210.477 13.2578 211.077 13.3622 212.784L14.5922 235.842C14.6978 237.568 15.2548 238.486 17.1501 238.35C20.7833 238.128 29.8889 237.451 33.5203 237.199C32.6144 227.629 31.6946 218.051 30.7609 208.464" fill="black"/>
<path fill-rule="evenodd" clip-rule="evenodd" d="M30.0556 209.709L20.6075 210.848C19.0763 211.202 18.8086 211.739 18.8951 213.317C19.272 220.354 19.6496 227.4 20.0278 234.457C20.1242 236.034 20.6365 236.875 22.4026 236.756L23.4007 236.695C22.3415 235.758 22.4473 235.031 22.3822 233.802C22.1637 229.574 21.9489 225.353 21.7379 221.138C22.398 221.939 23.0738 223.16 24.0805 222.748C25.4879 222.662 30.9634 221.766 31.2649 222.108L30.0862 209.717" fill="#B3B3B3"/>
</g>
<defs>
<clipPath id="clip0_180_62">
<rect width="659.55" height="365.47" fill="white"/>
</clipPath>
</defs>
</svg>
