<svg width="250" height="250" viewBox="0 0 250 250" fill="none" xmlns="http://www.w3.org/2000/svg">
<rect width="250" height="250" rx="20" fill="#2E2E2E"/>
<g clip-path="url(#clip0_255_14239)">
<path d="M66.5 53C59.0469 53 53 59.0469 53 66.5V80H39.5C37.025 80 35 82.025 35 84.5C35 86.975 37.025 89 39.5 89H111.5C113.975 89 116 91.025 116 93.5C116 95.975 113.975 98 111.5 98H48.5C46.025 98 44 100.025 44 102.5C44 104.975 46.025 107 48.5 107H102.5C104.975 107 107 109.025 107 111.5C107 113.975 104.975 116 102.5 116H39.5C37.025 116 35 118.025 35 120.5C35 122.975 37.025 125 39.5 125H93.5C95.975 125 98 127.025 98 129.5C98 131.975 95.975 134 93.5 134H53V170C53 184.906 65.0938 197 80 197C94.9062 197 107 184.906 107 170H143C143 184.906 155.094 197 170 197C184.906 197 197 184.906 197 170H206C210.978 170 215 165.978 215 161C215 156.022 210.978 152 206 152V119.741C206 114.959 204.116 110.375 200.741 107L179 85.2594C175.625 81.8844 171.041 80 166.259 80H152V66.5C152 59.0469 145.953 53 138.5 53H66.5ZM188 119.741V125H152V98H166.259L188 119.741ZM80 156.5C83.5804 156.5 87.0142 157.922 89.5459 160.454C92.0777 162.986 93.5 166.42 93.5 170C93.5 173.58 92.0777 177.014 89.5459 179.546C87.0142 182.078 83.5804 183.5 80 183.5C76.4196 183.5 72.9858 182.078 70.4541 179.546C67.9223 177.014 66.5 173.58 66.5 170C66.5 166.42 67.9223 162.986 70.4541 160.454C72.9858 157.922 76.4196 156.5 80 156.5ZM156.5 170C156.5 166.42 157.922 162.986 160.454 160.454C162.986 157.922 166.42 156.5 170 156.5C173.58 156.5 177.014 157.922 179.546 160.454C182.078 162.986 183.5 166.42 183.5 170C183.5 173.58 182.078 177.014 179.546 179.546C177.014 182.078 173.58 183.5 170 183.5C166.42 183.5 162.986 182.078 160.454 179.546C157.922 177.014 156.5 173.58 156.5 170Z" fill="#93ACFD"/>
</g>
<defs>
<clipPath id="clip0_255_14239">
<rect width="180" height="144" fill="white" transform="translate(35 53)"/>
</clipPath>
</defs>
</svg>
