<svg width="70" height="70" viewBox="0 0 70 70" fill="none" xmlns="http://www.w3.org/2000/svg">
<circle cx="35" cy="35" r="35" fill="#2E2E2E"/>
<g clip-path="url(#clip0_9_164)">
<path d="M22.5625 20C21.0098 20 19.75 21.2598 19.75 22.8125V25.625H16.9375C16.4219 25.625 16 26.0469 16 26.5625C16 27.0781 16.4219 27.5 16.9375 27.5H31.9375C32.4531 27.5 32.875 27.9219 32.875 28.4375C32.875 28.9531 32.4531 29.375 31.9375 29.375H18.8125C18.2969 29.375 17.875 29.7969 17.875 30.3125C17.875 30.8281 18.2969 31.25 18.8125 31.25H30.0625C30.5781 31.25 31 31.6719 31 32.1875C31 32.7031 30.5781 33.125 30.0625 33.125H16.9375C16.4219 33.125 16 33.5469 16 34.0625C16 34.5781 16.4219 35 16.9375 35H28.1875C28.7031 35 29.125 35.4219 29.125 35.9375C29.125 36.4531 28.7031 36.875 28.1875 36.875H19.75V44.375C19.75 47.4805 22.2695 50 25.375 50C28.4805 50 31 47.4805 31 44.375H38.5C38.5 47.4805 41.0195 50 44.125 50C47.2305 50 49.75 47.4805 49.75 44.375H51.625C52.6621 44.375 53.5 43.5371 53.5 42.5C53.5 41.4629 52.6621 40.625 51.625 40.625V33.9043C51.625 32.9082 51.2324 31.9531 50.5293 31.25L46 26.7207C45.2969 26.0176 44.3418 25.625 43.3457 25.625H40.375V22.8125C40.375 21.2598 39.1152 20 37.5625 20H22.5625ZM47.875 33.9043V35H40.375V29.375H43.3457L47.875 33.9043ZM25.375 41.5625C26.1209 41.5625 26.8363 41.8588 27.3637 42.3863C27.8912 42.9137 28.1875 43.6291 28.1875 44.375C28.1875 45.1209 27.8912 45.8363 27.3637 46.3637C26.8363 46.8912 26.1209 47.1875 25.375 47.1875C24.6291 47.1875 23.9137 46.8912 23.3863 46.3637C22.8588 45.8363 22.5625 45.1209 22.5625 44.375C22.5625 43.6291 22.8588 42.9137 23.3863 42.3863C23.9137 41.8588 24.6291 41.5625 25.375 41.5625ZM41.3125 44.375C41.3125 43.6291 41.6088 42.9137 42.1363 42.3863C42.6637 41.8588 43.3791 41.5625 44.125 41.5625C44.8709 41.5625 45.5863 41.8588 46.1137 42.3863C46.6412 42.9137 46.9375 43.6291 46.9375 44.375C46.9375 45.1209 46.6412 45.8363 46.1137 46.3637C45.5863 46.8912 44.8709 47.1875 44.125 47.1875C43.3791 47.1875 42.6637 46.8912 42.1363 46.3637C41.6088 45.8363 41.3125 45.1209 41.3125 44.375Z" fill="#F8F8F8"/>
</g>
<defs>
<clipPath id="clip0_9_164">
<rect width="37.5" height="30" fill="white" transform="translate(16 20)"/>
</clipPath>
</defs>
</svg>
