<svg width="50" height="50" viewBox="0 0 50 50" fill="none" xmlns="http://www.w3.org/2000/svg">
<circle cx="25" cy="25" r="25" fill="white"/>
<g clip-path="url(#clip0_226_14192)">
<path d="M25 25C30.05 25 34.1429 20.9711 34.1429 16C34.1429 11.0289 30.05 7 25 7C19.95 7 15.8571 11.0289 15.8571 16C15.8571 20.9711 19.95 25 25 25ZM31.8429 27.2922L28.4286 40.75L26.1429 31.1875L28.4286 27.25H21.5714L23.8571 31.1875L21.5714 40.75L18.1571 27.2922C13.0643 27.5313 9 31.6305 9 36.7V39.625C9 41.4883 10.5357 43 12.4286 43H37.5714C39.4643 43 41 41.4883 41 39.625V36.7C41 31.6305 36.9357 27.5313 31.8429 27.2922Z" fill="#626EEA"/>
</g>
<defs>
<clipPath id="clip0_226_14192">
<rect width="32" height="36" fill="white" transform="translate(9 7)"/>
</clipPath>
</defs>
</svg>
