<svg width="70" height="70" viewBox="0 0 70 70" fill="none" xmlns="http://www.w3.org/2000/svg">
<circle cx="35" cy="35" r="35" fill="#2E2E2E"/>
<g clip-path="url(#clip0_9_165)">
<path d="M41.125 20.5C42.1196 20.5 43.0734 20.8951 43.7766 21.5983C44.4799 22.3016 44.875 23.2554 44.875 24.25V26.125H47.725C48.2871 26.1251 48.8419 26.2515 49.3485 26.4949C49.8552 26.7383 50.3006 27.0925 50.6519 27.5312L53.4269 31.0019C53.9596 31.6669 54.2499 32.4935 54.25 33.3456V41.125C54.25 42.1196 53.8549 43.0734 53.1516 43.7766C52.4484 44.4799 51.4946 44.875 50.5 44.875H48.625C48.625 46.3668 48.0324 47.7976 46.9775 48.8525C45.9226 49.9074 44.4918 50.5 43 50.5C41.5082 50.5 40.0774 49.9074 39.0225 48.8525C37.9676 47.7976 37.375 46.3668 37.375 44.875H31.75C31.75 45.6137 31.6045 46.3451 31.3218 47.0276C31.0391 47.71 30.6248 48.3301 30.1025 48.8525C29.5801 49.3748 28.96 49.7891 28.2776 50.0718C27.5951 50.3545 26.8637 50.5 26.125 50.5C25.3863 50.5 24.6549 50.3545 23.9724 50.0718C23.2899 49.7891 22.6699 49.3748 22.1475 48.8525C21.6252 48.3301 21.2109 47.71 20.9282 47.0276C20.6455 46.3451 20.5 45.6137 20.5 44.875C19.5054 44.875 18.5516 44.4799 17.8483 43.7766C17.1451 43.0734 16.75 42.1196 16.75 41.125V24.25C16.75 23.2554 17.1451 22.3016 17.8483 21.5983C18.5516 20.8951 19.5054 20.5 20.5 20.5H41.125ZM26.125 43C25.6277 43 25.1508 43.1975 24.7992 43.5492C24.4475 43.9008 24.25 44.3777 24.25 44.875C24.25 45.3723 24.4475 45.8492 24.7992 46.2008C25.1508 46.5525 25.6277 46.75 26.125 46.75C26.6223 46.75 27.0992 46.5525 27.4508 46.2008C27.8025 45.8492 28 45.3723 28 44.875C28 44.3777 27.8025 43.9008 27.4508 43.5492C27.0992 43.1975 26.6223 43 26.125 43ZM43 43C42.5027 43 42.0258 43.1975 41.6742 43.5492C41.3225 43.9008 41.125 44.3777 41.125 44.875C41.125 45.3723 41.3225 45.8492 41.6742 46.2008C42.0258 46.5525 42.5027 46.75 43 46.75C43.4973 46.75 43.9742 46.5525 44.3258 46.2008C44.6775 45.8492 44.875 45.3723 44.875 44.875C44.875 44.3777 44.6775 43.9008 44.3258 43.5492C43.9742 43.1975 43.4973 43 43 43ZM47.725 29.875H44.875V37.375H50.5V33.3438L47.725 29.875Z" fill="#F8F8F8"/>
</g>
<defs>
<clipPath id="clip0_9_165">
<rect width="45" height="45" fill="white" transform="translate(13 13)"/>
</clipPath>
</defs>
</svg>
