<svg width="250" height="250" viewBox="0 0 250 250" fill="none" xmlns="http://www.w3.org/2000/svg">
<rect width="250" height="250" rx="20" fill="#2E2E2E"/>
<g clip-path="url(#clip0_255_14232)">
<path d="M147.5 65C151.478 65 155.294 66.5804 158.107 69.3934C160.92 72.2064 162.5 76.0218 162.5 80V87.5H173.9C176.148 87.5003 178.368 88.0059 180.394 88.9796C182.421 89.9532 184.202 91.37 185.607 93.125L196.707 107.007C198.838 109.668 199.999 112.974 200 116.382V147.5C200 151.478 198.42 155.294 195.607 158.107C192.794 160.92 188.978 162.5 185 162.5H177.5C177.5 168.467 175.129 174.19 170.91 178.41C166.69 182.629 160.967 185 155 185C149.033 185 143.31 182.629 139.09 178.41C134.871 174.19 132.5 168.467 132.5 162.5H110C110 165.455 109.418 168.381 108.287 171.11C107.157 173.84 105.499 176.321 103.41 178.41C101.321 180.499 98.8402 182.157 96.1104 183.287C93.3805 184.418 90.4547 185 87.5 185C84.5453 185 81.6194 184.418 78.8896 183.287C76.1598 182.157 73.6794 180.499 71.5901 178.41C69.5008 176.321 67.8434 173.84 66.7127 171.11C65.582 168.381 65 165.455 65 162.5C61.0218 162.5 57.2064 160.92 54.3934 158.107C51.5804 155.294 50 151.478 50 147.5V80C50 76.0218 51.5804 72.2064 54.3934 69.3934C57.2064 66.5804 61.0218 65 65 65H147.5ZM87.5 155C85.5109 155 83.6032 155.79 82.1967 157.197C80.7902 158.603 80 160.511 80 162.5C80 164.489 80.7902 166.397 82.1967 167.803C83.6032 169.21 85.5109 170 87.5 170C89.4891 170 91.3968 169.21 92.8033 167.803C94.2098 166.397 95 164.489 95 162.5C95 160.511 94.2098 158.603 92.8033 157.197C91.3968 155.79 89.4891 155 87.5 155ZM155 155C153.011 155 151.103 155.79 149.697 157.197C148.29 158.603 147.5 160.511 147.5 162.5C147.5 164.489 148.29 166.397 149.697 167.803C151.103 169.21 153.011 170 155 170C156.989 170 158.897 169.21 160.303 167.803C161.71 166.397 162.5 164.489 162.5 162.5C162.5 160.511 161.71 158.603 160.303 157.197C158.897 155.79 156.989 155 155 155ZM173.9 102.5H162.5V132.5H185V116.375L173.9 102.5Z" fill="#93ACFD"/>
</g>
<defs>
<clipPath id="clip0_255_14232">
<rect width="180" height="180" fill="white" transform="translate(35 35)"/>
</clipPath>
</defs>
</svg>
