<svg width="50" height="50" viewBox="0 0 50 50" fill="none" xmlns="http://www.w3.org/2000/svg">
<circle cx="25" cy="25" r="25" fill="white"/>
<path d="M28 28C28.8333 28 29.5417 27.7083 30.125 27.125C30.7083 26.5417 31 25.8333 31 25C31 24.1667 30.7083 23.4583 30.125 22.875C29.5417 22.2917 28.8333 22 28 22C27.1667 22 26.4583 22.2917 25.875 22.875C25.2917 23.4583 25 24.1667 25 25C25 25.8333 25.2917 26.5417 25.875 27.125C26.4583 27.7083 27.1667 28 28 28ZM28 30C26.8 30 25.7417 29.625 24.825 28.875C23.9083 28.125 23.3333 27.1667 23.1 26H20C19.7167 26 19.479 25.904 19.287 25.712C19.095 25.52 18.9993 25.2827 19 25C19 24.7167 19.096 24.479 19.288 24.287C19.48 24.095 19.7173 23.9993 20 24H23.1C23.1833 23.6333 23.296 23.279 23.438 22.937C23.58 22.595 23.7673 22.2827 24 22H18C17.7167 22 17.479 21.904 17.287 21.712C17.095 21.52 16.9993 21.2827 17 21C17 20.7167 17.096 20.479 17.288 20.287C17.48 20.095 17.7173 19.9993 18 20H28C29.3833 20 30.5627 20.4877 31.538 21.463C32.5133 22.4383 33.0007 23.6173 33 25C33 26.3833 32.5123 27.5627 31.537 28.538C30.5617 29.5133 29.3827 30.0007 28 30Z" fill="#008BFF"/>
</svg>
