<svg id="OBJECTS" xmlns="http://www.w3.org/2000/svg" viewBox="0 0 378.36 393.54"><defs><style>.cls-1{isolation:isolate;}.cls-2,.cls-5{fill:#6298c7;}.cls-18,.cls-25,.cls-26,.cls-27,.cls-28,.cls-3{fill:none;}.cls-10,.cls-11,.cls-12,.cls-13,.cls-16,.cls-17,.cls-18,.cls-19,.cls-20,.cls-21,.cls-3,.cls-4,.cls-5,.cls-9{stroke:#213d8b;}.cls-10,.cls-11,.cls-12,.cls-13,.cls-16,.cls-17,.cls-18,.cls-19,.cls-20,.cls-21,.cls-27,.cls-28,.cls-3,.cls-4,.cls-5,.cls-9{stroke-linecap:round;}.cls-10,.cls-11,.cls-12,.cls-13,.cls-16,.cls-17,.cls-18,.cls-19,.cls-20,.cls-21,.cls-26,.cls-27,.cls-28,.cls-3,.cls-4,.cls-5,.cls-9{stroke-linejoin:round;}.cls-14,.cls-4{fill:#b9daf6;}.cls-19,.cls-6{fill:#fff;}.cls-7{fill:#99ccf6;}.cls-8{fill:#82bef0;}.cls-23,.cls-9{fill:#ffd273;}.cls-10{fill:#ffaa69;}.cls-11{fill:#becfde;}.cls-12{fill:#abc5db;}.cls-13{fill:#cedfed;}.cls-15,.cls-21{fill:#b695e5;}.cls-16{fill:#f04a62;}.cls-17{fill:#213d8b;}.cls-18{stroke-width:2px;}.cls-20{fill:#9177bc;}.cls-22{fill:#2e7efa;}.cls-24{fill:#ff869e;}.cls-25{stroke:#ff869e;stroke-miterlimit:10;}.cls-26,.cls-27{stroke:#2e7efa;}.cls-28{stroke:#a6d578;}</style></defs><g class="cls-1"><path class="cls-2" d="M391.24,192.53,387,184.62a13.78,13.78,0,0,1-.16,13L281.25,400c-3.87,7.42-13.14,11-20.69,7.92L156.13,365.75a13.29,13.29,0,0,1-6.83-6l4.23,7.9a13.3,13.3,0,0,0,6.83,6l104.43,42.21c7.55,3.05,16.82-.5,20.69-7.92l105.6-202.46A13.75,13.75,0,0,0,391.24,192.53Z" transform="translate(-60.82 -53.23)"/><path class="cls-3" d="M149.3,359.72l4.23,7.9a13.3,13.3,0,0,0,6.83,6l104.43,42.21c7.55,3.05,16.82-.5,20.69-7.92l105.6-202.46a13.75,13.75,0,0,0,.16-13L387,184.62" transform="translate(-60.82 -53.23)"/><path class="cls-4" d="M380.19,178.59c7.55,3.06,10.54,11.56,6.66,19L281.25,400c-3.87,7.42-13.14,11-20.69,7.92L156.13,365.75c-7.57-3.05-10.55-11.55-6.68-19l105.6-202.46c3.88-7.43,13.15-11,20.71-7.92Z" transform="translate(-60.82 -53.23)"/><path class="cls-5" d="M306.17,163.66,327,172.07a2.24,2.24,0,0,0,2.78-1.06,1.79,1.79,0,0,0-.9-2.55l-20.81-8.41a2.26,2.26,0,0,0-2.79,1.06A1.78,1.78,0,0,0,306.17,163.66Z" transform="translate(-60.82 -53.23)"/><path class="cls-5" d="M336.87,176.07a2.25,2.25,0,0,0,2.78-1.06,1.8,1.8,0,0,0-.9-2.56,2.28,2.28,0,0,0-2.79,1.07A1.8,1.8,0,0,0,336.87,176.07Z" transform="translate(-60.82 -53.23)"/><path class="cls-6" d="M375.62,187.35l-16.42-6.63a2.83,2.83,0,0,0-3.38.76c-3.38,3.93-9.45,6-14.45,3.93l-46.18-18.66a10.41,10.41,0,0,1-6-12.21,2.25,2.25,0,0,0-1.54-2.76l-16.43-6.63a5.86,5.86,0,0,0-7.22,2.76L158.36,350.37a4.66,4.66,0,0,0,2.32,6.63l104.44,42.21a5.9,5.9,0,0,0,7.23-2.77L378,194A4.66,4.66,0,0,0,375.62,187.35Z" transform="translate(-60.82 -53.23)"/><path class="cls-3" d="M375.62,187.35l-16.42-6.63a2.83,2.83,0,0,0-3.38.76c-3.38,3.93-9.45,6-14.45,3.93l-46.18-18.66a10.41,10.41,0,0,1-6-12.21,2.25,2.25,0,0,0-1.54-2.76l-16.43-6.63a5.86,5.86,0,0,0-7.22,2.76L158.36,350.37a4.66,4.66,0,0,0,2.32,6.63l104.44,42.21a5.9,5.9,0,0,0,7.23-2.77L378,194A4.66,4.66,0,0,0,375.62,187.35Z" transform="translate(-60.82 -53.23)"/></g><path class="cls-7" d="M223.36,154.33a25.42,25.42,0,0,0-15.82-10.14c-21.13-4.27-47.72,15.63-59.38,44.43s-4,55.6,17.15,59.86c.57.12,1.16.19,1.74.3,67.84,12.7,91.29-46.63,93.4-43.75Z" transform="translate(-60.82 -53.23)"/><path class="cls-8" d="M174.75,204.66c-7,17.21-7,33.7-1.44,45.1,63,8.05,85.1-47.52,87.14-44.73l-33.18-45.35C207.55,160.28,185.18,178.9,174.75,204.66Z" transform="translate(-60.82 -53.23)"/><path class="cls-9" d="M301.87,233.83a24.68,24.68,0,0,0-4-7.54,20.3,20.3,0,0,0-2.25-2.47c-.69-.6-1.63-1.38-2.35-1.93-.43-.32-1-.68-1.49-1l-13.05-7.79c5.73,7.36,8.42,17.74,2.65,32-6.71,16.59-19.68,25.58-31.5,25.25-1.73-.35-3.5.09-4.9-.75L258,277.39a22.13,22.13,0,0,0,7,2.71,24.92,24.92,0,0,0,10-.1,29.74,29.74,0,0,0,8.66-3.39,34.44,34.44,0,0,0,3.55-2.35c1-.79,2.27-1.88,3.21-2.73.49-.44,1.1-1.08,1.56-1.56a33.73,33.73,0,0,0,2.83-3.32c.41-.52.9-1.25,1.29-1.79a42.26,42.26,0,0,0,2.33-3.84,39.52,39.52,0,0,0,2-4.17,41.8,41.8,0,0,0,1.49-4.36,35,35,0,0,0,1.35-9.28A29.2,29.2,0,0,0,301.87,233.83Z" transform="translate(-60.82 -53.23)"/><path class="cls-10" d="M230.3,242.91q-22.62-17-45.22-34c4.1-6.19,9.94-16.44,11.75-19.67l51.43,23.65c5.12,2.36,6.72,9.84,3.49,17.83-3.59,8.85-11.76,15-18.25,13.65A7.7,7.7,0,0,1,230.3,242.91Z" transform="translate(-60.82 -53.23)"/><path class="cls-4" d="M250.62,271.56,179.08,261.3c22.57,3.24,50.24-18,62.55-48.39,8.66-21.39,7.46-41.77-1.54-53.94l43,58.13c4.79,6.48,5.43,17.32.82,28.71C277.35,262,262.63,273.28,250.62,271.56Z" transform="translate(-60.82 -53.23)"/><path class="cls-9" d="M195.66,188.83c-4.25-.86-9.59,3.14-11.94,8.93s-.8,11.18,3.45,12,9.6-3.14,11.94-8.94S199.91,189.68,195.66,188.83Z" transform="translate(-60.82 -53.23)"/><path class="cls-10" d="M164.87,263.68l-13.78-8.23c2.95,1.76,7.14,1.75,10.76,2.49,25.49,5.14,54.61-18,68.67-52.75,9.5-28.75,9-57.36-8.76-68l13.78,8.23c17.78,10.61,22.88,38.63,10.81,68.43-14.06,34.73-46.12,58.72-71.61,53.58A31.19,31.19,0,0,1,164.87,263.68Z" transform="translate(-60.82 -53.23)"/><path class="cls-9" d="M211.89,133.44c25.49,5.14,34.74,37.47,20.68,72.2S186.44,264.36,161,259.22,126.21,221.76,140.28,187,186.4,128.3,211.89,133.44Zm-4.35,10.75c-21.13-4.27-47.72,15.63-59.38,44.43s-4,55.6,17.15,59.86,47.72-15.63,59.38-44.43,4-55.6-17.15-59.86" transform="translate(-60.82 -53.23)"/><path class="cls-9" d="M126.9,196.76l-14.77,6.35a6.82,6.82,0,0,1-5.39-12.54,7,7,0,0,1,3.08-.54l16.05.9a3,3,0,0,1,1,5.83Z" transform="translate(-60.82 -53.23)"/><path class="cls-9" d="M135.43,169.35,124.06,158a6.82,6.82,0,1,1,11.28-7l5.12,15.24a3,3,0,0,1-5,3.12Z" transform="translate(-60.82 -53.23)"/><path class="cls-9" d="M126.42,182.12l-18.94-3.21a8.15,8.15,0,1,1,2.72-16.08,8.28,8.28,0,0,1,3.44,1.45l15.54,11.32a3.63,3.63,0,0,1-2.76,6.52Z" transform="translate(-60.82 -53.23)"/><g class="cls-1"><polygon class="cls-11" points="186.04 220.13 170.67 225.26 167.54 223.16 182.91 218.03 186.04 220.13"/><polygon class="cls-12" points="182.91 218.03 167.54 223.16 169.46 208.92 184.83 203.79 182.91 218.03"/><polygon class="cls-12" points="170.67 225.26 164.05 244.51 163.09 251.63 178.46 246.5 179.41 239.38 186.04 220.13 170.67 225.26"/><polygon class="cls-11" points="186.38 251.83 171.02 256.95 163.09 251.63 178.46 246.5 186.38 251.83"/><polygon class="cls-13" points="200.93 214.6 199.02 228.84 187.27 245.21 186.38 251.83 178.46 246.5 179.41 239.38 186.04 220.13 182.91 218.03 184.83 203.79 200.93 214.6"/></g><polygon class="cls-2" points="166.24 51.58 173.71 70.69 158.02 52.7 166.24 51.58"/><polygon class="cls-14" points="182.02 48.72 173.71 70.69 166.24 51.58 146.22 25.07 182.02 48.72"/><polygon class="cls-6" points="146.22 25.07 166.24 51.58 158.02 52.7 141.94 54.88 146.22 25.07"/><polygon class="cls-6" points="199.11 46.13 182.02 48.72 146.22 25.07 199.11 46.13"/><polygon class="cls-3" points="146.22 25.07 166.24 51.58 173.71 70.69 182.02 48.72 199.11 46.13 146.22 25.07"/><polyline class="cls-3" points="182.02 48.72 146.22 25.07 141.94 54.88 158.02 52.7 166.24 51.58"/><line class="cls-3" x1="173.71" y1="70.69" x2="158.02" y2="52.7"/><polygon class="cls-2" points="272.37 363.52 256.25 376.22 278.89 368.64 272.37 363.52"/><polygon class="cls-14" points="260.21 353.07 256.25 376.22 272.37 363.52 303.06 350.79 260.21 353.07"/><polygon class="cls-6" points="303.06 350.79 272.37 363.52 278.89 368.64 291.65 378.68 303.06 350.79"/><polygon class="cls-6" points="246.78 342.18 260.21 353.07 303.06 350.79 246.78 342.18"/><polygon class="cls-3" points="303.06 350.79 272.37 363.52 256.25 376.22 260.21 353.07 246.78 342.18 303.06 350.79"/><polyline class="cls-3" points="260.21 353.07 303.06 350.79 291.65 378.68 278.89 368.64 272.37 363.52"/><line class="cls-3" x1="256.25" y1="376.22" x2="278.89" y2="368.64"/><polygon class="cls-2" points="58.55 251.99 78.88 249.24 57.69 260.24 58.55 251.99"/><polygon class="cls-14" points="59.49 235.98 78.88 249.24 58.55 251.99 28.06 265.18 59.49 235.98"/><polygon class="cls-6" points="28.06 265.18 58.55 251.99 57.69 260.24 56.02 276.38 28.06 265.18"/><polygon class="cls-6" points="61.01 218.76 59.49 235.98 28.06 265.18 61.01 218.76"/><polygon class="cls-3" points="28.06 265.18 58.55 251.99 78.88 249.24 59.49 235.98 61.01 218.76 28.06 265.18"/><polyline class="cls-3" points="59.49 235.98 28.06 265.18 56.02 276.38 57.69 260.24 58.55 251.99"/><line class="cls-3" x1="78.88" y1="249.24" x2="57.69" y2="260.23"/><path class="cls-15" d="M426.88,177.43l-66.31-26.51c-6-2.42-11.16,1-11.43,7.57l-.92,22.31c-.27,6.6,4.42,13.91,10.46,16.33l5.95,2.38c-1,2.22-3.16,4.19-7.66,4.44.7.33,1.4.64,2.1.91,7.08,2.84,13.69,2.86,18.19-.3L425,223.64c6.05,2.42,11.17-1,11.44-7.57l.91-22.31C437.61,187.16,432.93,179.85,426.88,177.43Z" transform="translate(-60.82 -53.23)"/><path class="cls-3" d="M426.88,177.43l-66.31-26.51c-6-2.42-11.16,1-11.43,7.57l-.92,22.31c-.27,6.6,4.42,13.91,10.46,16.33l5.95,2.38c-1,2.22-3.16,4.19-7.66,4.44.7.33,1.4.64,2.1.91,7.08,2.84,13.69,2.86,18.19-.3L425,223.64c6.05,2.42,11.17-1,11.44-7.57l.91-22.31C437.61,187.16,432.93,179.85,426.88,177.43Z" transform="translate(-60.82 -53.23)"/><path class="cls-6" d="M369.78,176.6c-2.33-.94-4.3.36-4.41,2.9a6.94,6.94,0,0,0,4,6.29c2.32.92,4.3-.38,4.4-2.92A6.88,6.88,0,0,0,369.78,176.6Z" transform="translate(-60.82 -53.23)"/><path class="cls-6" d="M385.15,182.74c-2.33-.93-4.29.37-4.4,2.91a6.91,6.91,0,0,0,4,6.28c2.33.93,4.29-.37,4.4-2.91A6.91,6.91,0,0,0,385.15,182.74Z" transform="translate(-60.82 -53.23)"/><path class="cls-6" d="M400.53,188.89c-2.32-.93-4.29.37-4.4,2.91a6.91,6.91,0,0,0,4,6.28c2.33.93,4.29-.37,4.4-2.91A6.92,6.92,0,0,0,400.53,188.89Z" transform="translate(-60.82 -53.23)"/><path class="cls-6" d="M415.91,195c-2.32-.93-4.3.37-4.4,2.91a6.91,6.91,0,0,0,4,6.28c2.33.93,4.31-.37,4.41-2.91A6.91,6.91,0,0,0,415.91,195Z" transform="translate(-60.82 -53.23)"/><path class="cls-16" d="M190.28,415.8a7.89,7.89,0,0,0-6.94,3.82,5,5,0,0,0-4.54-4.83c-3.41-.3-7,2.5-8.05,6.27-1.13,4.09.76,7.34,2.55,9.72a29.72,29.72,0,0,0,2.67,3.1l2.68,2.69,4-2.1c.21-.11,2.13-1.13,4.21-2.49,3-2,6.55-4.73,7.68-8.82C195.6,419.4,193.69,416.1,190.28,415.8Z" transform="translate(-60.82 -53.23)"/><path class="cls-16" d="M340.56,105.73a7.91,7.91,0,0,1,6.94,3.82,5,5,0,0,1,4.54-4.83c3.4-.3,7,2.51,8,6.27,1.13,4.09-.76,7.35-2.55,9.73a31.72,31.72,0,0,1-2.67,3.09l-2.68,2.69-4-2.1c-.21-.11-2.13-1.12-4.21-2.48-3-2-6.55-4.73-7.68-8.82C335.24,109.33,337.15,106,340.56,105.73Z" transform="translate(-60.82 -53.23)"/><path class="cls-16" d="M91,234a5,5,0,0,0-4,5.3,8.18,8.18,0,0,0-7.53-2.8c-3.42.74-5,4.21-3.42,7.74,1.67,3.84,5.65,6.07,8.93,7.58,2.28,1,4.37,1.79,4.59,1.87l4.35,1.52,2.38-3a31.67,31.67,0,0,0,2.33-3.37c1.51-2.55,3-6,1.36-9.81C98.43,235.5,94.41,233.23,91,234Z" transform="translate(-60.82 -53.23)"/><path class="cls-16" d="M166.86,110.13a11.53,11.53,0,0,0-5.69,5.73c-.33-2-1.95-2.85-4.19-2-2.93,1.11-5.84,4.72-6.49,8.09a6,6,0,0,0,2.81,6.63,15.05,15.05,0,0,0,2.48,1.38l2.47,1.05,3.29-3.22c.18-.17,1.76-1.72,3.45-3.61,2.42-2.71,5.3-6.29,6-10C171.64,110.86,169.79,109,166.86,110.13Z" transform="translate(-60.82 -53.23)"/><path class="cls-16" d="M349.43,347.42a11.55,11.55,0,0,0-5.69,5.72c-.34-2-1.95-2.85-4.2-2-2.93,1.1-5.83,4.72-6.48,8.09a6,6,0,0,0,2.81,6.63,15.58,15.58,0,0,0,2.47,1.38l2.47,1.05,3.3-3.22c.17-.17,1.75-1.72,3.44-3.61,2.43-2.71,5.3-6.29,6-9.95C354.21,348.15,352.36,346.32,349.43,347.42Z" transform="translate(-60.82 -53.23)"/><path class="cls-9" d="M424.54,267.9a15.92,15.92,0,1,1-12.62-18.64A15.91,15.91,0,0,1,424.54,267.9Z" transform="translate(-60.82 -53.23)"/><path class="cls-17" d="M408.71,266a22.27,22.27,0,0,0-9.19.07,9.08,9.08,0,0,0,17.69,3.4A22.29,22.29,0,0,0,408.71,266Z" transform="translate(-60.82 -53.23)"/><path class="cls-16" d="M408.25,268.37a9,9,0,0,0-7.82,2.2,9.06,9.06,0,0,0,14.25,2.74A9,9,0,0,0,408.25,268.37Z" transform="translate(-60.82 -53.23)"/><polyline class="cls-18" points="342.36 204.19 344.63 206.32 341.71 207.58"/><polyline class="cls-18" points="356.19 206.85 353.3 207.99 355.54 210.24"/><path class="cls-9" d="M308,81.63a15.92,15.92,0,1,1,1.51-22.45A15.91,15.91,0,0,1,308,81.63Z" transform="translate(-60.82 -53.23)"/><path class="cls-17" d="M296.74,70.37a22.14,22.14,0,0,0-7.28-5.6,9.08,9.08,0,0,0,11.85,13.56A22.33,22.33,0,0,0,296.74,70.37Z" transform="translate(-60.82 -53.23)"/><path class="cls-16" d="M294.9,72a9,9,0,0,0-7.52-3.07,9.07,9.07,0,0,0,9.55,10.93A9.07,9.07,0,0,0,294.9,72Z" transform="translate(-60.82 -53.23)"/><polyline class="cls-18" points="236.82 7 237.29 10.07 234.22 9.27"/><polyline class="cls-18" points="246.09 17.6 243.1 16.72 243.48 19.88"/><path class="cls-9" d="M114.42,370.6a15.92,15.92,0,1,1-21.79-5.67A15.93,15.93,0,0,1,114.42,370.6Z" transform="translate(-60.82 -53.23)"/><path class="cls-17" d="M101.24,379.6a22.26,22.26,0,0,0-6.86,6.11,9.08,9.08,0,0,0,15.54-9.11A22.2,22.2,0,0,0,101.24,379.6Z" transform="translate(-60.82 -53.23)"/><path class="cls-16" d="M102.48,381.71a9.07,9.07,0,0,0-4.42,6.81,9.05,9.05,0,0,0,12.52-7.34A9,9,0,0,0,102.48,381.71Z" transform="translate(-60.82 -53.23)"/><polyline class="cls-18" points="30.63 323.59 33.74 323.7 32.38 326.58"/><polyline class="cls-18" points="42.78 316.47 41.36 319.24 44.53 319.45"/><path class="cls-19" d="M394.64,370.77a7.18,7.18,0,0,1-9.21-4.24l-14.54-39.36a7.18,7.18,0,0,1,4.24-9.21l39.36-14.54a7.18,7.18,0,0,1,9.21,4.25L438.24,347a7.18,7.18,0,0,1-4.24,9.21Z" transform="translate(-60.82 -53.23)"/><path class="cls-4" d="M433.75,348.68a2.38,2.38,0,0,1-1.41,3.07L393,366.29a2.39,2.39,0,0,1-3.07-1.41l-14.54-39.36a2.39,2.39,0,0,1,1.42-3.07l39.36-14.54a2.37,2.37,0,0,1,3.06,1.41Z" transform="translate(-60.82 -53.23)"/><path class="cls-9" d="M421,323.75a10.32,10.32,0,1,1-13.26-6.11A10.32,10.32,0,0,1,421,323.75Z" transform="translate(-60.82 -53.23)"/><path class="cls-20" d="M427.18,330.87l-9.29-6.62-9,36.15,23.42-8.65a2.38,2.38,0,0,0,1.41-3.07Z" transform="translate(-60.82 -53.23)"/><path class="cls-21" d="M393,366.29l33.85-12.5L390.14,327.6l-5.62,22.67,5.39,14.61A2.39,2.39,0,0,0,393,366.29Z" transform="translate(-60.82 -53.23)"/><path class="cls-14" d="M321,208.64h-2.18v-2.18a1.28,1.28,0,0,0-2.55,0v2.18h-2.18a1.28,1.28,0,0,0,0,2.55h2.18v2.18a1.28,1.28,0,1,0,2.55,0v-2.18H321a1.28,1.28,0,0,0,0-2.55Z" transform="translate(-60.82 -53.23)"/><path class="cls-22" d="M158.52,390h-2.18v-2.18a1.28,1.28,0,1,0-2.55,0V390h-2.18a1.27,1.27,0,0,0,0,2.54h2.18v2.19a1.28,1.28,0,0,0,2.55,0V392.5h2.18a1.27,1.27,0,0,0,0-2.54Z" transform="translate(-60.82 -53.23)"/><path class="cls-23" d="M266.32,336.44h-2.19v-2.18a1.27,1.27,0,1,0-2.54,0v2.18H259.4a1.28,1.28,0,0,0,0,2.55h2.19v2.18a1.27,1.27,0,1,0,2.54,0V339h2.19a1.28,1.28,0,0,0,0-2.55Z" transform="translate(-60.82 -53.23)"/><path class="cls-24" d="M74.78,301.05l-1.55-1.54L74.78,298a1.28,1.28,0,0,0-1.81-1.8l-1.54,1.55-1.54-1.55a1.29,1.29,0,0,0-1.8,0,1.27,1.27,0,0,0,0,1.8l1.54,1.55-1.54,1.54a1.27,1.27,0,1,0,1.8,1.8l1.54-1.54L73,302.85a1.27,1.27,0,0,0,1.8,0A1.29,1.29,0,0,0,74.78,301.05Z" transform="translate(-60.82 -53.23)"/><path class="cls-24" d="M402.67,399.86l-1.55-1.54,1.55-1.55a1.28,1.28,0,0,0-1.81-1.8l-1.54,1.55L397.78,395a1.29,1.29,0,0,0-1.8,0,1.27,1.27,0,0,0,0,1.8l1.54,1.55L396,399.86a1.27,1.27,0,0,0,1.8,1.8l1.54-1.54,1.55,1.54a1.27,1.27,0,0,0,1.8,0A1.29,1.29,0,0,0,402.67,399.86Z" transform="translate(-60.82 -53.23)"/><path class="cls-25" d="M66.86,208a2.77,2.77,0,1,1-2.77-2.77A2.77,2.77,0,0,1,66.86,208Z" transform="translate(-60.82 -53.23)"/><path class="cls-25" d="M155.38,288.78a4.3,4.3,0,1,1-4.29-4.29A4.29,4.29,0,0,1,155.38,288.78Z" transform="translate(-60.82 -53.23)"/><polygon class="cls-26" points="232.03 65.86 236.4 68.08 232.29 70.75 232.03 65.86"/><polygon class="cls-26" points="208.04 388.14 212.41 390.37 208.3 393.04 208.04 388.14"/><path class="cls-25" d="M64.69,116c3.89,0,3.89,3.66,7.78,3.66S76.36,116,80.26,116s3.9,3.66,7.79,3.66S91.94,116,95.84,116s3.9,3.66,7.79,3.66,3.9-3.66,7.8-3.66" transform="translate(-60.82 -53.23)"/><path class="cls-27" d="M385.58,134.81c3.88.19,3.71,3.85,7.59,4s4.07-3.46,8-3.27,3.71,3.85,7.6,4,4.07-3.46,8-3.27,3.71,3.86,7.6,4.05,4.08-3.47,8-3.28" transform="translate(-60.82 -53.23)"/><path class="cls-28" d="M325.16,288.78c3.89,0,3.89,3.66,7.79,3.66s3.89-3.66,7.78-3.66,3.9,3.66,7.79,3.66,3.9-3.66,7.79-3.66,3.9,3.66,7.8,3.66,3.89-3.66,7.79-3.66" transform="translate(-60.82 -53.23)"/></svg>