<svg width="24" height="24" viewBox="0 0 24 24" fill="none" xmlns="http://www.w3.org/2000/svg">
<path fill-rule="evenodd" clip-rule="evenodd" d="M7.75781 5.23002L12.0318 1.02002L16.2418 5.29502L14.8178 6.69802L13.0138 4.86802L12.9428 17.155C13.6088 17.3945 14.1688 17.8616 14.5237 18.4739C14.8787 19.0861 15.0059 19.8042 14.8827 20.5011C14.7596 21.198 14.3942 21.829 13.8509 22.2826C13.3076 22.7362 12.6215 22.9832 11.9138 22.98C11.2053 22.9776 10.5205 22.7245 9.98069 22.2656C9.4409 21.8066 9.08098 21.1714 8.96467 20.4725C8.84836 19.7736 8.98318 19.056 9.34525 18.447C9.70731 17.838 10.2732 17.3767 10.9428 17.145L11.0138 4.83002L9.16081 6.65602L7.75781 5.23002ZM11.9328 18.98C11.8015 18.9794 11.6713 19.0046 11.5497 19.0542C11.4282 19.1039 11.3176 19.177 11.2242 19.2694C11.1309 19.3618 11.0567 19.4716 11.0058 19.5927C10.955 19.7138 10.9285 19.8437 10.9278 19.975C10.9272 20.1063 10.9524 20.2365 11.002 20.3581C11.0517 20.4797 11.1248 20.5903 11.2172 20.6836C11.3096 20.7769 11.4194 20.8511 11.5405 20.902C11.6616 20.9528 11.7915 20.9794 11.9228 20.98C12.188 20.9813 12.4429 20.8773 12.6314 20.6907C12.8199 20.5041 12.9265 20.2502 12.9278 19.985C12.9291 19.7198 12.8251 19.4649 12.6385 19.2764C12.4519 19.088 12.198 18.9813 11.9328 18.98Z" fill="#9098AC" fill-opacity="0.5"/>
</svg>
