<svg width="602" height="388" viewBox="0 0 602 388" fill="none" xmlns="http://www.w3.org/2000/svg">
<g clip-path="url(#clip0_188_62)">
<path d="M316.531 368.728C476.508 347.184 604.292 315.582 601.943 298.144C599.595 280.705 468.004 284.034 308.026 305.579C148.049 327.123 20.2649 358.725 22.6133 376.163C24.9618 393.602 156.553 390.273 316.531 368.728Z" fill="#342447"/>
<path d="M590.93 238.53L588.93 263.31H564.37L563.48 239.92L558.99 240.26V247.26L548.75 259.18C549.806 259.654 550.704 260.422 551.337 261.392C551.969 262.361 552.311 263.492 552.32 264.65C552.303 265.82 551.96 266.962 551.329 267.948C550.698 268.934 549.805 269.724 548.75 270.23H586.02L585.8 281.17L534.68 283.17L524.68 240.09L590.93 235.63V238.53Z" fill="#1D1D1B" stroke="#1D1D1B" stroke-width="0.75" stroke-linecap="round" stroke-linejoin="round"/>
<path d="M505.24 244.36C505.24 244.36 509.91 236.13 518.84 237C527.77 237.87 534.24 249.69 536.02 262.86C537.8 276.03 536.02 306.61 536.02 306.61H521.02L505.24 244.36Z" fill="#487CEF"/>
<path d="M502.44 245.09H478.17C461.79 245.09 448.51 263.09 448.51 285.18C448.51 307.27 461.79 325.27 478.17 325.27H502.44C518.82 325.27 532.1 307.33 532.1 285.18C532.1 263.03 518.82 245.09 502.44 245.09Z" fill="#4F5151"/>
<path d="M502.44 325.27C486.05 325.27 472.77 307.33 472.77 285.18C472.77 263.03 486.05 245.09 502.44 245.09" stroke="#1D1D1B" stroke-width="0.75" stroke-linecap="round" stroke-linejoin="round"/>
<path d="M495.24 325.27C478.86 325.27 465.58 307.33 465.58 285.18" stroke="#1D1D1B" stroke-width="0.75" stroke-linecap="round" stroke-linejoin="round"/>
<path d="M484.25 325.27C467.86 325.27 454.58 307.33 454.58 285.18" stroke="#1D1D1B" stroke-width="0.75" stroke-linecap="round" stroke-linejoin="round"/>
<path d="M502.44 305.23C510.63 305.23 517.27 296.253 517.27 285.18C517.27 274.107 510.63 265.13 502.44 265.13C494.249 265.13 487.61 274.107 487.61 285.18C487.61 296.253 494.249 305.23 502.44 305.23Z" fill="#E2EDF4"/>
<path d="M508.81 285.18C508.81 289.94 505.96 293.8 502.44 293.8C498.92 293.8 496.06 289.94 496.06 285.18C496.06 280.42 498.92 276.57 502.44 276.57C505.96 276.57 508.81 280.43 508.81 285.18Z" fill="#4F5151"/>
<path d="M332.91 203.05L482.44 198.58L483.57 245.9L490.27 252.38L457.9 256.17L457.68 298.8L452.1 297.46V303.49L341.39 319.78L338.94 312.64H332.91L330.9 257.28L332.91 203.05Z" fill="#3D3D3F"/>
<path d="M594.29 195.23L337.15 203.05L335.81 257.28L357.88 255.63V281.2L431.79 272.71V249.96L423.89 250.57L593.39 237.63L594.29 195.23ZM404.78 241.63C404.78 241.026 404.899 240.428 405.13 239.87C405.361 239.312 405.7 238.804 406.127 238.377C406.554 237.95 407.062 237.611 407.62 237.38C408.178 237.149 408.776 237.03 409.38 237.03H411.78C413.001 237.03 414.172 237.514 415.036 238.377C415.901 239.239 416.387 240.409 416.39 241.63V242.63C416.387 243.851 415.901 245.021 415.036 245.883C414.172 246.746 413.001 247.23 411.78 247.23H409.38C408.16 247.23 406.99 246.745 406.127 245.883C405.265 245.02 404.78 243.85 404.78 242.63V241.63ZM357.01 246.87C357.01 248.091 356.526 249.262 355.663 250.126C354.801 250.99 353.631 251.477 352.41 251.48H350.01C348.789 251.477 347.619 250.99 346.757 250.126C345.894 249.262 345.41 248.091 345.41 246.87V245.81C345.41 245.206 345.529 244.608 345.76 244.05C345.991 243.492 346.33 242.984 346.757 242.557C347.185 242.13 347.692 241.791 348.25 241.56C348.808 241.329 349.406 241.21 350.01 241.21H352.41C353.014 241.21 353.612 241.329 354.17 241.56C354.728 241.791 355.236 242.13 355.663 242.557C356.09 242.984 356.429 243.492 356.66 244.05C356.891 244.608 357.01 245.206 357.01 245.81V246.87ZM471.29 239.09C471.29 239.694 471.171 240.292 470.94 240.85C470.709 241.408 470.37 241.916 469.943 242.343C469.516 242.77 469.008 243.109 468.45 243.34C467.892 243.571 467.294 243.69 466.69 243.69H464.29C463.686 243.69 463.088 243.571 462.53 243.34C461.972 243.109 461.465 242.77 461.037 242.343C460.61 241.916 460.271 241.408 460.04 240.85C459.809 240.292 459.69 239.694 459.69 239.09V238.03C459.69 236.81 460.175 235.64 461.037 234.777C461.9 233.915 463.07 233.43 464.29 233.43H466.69C467.294 233.43 467.892 233.549 468.45 233.78C469.008 234.011 469.516 234.35 469.943 234.777C470.37 235.204 470.709 235.712 470.94 236.27C471.171 236.828 471.29 237.426 471.29 238.03V239.09Z" fill="#A3BCFF"/>
<path d="M240.5 16.6702L332.91 13.9902V203.05L136.63 205.5L206.93 20.0202L240.5 16.6702Z" fill="#583D71"/>
<path d="M223.33 62.6299C223.33 62.6299 261.48 64.8499 268.4 66.6299C275.32 68.4099 289.97 76.8399 292.91 87.6899L209.03 81.7999L203.74 65.0599L223.33 62.6299Z" fill="#3D3D3F"/>
<path d="M212.51 70.1102L241.73 63.8802L223.33 62.6602L209.03 68.6802L212.51 70.1102Z" fill="#1D1D1B"/>
<path d="M332.91 13.9902L596.4 55.5102L598.08 195.12L332.91 203.05V13.9902Z" fill="#342447"/>
<path d="M332.91 203.05L330.9 257.28L286.4 252.38L289.83 203.94L332.91 203.05Z" fill="#487CEF"/>
<path d="M330.9 257.28L332.91 312.64L283.11 304.83L286.4 252.38L330.9 257.28Z" fill="#4F5151"/>
<path d="M332.91 312.64H338.94L341.39 319.78L286.4 309.07L283.11 304.83L332.91 312.64Z" fill="#1D1D1B" stroke="#1D1D1B" stroke-width="0.75" stroke-linecap="round" stroke-linejoin="round"/>
<path d="M336.64 223.81L593.92 212.64" stroke="#1D1D1B" stroke-width="0.75" stroke-linecap="round" stroke-linejoin="round"/>
<path d="M452.1 297.46V248.42L483.57 245.9L486.46 248.69L454.96 251.26L453.94 297.9L452.1 297.46Z" fill="#1D1D1B" stroke="#1D1D1B" stroke-width="0.75" stroke-linecap="round" stroke-linejoin="round"/>
<path d="M296.75 252.63C296.75 252.63 313.82 256.63 318.85 280.02C323.88 303.41 320.02 320.63 320.02 320.63L244.79 303.47L251.21 262.38L285.55 248.69L296.75 252.63Z" fill="#487CEF"/>
<path d="M277.6 271.22H248.04C228.04 271.22 211.9 291.47 211.9 316.45C211.9 341.43 228.08 361.69 248.04 361.69H277.6C297.6 361.69 313.75 341.44 313.75 316.45C313.75 291.46 297.55 271.22 277.6 271.22Z" fill="#4F5151"/>
<path d="M277.6 361.69C257.6 361.69 241.46 341.44 241.46 316.45C241.46 291.46 257.64 271.22 277.6 271.22" stroke="#1D1D1B" stroke-width="0.75" stroke-linecap="round" stroke-linejoin="round"/>
<path d="M268.84 361.69C248.84 361.69 232.7 341.44 232.7 316.45" stroke="#1D1D1B" stroke-width="0.75" stroke-linecap="round" stroke-linejoin="round"/>
<path d="M255.44 361.69C235.44 361.69 219.3 341.44 219.3 316.45" stroke="#1D1D1B" stroke-width="0.75" stroke-linecap="round" stroke-linejoin="round"/>
<path d="M277.61 339.07C287.59 339.07 295.68 328.943 295.68 316.45C295.68 303.957 287.59 293.83 277.61 293.83C267.63 293.83 259.54 303.957 259.54 316.45C259.54 328.943 267.63 339.07 277.61 339.07Z" fill="#E2EDF4"/>
<path d="M277.61 326.17C281.901 326.17 285.38 321.818 285.38 316.45C285.38 311.082 281.901 306.73 277.61 306.73C273.319 306.73 269.84 311.082 269.84 316.45C269.84 321.818 273.319 326.17 277.61 326.17Z" fill="#4F5151"/>
<path d="M134.4 242.22C134.4 242.22 151.47 246.22 156.5 269.62C161.53 293.02 157.67 310.3 157.67 310.3L82.4399 293.14L88.8599 252.04L123.18 238.32L134.4 242.22Z" fill="#9D4747"/>
<path d="M115.25 260.85H85.69C65.69 260.85 49.55 281.1 49.55 306.08C49.55 331.06 65.73 351.31 85.69 351.31H115.25C135.25 351.31 151.4 331.06 151.4 306.08C151.4 281.1 135.21 260.85 115.25 260.85Z" fill="#4F5151"/>
<path d="M115.25 351.31C95.2501 351.31 79.1101 331.06 79.1101 306.08C79.1101 281.1 95.2901 260.85 115.25 260.85" stroke="#1D1D1B" stroke-width="0.75" stroke-linecap="round" stroke-linejoin="round"/>
<path d="M106.49 351.31C86.4901 351.31 70.3501 331.06 70.3501 306.08" stroke="#1D1D1B" stroke-width="0.75" stroke-linecap="round" stroke-linejoin="round"/>
<path d="M93.09 351.31C73.09 351.31 56.95 331.06 56.95 306.08" stroke="#1D1D1B" stroke-width="0.75" stroke-linecap="round" stroke-linejoin="round"/>
<path d="M115.26 328.7C125.24 328.7 133.33 318.573 133.33 306.08C133.33 293.587 125.24 283.46 115.26 283.46C105.28 283.46 97.1899 293.587 97.1899 306.08C97.1899 318.573 105.28 328.7 115.26 328.7Z" fill="#E2EDF4"/>
<path d="M115.26 315.8C119.551 315.8 123.03 311.448 123.03 306.08C123.03 300.712 119.551 296.36 115.26 296.36C110.969 296.36 107.49 300.712 107.49 306.08C107.49 311.448 110.969 315.8 115.26 315.8Z" fill="#4F5151"/>
<path d="M21.8 109.44H3.42C1.53119 109.44 0 110.971 0 112.86V174.05C0 175.939 1.53119 177.47 3.42 177.47H21.8C23.6888 177.47 25.22 175.939 25.22 174.05V112.86C25.22 110.971 23.6888 109.44 21.8 109.44Z" fill="#3D3D3F"/>
<path d="M22.76 112.42V173.5C22.5177 174.305 22.0131 175.007 21.3263 175.492C20.6396 175.978 19.8101 176.22 18.97 176.18" stroke="#1D1D1B" stroke-width="0.75" stroke-linecap="round" stroke-linejoin="round"/>
<path d="M17.02 267.94L8.69995 260.85L11.4399 177.38L25.78 105.28H16.1799V95.2802L31.3599 76.0802H35.8199C35.8199 76.0802 72.43 31.4402 92.07 13.5802C92.07 13.5802 196.31 -0.479833 250.54 0.410167L255.68 6.41017V49.0302L209.03 68.6802L216.62 71.8002L219.07 82.0702L300.57 88.3202L304.57 95.6802L312.38 232.73L310.38 240.32H294.98C294.98 240.32 299.67 248.13 299.67 249.92C299.67 251.71 296.77 252.6 296.77 252.6C296.77 252.6 282.04 249.25 266.86 259.96C251.68 270.67 246.99 287.19 245.21 300.36C243.43 313.53 242.31 337.19 242.31 337.19H215.95L17.02 267.94Z" fill="#A3BCFF"/>
<path d="M204.46 99.9199H254.23C256.975 99.9199 259.608 101.01 261.549 102.951C263.49 104.892 264.58 107.525 264.58 110.27V165.27C264.58 167.487 263.699 169.614 262.131 171.181C260.564 172.749 258.437 173.63 256.22 173.63H204.46V99.9199Z" fill="#B4D3F3"/>
<path d="M195.68 276.37L191.24 274.58L194.81 265.75V168.76H199.6V266.68L195.68 276.37Z" fill="#3D3D3F"/>
<path d="M195.68 276.37L199.6 266.68V168.76" stroke="#1D1D1B" stroke-width="0.75" stroke-linecap="round" stroke-linejoin="round"/>
<path d="M27.79 105.06L187.83 99.9199V168.76L181.35 174.92L21.99 178.27L16.77 175.15L15.96 168.76L27.79 105.06Z" fill="#B4D3F3"/>
<path d="M184.92 163.98C183.424 163.588 181.904 163.294 180.37 163.1C179.301 159.987 177.301 157.277 174.642 155.338C171.983 153.398 168.792 152.321 165.502 152.253C162.211 152.186 158.978 153.13 156.242 154.959C153.505 156.788 151.396 159.414 150.2 162.48C140.32 164.28 113.72 171.57 113.72 171.57C113.72 171.57 40.06 172.02 31.57 172.91C23.08 173.8 20.49 177.38 20.49 177.38L21.98 178.27L150.81 175.56L155.22 175.47L175.42 175.05L179.82 174.95H181.35L187.82 168.79C187.82 168.79 190.06 165.55 184.92 163.98ZM154.74 161.98C155.868 160.14 157.462 158.63 159.362 157.604C161.262 156.579 163.399 156.074 165.557 156.141C167.714 156.208 169.816 156.844 171.648 157.986C173.481 159.127 174.979 160.733 175.99 162.64C168.932 161.909 161.831 161.672 154.74 161.93V161.98Z" fill="#8E8E8E"/>
<path d="M150.2 162.48L154.74 161.93L175.99 162.59L180.37 163.1" stroke="#1D1D1B" stroke-width="0.75" stroke-linecap="round" stroke-linejoin="round"/>
<path d="M22.3701 175.78L180.37 172.91L186.26 166.44" stroke="#1D1D1B" stroke-width="0.75" stroke-linecap="round" stroke-linejoin="round"/>
<path d="M44.3101 177.38H64.4801L115.65 102.24L96.5601 102.8L44.3101 177.38Z" fill="#F5FAFF"/>
<path d="M68.73 177.38H76.31L127.47 102.24L120.98 102.8L68.73 177.38Z" fill="#F5FAFF"/>
<path d="M20.9301 268.1L12.6101 259.52L14.8401 189.21L19.0801 177.38" stroke="#1D1D1B" stroke-width="0.75" stroke-linecap="round" stroke-linejoin="round"/>
<path d="M25.78 105.28L196.2 99.0298V103.72L24.98 109.32L25.78 105.28Z" fill="#1D1D1B" stroke="#1D1D1B" stroke-width="0.75" stroke-linecap="round" stroke-linejoin="round"/>
<path d="M35.8201 76.0402C35.8201 76.0402 183.58 68.9002 186.71 69.1202C189.84 69.3402 219.07 82.0702 219.07 82.0702L223.31 91.6702" stroke="#1D1D1B" stroke-width="0.75" stroke-linecap="round" stroke-linejoin="round"/>
<path d="M196.2 99.03L204.46 90.77L304.56 95.68" stroke="#1D1D1B" stroke-width="0.75" stroke-linecap="round" stroke-linejoin="round"/>
<path d="M196.19 103.72L204.45 94.8999C204.45 94.8999 255.68 97.2499 259.7 97.6899C263.72 98.1299 267.7 102.6 267.95 111.53C268.2 120.46 273.09 240.53 273.09 240.53" stroke="#1D1D1B" stroke-width="0.75" stroke-linecap="round" stroke-linejoin="round"/>
<path d="M294.96 240.32L246.31 240.55L239.39 243.44L232.63 271.21L241.4 247.24L248.09 243.22L296.51 243.01L294.96 240.32Z" fill="#1D1D1B" stroke="#1D1D1B" stroke-width="0.75" stroke-linecap="round" stroke-linejoin="round"/>
<path d="M169.38 175.78L171.09 189.74L172.65 267.94L177.22 274.47" stroke="#1D1D1B" stroke-width="0.75" stroke-linecap="round" stroke-linejoin="round"/>
<path d="M11.1001 187.89L14.8401 189.21L171.09 189.74L309.82 187.89" stroke="#1D1D1B" stroke-width="0.75" stroke-linecap="round" stroke-linejoin="round"/>
<path d="M10.3701 209.96L13.8301 211.3L171.53 212.19L310.96 207.96" stroke="#1D1D1B" stroke-width="0.75" stroke-linecap="round" stroke-linejoin="round"/>
<path d="M186.71 69.1201C186.76 65.3955 187.556 61.7188 189.053 58.3075C190.549 54.8962 192.714 51.8197 195.42 49.2601C204.55 40.7701 250.55 0.370117 250.55 0.370117" stroke="#1D1D1B" stroke-width="0.75" stroke-linecap="round" stroke-linejoin="round"/>
<path d="M200.55 172.91L211.93 196.13C211.93 196.13 207.24 198.13 208.81 202.82C210.38 207.51 220.41 210.82 222.87 207.73C225.33 204.64 224.65 196.57 222.87 195.68C221.09 194.79 216.17 194.79 216.17 194.79L205.55 172.91H200.55Z" fill="#3D3D3F"/>
<path d="M200.55 172.91L201.96 175.78H206.93L205.53 172.91H200.55Z" fill="#1D1D1B" stroke="#1D1D1B" stroke-width="0.75" stroke-linecap="round" stroke-linejoin="round"/>
<path d="M216.17 194.79H213.72V189.74L216.17 194.79Z" fill="#1D1D1B" stroke="#1D1D1B" stroke-width="0.75" stroke-linecap="round" stroke-linejoin="round"/>
<path d="M221.55 197.24C221.55 197.24 223.18 203.74 220.69 208.86" stroke="#1D1D1B" stroke-width="0.75" stroke-linecap="round" stroke-linejoin="round"/>
<path d="M205.39 101.71H187.01C185.121 101.71 183.59 103.241 183.59 105.13V169.49C183.59 171.379 185.121 172.91 187.01 172.91H205.39C207.279 172.91 208.81 171.379 208.81 169.49V105.13C208.81 103.241 207.279 101.71 205.39 101.71Z" fill="#3D3D3F"/>
<path d="M206.35 104.83V168.76C206.124 169.585 205.628 170.311 204.941 170.82C204.254 171.33 203.415 171.594 202.56 171.57" stroke="#1D1D1B" stroke-width="0.75" stroke-linecap="round" stroke-linejoin="round"/>
<path d="M136.759 213.446L33.2484 211.422C30.7691 211.374 28.72 213.344 28.6715 215.824L27.7995 260.425C27.7511 262.904 29.7216 264.954 32.2009 265.002L135.711 267.026C138.19 267.074 140.24 265.104 140.288 262.624L141.16 218.023C141.208 215.543 139.238 213.494 136.759 213.446Z" fill="#4F5151"/>
<path d="M131.55 260.63L35.76 259.04C35.1949 259.031 34.6372 258.91 34.1188 258.685C33.6005 258.46 33.1318 258.134 32.7397 257.727C32.3475 257.32 32.0397 256.84 31.8338 256.313C31.6279 255.787 31.5281 255.225 31.54 254.66L32.21 220.38C32.2337 219.241 32.7081 218.159 33.5293 217.369C34.3505 216.58 35.4512 216.149 36.59 216.17L132.38 217.76C133.52 217.784 134.604 218.258 135.394 219.079C136.185 219.9 136.619 221 136.6 222.14L135.93 256.42C135.906 257.559 135.432 258.642 134.611 259.431C133.79 260.22 132.689 260.652 131.55 260.63Z" stroke="#1D1D1B" stroke-width="0.75" stroke-linecap="round" stroke-linejoin="round"/>
<path d="M32.1101 227.37L136.49 229.39" stroke="#1D1D1B" stroke-width="0.75" stroke-linecap="round" stroke-linejoin="round"/>
<path d="M32.1101 237.42L136.27 240.55" stroke="#1D1D1B" stroke-width="0.75" stroke-linecap="round" stroke-linejoin="round"/>
<path d="M31.72 247.24L136.08 250.16" stroke="#1D1D1B" stroke-width="0.75" stroke-linecap="round" stroke-linejoin="round"/>
<path d="M296.62 104.54L276.93 104.93C276.287 104.942 275.653 105.08 275.064 105.339C274.475 105.597 273.942 105.969 273.498 106.434C273.054 106.899 272.706 107.447 272.474 108.047C272.243 108.647 272.133 109.287 272.15 109.93L273.15 158.52L299.34 105.3C298.527 104.786 297.581 104.522 296.62 104.54Z" fill="#B4D3F3"/>
<path d="M274.64 172.08C275.106 172.587 275.674 172.99 276.306 173.262C276.939 173.534 277.621 173.67 278.31 173.66L298 173.26C298.643 173.249 299.277 173.11 299.866 172.852C300.455 172.593 300.987 172.221 301.432 171.756C301.876 171.291 302.224 170.743 302.456 170.143C302.687 169.543 302.797 168.903 302.78 168.26L301.78 116.97L274.64 172.08Z" fill="#B4D3F3"/>
<path d="M301.6 109.32C301.578 108.516 301.358 107.73 300.958 107.032C300.559 106.334 299.992 105.746 299.31 105.32L273.12 158.54L273.33 168.91C273.352 170.106 273.819 171.25 274.64 172.12L301.76 117.03L301.6 109.32Z" fill="#F5FAFF"/>
<path d="M272.15 109.91L273.33 168.91C273.33 168.91 273.72 173.79 278.33 173.7C282.94 173.61 299.33 173.7 299.33 173.7" stroke="#1D1D1B" stroke-width="0.75" stroke-linecap="round" stroke-linejoin="round"/>
<path d="M2.62012 325.03V277.63L5.13012 273.45L176.39 281.63L237.82 280.96L235.48 333.86C235.48 333.86 206.18 341.39 200.32 341.39C194.46 341.39 8.70012 329.38 8.70012 329.38L2.62012 325.03Z" fill="#3D3D3F"/>
<path d="M192.915 293.065L142.215 292.051C139.757 292.002 137.725 293.954 137.676 296.412L137.352 312.622C137.303 315.08 139.255 317.112 141.713 317.161L192.413 318.175C194.871 318.224 196.903 316.272 196.952 313.814L197.276 297.604C197.325 295.146 195.373 293.114 192.915 293.065Z" fill="#FFD367"/>
<path d="M164.42 311.816C168.609 309.967 170.506 305.073 168.658 300.885C166.809 296.696 161.915 294.799 157.727 296.647C153.538 298.495 151.64 303.389 153.489 307.578C155.337 311.767 160.231 313.664 164.42 311.816Z" fill="#F5FAFF"/>
<path d="M149.79 310.6C153.441 310.6 156.4 307.64 156.4 303.99C156.4 300.339 153.441 297.38 149.79 297.38C146.139 297.38 143.18 300.339 143.18 303.99C143.18 307.64 146.139 310.6 149.79 310.6Z" stroke="#1D1D1B" stroke-miterlimit="10"/>
<path d="M194.91 295.91L194.54 314.83" stroke="#1D1D1B" stroke-width="0.75" stroke-linecap="round" stroke-linejoin="round"/>
<path d="M140.75 316.96L193.51 317.91" stroke="#1D1D1B" stroke-width="0.75" stroke-linecap="round" stroke-linejoin="round"/>
<path d="M2.36777 282.622L21.1642 282.989C22.368 283.013 23.5132 283.513 24.3478 284.381C25.1824 285.249 25.6381 286.413 25.6146 287.617L25.3605 300.614C25.3369 301.818 24.8361 302.963 23.9682 303.798C23.1003 304.633 21.9365 305.088 20.7326 305.065L1.93619 304.697L2.36816 282.602L2.36777 282.622Z" fill="#FFD367"/>
<path d="M21.86 293.21C21.77 297.78 19.2 301.44 16.13 301.38C13.06 301.32 10.63 297.56 10.72 292.99C10.81 288.42 13.38 284.75 16.45 284.81C19.52 284.87 21.95 288.63 21.86 293.21Z" fill="#F5FAFF"/>
<path d="M13.1399 293.04C13.0699 296.69 11.0199 299.61 8.56988 299.56C6.11988 299.51 4.17988 296.51 4.24988 292.86C4.31988 289.21 6.36988 286.29 8.82989 286.34C11.2899 286.39 13.2099 289.38 13.1399 293.04Z" stroke="#1D1D1B" stroke-miterlimit="10"/>
<path d="M25.6301 287.41L25.3701 300.81" stroke="#1D1D1B" stroke-width="0.75" stroke-linecap="round" stroke-linejoin="round"/>
<path d="M1.94995 304.71L20.93 305.08" stroke="#1D1D1B" stroke-width="0.75" stroke-linecap="round" stroke-linejoin="round"/>
<path d="M108.152 287.699L58.7815 286.733L58.3495 308.829L107.72 309.794L108.152 287.699Z" fill="#B4D3F3"/>
<path d="M58.3601 308.82L107.74 309.78L108.17 287.69" stroke="#1D1D1B" stroke-width="0.75" stroke-linecap="round" stroke-linejoin="round"/>
<path d="M104.761 290.303L61.9087 289.465L61.601 305.202L104.453 306.04L104.761 290.303Z" stroke="#1D1D1B" stroke-width="0.75" stroke-linecap="round" stroke-linejoin="round"/>
<path d="M6.46997 275.48L174.88 284.51L234.81 283.68L232.8 331.56" stroke="#1D1D1B" stroke-width="0.75" stroke-linecap="round" stroke-linejoin="round"/>
<path d="M5.12988 273.47L17.0199 267.94L177.22 274.47L232.63 271.21L237.82 281L176.39 281.67L5.12988 273.47Z" fill="#1D1D1B" stroke="#1D1D1B" stroke-width="0.75" stroke-linecap="round" stroke-linejoin="round"/>
<path d="M2.62012 325.03L200.55 337.19L228.67 331.56" stroke="#1D1D1B" stroke-width="0.75" stroke-linecap="round" stroke-linejoin="round"/>
<path d="M216.62 71.7998L209.03 68.6798L255.68 49.0298" stroke="#1D1D1B" stroke-width="0.75" stroke-linecap="round" stroke-linejoin="round"/>
<path d="M357.88 255.6L431.79 249.97" stroke="#1D1D1B" stroke-width="0.75" stroke-linecap="round" stroke-linejoin="round"/>
<path d="M336.64 226.93L429.33 222.91" stroke="#1D1D1B" stroke-width="0.75" stroke-linecap="round" stroke-linejoin="round"/>
<path d="M359.25 255.5V281.01" stroke="#1D1D1B" stroke-width="0.75" stroke-linecap="round" stroke-linejoin="round"/>
<path d="M336.64 312.3L332.91 255.76L334.77 203.05" stroke="#1D1D1B" stroke-width="0.75" stroke-linecap="round" stroke-linejoin="round"/>
<path d="M332.91 15.1099V203.05" stroke="#1D1D1B" stroke-width="0.75" stroke-linecap="round" stroke-linejoin="round"/>
<path d="M334.77 32.7402L596.57 69.1202" stroke="#1D1D1B" stroke-width="0.75" stroke-linecap="round" stroke-linejoin="round"/>
<path d="M332.91 187.89L598.08 183.63" stroke="#1D1D1B" stroke-width="0.75" stroke-linecap="round" stroke-linejoin="round"/>
</g>
<defs>
<clipPath id="clip0_188_62">
<rect width="601.96" height="387.36" fill="white"/>
</clipPath>
</defs>
</svg>
